<?xml version="1.0" standalone="no"?>
<!DOCTYPE svg PUBLIC "-//W3C//DTD SVG 20010904//EN"
 "http://www.w3.org/TR/2001/REC-SVG-20010904/DTD/svg10.dtd">
<svg version="1.0" xmlns="http://www.w3.org/2000/svg"
 width="1984.000000pt" height="1488.000000pt" viewBox="0 0 1984.000000 1488.000000"
 preserveAspectRatio="xMidYMid meet">

<g transform="translate(0.000000,1488.000000) scale(0.100000,-0.100000)"
fill="#000000" stroke="none">
<path d="M10977 9061 c3 -10 -1 -22 -8 -26 -7 -5 -10 -4 -6 1 3 6 1 16 -4 24
-8 12 -12 12 -16 3 -2 -7 -11 -13 -18 -13 -7 0 -29 -18 -48 -39 -19 -22 -38
-37 -40 -34 -6 5 -42 -17 -106 -65 -24 -18 -64 -42 -90 -53 -81 -36 -94 -43
-161 -93 -36 -27 -137 -86 -225 -131 -88 -45 -194 -100 -235 -122 -115 -61
-206 -107 -305 -153 -49 -24 -112 -53 -139 -66 -28 -13 -54 -24 -59 -24 -4 0
-52 -25 -104 -55 -53 -30 -99 -55 -103 -55 -4 0 -14 -7 -21 -17 -8 -9 -33 -24
-55 -35 -23 -10 -47 -25 -54 -33 -7 -8 -16 -15 -21 -15 -5 0 -31 -15 -57 -32
-69 -47 -85 -57 -107 -67 -11 -5 -29 -17 -41 -28 -22 -19 -43 -34 -87 -58 -30
-17 -172 -26 -197 -13 -47 24 -98 41 -122 39 -23 -2 -148 45 -210 80 -10 5
-25 9 -33 9 -21 0 -102 37 -110 50 -3 5 -16 10 -28 10 -11 0 -33 12 -48 26
-29 28 -49 40 -116 74 -24 11 -43 24 -43 29 0 5 -13 14 -30 20 -16 5 -30 7
-30 4 0 -3 -6 -1 -13 5 -7 6 -35 16 -61 22 -27 6 -68 19 -91 30 -23 11 -63 24
-87 29 -25 6 -58 15 -74 21 -16 6 -31 11 -34 11 -3 0 -12 6 -20 13 -37 30 -69
40 -85 26 -8 -7 -18 -10 -22 -7 -3 4 2 9 11 13 14 6 14 9 -6 28 -13 12 -36 28
-53 36 -16 8 -37 19 -45 26 -8 6 -33 17 -55 24 -22 7 -45 17 -51 21 -18 14
-44 -1 -44 -25 -1 -21 -1 -21 -15 -1 -14 17 -13 20 5 30 20 11 20 12 3 26 -31
26 -71 42 -85 34 -7 -5 -10 -4 -5 0 8 9 -57 44 -83 45 -9 0 -27 7 -40 17 -14
9 -19 10 -12 3 16 -18 15 -30 -2 -30 -8 0 -16 10 -18 23 -2 14 -11 23 -26 25
-12 2 -20 8 -17 13 4 5 1 9 -4 9 -6 0 -11 -4 -11 -10 0 -5 -5 -10 -11 -10 -5
0 -7 5 -4 10 7 11 -28 14 -38 4 -3 -4 -42 -8 -86 -10 -71 -2 -79 -1 -74 14 6
15 5 15 -11 2 -10 -8 -23 -15 -30 -16 -51 -9 -118 -28 -155 -45 -24 -10 -50
-19 -58 -19 -8 0 -42 -11 -76 -24 -34 -13 -91 -31 -127 -41 -134 -37 -194 -56
-207 -66 -7 -6 -13 -8 -13 -4 0 4 -6 3 -12 -3 -7 -5 -37 -17 -67 -26 -30 -9
-69 -25 -88 -36 -19 -11 -42 -20 -51 -20 -9 -1 -35 -9 -57 -20 -22 -11 -49
-19 -60 -20 -12 0 -25 -4 -30 -9 -32 -28 -113 -41 -268 -41 -161 0 -216 -9
-304 -47 -39 -17 -167 -65 -170 -64 -3 1 -13 -3 -97 -34 -37 -14 -74 -25 -82
-25 -7 0 -39 -11 -69 -26 -31 -14 -68 -27 -83 -30 -82 -14 -155 -27 -217 -40
-81 -16 -132 -21 -303 -29 -91 -5 -141 -13 -195 -31 -75 -25 -82 -28 -157 -62
-25 -11 -56 -23 -70 -27 -32 -10 -91 -47 -109 -69 -7 -9 -17 -16 -21 -16 -4 0
-40 -22 -81 -49 -40 -27 -76 -49 -80 -48 -19 6 -272 -175 -328 -235 -20 -21
-44 -38 -53 -38 -9 0 -47 -11 -85 -25 -85 -30 -289 -84 -368 -97 -33 -6 -64
-16 -68 -24 -9 -16 -37 -19 -37 -3 0 6 -5 7 -12 2 -7 -4 -19 -8 -26 -9 -8 -2
-28 -9 -45 -17 -18 -9 -44 -18 -59 -22 -15 -4 -32 -13 -39 -21 -6 -8 -19 -14
-28 -14 -9 0 -27 -7 -39 -16 -12 -8 -22 -12 -22 -8 0 4 -8 1 -17 -8 -22 -17
-87 -49 -338 -163 -61 -28 -184 -66 -257 -81 -5 -1 -9 -2 -10 -4 -2 -1 -10 -3
-18 -5 -18 -3 -119 -50 -140 -65 -73 -49 -358 -142 -480 -156 -25 -3 -54 -9
-65 -14 -30 -13 -161 -50 -177 -50 -7 0 -24 -6 -38 -13 -15 -8 -48 -17 -75
-20 -77 -11 -428 -125 -462 -150 -10 -7 -13 -274 -13 -1273 0 -694 3 -1265 8
-1268 4 -2 27 -1 50 4 37 6 45 5 55 -11 16 -25 62 -24 88 2 28 28 70 22 87
-13 7 -16 17 -28 21 -28 5 0 7 -13 5 -30 -3 -26 0 -30 21 -30 14 0 25 -4 25
-8 0 -5 19 -15 41 -22 23 -8 37 -16 31 -18 -6 -2 -8 -10 -5 -18 6 -17 133 -21
133 -4 0 6 -4 10 -10 10 -15 0 -12 36 5 50 11 9 19 10 28 1 10 -8 17 -7 25 1
19 19 14 34 -15 47 -23 11 -29 10 -40 -5 -8 -10 -18 -14 -30 -10 -17 7 -17 8
0 17 30 17 20 32 -17 26 -39 -6 -72 12 -63 35 6 16 42 25 135 35 32 3 52 1 52
-5 0 -14 52 -24 84 -16 18 4 26 13 26 28 0 28 11 43 35 47 16 4 20 12 19 44
-1 40 -1 40 40 42 22 1 45 -2 51 -6 13 -11 112 -5 148 8 16 6 52 11 80 12 43
0 48 2 29 10 -13 5 -22 14 -20 20 2 6 6 10 8 9 37 -7 50 -15 50 -27 0 -13 10
-14 53 -9 60 8 320 -9 535 -35 89 -10 114 -2 104 34 -6 22 36 70 55 63 7 -3
13 0 13 8 0 18 47 56 71 56 11 0 29 -5 40 -10 13 -7 25 -7 38 -1 23 13 36 2
16 -13 -13 -9 -10 -16 18 -47 18 -20 40 -38 47 -41 9 -3 15 -20 16 -44 2 -77
44 -107 108 -76 16 8 43 12 62 9 18 -3 35 -3 38 1 4 3 34 5 67 4 53 -1 63 2
82 24 12 14 35 26 52 28 24 3 29 8 27 25 -3 17 2 21 23 21 14 0 24 4 20 9 -3
6 4 15 16 22 19 10 25 9 36 -7 7 -9 16 -14 20 -11 3 4 -2 13 -12 21 -24 18
-13 33 30 38 25 3 35 0 35 -10 0 -10 6 -12 18 -7 9 5 33 10 52 12 19 2 45 9
57 15 27 13 53 4 53 -19 0 -10 8 -23 18 -29 16 -11 18 -9 14 17 -3 22 0 29 12
29 9 0 13 6 10 14 -4 10 9 15 46 20 54 7 96 37 86 61 -3 8 3 17 15 20 15 5 17
10 9 20 -11 14 -4 45 12 45 5 0 6 9 3 20 -5 16 -2 20 19 20 16 0 26 -6 26 -15
0 -8 5 -15 10 -15 6 0 10 4 10 9 0 12 35 8 72 -7 17 -7 28 -19 28 -31 0 -11 8
-25 18 -30 9 -6 13 -11 8 -11 -6 0 0 -10 13 -21 13 -13 21 -29 18 -40 -3 -10
1 -20 9 -23 8 -3 14 -12 14 -19 0 -16 104 -32 132 -22 9 4 30 -1 47 -9 38 -20
65 -20 81 -1 7 8 25 15 41 15 20 0 41 12 71 43 55 55 83 90 80 100 -1 4 5 7
13 7 8 0 20 9 27 20 15 24 28 26 28 5 0 -8 5 -15 10 -15 6 0 10 8 10 19 0 22
116 97 123 78 5 -17 27 2 27 24 0 11 4 18 9 15 5 -3 11 0 14 8 3 8 19 17 35
21 17 3 38 15 48 26 9 10 21 19 27 19 5 0 17 8 26 18 9 11 28 22 44 25 15 4
39 10 53 13 17 5 29 2 35 -7 7 -11 9 -10 9 4 0 10 12 22 28 27 15 6 37 15 48
21 15 8 28 8 40 1 13 -7 21 -5 33 9 9 10 32 20 51 22 19 3 42 7 50 10 20 7
144 27 199 32 24 2 51 11 60 19 25 23 40 20 51 -10 13 -33 31 -22 24 15 -5 26
-3 29 25 33 26 4 34 0 44 -21 21 -44 32 -20 33 69 2 159 4 213 9 208 3 -3 7
-88 10 -189 3 -151 7 -186 20 -195 8 -6 15 -17 15 -24 0 -10 -3 -10 -15 0 -12
10 -15 7 -21 -15 -3 -14 -4 -47 0 -73 3 -26 6 -138 7 -249 1 -144 5 -203 13
-203 6 0 17 -4 25 -9 11 -7 12 -13 3 -23 -10 -12 -3 -15 41 -16 58 -1 94 12
64 24 -35 13 -19 34 28 34 47 0 61 14 24 23 -21 6 -22 33 -1 31 7 -1 32 -2 57
-2 34 -2 45 -6 45 -18 0 -14 3 -14 15 -4 19 16 19 29 -2 52 -25 28 -25 48 1
48 14 0 28 -11 40 -35 11 -19 25 -35 33 -35 7 0 13 -5 13 -10 0 -6 9 -20 20
-32 18 -20 21 -20 44 -5 15 10 55 19 102 22 62 4 83 10 110 30 21 16 35 21 39
14 14 -22 59 -31 98 -18 41 14 62 4 34 -16 -26 -19 -30 -102 -6 -123 11 -9 19
-22 19 -29 0 -43 33 21 47 89 6 30 38 47 56 29 18 -18 42 -13 67 14 29 31 41
31 70 0 22 -23 22 -26 7 -43 -10 -10 -17 -24 -17 -30 0 -7 -7 -12 -15 -12 -9
0 -15 -9 -15 -24 0 -33 10 -57 21 -50 5 3 9 1 9 -3 0 -5 17 -7 39 -5 21 2 42
-1 45 -7 4 -6 19 -11 33 -11 15 0 34 -7 43 -15 10 -9 34 -19 54 -22 29 -4 36
-2 36 10 0 26 27 33 88 26 31 -4 65 -8 75 -8 14 -1 17 -6 12 -22 -6 -18 -4
-20 17 -13 12 4 29 7 36 7 6 0 12 8 12 18 0 12 -5 16 -14 13 -8 -3 -23 -1 -34
5 -14 7 -18 18 -14 41 4 30 3 31 -16 19 -17 -10 -24 -11 -33 -2 -21 21 14 62
51 61 34 -1 62 27 54 54 -3 9 0 19 6 23 19 12 10 24 -22 28 -30 4 -31 5 -10
12 20 7 26 17 23 38 0 4 12 7 28 7 23 0 30 -5 33 -22 2 -13 11 -24 23 -27 11
-2 23 -8 27 -15 5 -7 8 -5 8 5 0 17 26 29 48 22 6 -3 10 -9 6 -14 -3 -5 0 -9
5 -9 6 0 11 5 11 10 0 6 7 10 15 10 8 0 15 5 15 10 0 15 29 12 46 -5 9 -8 13
-15 10 -15 -11 0 27 -76 48 -93 27 -24 106 -19 137 9 13 12 23 14 27 8 12 -19
54 -23 88 -9 32 13 33 15 23 50 -8 26 -7 41 0 48 6 6 11 19 11 29 0 24 31 23
37 -2 4 -15 11 -18 29 -14 15 4 24 2 24 -5 0 -6 13 -11 29 -11 16 0 31 -6 33
-12 5 -14 68 -19 68 -6 0 4 5 8 11 8 5 0 7 -4 4 -10 -3 -5 3 -15 15 -22 21
-13 28 -38 10 -38 -13 0 -1 -29 29 -67 16 -21 35 -33 50 -33 24 0 50 -24 51
-48 0 -9 -5 -10 -19 -2 -28 14 -31 13 -29 -14 2 -21 5 -23 31 -15 24 7 30 5
34 -11 3 -11 9 -18 13 -15 5 3 15 -2 23 -10 23 -23 46 -18 53 11 l7 27 78 -7
c47 -4 79 -3 79 3 0 5 -5 11 -10 13 -6 2 -12 16 -13 33 -2 28 -1 29 43 28 25
0 56 -4 68 -8 37 -11 96 -14 107 -4 16 12 80 6 99 -10 21 -17 20 -28 -1 -34
-12 -3 -9 -5 8 -6 19 -1 28 5 32 19 4 16 11 19 34 14 65 -13 68 -12 68 29 0
44 18 53 85 44 21 -3 43 0 49 6 7 7 17 3 34 -15 17 -18 39 -28 77 -33 38 -5
60 -15 77 -33 22 -23 24 -24 36 -8 10 14 18 15 40 7 15 -6 27 -15 27 -21 0 -5
11 -10 25 -10 16 0 25 -6 25 -15 0 -13 6 -12 37 5 23 12 41 16 47 10 5 -5 22
-6 37 -3 22 4 29 2 29 -11 0 -11 9 -16 28 -16 35 0 45 -9 31 -27 -9 -10 -8
-13 4 -13 8 0 18 12 21 26 5 20 12 25 26 21 14 -3 20 0 20 10 0 13 12 15 80 9
54 -5 80 -4 80 3 0 6 -9 11 -19 11 -12 0 -23 11 -30 30 -11 33 -11 33 37 30
22 -1 32 3 30 12 -2 7 4 14 12 14 8 1 21 2 28 3 16 1 15 33 -2 56 -17 24 -10
45 15 45 17 0 18 3 8 22 -9 17 -9 24 5 33 9 7 16 20 16 29 0 12 9 16 35 16 19
0 38 1 43 3 4 1 11 -8 17 -20 8 -19 18 -23 52 -23 24 0 43 -4 43 -10 0 -5 9
-10 19 -10 10 0 21 -7 25 -15 3 -8 12 -12 21 -9 8 3 15 1 15 -5 0 -6 12 -11
26 -11 19 0 25 -4 20 -15 -3 -10 1 -18 12 -22 9 -4 23 -13 31 -21 8 -7 23 -11
35 -8 12 3 38 6 59 6 25 0 37 4 37 14 0 10 16 17 45 22 40 5 48 3 68 -17 24
-24 42 -57 39 -71 -1 -5 3 -8 8 -8 18 0 10 -32 -9 -37 -20 -5 -48 -49 -38 -60
4 -3 27 -2 52 4 58 13 95 6 95 -18 0 -15 7 -19 35 -19 19 0 35 -4 35 -9 0 -5
11 -4 25 2 14 7 25 18 25 25 0 17 17 15 32 -5 7 -10 24 -17 38 -16 14 0 32 2
40 2 9 1 4 9 -14 20 -17 11 -33 18 -37 15 -4 -2 -10 8 -14 23 -4 17 -2 29 4
31 6 2 11 10 11 18 0 8 8 14 18 14 9 0 28 3 41 7 17 4 22 3 17 -5 -5 -8 1 -12
18 -12 13 0 26 6 29 13 3 9 7 9 19 -1 14 -11 17 -9 23 20 5 21 4 33 -4 36 -6
2 -11 8 -11 13 0 5 25 8 55 6 39 -1 58 2 64 12 5 7 32 16 60 19 40 4 52 1 57
-12 4 -11 13 -14 30 -10 20 5 23 3 18 -11 -5 -13 -3 -16 7 -13 8 3 13 11 11
17 -3 16 27 26 41 12 19 -19 39 -14 28 8 -12 21 -5 31 21 31 11 0 18 -7 18
-19 0 -10 6 -24 14 -31 8 -6 12 -18 9 -26 -3 -9 2 -14 14 -14 11 0 25 -11 33
-24 16 -31 58 -49 121 -51 27 -1 52 -4 55 -8 4 -3 16 0 26 8 11 7 26 11 33 9
7 -3 16 3 21 13 8 18 10 29 13 70 1 25 34 38 100 42 24 1 62 11 83 22 34 17
53 20 126 15 123 -6 146 -10 154 -21 5 -6 8 -5 8 4 0 9 8 11 25 7 14 -4 25 -2
25 4 0 5 5 10 12 10 6 0 20 8 30 17 12 11 32 16 54 14 26 -2 34 1 34 13 0 9 8
16 18 16 11 0 27 9 37 20 23 25 35 25 35 0 0 -11 5 -20 10 -20 6 0 10 -9 10
-19 0 -11 6 -26 13 -33 18 -18 28 -48 17 -48 -6 0 -10 -9 -10 -20 0 -24 6 -25
44 -5 23 12 46 14 103 9 65 -6 73 -5 73 10 0 15 9 17 73 14 71 -3 74 -2 98 27
13 16 19 26 13 22 -16 -9 -22 11 -17 51 l5 32 110 0 c99 0 109 -2 106 -17 -2
-13 -11 -17 -28 -15 l-24 4 26 -34 c22 -29 32 -33 77 -36 36 -2 51 -7 51 -18
0 -7 7 -14 15 -14 10 0 15 10 15 26 l0 26 75 -4 c73 -3 74 -3 77 22 2 19 9 25
27 25 13 0 26 5 28 12 3 7 -4 9 -19 5 -19 -4 -21 -3 -12 9 11 15 12 64 1 76
-13 13 -7 34 13 41 18 7 19 9 5 29 -19 27 -67 38 -93 22 -17 -10 -24 -10 -38
2 -9 8 -25 13 -35 11 -14 -2 -17 1 -13 13 6 15 -23 86 -37 93 -4 2 -5 11 -2
21 3 10 0 22 -6 25 -16 11 -13 43 5 50 9 3 28 7 42 7 17 1 21 3 10 6 -25 6
-22 20 7 39 24 15 26 15 50 -7 13 -13 25 -30 25 -37 0 -9 15 -13 53 -12 28 1
76 -2 106 -6 43 -5 53 -4 49 7 -2 8 -14 18 -26 24 -50 22 12 46 69 26 18 -6
29 -6 29 0 0 16 18 10 46 -16 l27 -25 -26 0 c-35 0 -42 -15 -12 -28 13 -6 29
-20 35 -32 10 -18 8 -20 -18 -20 -15 0 -33 5 -40 12 -9 9 -12 6 -12 -15 0 -30
36 -52 65 -40 9 3 22 -2 30 -13 13 -17 14 -17 15 -2 0 24 18 32 37 16 31 -26
67 -35 95 -24 23 9 30 6 63 -27 20 -20 43 -37 51 -37 8 0 14 -5 14 -11 0 -7
12 -9 31 -7 20 3 34 -1 42 -11 7 -9 24 -17 39 -17 14 -1 37 -11 49 -23 13 -12
36 -21 51 -21 21 0 31 -6 38 -25 10 -26 26 -29 85 -16 29 7 29 7 -12 14 -51 9
-55 26 -18 81 14 20 25 41 25 46 0 5 8 14 18 19 15 9 15 12 2 20 -12 8 -12 13
-2 23 6 6 12 8 12 3 0 -6 4 -4 8 3 10 14 140 23 148 10 3 -4 13 -8 22 -8 46 0
93 -22 108 -51 10 -20 21 -29 30 -25 12 5 34 -3 64 -22 2 -2 -2 -7 -10 -12
-13 -8 -12 -10 2 -10 9 0 28 4 42 10 18 7 26 6 26 -1 0 -6 9 -9 20 -6 17 4 20
2 15 -14 -6 -17 -3 -19 18 -14 14 4 34 2 45 -4 13 -7 22 -7 30 1 16 16 85 11
98 -7 15 -21 24 -19 24 5 0 17 7 20 40 20 28 0 40 -4 40 -14 0 -8 -4 -18 -10
-21 -15 -9 -12 -35 4 -35 8 0 17 -6 19 -12 4 -10 6 -10 6 -1 1 6 -3 15 -9 18
-15 9 -12 25 4 25 8 0 20 16 27 35 10 28 17 34 32 29 13 -4 17 -2 13 5 -5 7 7
9 39 4 38 -5 48 -3 60 13 14 19 17 16 19 -21 1 -22 34 -32 130 -40 37 -4 63
-1 72 6 9 7 14 8 14 1 0 -6 -12 -20 -26 -31 -18 -14 -22 -22 -13 -24 8 -2 30
-9 50 -16 46 -14 46 -14 52 9 3 11 11 20 17 20 7 0 10 -8 7 -20 -3 -11 -1 -22
3 -25 5 -3 11 8 15 25 6 29 8 30 66 30 l59 0 11 45 c6 26 17 45 25 45 8 0 11
6 8 15 -5 11 1 15 24 15 37 0 84 -19 76 -31 -3 -5 0 -17 5 -26 6 -10 11 -12
11 -5 0 7 13 12 31 12 26 0 30 -3 26 -19 -5 -20 10 -31 43 -31 14 0 18 -6 15
-25 -1 -16 3 -25 12 -25 10 0 12 6 8 21 -7 21 -5 22 46 15 29 -4 58 -11 64
-16 19 -16 100 -33 147 -31 39 2 47 -1 53 -19 3 -11 12 -20 19 -20 6 0 18 -16
25 -35 7 -19 19 -35 27 -35 8 0 14 -10 14 -25 0 -14 5 -25 10 -25 6 0 10 -9
10 -20 0 -11 7 -20 15 -20 8 0 15 -4 15 -10 0 -5 7 -10 15 -10 8 0 15 5 15 11
0 11 18 10 93 -7 22 -5 27 -3 27 13 0 11 11 29 25 41 14 12 25 28 25 36 0 7 7
19 16 27 9 8 13 21 10 35 -8 30 8 38 41 21 24 -13 29 -13 38 0 6 8 24 16 41
16 33 2 46 15 38 40 -4 14 1 17 34 17 26 0 42 -5 46 -15 7 -19 66 -20 66 -1 0
17 31 26 95 26 87 0 125 -50 48 -65 l-36 -6 26 -14 c14 -7 46 -15 72 -17 67
-7 75 -24 9 -20 -55 4 -55 4 -48 -22 5 -20 2 -26 -9 -26 -9 0 -19 4 -22 10
-11 18 -25 10 -22 -12 2 -20 -4 -24 -50 -32 -52 -9 -53 -9 -53 -44 0 -21 -7
-40 -17 -48 -16 -12 -14 -14 22 -15 54 -3 58 -3 73 -12 17 -11 15 -56 -3 -63
-17 -7 -21 -44 -5 -44 6 0 10 4 10 9 0 15 84 0 98 -18 12 -15 14 -15 23 2 6 9
21 17 34 17 18 0 25 5 25 19 0 32 11 51 30 51 10 0 20 10 23 21 4 15 11 20 21
16 10 -4 16 -1 16 8 0 17 26 21 32 5 4 -11 48 -2 48 11 0 4 -26 11 -59 15 -74
8 -90 17 -72 38 16 19 54 21 80 4 21 -13 56 -4 46 12 -3 6 4 10 17 9 13 0 17
-3 11 -6 -7 -2 -13 -11 -13 -18 0 -9 20 -15 68 -18 37 -3 93 -9 125 -14 l57
-9 0 28 c0 43 17 33 23 -13 3 -22 8 -43 10 -46 11 -10 87 -15 132 -8 44 6 46
8 31 24 -20 22 -21 41 -2 41 8 0 17 9 21 19 3 11 12 18 19 15 20 -8 28 76 10
96 -10 10 -14 11 -14 2 0 -7 -5 -10 -10 -7 -13 8 -80 14 -80 8 0 -2 5 -13 10
-24 9 -15 7 -19 -6 -19 -12 0 -15 -6 -12 -24 3 -15 0 -27 -8 -30 -8 -3 -14 -1
-14 4 0 6 -19 10 -42 10 -23 0 -38 3 -35 7 4 3 2 12 -4 19 -7 8 -7 14 1 19 8
5 5 11 -7 21 -23 17 -60 18 -65 2 -4 -10 -9 -9 -21 3 -16 17 -13 59 5 59 6 0
8 9 5 20 -3 11 0 23 6 27 7 4 2 10 -13 14 -21 6 -21 7 -5 8 11 1 28 8 38 15
15 12 16 18 8 35 -10 17 -8 24 9 38 11 10 20 23 20 30 0 8 14 13 38 13 21 0
44 6 50 12 13 13 128 16 139 4 3 -3 -5 -14 -18 -25 -13 -11 -18 -20 -11 -21 6
0 12 5 12 10 0 19 42 10 47 -10 3 -11 9 -20 14 -20 12 0 49 37 43 43 -3 3 9 7
27 9 24 4 33 1 36 -13 5 -19 49 -28 98 -19 21 4 30 11 30 25 0 13 8 21 23 23
22 3 33 -22 13 -30 -11 -4 18 -78 30 -78 5 0 13 8 16 18 4 9 11 20 17 24 6 4
1 14 -13 25 -17 14 -22 25 -17 41 8 25 31 29 40 7 3 -8 12 -15 20 -15 8 0 19
-8 25 -17 7 -13 22 -17 65 -16 42 1 56 -2 56 -13 0 -8 7 -14 15 -14 8 0 15 4
15 10 0 8 46 24 95 32 11 2 23 7 26 11 3 5 23 4 45 -2 29 -8 44 -7 64 3 60 29
123 -12 84 -55 -18 -20 -4 -34 25 -24 25 8 57 -55 41 -84 -8 -16 -19 -19 -60
-18 -37 2 -53 -2 -65 -15 -8 -10 -21 -18 -29 -18 -14 0 -13 -21 1 -60 4 -8 5
-21 4 -27 -1 -7 6 -13 15 -13 10 0 14 -5 10 -15 -3 -8 -1 -15 4 -15 5 0 17
-14 26 -32 21 -41 63 -83 92 -92 12 -4 22 -13 22 -20 0 -8 6 -19 14 -25 18
-15 26 -59 12 -65 -6 -2 -4 -5 5 -5 8 -1 24 7 35 17 11 10 25 17 31 15 6 -2
16 4 22 15 5 10 28 26 50 36 25 12 38 23 34 32 -3 8 0 14 5 14 6 0 12 10 14
22 3 20 4 20 19 6 18 -19 38 -7 56 35 8 16 20 27 33 27 11 0 20 5 20 10 0 6
-4 10 -10 10 -16 0 -11 30 6 37 9 3 25 1 35 -6 20 -12 69 -5 69 10 0 4 -7 12
-16 17 -11 6 -13 11 -5 16 15 10 14 36 -2 36 -9 0 -14 13 -15 35 -1 19 3 35 9
35 13 0 0 101 -15 116 -7 6 -26 9 -43 7 -47 -7 -73 11 -73 52 0 28 -4 35 -20
35 -15 0 -20 7 -20 25 0 19 5 25 21 25 15 0 19 5 15 15 -3 8 -1 15 4 15 5 0 7
7 4 15 -4 10 -20 15 -45 15 -33 0 -40 4 -45 25 -4 15 -1 32 6 40 7 8 9 16 4
16 -5 1 5 4 21 8 25 6 30 11 28 34 -2 24 1 26 17 17 10 -5 48 -10 84 -10 38 0
70 -5 78 -12 15 -15 111 -21 102 -7 -3 5 0 9 5 9 6 0 11 -11 11 -24 0 -20 7
-25 46 -32 30 -6 51 -16 58 -29 6 -11 12 -22 13 -24 2 -2 9 1 16 7 10 9 19 7
35 -8 12 -11 29 -20 38 -20 11 0 15 -6 11 -19 -6 -24 14 -43 67 -65 22 -9 51
-30 64 -46 14 -17 33 -30 43 -30 11 0 19 -4 19 -10 0 -5 -4 -10 -10 -10 -5 0
-10 -11 -10 -24 0 -25 29 -36 94 -36 44 0 52 9 53 60 0 25 2 50 3 55 2 6 -2
23 -9 39 -11 27 -14 28 -56 23 -35 -3 -47 -1 -54 12 -5 9 -13 13 -17 9 -4 -4
-17 4 -30 17 -13 14 -28 25 -34 25 -5 0 -10 7 -10 15 0 8 5 15 10 15 6 0 10 5
10 10 0 6 -9 10 -19 10 -23 0 -34 23 -18 39 6 6 29 11 50 11 30 0 40 4 44 20
3 11 14 20 24 20 10 0 29 5 43 12 20 9 23 14 15 25 -6 7 -20 13 -30 13 -37 0
-20 29 19 32 l37 3 5 60 c5 64 15 89 31 79 6 -3 13 4 16 15 l6 22 14 -21 c8
-11 19 -18 24 -15 5 4 9 1 9 -5 0 -6 6 -10 13 -8 17 3 106 -23 113 -33 16 -27
24 1 24 86 0 57 -4 95 -10 95 -5 0 -31 15 -57 33 -61 41 -83 55 -108 67 -11 5
-42 23 -70 40 -27 16 -60 34 -72 39 -11 5 -24 14 -27 20 -4 6 -24 18 -44 28
-20 9 -39 20 -42 23 -3 4 -34 21 -70 39 -36 18 -96 50 -135 72 -38 21 -89 48
-111 59 -23 11 -47 27 -54 35 -7 8 -18 15 -25 15 -7 0 -43 16 -81 37 -196 103
-318 163 -378 183 -65 21 -162 29 -203 16 -14 -4 -34 9 -78 53 -42 42 -63 57
-71 50 -14 -11 -29 5 -20 20 3 5 -3 11 -14 14 -11 3 -20 14 -20 24 0 28 -20
46 -34 30 -6 -7 -10 -10 -9 -8 1 2 -5 16 -14 31 -17 30 -83 70 -114 70 -10 0
-19 5 -19 10 0 14 -27 13 -32 -1 -4 -13 -68 15 -68 30 0 5 -8 12 -17 15 -25 9
-60 30 -81 49 -10 10 -23 17 -28 17 -5 0 -39 30 -74 66 -68 68 -120 101 -141
88 -8 -5 -9 -3 -4 6 5 8 3 11 -5 8 -7 -2 -27 10 -45 27 -63 58 -98 79 -134 81
-20 1 -52 12 -71 24 -19 12 -66 42 -103 66 -38 24 -77 44 -87 44 -10 0 -23 7
-30 15 -7 8 -16 12 -21 9 -13 -7 -67 32 -107 78 -19 21 -39 38 -46 38 -7 0
-27 16 -46 35 -21 21 -48 37 -69 41 -20 4 -61 16 -91 27 -30 12 -60 20 -67 19
-7 -2 -34 12 -61 30 -71 48 -85 57 -109 67 -11 6 -24 15 -28 20 -11 19 -28 12
-22 -9 3 -11 1 -18 -4 -14 -5 3 -9 11 -9 19 0 7 -6 16 -12 19 -10 3 -8 9 4 19
10 8 14 17 10 21 -4 4 -7 13 -7 19 0 7 -7 12 -15 12 -9 0 -15 9 -15 21 0 26
-24 56 -38 47 -6 -3 -7 -1 -3 5 10 16 -42 62 -69 62 -12 0 -38 16 -58 36 -39
39 -60 53 -119 80 -21 9 -38 20 -38 25 0 4 -21 21 -47 36 -26 15 -60 42 -76
60 -16 18 -52 43 -80 57 -46 22 -171 62 -221 72 -75 14 -138 54 -156 99 -4 11
-34 33 -66 50 -33 16 -66 34 -74 40 -24 18 -174 74 -232 86 -29 6 -71 20 -93
31 -22 11 -56 24 -75 29 -80 19 -129 34 -199 61 -40 15 -84 28 -97 28 -12 0
-25 4 -28 9 -3 4 -25 11 -48 14 -91 13 -123 19 -133 27 -5 4 -41 18 -80 30
-38 13 -81 31 -94 41 -13 11 -29 19 -35 19 -14 0 -185 86 -205 104 -9 7 -32
20 -52 29 -20 9 -42 23 -49 32 -7 8 -19 15 -26 15 -8 0 -14 4 -14 8 0 14 -106
35 -140 28 -40 -7 -130 -48 -130 -58 0 -5 -11 -8 -24 -8 -13 0 -29 -7 -36 -15
-7 -8 -18 -15 -25 -15 -7 0 -18 -7 -25 -14 -6 -8 -33 -23 -58 -32 -26 -10 -56
-26 -68 -36 -25 -22 -118 -39 -171 -31 -43 6 -195 54 -203 64 -6 8 -112 53
-150 64 -14 4 -35 17 -47 28 -13 11 -23 15 -23 9 0 -18 -18 -14 -40 8 -17 17
-18 24 -9 41 6 11 8 23 5 26 -9 9 -26 -8 -26 -28 0 -30 -27 -22 -39 11 -5 17
-17 33 -26 36 -18 7 -20 40 -2 48 6 3 2 3 -10 0 -25 -6 -32 13 -11 34 13 13
19 92 7 92 -5 0 -9 6 -9 14 0 7 -28 43 -63 80 -45 48 -70 66 -88 66 -14 0 -29
-3 -33 -7 -12 -13 -55 -10 -60 3 -6 16 10 28 19 14 11 -17 26 0 16 18 -9 16
-11 24 -11 38 0 3 -7 -2 -16 -11 -13 -13 -19 -14 -25 -4 -4 8 -3 19 3 26 19
23 -10 45 -51 38 -20 -3 -60 -7 -89 -10 -31 -3 -66 -13 -82 -25 -15 -11 -33
-20 -39 -20 -6 0 -14 -14 -18 -30 -3 -17 -16 -39 -28 -49 -16 -12 -25 -33 -30
-67 -4 -27 -16 -58 -25 -69 -10 -11 -22 -32 -25 -48 -4 -15 -11 -30 -16 -33
-5 -3 -9 -28 -9 -55 0 -84 -17 -110 -101 -152 -41 -19 -102 -41 -137 -47 -57
-10 -68 -9 -133 15 -86 31 -201 90 -306 157 l-43 27 0 -24 c0 -16 -6 -25 -15
-25 -8 0 -15 5 -15 10 0 6 -6 10 -13 10 -7 0 -23 11 -35 25 -13 15 -28 23 -34
19 -8 -5 -9 -2 -5 10 4 9 3 14 -2 11 -14 -8 -25 15 -13 27 14 14 2 48 -17 48
-36 0 -47 54 -26 119 6 21 -11 67 -45 118 l-22 32 26 26 c26 26 36 75 15 75
-8 0 -8 5 1 15 7 9 8 15 2 15 -5 0 -12 -7 -16 -15 -3 -10 -19 -15 -47 -15 -31
0 -40 -3 -36 -14 7 -18 -14 -38 -29 -28 -18 11 -26 62 -12 66 76 21 103 34
128 58 29 28 39 61 21 72 -5 4 -7 -2 -4 -13z m-173 -366 c3 -9 0 -15 -9 -15
-16 0 -27 14 -18 24 10 10 21 7 27 -9z m-76 -20 c-3 -3 -9 2 -12 12 -6 14 -5
15 5 6 7 -7 10 -15 7 -18z m-3873 -45 c16 -17 16 -20 2 -26 -22 -8 -37 3 -37
27 0 24 12 24 35 -1z m3739 8 c-3 -4 0 -8 5 -8 19 0 12 -17 -8 -23 -13 -3 -21
1 -24 14 -6 21 -2 26 18 26 8 0 12 -4 9 -9z m358 -10 c-3 -12 -7 -17 -10 -10
-2 7 -8 10 -13 6 -5 -3 -9 2 -9 10 0 9 8 16 19 16 15 0 18 -5 13 -22z m-4272
-15 c-13 -3 -33 -11 -43 -18 -19 -13 -57 -9 -57 6 0 8 43 16 95 16 25 0 26 0
5 -4z m-150 -29 c0 -8 -4 -12 -10 -9 -5 3 -10 10 -10 16 0 5 5 9 10 9 6 0 10
-7 10 -16z m620 -54 c0 -5 -2 -10 -4 -10 -3 0 -8 5 -11 10 -3 6 -1 10 4 10 6
0 11 -4 11 -10z m-358 -42 c-9 -9 -12 -7 -12 12 0 19 3 21 12 12 9 -9 9 -15 0
-24z m-32 -8 c0 -5 -4 -10 -10 -10 -5 0 -10 5 -10 10 0 6 5 10 10 10 6 0 10
-4 10 -10z m387 -25 c7 -20 0 -27 -20 -19 -9 3 -13 12 -10 20 7 19 22 18 30
-1z m157 -24 c3 -5 -1 -11 -9 -14 -9 -4 -12 -1 -8 9 6 16 10 17 17 5z m-314
-35 c0 -2 -7 -9 -15 -16 -13 -11 -14 -10 -9 4 5 14 24 23 24 12z m5530 -33 c0
-5 -5 -15 -10 -23 -8 -12 -10 -11 -10 8 0 12 5 22 10 22 6 0 10 -3 10 -7z
m-1301 -22 c25 -25 38 -65 20 -59 -8 3 -19 14 -25 26 -6 12 -13 19 -16 17 -3
-3 -8 3 -11 15 -6 25 7 26 32 1z m-4555 -6 c3 -9 0 -15 -9 -15 -16 0 -27 14
-18 24 10 10 21 7 27 -9z m4470 -6 c3 1 5 -2 4 -6 0 -5 -9 -7 -19 -5 -13 2
-28 -12 -50 -47 -17 -28 -35 -49 -39 -46 -9 6 -6 37 5 55 4 6 2 17 -4 24 -14
17 8 29 29 16 7 -5 20 0 32 12 15 15 22 17 28 8 4 -6 10 -11 14 -11z m-124
-59 c0 -5 -8 -10 -17 -10 -15 0 -16 2 -3 10 19 12 20 12 20 0z m-3921 -34
c-12 -26 -20 -31 -32 -20 -9 10 4 34 19 34 8 0 14 5 14 12 0 6 2 9 5 6 3 -3 0
-17 -6 -32z m3938 -48 c-3 -8 -6 -5 -6 6 -1 11 2 17 5 13 3 -3 4 -12 1 -19z
m337 -51 c7 -18 17 -41 21 -52 32 -88 37 -383 7 -377 -8 1 -11 -2 -7 -8 9 -15
-36 -70 -58 -70 -27 0 -50 26 -42 50 5 15 2 20 -14 20 -16 0 -19 6 -17 28 3
28 -18 62 -40 62 -6 0 -26 17 -43 38 -17 20 -39 46 -48 57 -10 11 -24 30 -30
43 -11 20 -9 27 11 49 15 16 26 21 30 14 4 -6 12 -9 17 -6 5 4 9 -1 9 -9 0 -9
7 -16 15 -16 8 0 15 5 15 10 0 6 -5 10 -11 10 -8 0 -8 5 1 15 10 12 10 15 -4
15 -21 0 -20 13 3 34 22 20 46 12 37 -11 -4 -9 -1 -13 6 -10 7 2 13 16 13 30
1 15 11 39 23 54 14 18 22 22 22 12 0 -8 -5 -20 -12 -27 -9 -9 -9 -15 2 -26
13 -13 18 -12 38 4 22 18 22 20 8 49 -20 39 -20 49 2 54 24 5 29 1 46 -36z
m-124 -2 c0 -8 -2 -15 -4 -15 -2 0 -6 7 -10 15 -3 8 -1 15 4 15 6 0 10 -7 10
-15z m-6290 -15 c-19 -13 -30 -13 -30 0 0 6 10 10 23 10 18 0 19 -2 7 -10z
m6035 -20 c-3 -5 -10 -10 -16 -10 -5 0 -9 5 -9 10 0 6 7 10 16 10 8 0 12 -4 9
-10z m-3975 -30 c0 -5 -7 -10 -15 -10 -8 0 -15 5 -15 10 0 6 7 10 15 10 8 0
15 -4 15 -10z m-1300 -20 c13 -8 13 -10 -2 -10 -9 0 -20 5 -23 10 -8 13 5 13
25 0z m1196 -25 c-21 -16 -32 -13 -21 4 3 6 14 11 23 11 15 -1 15 -2 -2 -15z
m-1059 -65 c13 0 13 -3 2 -16 -12 -14 -14 -14 -20 3 -4 10 -8 23 -8 28 1 6 3
4 6 -2 2 -7 12 -13 20 -13z m943 -20 c0 -5 -7 -10 -15 -10 -8 0 -15 5 -15 10
0 6 7 10 15 10 8 0 15 -4 15 -10z m-46 -15 c-6 -16 -42 -30 -51 -21 -4 3 -1 6
6 6 7 0 19 7 27 15 19 19 25 19 18 0z m8263 -167 c-3 -8 -6 -5 -6 6 -1 11 2
17 5 13 3 -3 4 -12 1 -19z m63 -38 c0 -5 -4 -10 -10 -10 -5 0 -10 5 -10 10 0
6 5 10 10 10 6 0 10 -4 10 -10z m-30 -10 c0 -5 -4 -10 -10 -10 -5 0 -10 5 -10
10 0 6 5 10 10 10 6 0 10 -4 10 -10z m104 -83 c26 -32 44 -62 41 -66 -2 -5 2
-11 10 -15 8 -3 15 -17 15 -32 0 -34 -29 -94 -45 -94 -7 0 -23 -12 -35 -27
l-21 -28 6 32 c3 17 2 34 -3 37 -13 8 -3 57 16 79 8 9 10 17 4 17 -6 0 -12 -5
-14 -11 -3 -9 -9 -9 -25 -1 -25 14 -34 34 -22 53 7 11 9 11 9 -3 0 -9 5 -20
10 -23 7 -4 8 20 4 72 -3 43 -4 76 -1 73 2 -3 25 -31 51 -63z m-7843 0 c-10
-9 -11 -8 -5 6 3 10 9 15 12 12 3 -3 0 -11 -7 -18z m7739 -69 c0 -30 -6 -33
-30 -18 -9 5 -19 5 -27 -2 -7 -6 -13 -9 -14 -7 -7 33 -6 37 7 32 10 -4 19 5
26 25 11 27 13 29 25 14 7 -9 13 -29 13 -44z m-3610 -46 c0 -26 -25 -5 -28 24
-2 28 -2 28 13 10 8 -11 15 -26 15 -34z m-8235 28 c-3 -5 -10 -10 -16 -10 -5
0 -9 5 -9 10 0 6 7 10 16 10 8 0 12 -4 9 -10z m11843 -27 c-10 -2 -18 -9 -18
-15 0 -6 -3 -9 -6 -5 -10 10 6 27 24 26 15 -1 15 -2 0 -6z m-10372 -37 c20
-21 17 -28 -6 -16 -11 6 -20 15 -20 20 0 14 9 12 26 -4z m-1576 -46 c0 -5 -11
-10 -25 -10 -14 0 -25 5 -25 10 0 6 11 10 25 10 14 0 25 -4 25 -10z m1693 -16
c-11 -17 -19 -22 -21 -14 -3 7 3 19 14 27 26 19 27 17 7 -13z m-1790 -5 c-4
-15 -9 -17 -17 -9 -8 8 -7 13 4 20 8 5 16 10 17 10 0 0 -1 -9 -4 -21z m12067
-38 c13 -26 13 -44 -2 -39 -14 5 -30 58 -17 58 4 0 13 -9 19 -19z m-10510 -15
c0 -11 -19 -15 -25 -6 -3 5 1 10 9 10 9 0 16 -2 16 -4z m440 -46 c0 -5 -7 -7
-15 -4 -8 4 -12 10 -9 15 6 11 24 2 24 -11z m10110 -10 c0 -5 -4 -10 -10 -10
-5 0 -10 5 -10 10 0 6 5 10 10 10 6 0 10 -4 10 -10z m-30 -50 c0 -5 -2 -10 -4
-10 -3 0 -8 5 -11 10 -3 6 -1 10 4 10 6 0 11 -4 11 -10z m-10367 -26 c8 -9
-15 -44 -30 -44 -14 0 -22 20 -15 38 4 12 34 17 45 6z m10962 -14 c3 -5 1 -10
-4 -10 -6 0 -11 5 -11 10 0 6 2 10 4 10 3 0 8 -4 11 -10z m-585 -40 c0 -5 -2
-10 -4 -10 -3 0 -8 5 -11 10 -3 6 -1 10 4 10 6 0 11 -4 11 -10z m865 -20 c3
-5 1 -10 -4 -10 -6 0 -11 5 -11 10 0 6 2 10 4 10 3 0 8 -4 11 -10z m-1185 -10
c0 -5 -4 -10 -10 -10 -5 0 -10 5 -10 10 0 6 5 10 10 10 6 0 10 -4 10 -10z
m317 -12 c-3 -8 -6 -5 -6 6 -1 11 2 17 5 13 3 -3 4 -12 1 -19z m916 16 c3 -3
3 -13 0 -21 -5 -12 -7 -12 -14 -1 -15 23 -4 40 14 22z m163 -51 c-3 -4 -13 2
-21 13 -22 29 -18 41 6 15 12 -12 18 -25 15 -28z m-98 -5 c21 -21 14 -40 -8
-21 -21 18 -26 33 -12 33 4 0 13 -5 20 -12z m-4264 -19 c-3 -5 -10 -7 -15 -3
-5 3 -7 10 -3 15 3 5 10 7 15 3 5 -3 7 -10 3 -15z m3446 -24 c0 -5 -5 -3 -10
5 -5 8 -10 20 -10 25 0 6 5 3 10 -5 5 -8 10 -19 10 -25z m934 20 c3 -8 1 -15
-3 -15 -5 0 -11 7 -15 15 -3 8 -1 15 3 15 5 0 11 -7 15 -15z m-1391 -32 c4
-18 3 -33 -2 -33 -10 0 -21 51 -14 63 7 11 9 7 16 -30z m1344 -5 c-3 -8 -6 -5
-6 6 -1 11 2 17 5 13 3 -3 4 -12 1 -19z m-4273 -4 c4 -10 1 -14 -6 -12 -15 5
-23 28 -10 28 5 0 13 -7 16 -16z m16 -62 c0 -5 -7 -9 -15 -9 -8 0 -12 4 -9 9
3 4 9 8 15 8 5 0 9 -4 9 -8z m3207 -25 c1 -26 0 -28 -7 -12 -11 26 -12 45 -2
45 4 0 8 -15 9 -33z m-10397 -31 c0 -3 -4 -8 -10 -11 -5 -3 -10 -1 -10 4 0 6
5 11 10 11 6 0 10 -2 10 -4z m10035 -17 c10 -15 -1 -23 -20 -15 -9 3 -13 10
-10 16 8 13 22 13 30 -1z m1886 -52 c-1 -4 -1 -14 -1 -22 0 -26 -16 -16 -18
11 -1 15 3 24 9 22 6 -2 10 -7 10 -11z m-14116 -25 c0 -18 -20 -15 -23 4 -3
10 1 15 10 12 7 -3 13 -10 13 -16z m12314 2 c18 -9 30 -18 27 -21 -6 -6 -77
16 -90 28 -17 15 29 10 63 -7z m-12409 -4 c0 -5 -4 -10 -10 -10 -5 0 -10 5
-10 10 0 6 5 10 10 10 6 0 10 -4 10 -10z m170 -11 c0 -11 -27 -12 -34 -1 -2 4
4 9 15 9 10 1 19 -2 19 -8z m150 -10 c0 -5 -5 -9 -10 -9 -6 0 -15 -11 -20 -25
-5 -14 -15 -25 -22 -25 -18 1 -48 25 -48 38 0 6 -10 14 -22 18 -20 6 -20 8 -6
13 25 9 128 1 128 -10z m670 11 c0 -5 -7 -7 -15 -4 -8 4 -15 8 -15 10 0 2 7 4
15 4 8 0 15 -4 15 -10z m11840 -30 c0 -11 -4 -20 -10 -20 -5 0 -10 9 -10 20 0
11 5 20 10 20 6 0 10 -9 10 -20z m-380 -4 c0 -3 -4 -8 -10 -11 -5 -3 -10 -1
-10 4 0 6 5 11 10 11 6 0 10 -2 10 -4z m-11345 -26 c3 -5 1 -10 -4 -10 -6 0
-11 5 -11 10 0 6 2 10 4 10 3 0 8 -4 11 -10z m13309 -23 c15 -24 -3 -35 -20
-13 -8 11 -14 24 -14 29 0 13 22 3 34 -16z m-15484 4 c0 -5 -9 -7 -20 -4 -11
3 -20 7 -20 9 0 2 9 4 20 4 11 0 20 -4 20 -9z m13700 -1 c0 -5 -2 -10 -4 -10
-3 0 -8 5 -11 10 -3 6 -1 10 4 10 6 0 11 -4 11 -10z m-12330 -15 c11 -13 10
-14 -4 -9 -9 3 -16 10 -16 15 0 13 6 11 20 -6z m9380 -15 c0 -5 -4 -10 -10
-10 -5 0 -10 5 -10 10 0 6 5 10 10 10 6 0 10 -4 10 -10z m-53 -45 l4 -40 -21
40 c-24 47 -24 47 -4 43 12 -2 18 -16 21 -43z m3231 17 c2 -7 10 -12 18 -12 8
0 14 -4 14 -10 0 -14 -22 -12 -44 5 -11 8 -28 15 -39 15 -10 0 -16 4 -13 8 7
12 59 7 64 -6z m-10762 -59 c-10 -10 -19 5 -10 18 6 11 8 11 12 0 2 -7 1 -15
-2 -18z m10829 -3 c3 -5 1 -10 -4 -10 -6 0 -11 5 -11 10 0 6 2 10 4 10 3 0 8
-4 11 -10z m-10733 -42 c-6 -6 -15 -8 -19 -4 -4 4 -1 11 7 16 19 12 27 3 12
-12z m10787 -4 c3 -16 1 -17 -13 -5 -19 16 -21 34 -3 29 6 -3 14 -13 16 -24z
m-3259 -4 c0 -5 -2 -10 -4 -10 -3 0 -8 5 -11 10 -3 6 -1 10 4 10 6 0 11 -4 11
-10z m-7555 -30 c-3 -5 -12 -10 -18 -10 -7 0 -6 4 3 10 19 12 23 12 15 0z
m12115 -25 c0 -8 -4 -15 -10 -15 -5 0 -10 7 -10 15 0 8 5 15 10 15 6 0 10 -7
10 -15z m-12140 -9 c0 -2 -7 -7 -16 -10 -8 -3 -12 -2 -9 4 6 10 25 14 25 6z
m7590 -6 c0 -5 -2 -10 -4 -10 -3 0 -8 5 -11 10 -3 6 -1 10 4 10 6 0 11 -4 11
-10z m4560 -20 c0 -5 -4 -10 -10 -10 -5 0 -10 5 -10 10 0 6 5 10 10 10 6 0 10
-4 10 -10z m210 -11 c17 -30 6 -34 -14 -4 -9 14 -12 25 -7 25 6 0 15 -9 21
-21z m-340 -4 c7 -9 8 -15 2 -15 -5 0 -12 7 -16 15 -3 8 -4 15 -2 15 2 0 9 -7
16 -15z m-4450 -11 c0 -8 -4 -12 -10 -9 -5 3 -10 10 -10 16 0 5 5 9 10 9 6 0
10 -7 10 -16z m-9806 -10 c3 -8 2 -12 -4 -9 -6 3 -10 10 -10 16 0 14 7 11 14
-7z m140 -3 c4 -5 -1 -8 -9 -7 -21 3 -31 16 -12 16 9 0 18 -4 21 -9z m-64 -11
c0 -5 -8 -10 -17 -10 -15 0 -16 2 -3 10 19 12 20 12 20 0z m13186 -17 c-7 -7
-26 7 -26 19 0 6 6 6 15 -2 9 -7 13 -15 11 -17z m-206 -53 c0 -5 -12 -10 -27
-9 l-28 1 25 8 c14 4 26 8 28 9 1 1 2 -3 2 -9z m-88 -24 c15 -11 16 -16 4 -31
-7 -10 -18 -15 -24 -11 -16 10 -15 36 1 36 8 0 7 4 -3 10 -8 5 -10 10 -5 10 6
-1 18 -7 27 -14z m468 -57 c0 -12 -7 -11 -31 1 -10 6 -19 17 -19 26 0 12 4 12
25 -2 14 -9 25 -20 25 -25z m-11363 -1 c-3 -8 -6 -5 -6 6 -1 11 2 17 5 13 3
-3 4 -12 1 -19z m10822 8 c10 -12 9 -14 -6 -11 -10 2 -21 4 -25 4 -5 1 -8 6
-8 11 0 15 26 12 39 -4z m1791 -68 c0 -13 -5 -9 -31 19 l-24 26 27 -19 c15
-10 28 -22 28 -26z m-1400 -69 c0 -6 -7 -8 -16 -5 -9 3 -18 6 -20 6 -2 0 -4 7
-4 15 0 13 4 14 20 5 11 -6 20 -16 20 -21z m-11654 -14 c18 -44 18 -45 -5 -45
-15 0 -19 7 -18 40 1 22 3 40 4 40 2 0 11 -16 19 -35z m12718 19 c3 -8 2 -12
-4 -9 -6 3 -10 10 -10 16 0 14 7 11 14 -7z m-1164 -14 c0 -5 -5 -10 -11 -10
-5 0 -7 5 -4 10 3 6 8 10 11 10 2 0 4 -4 4 -10z m-181 -152 c2 -15 -23 -8 -56
18 -52 39 -42 60 11 21 25 -17 45 -35 45 -39z m1573 55 c10 -9 18 -25 18 -35
0 -16 -4 -15 -25 10 -36 43 -31 60 7 25z m-1342 -19 c0 -8 -4 -12 -10 -9 -5 3
-10 10 -10 16 0 5 5 9 10 9 6 0 10 -7 10 -16z m-117 -29 c12 -12 23 -29 25
-36 2 -8 11 -22 19 -32 24 -26 10 -30 -20 -6 -15 11 -27 16 -27 10 0 -6 5 -11
11 -11 5 0 7 -5 3 -12 -5 -8 -11 -6 -19 5 -7 10 -19 17 -28 17 -10 0 -14 6
-11 15 3 8 -5 25 -19 39 -15 15 -21 28 -15 34 14 14 57 2 81 -23z m-12416 3
c-3 -8 -6 -5 -6 6 -1 11 2 17 5 13 3 -3 4 -12 1 -19z m12551 -28 c7 -11 11
-20 9 -20 -2 0 -12 9 -22 20 -10 11 -14 20 -9 20 5 0 15 -9 22 -20z m-11518
-40 c0 -5 -5 -10 -11 -10 -5 0 -7 5 -4 10 3 6 8 10 11 10 2 0 4 -4 4 -10z
m11540 0 c0 -5 -2 -10 -4 -10 -3 0 -8 5 -11 10 -3 6 -1 10 4 10 6 0 11 -4 11
-10z m-11753 -42 c-3 -8 -6 -5 -6 6 -1 11 2 17 5 13 3 -3 4 -12 1 -19z m-593
-70 c16 -11 -3 -9 -24 2 -12 6 -17 16 -13 26 5 14 7 14 16 -2 6 -11 15 -22 21
-26z m703 -70 c-3 -8 -6 -5 -6 6 -1 11 2 17 5 13 3 -3 4 -12 1 -19z m-187 -28
c0 -5 -2 -10 -4 -10 -3 0 -8 5 -11 10 -3 6 -1 10 4 10 6 0 11 -4 11 -10z m250
-74 c0 -16 -24 -38 -33 -30 -7 7 14 44 25 44 5 0 8 -6 8 -14z m-735 -16 c-3
-5 -11 -10 -16 -10 -6 0 -7 5 -4 10 3 6 11 10 16 10 6 0 7 -4 4 -10z m-715
-111 c0 -6 7 -9 15 -5 9 3 19 -3 26 -15 9 -19 9 -19 -10 -10 -28 15 -31 14
-31 -14 0 -22 3 -25 27 -19 22 6 25 4 19 -11 -4 -12 2 -25 19 -41 22 -21 35
-64 19 -64 -4 0 -22 9 -40 21 -42 26 -70 66 -68 100 1 21 -3 25 -18 22 -22 -6
-23 5 -1 29 18 20 43 24 43 7z m-190 -9 c0 -5 -4 -10 -10 -10 -5 0 -10 5 -10
10 0 6 5 10 10 10 6 0 10 -4 10 -10z m1130 -9 c0 -6 -4 -13 -10 -16 -5 -3 -10
1 -10 9 0 9 5 16 10 16 6 0 10 -4 10 -9z m-1035 -41 c-19 -21 -63 -32 -71 -18
-9 15 12 31 40 31 14 0 26 4 26 9 0 5 5 6 11 3 7 -5 5 -13 -6 -25z m897 -167
c-31 -17 -32 -17 -32 7 0 13 7 20 20 20 11 0 20 6 21 13 0 6 4 3 8 -8 6 -15 2
-22 -17 -32z m2626 2 c-3 -3 -9 2 -12 12 -6 14 -5 15 5 6 7 -7 10 -15 7 -18z
m42 21 c0 -3 -4 -8 -10 -11 -5 -3 -10 -1 -10 4 0 6 5 11 10 11 6 0 10 -2 10
-4z m-883 -203 c-2 -37 -3 -9 -3 62 0 72 1 102 3 68 2 -34 2 -93 0 -130z
m-1784 143 c7 -18 -1 -26 -18 -19 -8 2 -11 11 -8 19 7 18 19 18 26 0z m6682
-5 c3 -5 -4 -13 -16 -16 -23 -8 -34 -1 -24 14 8 13 32 14 40 2z m-6485 -11 c0
-5 -4 -10 -10 -10 -5 0 -10 5 -10 10 0 6 5 10 10 10 6 0 10 -4 10 -10z m-1703
-33 c1 -2 -8 -9 -21 -17 -28 -14 -71 -7 -79 14 -5 12 4 14 45 10 28 -2 53 -5
55 -7z m1069 -52 c32 -30 54 -58 50 -62 -4 -5 -17 3 -28 17 -11 14 -25 24 -30
22 -15 -4 -48 18 -48 33 0 8 -4 15 -10 15 -5 0 -10 7 -10 15 0 26 17 17 76
-40z m434 15 c0 -5 -7 -10 -15 -10 -8 0 -15 5 -15 10 0 6 7 10 15 10 8 0 15
-4 15 -10z m-26 -58 c12 -24 14 -40 7 -70 -1 -2 -8 4 -17 12 -8 9 -13 20 -10
25 3 5 -2 8 -11 7 -24 -2 -27 21 -2 27 11 3 18 10 14 16 -3 6 -4 11 -1 11 3 0
12 -13 20 -28z m276 -112 c0 -11 -4 -20 -9 -20 -14 0 -23 18 -16 30 10 17 25
11 25 -10z m85 0 c3 -5 1 -10 -4 -10 -6 0 -11 5 -11 10 0 6 2 10 4 10 3 0 8
-4 11 -10z m-345 -70 c0 -5 -4 -10 -10 -10 -5 0 -10 5 -10 10 0 6 5 10 10 10
6 0 10 -4 10 -10z m15401 -23 c-13 -13 -26 -3 -16 12 3 6 11 8 17 5 6 -4 6
-10 -1 -17z m-13441 -23 c0 -8 -4 -14 -10 -14 -5 0 -10 9 -10 21 0 11 5 17 10
14 6 -3 10 -13 10 -21z m13755 -44 c3 -5 -1 -10 -10 -10 -9 0 -13 5 -10 10 3
6 8 10 10 10 2 0 7 -4 10 -10z m-245 -20 c0 -5 -4 -10 -10 -10 -5 0 -10 5 -10
10 0 6 5 10 10 10 6 0 10 -4 10 -10z m-15430 -10 c0 -5 -4 -10 -10 -10 -5 0
-10 5 -10 10 0 6 5 10 10 10 6 0 10 -4 10 -10z m15330 -5 c0 -8 -4 -15 -10
-15 -5 0 -10 7 -10 15 0 8 5 15 10 15 6 0 10 -7 10 -15z m250 -35 c0 -5 -4
-10 -10 -10 -5 0 -10 5 -10 10 0 6 5 10 10 10 6 0 10 -4 10 -10z m240 1 c0
-12 -20 -25 -27 -18 -7 7 6 27 18 27 5 0 9 -4 9 -9z m40 -1 c0 -5 -4 -10 -10
-10 -5 0 -10 5 -10 10 0 6 5 10 10 10 6 0 10 -4 10 -10z m-3252 -37 c7 -7 10
-17 7 -23 -9 -14 2 -12 28 5 15 10 52 15 117 15 122 2 130 1 130 -11 0 -6 8
-8 19 -4 11 3 21 0 24 -9 4 -9 14 -12 28 -9 16 4 20 2 17 -8 -6 -18 -95 -13
-114 6 -15 15 -161 18 -170 4 -3 -5 7 -9 23 -10 27 0 28 0 5 -10 -13 -5 -28
-6 -34 -3 -5 3 -29 7 -53 9 -34 2 -42 0 -38 -11 3 -8 0 -14 -7 -14 -6 0 -14 9
-17 20 -3 11 -9 20 -13 20 -5 0 -6 9 -3 20 3 12 0 20 -6 20 -7 0 -10 4 -7 9 7
11 47 2 64 -16z m352 17 c0 -5 -4 -10 -10 -10 -5 0 -10 5 -10 10 0 6 5 10 10
10 6 0 10 -4 10 -10z m200 -19 c0 -5 3 -16 6 -25 4 -11 0 -16 -14 -16 -12 0
-23 4 -26 9 -3 5 -22 12 -41 15 -54 10 -42 26 20 26 30 0 55 -4 55 -9z m2690
-7 c0 -8 -5 -12 -10 -9 -6 4 -8 11 -5 16 9 14 15 11 15 -7z m-3794 -30 c-3 -8
1 -14 8 -14 8 0 17 6 19 13 4 7 6 6 6 -4 1 -17 45 -29 104 -29 27 0 36 13 17
25 -15 9 -2 25 21 25 20 0 26 -15 9 -25 -6 -4 -8 -11 -4 -16 3 -6 -1 -18 -10
-28 -14 -15 -24 -17 -64 -9 -26 5 -61 13 -78 19 -17 5 -40 9 -51 9 -11 0 -26
7 -33 15 -17 21 -30 19 -30 -5 0 -21 -7 -25 -28 -12 -24 16 -2 42 37 42 20 0
43 4 51 9 18 12 33 3 26 -15z m276 -1 c2 -16 -1 -38 -8 -51 -10 -20 -12 -21
-18 -6 -4 9 -4 25 -1 35 4 11 2 19 -4 19 -6 0 -11 7 -11 15 0 8 8 15 19 15 13
0 20 -9 23 -27z m-202 2 c0 -8 -7 -15 -15 -15 -16 0 -20 12 -8 23 11 12 23 8
23 -8z m55 6 c3 -5 -4 -13 -16 -16 -23 -8 -34 -1 -24 14 8 13 32 14 40 2z
m1115 -11 c0 -5 -5 -10 -11 -10 -5 0 -7 5 -4 10 3 6 8 10 11 10 2 0 4 -4 4
-10z m165 -11 c0 -8 -9 -15 -20 -16 -11 -1 -37 -4 -57 -7 -22 -4 -40 -2 -44 5
-9 15 12 27 41 21 13 -2 31 1 42 7 22 13 38 9 38 -10z m-372 -4 c0 -6 -7 -11
-16 -13 -12 -3 -15 1 -11 13 7 17 25 17 27 0z m155 0 c-2 -6 -6 -9 -10 -7 -5
1 -8 -3 -8 -9 0 -5 -5 -7 -10 -4 -8 5 -7 11 1 21 13 16 33 15 27 -1z m2592
-15 c0 -5 -4 -10 -10 -10 -5 0 -10 5 -10 10 0 6 5 10 10 10 6 0 10 -4 10 -10z
m-3062 -7 c-10 -2 -26 -2 -35 0 -10 3 -2 5 17 5 19 0 27 -2 18 -5z m822 -3 c0
-5 -9 -10 -20 -10 -11 0 -20 5 -20 10 0 6 9 10 20 10 11 0 20 -4 20 -10z
m-1715 -10 c-3 -5 -18 -9 -33 -9 l-27 1 30 8 c17 4 31 8 33 9 2 0 0 -3 -3 -9z
m3245 0 c0 -5 -5 -10 -11 -10 -5 0 -7 5 -4 10 3 6 8 10 11 10 2 0 4 -4 4 -10z
m-3330 -10 c0 -5 -8 -10 -17 -10 -10 0 -28 -3 -40 -6 -13 -4 -23 -2 -23 4 0
10 23 18 63 21 9 0 17 -3 17 -9z m1054 -47 c-37 -27 -94 -29 -94 -4 0 10 30
16 84 17 27 1 27 0 10 -13z m-104 -3 c0 -5 -7 -10 -15 -10 -8 0 -15 5 -15 10
0 6 7 10 15 10 8 0 15 -4 15 -10z m1285 -1 c4 -6 5 -13 2 -15 -7 -8 -57 7 -57
17 0 13 47 11 55 -2z m233 -28 c9 -5 26 -12 36 -16 14 -4 16 -9 9 -16 -6 -6
-17 -8 -24 -3 -7 4 -39 9 -72 11 -62 3 -77 8 -77 24 0 12 105 12 128 0z m91
-34 c6 -8 8 -16 5 -20 -10 -9 -34 4 -34 19 0 18 14 18 29 1z m95 4 c8 -13 -21
-34 -39 -27 -20 7 -19 23 3 29 28 8 31 7 36 -2z m-269 -11 c-3 -5 -10 -10 -16
-10 -5 0 -9 5 -9 10 0 6 7 10 16 10 8 0 12 -4 9 -10z m80 -20 c-3 -5 -10 -10
-16 -10 -5 0 -9 5 -9 10 0 6 7 10 16 10 8 0 12 -4 9 -10z m-265 -21 c0 -5 -7
-9 -15 -9 -15 0 -20 12 -9 23 8 8 24 -1 24 -14z m676 10 c2 -5 16 -3 30 3 20
10 27 9 34 -2 15 -25 -2 -33 -60 -27 -64 7 -90 15 -90 28 0 11 79 9 86 -2z
m-311 -9 c3 -5 -1 -10 -9 -10 -9 0 -16 5 -16 10 0 6 4 10 9 10 6 0 13 -4 16
-10z m883 -16 c12 -4 22 -10 22 -14 0 -17 -38 -20 -64 -6 -28 14 -27 16 14 25
3 0 15 -2 28 -5z m-1338 -14 c0 -13 -48 -32 -61 -24 -15 9 -10 22 9 27 31 8
52 7 52 -3z m-5220 -40 c0 -5 -4 -10 -10 -10 -5 0 -10 5 -10 10 0 6 5 10 10
10 6 0 10 -4 10 -10z m110 -9 c0 -6 -9 -9 -19 -8 -11 0 -17 5 -15 9 7 11 34
10 34 -1z m-4811 -10 c11 -7 10 -10 -4 -18 -11 -7 -14 -13 -7 -17 6 -3 13 -2
17 4 10 15 61 12 75 -5 15 -18 16 -17 -29 -32 -26 -10 -38 -10 -48 -1 -10 8
-17 8 -25 0 -14 -14 -72 -16 -64 -3 3 5 -12 18 -34 30 -33 17 -51 20 -100 15
-34 -3 -60 -2 -60 3 0 12 3 12 110 22 125 11 154 12 169 2z m3992 -81 c5 0 9
-5 9 -11 0 -15 -43 -7 -48 10 -3 10 0 12 12 8 10 -4 22 -7 27 -7z m4887 -56
c-4 -21 -40 -35 -58 -24 -11 7 -11 11 -1 24 18 22 64 21 59 0z m947 -24 c19
-21 14 -50 -8 -50 -8 0 -26 9 -40 20 -24 19 -63 28 -53 12 8 -13 -13 -39 -21
-26 -5 6 -16 14 -26 17 -31 12 -13 32 26 29 19 -1 38 2 42 8 11 17 61 11 80
-10z m-185 -10 c0 -5 -7 -10 -15 -10 -8 0 -15 5 -15 10 0 6 7 10 15 10 8 0 15
-4 15 -10z m1406 -14 c19 -19 18 -26 -5 -26 -21 0 -45 23 -34 33 10 11 23 8
39 -7z m-5591 -6 c-3 -5 -10 -10 -16 -10 -5 0 -9 5 -9 10 0 6 7 10 16 10 8 0
12 -4 9 -10z m-1788 -36 c3 -8 12 -13 19 -10 8 3 14 -1 14 -9 0 -8 -7 -15 -15
-15 -7 0 -18 -6 -22 -14 -13 -21 -53 -31 -53 -12 0 9 -4 16 -10 16 -5 0 -10 7
-10 15 0 8 9 15 19 15 10 0 21 7 25 15 7 20 25 19 33 -1z m5903 12 c0 -11 -19
-15 -25 -6 -3 5 1 10 9 10 9 0 16 -2 16 -4z m230 -26 c0 -5 -4 -10 -10 -10 -5
0 -10 5 -10 10 0 6 5 10 10 10 6 0 10 -4 10 -10z m-6750 -89 c-27 -15 -130
-21 -130 -8 0 8 25 13 73 14 40 1 65 -2 57 -6z m-190 -10 c0 -6 -6 -13 -12
-18 -17 -11 -88 -12 -88 -1 0 4 11 8 24 8 14 0 28 5 31 10 8 13 45 13 45 1z
m-2457 -35 c25 -20 21 -26 -18 -26 -22 0 -35 5 -35 13 0 29 24 35 53 13z
m10820 7 c-7 -2 -21 -2 -30 0 -10 3 -4 5 12 5 17 0 24 -2 18 -5z m-10712 -33
c5 0 4 -6 -3 -14 -15 -16 -38 -10 -38 11 0 10 6 13 16 9 9 -3 20 -6 25 -6z
m-7458 -110 c-5 -20 -33 -29 -33 -10 0 7 25 27 37 30 0 0 -1 -9 -4 -20z"/>
<path d="M11210 7931 c0 -5 7 -14 15 -21 16 -14 18 -10 9 14 -6 17 -24 22 -24
7z"/>
<path d="M11265 7859 c-4 -6 -5 -12 -2 -15 2 -3 7 2 10 11 7 17 1 20 -8 4z"/>
<path d="M15115 7616 c0 -37 15 -44 15 -8 0 18 -4 32 -8 32 -4 0 -8 -11 -7
-24z"/>
<path d="M15377 5956 c-3 -8 2 -16 14 -19 22 -6 25 6 5 22 -10 9 -15 8 -19 -3z"/>
<path d="M11027 8752 c-21 -23 -21 -32 -3 -32 7 0 16 10 19 22 8 29 4 32 -16
10z"/>
<path d="M12600 8521 c0 -5 7 -14 15 -21 8 -7 13 -16 10 -20 -3 -5 1 -11 7
-13 8 -3 5 -6 -5 -6 -26 -1 -16 -24 11 -26 29 -2 29 27 1 66 -20 28 -39 38
-39 20z"/>
<path d="M2375 7270 c-3 -5 -1 -10 4 -10 6 0 11 5 11 10 0 6 -2 10 -4 10 -3 0
-8 -4 -11 -10z"/>
<path d="M17636 4411 c-4 -5 -2 -12 3 -15 5 -4 12 -2 15 3 4 5 2 12 -3 15 -5
4 -12 2 -15 -3z"/>
<path d="M17930 4390 c0 -5 5 -10 10 -10 6 0 10 5 10 10 0 6 -4 10 -10 10 -5
0 -10 -4 -10 -10z"/>
<path d="M15580 4224 c0 -9 5 -14 12 -12 18 6 21 28 4 28 -9 0 -16 -7 -16 -16z"/>
<path d="M11434 4081 c5 -8 -3 -16 -23 -24 -40 -15 -39 -33 2 -42 22 -5 27 -9
14 -12 -24 -6 -11 -23 18 -23 17 0 23 -4 19 -14 -4 -12 4 -15 35 -14 38 0 41
2 35 22 -13 46 -40 95 -54 99 -8 3 -24 8 -34 13 -14 5 -17 4 -12 -5z"/>
<path d="M10714 4033 c-20 -26 -20 -32 -8 -56 19 -35 50 -35 67 1 17 32 12 52
-13 52 -10 0 -20 7 -22 16 -2 12 -8 9 -24 -13z"/>
<path d="M10485 3940 c3 -5 11 -10 16 -10 6 0 7 5 4 10 -3 6 -11 10 -16 10 -6
0 -7 -4 -4 -10z"/>
<path d="M8110 3930 c0 -5 5 -10 10 -10 6 0 10 5 10 10 0 6 -4 10 -10 10 -5 0
-10 -4 -10 -10z"/>
</g>
</svg>
