<?xml version="1.0" standalone="no"?>
<!DOCTYPE svg PUBLIC "-//W3C//DTD SVG 20010904//EN"
 "http://www.w3.org/TR/2001/REC-SVG-20010904/DTD/svg10.dtd">
<svg version="1.0" xmlns="http://www.w3.org/2000/svg"
 width="678.000000pt" height="1280.000000pt" viewBox="0 0 678.000000 1280.000000"
 preserveAspectRatio="xMidYMid meet">
<metadata>
Created by potrace 1.15, written by Peter Selinger 2001-2017
</metadata>
<g transform="translate(0.000000,1280.000000) scale(0.100000,-0.100000)"
fill="#000000" stroke="none">
<path d="M5441 12777 c-44 -21 -132 -111 -680 -686 -96 -101 -248 -251 -338
-334 -92 -85 -166 -162 -170 -175 -5 -23 13 -72 27 -72 15 0 158 119 193 161
21 24 43 63 50 87 12 41 17 45 66 62 58 19 21 -15 589 545 123 121 246 246
273 278 44 52 49 63 49 108 0 27 -3 49 -7 49 -5 -1 -28 -11 -52 -23z"/>
<path d="M1071 12524 c-12 -15 -21 -34 -21 -43 0 -34 51 -221 95 -351 28 -82
50 -168 56 -220 18 -143 30 -159 146 -186 92 -21 167 -63 254 -141 39 -36 176
-142 303 -237 303 -226 337 -255 559 -472 154 -151 193 -195 215 -242 37 -80
40 -170 9 -349 -30 -173 -58 -238 -120 -278 -99 -66 -198 -181 -359 -415 -88
-128 -146 -191 -226 -244 -83 -55 -168 -89 -286 -117 -150 -34 -251 -67 -269
-87 -16 -17 -16 -20 6 -40 28 -26 30 -26 306 42 127 32 205 46 252 46 124 0
310 95 409 210 30 35 73 81 94 102 68 66 92 41 30 -33 -67 -80 -79 -133 -49
-206 23 -54 18 -95 -20 -175 -30 -61 -35 -82 -33 -130 2 -36 -2 -62 -10 -70
-10 -10 -78 -7 -335 12 -274 20 -410 25 -912 28 -504 3 -603 1 -680 -12 -85
-15 -91 -15 -114 2 -14 10 -28 29 -32 43 -4 13 -19 67 -34 119 -42 153 -95
206 -215 217 -99 9 -115 -38 -54 -159 53 -105 222 -407 255 -455 47 -68 57
-69 424 -33 173 17 1141 60 1341 60 143 0 234 -10 234 -24 0 -7 -23 -57 -51
-112 -82 -157 -104 -243 -83 -322 6 -20 12 -22 51 -20 l45 3 38 -100 c20 -55
36 -102 33 -104 -4 -6 -186 -31 -190 -27 -2 2 1 35 7 75 17 106 13 113 -38 67
-57 -52 -69 -94 -53 -194 18 -119 6 -158 -86 -278 -30 -41 -66 -103 -83 -146
-15 -41 -58 -135 -95 -207 -87 -174 -123 -286 -134 -409 -5 -53 -17 -134 -27
-179 -17 -81 -17 -85 3 -160 11 -44 58 -158 106 -258 83 -170 86 -180 70 -196
-44 -43 -448 -326 -577 -404 -79 -48 -183 -121 -232 -161 -49 -41 -124 -93
-167 -116 -43 -24 -116 -64 -162 -90 -77 -43 -89 -47 -130 -41 -36 5 -50 2
-66 -13 -11 -10 -57 -89 -100 -176 -97 -192 -144 -248 -258 -307 -80 -42 -95
-58 -84 -88 39 -104 169 -145 265 -84 53 34 77 71 143 222 l47 107 66 4 c65 4
72 7 272 127 271 164 328 203 500 341 80 65 179 139 220 167 92 61 386 242
405 249 8 4 20 -8 30 -30 22 -46 63 -82 164 -141 128 -77 129 -78 137 -225 6
-106 12 -135 39 -203 29 -72 36 -81 91 -118 32 -21 62 -39 67 -39 4 0 7 17 7
39 0 36 2 39 45 56 70 26 73 41 26 143 -37 81 -69 217 -55 232 11 10 43 -42
49 -78 3 -20 11 -55 18 -77 11 -36 15 -40 50 -43 23 -2 37 -8 37 -17 0 -37
-46 -272 -94 -483 -63 -272 -93 -429 -170 -877 -73 -425 -92 -566 -116 -861
-44 -551 -44 -545 -26 -734 9 -96 23 -265 31 -375 43 -583 102 -795 362 -1307
108 -212 159 -281 257 -349 38 -26 99 -77 135 -112 84 -81 231 -189 307 -224
l59 -28 280 1 c276 0 281 0 370 28 211 64 384 188 562 400 138 165 233 324
382 644 143 307 224 526 326 887 88 310 97 357 115 620 6 88 18 214 27 280 21
156 24 570 4 700 -27 184 -80 414 -366 1595 -124 513 -148 595 -247 850 -71
182 -285 791 -365 1035 -83 258 -124 375 -239 683 l-106 282 50 118 c28 64 68
176 91 247 22 72 56 176 75 232 53 152 55 211 17 363 -18 69 -41 153 -52 186
-21 66 -74 136 -119 159 -20 10 -40 38 -64 89 -47 98 -119 157 -237 195 -20 6
-44 21 -54 31 -26 28 -15 83 56 294 67 199 69 224 22 293 -40 59 -44 87 -27
172 19 90 64 180 112 222 65 57 510 269 1122 534 206 90 456 201 555 248 99
47 285 128 412 181 271 111 267 109 301 147 20 22 47 35 101 50 40 11 116 41
169 67 77 38 99 53 107 76 8 25 6 31 -18 52 -51 44 -111 29 -240 -58 -118 -80
-577 -305 -782 -383 -110 -42 -315 -132 -455 -200 -157 -76 -304 -139 -381
-165 -122 -39 -197 -77 -249 -125 -14 -13 -82 -48 -153 -79 -70 -31 -184 -81
-255 -112 -274 -121 -390 -186 -492 -278 -62 -57 -98 -82 -104 -76 -6 6 -12
54 -14 108 -4 84 -1 108 20 168 45 128 95 198 243 338 183 173 344 370 321
393 -10 10 -99 -40 -178 -100 -93 -70 -189 -176 -335 -372 -106 -141 -307
-458 -364 -571 -29 -58 -30 -63 -16 -96 16 -39 47 -55 123 -66 l49 -7 -160
-64 c-88 -35 -170 -72 -182 -84 -50 -46 -35 -125 31 -166 84 -52 212 -43 352
24 83 40 114 76 114 135 0 39 -18 69 -72 124 -21 20 -38 41 -38 46 0 5 25 28
55 51 l54 41 39 -39 c21 -21 60 -55 86 -76 61 -50 87 -103 87 -173 0 -137
-126 -255 -296 -278 -27 -4 -178 -31 -335 -61 -312 -58 -350 -64 -350 -56 0 3
7 31 16 61 12 38 17 100 18 205 1 133 4 156 24 200 22 50 24 50 130 94 201 83
236 108 196 138 -52 38 -149 -1 -246 -99 l-67 -67 2 167 c2 164 2 168 -25 222
-45 89 -671 712 -1013 1007 -38 33 -115 102 -171 154 -55 52 -127 112 -159
133 -67 45 -174 85 -225 86 -20 0 -45 7 -57 15 -21 14 -21 16 -5 64 14 46 14
55 -1 111 -30 108 -110 313 -129 332 -27 27 -72 23 -97 -8z m119 -225 c0 -6
-4 -7 -10 -4 -5 3 -10 11 -10 16 0 6 5 7 10 4 6 -3 10 -11 10 -16z m327 -441
c17 -17 34 -41 37 -53 4 -15 46 -48 128 -101 82 -52 156 -110 223 -175 55 -53
114 -104 132 -113 32 -16 116 -105 175 -186 44 -59 23 -45 -102 71 -58 54
-175 153 -260 220 -85 67 -190 154 -234 192 -84 74 -115 91 -186 101 -66 10
-76 18 -56 47 38 55 83 54 143 -3z m877 -758 c20 -27 33 -50 30 -50 -5 0 -71
48 -99 72 -6 6 -4 12 5 18 23 15 26 13 64 -40z m186 -185 c24 -24 41 -48 37
-52 -8 -7 -97 75 -97 89 0 17 18 6 60 -37z m169 -194 c26 -38 37 -62 30 -66
-5 -4 -12 -5 -13 -4 -16 20 -76 116 -76 121 0 21 21 2 59 -51z m132 -201 c4
-14 7 -67 8 -118 1 -119 -21 -221 -116 -532 -70 -227 -76 -253 -81 -355 l-4
-109 -24 44 c-13 25 -23 56 -24 70 0 14 29 200 65 413 42 252 65 417 65 468 0
80 15 131 42 143 30 12 62 1 69 -24z m943 -8 c6 -10 -13 -93 -24 -105 -5 -5
-18 -6 -30 -2 -23 7 -24 28 -1 88 10 26 43 38 55 19z m-296 -49 c-3 -44 -6
-49 -43 -70 -48 -27 -61 -28 -69 -7 -7 19 78 124 101 124 11 0 13 -11 11 -47z
m-23 -313 c7 -12 -12 -40 -26 -40 -10 0 -12 34 -2 43 9 10 21 9 28 -3z m-926
-289 c17 -53 14 -131 -8 -167 -10 -17 -44 -51 -74 -75 -31 -24 -107 -91 -169
-147 -113 -103 -227 -192 -247 -192 -23 0 -9 20 39 57 35 27 105 116 242 305
106 146 196 263 199 260 4 -4 11 -22 18 -41z m1124 -113 c31 -12 31 -12 9 -58
-22 -44 -42 -48 -275 -50 -176 -2 -180 -2 -348 -46 -102 -27 -199 -59 -241
-80 l-71 -36 7 29 c4 15 15 35 24 44 18 16 113 48 312 104 104 30 117 31 132
17 16 -14 29 -11 139 32 172 67 231 75 312 44z m132 -230 c82 -27 187 -79 198
-99 14 -22 2 -60 -31 -102 -28 -35 -69 -136 -92 -225 -10 -39 -14 -43 -33 -38
-12 4 -34 9 -49 12 l-28 6 7 -93 6 -94 -32 27 c-38 33 -62 28 -55 -10 3 -15
11 -61 19 -102 7 -41 12 -76 10 -78 -2 -2 -19 8 -39 23 l-35 26 -5 -43 c-3
-24 -11 -88 -16 -142 -6 -55 -12 -102 -15 -104 -2 -2 -15 19 -29 47 -31 61
-55 75 -112 67 -43 -6 -44 -5 -44 24 0 21 -5 30 -16 30 -12 0 -14 -5 -9 -17
20 -48 16 -58 -44 -117 -46 -46 -58 -63 -49 -73 18 -22 85 -15 134 13 25 15
46 25 48 23 2 -2 24 -46 50 -96 45 -91 46 -93 24 -98 -39 -10 -243 -42 -246
-39 -2 1 -19 62 -37 134 -18 72 -36 134 -39 137 -3 3 -19 -9 -37 -26 -36 -36
-36 -43 1 -184 13 -48 21 -89 19 -91 -9 -9 -174 37 -197 55 -16 12 -40 19 -66
19 -44 0 -67 -12 -83 -44 -9 -15 -12 -12 -21 26 l-11 44 -93 23 c-51 12 -142
33 -201 46 -60 13 -111 26 -114 29 -3 3 13 49 37 103 87 198 109 301 75 350
-8 12 -29 36 -46 53 -27 27 -31 36 -26 68 5 30 21 51 80 107 74 70 116 131
100 144 -4 4 -34 15 -65 26 -76 24 -92 42 -83 94 l7 40 46 -33 c58 -41 106
-66 127 -66 9 0 31 14 48 32 39 38 121 92 191 124 87 40 610 100 756 87 30 -3
82 -14 115 -25z m354 -332 c40 -40 61 -69 56 -76 -5 -9 -36 -11 -104 -9 -81 3
-96 2 -99 -12 -4 -23 69 -70 125 -80 132 -24 157 -77 114 -235 -59 -217 -165
-563 -180 -589 -25 -42 -54 -37 -143 23 -40 27 -101 64 -135 81 -71 35 -82 57
-59 113 9 20 23 71 32 114 8 43 22 91 30 106 8 16 32 96 54 178 41 156 72 229
125 295 18 22 48 66 68 98 20 31 40 57 45 57 4 0 36 -29 71 -64z m-2524 -360
l40 -13 -40 -12 c-22 -7 -105 -16 -185 -21 -186 -11 -1059 -34 -1066 -28 -10
11 10 40 40 56 28 15 83 18 506 22 261 3 518 6 570 7 53 1 113 -4 135 -11z
m627 -23 c10 -10 -42 -13 -259 -13 -267 0 -367 8 -253 21 104 12 498 5 512 -8z
m198 -102 c0 -28 -109 -283 -128 -302 -22 -20 -70 -40 -75 -31 -18 31 -14 66
12 129 53 123 90 178 135 201 52 26 56 26 56 3z m1170 -262 c0 -5 -7 -9 -15
-9 -9 0 -12 6 -9 15 6 15 24 11 24 -6z m-1000 -119 c0 -29 -4 -40 -15 -40 -17
0 -19 18 -5 54 14 37 20 32 20 -14z m-284 -55 c-23 -17 -36 -19 -36 -6 0 11
18 19 40 20 11 0 10 -3 -4 -14z m1477 -91 c78 -59 148 -113 156 -120 12 -11 4
-24 -48 -84 -33 -39 -61 -75 -61 -80 0 -24 27 -18 87 20 36 22 69 37 73 33 16
-18 120 -254 148 -338 17 -49 54 -168 82 -263 28 -96 62 -196 76 -224 25 -50
192 -516 345 -963 43 -126 119 -367 168 -535 50 -168 97 -325 106 -349 8 -24
14 -45 12 -47 -2 -2 -44 10 -94 25 -95 29 -146 55 -325 164 -60 37 -148 79
-210 101 -114 40 -208 90 -378 202 l-105 68 48 7 c59 9 95 31 103 65 9 36 -1
100 -21 131 l-18 26 -18 -24 c-10 -13 -28 -49 -41 -79 -12 -30 -31 -70 -42
-89 l-20 -34 -30 35 c-17 19 -97 106 -178 194 -203 221 -307 343 -324 381 -23
53 -16 118 30 303 43 170 63 284 86 500 9 84 46 294 76 430 l6 25 27 -34 c21
-26 32 -32 44 -25 15 9 14 14 -7 61 -13 28 -32 55 -42 61 -15 8 -16 22 -12
130 5 95 11 130 29 168 16 35 21 64 20 101 -3 63 21 118 63 144 17 10 35 19
39 19 4 0 72 -48 150 -106z m-363 -14 c8 -16 6 -38 -10 -95 -18 -64 -20 -91
-15 -183 7 -114 -9 -261 -76 -687 -33 -207 -45 -267 -82 -395 -14 -47 -28
-112 -32 -145 -10 -83 -28 -156 -86 -331 -55 -170 -56 -176 -134 -585 -53
-276 -77 -378 -190 -803 -43 -165 -67 -216 -101 -216 -25 0 -31 -33 -26 -155
5 -139 -10 -228 -59 -348 -16 -39 -45 -121 -64 -182 -34 -109 -65 -167 -121
-233 -21 -24 -34 -31 -47 -27 -10 5 -16 14 -13 24 3 9 48 246 101 526 187 994
191 1010 206 1009 8 -1 20 -3 28 -5 7 -2 16 2 18 9 3 8 -6 12 -26 12 -17 0
-31 4 -31 9 0 27 21 59 43 65 31 7 50 53 42 97 -4 19 3 87 14 154 22 132 218
935 251 1029 26 74 24 108 -10 116 -23 5 -20 9 38 53 76 59 95 93 87 150 -4
31 7 100 44 262 127 561 161 715 171 780 18 104 53 146 80 95z m-426 -59 c199
-42 198 -40 185 -221 -9 -147 -19 -215 -60 -450 -44 -245 -43 -241 -52 -241
-4 0 -82 87 -173 193 -124 145 -202 226 -317 326 -184 162 -246 222 -287 278
l-30 43 42 50 43 51 275 -4 c230 -3 291 -7 374 -25z m-804 -321 c18 -23 31
-42 29 -43 -2 -2 -24 -16 -48 -31 l-45 -29 30 -24 c16 -13 47 -28 69 -34 117
-32 153 -57 280 -195 128 -139 128 -139 120 -164 -5 -15 -15 -20 -45 -20 -33
0 -37 -3 -33 -20 6 -24 8 -24 43 -3 28 16 29 16 55 -15 22 -26 30 -30 45 -22
10 6 21 10 23 10 2 0 30 -33 61 -74 64 -84 77 -126 52 -174 -9 -17 -89 -89
-188 -168 -241 -192 -288 -225 -414 -288 -99 -49 -112 -58 -117 -85 -11 -51
-64 -97 -185 -156 -62 -30 -114 -55 -116 -55 -2 0 0 19 5 43 4 23 8 45 9 49 0
3 16 15 35 27 39 23 43 42 21 96 -22 51 -42 45 -56 -17 -7 -29 -15 -58 -19
-65 -8 -16 -110 157 -134 227 -21 62 -20 190 3 290 12 54 13 54 29 32 9 -13
24 -33 33 -45 l17 -22 16 40 c17 38 16 40 -5 57 -12 10 -33 18 -46 18 -21 0
-24 4 -24 40 0 56 26 125 99 259 49 92 61 123 61 160 0 61 30 122 124 251 42
58 81 123 88 145 6 22 18 48 26 57 13 15 17 16 42 3 15 -8 42 -33 60 -55z
m264 -89 c40 -36 95 -82 122 -101 36 -26 57 -51 80 -98 17 -35 42 -70 55 -79
68 -45 268 -271 253 -286 -10 -9 -62 11 -106 41 -64 44 -139 128 -185 207 -30
50 -88 116 -207 234 -126 126 -163 168 -154 178 13 16 39 -2 142 -96z m536
-697 c0 -10 -72 -105 -76 -101 -8 8 19 83 34 95 17 13 42 16 42 6z m-130 -174
c0 -7 -84 -74 -120 -95 -8 -5 10 21 40 57 41 50 58 64 67 56 7 -6 13 -14 13
-18z m90 -72 c-16 -68 -51 -130 -84 -148 -35 -18 -40 -44 -33 -161 3 -55 3
-99 -2 -99 -4 0 -29 32 -56 70 -27 39 -52 70 -56 70 -20 0 -18 -26 5 -98 28
-83 56 -215 56 -263 0 -18 -5 -29 -14 -29 -15 0 -21 28 -31 153 l-7 77 -42 0
c-24 0 -64 -3 -90 -6 -42 -6 -49 -11 -67 -45 -22 -45 -32 -48 -53 -17 -37 53
-7 92 116 154 59 30 68 38 68 62 1 15 6 37 13 49 12 22 279 289 286 286 2 -1
-2 -26 -9 -55z m-253 -71 c-74 -114 -233 -256 -347 -311 -105 -51 -466 -320
-507 -378 -38 -52 -92 -93 -413 -311 -103 -69 -199 -129 -215 -133 -17 -4 -77
-46 -135 -94 -142 -118 -181 -142 -219 -138 -31 3 -29 5 64 78 52 41 95 80 95
86 0 23 53 64 81 64 22 0 62 27 159 103 166 132 489 355 547 377 33 12 51 27
66 55 17 30 67 69 213 170 106 73 278 203 382 289 172 140 229 181 241 170 2
-2 -3 -14 -12 -27z m616 -536 c44 -30 135 -122 251 -254 l69 -78 -17 -35 c-16
-34 -14 -54 4 -54 6 0 13 18 16 40 l6 40 61 -43 c86 -60 178 -147 193 -182 7
-17 16 -63 20 -104 7 -75 20 -95 49 -71 10 8 15 31 15 71 l0 59 48 -6 c50 -6
172 -65 538 -259 128 -68 227 -115 254 -119 87 -14 133 -60 164 -166 23 -79
181 -737 205 -855 77 -378 134 -785 135 -960 1 -146 -25 -359 -48 -391 -10
-14 -39 14 -202 192 -252 277 -338 376 -452 519 -52 66 -191 217 -307 335
-221 225 -304 317 -370 412 -29 42 -52 62 -88 78 -38 18 -90 68 -266 259 -121
131 -279 294 -353 362 -228 212 -235 220 -248 280 -11 51 -9 68 39 289 34 156
61 256 81 297 27 58 29 67 23 145 -7 98 8 162 64 272 l36 71 19 -58 c16 -46
28 -63 61 -86z m-932 -27 c10 -22 21 -78 25 -125 l7 -84 -24 20 c-13 11 -36
31 -51 44 l-28 25 0 -26 c0 -14 5 -40 11 -57 10 -29 15 -32 38 -26 47 13 54
10 67 -25 30 -82 14 -155 -48 -223 -14 -14 -33 -44 -43 -66 -16 -37 -17 -45
-1 -127 9 -48 14 -89 12 -91 -2 -2 -22 29 -45 69 l-41 73 28 22 c23 19 24 23
8 23 -15 0 -12 8 20 47 l38 46 -24 16 c-126 82 -146 99 -172 152 -15 30 -29
58 -31 64 -2 5 -27 -1 -57 -14 -59 -25 -58 -26 -86 46 -15 40 -15 44 0 68 21
32 28 32 49 -5 24 -40 31 -38 35 11 6 86 57 146 177 207 l60 30 29 -26 c16
-15 37 -45 47 -68z m229 76 c0 -5 -5 -10 -11 -10 -5 0 -7 5 -4 10 3 6 8 10 11
10 2 0 4 -4 4 -10z m80 -113 c16 -72 0 -146 -48 -223 l-37 -59 -6 70 c-4 39
-7 105 -8 147 l-1 77 37 25 c20 14 40 23 44 20 4 -2 13 -28 19 -57z m-14 -394
c-4 -9 -14 -45 -23 -80 -9 -35 -19 -61 -23 -56 -5 4 -6 41 -3 81 5 68 7 72 30
72 19 0 24 -4 19 -17z m-1887 -430 c-29 -41 -50 -56 -139 -100 -125 -62 -150
-65 -191 -21 -16 18 -29 35 -29 39 0 7 383 138 389 133 2 -2 -12 -25 -30 -51z
m2184 -224 c25 -12 104 -84 191 -173 l149 -151 5 -57 c5 -63 25 -78 42 -32
l10 25 28 -20 c34 -24 290 -286 396 -405 44 -48 156 -157 250 -241 94 -84 192
-175 217 -201 132 -140 562 -648 815 -964 203 -254 188 -228 186 -312 -1 -40
-10 -117 -22 -172 -11 -54 -20 -112 -20 -130 0 -29 -50 -183 -240 -741 -77
-227 -116 -326 -129 -325 -7 1 -1232 1659 -1261 1708 -11 17 -58 79 -105 137
-139 172 -646 944 -718 1092 -46 96 -54 149 -37 236 20 107 160 701 170 725
12 27 20 27 73 1z m-2713 -174 c-7 -9 -15 -13 -18 -10 -3 2 1 11 8 20 7 9 15
13 18 10 3 -2 -1 -11 -8 -20z m2727 -1303 c249 -374 373 -570 373 -591 0 -4
-13 -12 -29 -17 l-30 -9 16 -35 15 -35 16 33 c9 17 18 32 21 31 17 -2 250
-295 271 -341 21 -44 25 -68 24 -143 0 -52 -8 -126 -20 -175 -17 -78 -19 -118
-16 -480 4 -547 -6 -620 -128 -860 -68 -135 -93 -193 -210 -474 -101 -246
-105 -248 -260 -127 -157 122 -190 156 -190 195 0 20 26 90 64 172 130 286
146 351 153 626 8 320 -21 469 -137 703 -92 186 -189 399 -206 455 -7 25 -27
216 -44 425 -17 209 -42 505 -56 658 -14 153 -23 284 -20 293 5 12 9 12 26 2
29 -19 52 0 69 55 8 26 17 47 20 47 3 0 128 -184 278 -408z m-361 362 c-4 -9
-9 -15 -11 -12 -3 3 -3 13 1 22 4 9 9 15 11 12 3 -3 3 -13 -1 -22z m-136 -324
c0 -5 -7 -10 -15 -10 -8 0 -15 5 -15 10 0 6 7 10 15 10 8 0 15 -4 15 -10z
m-90 -134 c0 -12 -14 -41 -30 -66 -37 -55 -38 -92 -6 -118 14 -10 33 -35 42
-56 10 -20 20 -36 24 -36 12 0 42 62 36 76 -3 8 -19 14 -36 14 -28 0 -31 3
-28 28 3 26 4 27 62 23 l59 -3 -7 48 c-9 65 3 48 31 -44 51 -173 55 -192 43
-227 -16 -48 -31 -57 -116 -65 -41 -4 -80 -12 -86 -18 -6 -6 -3 -22 10 -48 11
-22 23 -55 26 -74 l7 -35 -41 43 c-22 23 -42 42 -44 42 -2 0 -7 -40 -10 -90
-4 -49 -9 -90 -12 -90 -2 0 -22 7 -45 17 l-41 16 38 32 38 32 -23 36 -22 37
30 37 c17 21 37 56 46 77 15 36 15 43 1 75 -12 30 -46 225 -46 269 0 6 6 12
13 12 7 0 24 25 37 56 21 52 24 55 37 39 7 -11 13 -28 13 -39z m140 23 c0 -5
-4 -9 -10 -9 -5 0 -10 7 -10 16 0 8 5 12 10 9 6 -3 10 -10 10 -16z m-240 -429
c0 -5 -4 -10 -10 -10 -5 0 -10 5 -10 10 0 6 5 10 10 10 6 0 10 -4 10 -10z
m300 -80 c-6 -11 -12 -20 -14 -20 -2 0 -2 9 1 20 3 11 9 20 15 20 5 0 4 -9 -2
-20z m-51 -26 c58 -12 95 -126 68 -214 l-13 -45 -28 60 c-26 58 -27 61 -10 89
16 28 16 30 -1 43 -11 7 -25 13 -32 13 -7 0 -19 14 -28 30 -17 34 -14 35 44
24z m-99 -115 c0 -6 -4 -7 -10 -4 -5 3 -10 11 -10 16 0 6 5 7 10 4 6 -3 10
-11 10 -16z m90 -109 c0 -13 -52 -92 -57 -87 -7 7 36 97 47 97 5 0 10 -5 10
-10z m-115 -30 c-3 -5 -10 -10 -16 -10 -5 0 -9 5 -9 10 0 6 7 10 16 10 8 0 12
-4 9 -10z m187 -40 c6 -41 -4 -52 -41 -48 l-33 3 29 37 c15 21 31 37 34 38 4
0 9 -13 11 -30z m-284 -59 c-5 -41 -23 -34 -41 16 -24 66 -22 71 13 38 21 -20
30 -37 28 -54z m125 -26 c-16 -47 -27 -56 -37 -29 -15 39 1 74 35 74 17 0 17
-3 2 -45z m77 -47 c0 -17 -49 -76 -50 -60 0 19 29 72 40 72 6 0 10 -6 10 -12z
m1347 -220 c49 -57 123 -148 165 -203 105 -139 583 -803 664 -921 65 -96 66
-99 62 -151 -8 -95 -142 -336 -285 -513 -77 -95 -249 -263 -264 -258 -6 2 -82
161 -168 353 -87 193 -187 407 -223 477 -40 77 -72 154 -82 195 -26 117 -38
296 -40 608 -1 285 0 305 23 395 19 77 39 120 57 120 1 0 42 -46 91 -102z
m-1463 0 c25 -42 20 -62 -9 -38 -13 10 -18 6 -30 -26 -43 -108 -40 -107 -58
-13 -21 105 -21 108 2 102 11 -3 28 0 38 6 27 16 30 14 57 -31z m301 -115
c153 -261 223 -430 250 -611 43 -286 -17 -626 -156 -880 -22 -39 -42 -72 -44
-72 -35 0 -95 83 -146 202 -21 51 -46 107 -54 123 -8 17 -21 48 -29 70 -7 22
-30 77 -51 123 -20 45 -45 113 -56 150 -42 143 -119 514 -119 569 0 88 31 144
127 231 45 40 107 104 138 142 32 39 60 70 64 70 4 0 38 -53 76 -117z m-394
-90 c-8 -15 -10 -15 -11 -2 0 17 10 32 18 25 2 -3 -1 -13 -7 -23z m1486 -1164
c103 -194 317 -644 328 -691 10 -40 -26 -69 -125 -101 -146 -47 -217 -59 -402
-64 -199 -6 -256 2 -300 45 -23 21 -28 34 -28 73 0 61 12 92 115 305 48 98
125 267 172 374 92 210 121 266 133 253 5 -4 53 -92 107 -194z"/>
<path d="M3436 9244 c-17 -24 -17 -27 0 -45 16 -18 18 -18 36 -3 23 22 23 37
-1 58 -17 16 -19 15 -35 -10z"/>
<path d="M3227 9254 c-7 -7 1 -54 12 -66 14 -16 28 9 24 40 -5 30 -21 41 -36
26z"/>
<path d="M3341 9236 c-15 -18 2 -56 23 -56 19 0 28 28 16 51 -13 23 -23 24
-39 5z"/>
<path d="M3085 9210 c-6 -29 -1 -50 14 -50 10 0 31 67 23 74 -14 15 -31 3 -37
-24z"/>
<path d="M2940 9195 c0 -31 3 -35 26 -35 22 0 25 3 20 23 -3 12 -6 28 -6 35 0
6 -9 12 -20 12 -16 0 -20 -7 -20 -35z"/>
<path d="M3576 9189 c-10 -50 -8 -51 31 -25 33 23 39 24 53 11 18 -17 30 -19
30 -7 0 8 -84 52 -99 52 -5 0 -11 -14 -15 -31z"/>
<path d="M3896 9181 c-4 -7 -5 -15 -2 -18 9 -9 19 4 14 18 -4 11 -6 11 -12 0z"/>
<path d="M2732 8808 c-15 -15 -15 -40 1 -61 9 -12 40 -18 127 -25 63 -5 117
-8 119 -6 11 10 -35 55 -80 78 -57 28 -145 36 -167 14z"/>
<path d="M3095 8740 c-15 -16 -15 -22 -5 -35 17 -21 33 -19 56 6 18 20 18 21
-1 35 -25 18 -28 18 -50 -6z"/>
<path d="M3191 8717 c-13 -16 -5 -27 20 -27 24 0 35 20 18 31 -19 12 -25 11
-38 -4z"/>
<path d="M3304 8694 c-16 -23 -16 -26 -1 -42 16 -15 19 -15 38 5 18 18 19 23
8 42 -18 27 -25 27 -45 -5z"/>
<path d="M3610 8000 c0 -51 4 -65 25 -85 13 -14 28 -25 33 -25 9 0 48 117 41
124 -7 6 -88 46 -94 46 -3 0 -5 -27 -5 -60z"/>
<path d="M3816 7884 c22 -23 39 -33 45 -27 6 6 -4 19 -29 36 -53 37 -59 34
-16 -9z"/>
<path d="M3657 7833 c-16 -16 -6 -61 17 -76 13 -9 25 -14 27 -12 3 2 3 24 1
49 -3 36 -8 46 -21 46 -10 0 -21 -3 -24 -7z"/>
<path d="M3690 7711 c-13 -26 -13 -31 5 -31 9 0 15 9 15 25 0 30 -6 32 -20 6z"/>
<path d="M3723 7578 c4 -24 11 -60 17 -81 10 -35 14 -38 43 -35 65 6 58 88
-12 135 -48 32 -55 30 -48 -19z"/>
<path d="M3585 7410 c-5 -8 3 -60 10 -60 2 0 10 3 19 6 14 5 14 9 0 35 -16 31
-20 34 -29 19z"/>
<path d="M3815 7390 c-5 -8 19 -111 31 -132 2 -3 13 -4 25 -1 17 5 20 11 15
36 -17 83 -27 107 -46 107 -10 0 -22 -4 -25 -10z"/>
<path d="M3685 7210 c-11 -17 5 -32 21 -19 7 6 11 15 8 20 -7 12 -21 11 -29
-1z"/>
<path d="M3585 7187 c-4 -10 -3 -23 3 -29 14 -14 21 3 12 27 -7 19 -8 19 -15
2z"/>
<path d="M3759 7144 c-11 -14 -10 -18 6 -30 42 -31 85 -5 45 28 -27 22 -34 22
-51 2z"/>
<path d="M3867 7123 c-4 -3 -7 -20 -7 -36 0 -19 -8 -36 -25 -49 -14 -11 -23
-24 -20 -29 10 -16 21 -10 34 17 l12 27 28 -27 c23 -22 30 -24 39 -13 9 10 7
26 -10 65 -20 49 -35 61 -51 45z"/>
<path d="M3670 7010 c-14 -26 0 -46 24 -37 20 8 21 31 2 46 -12 10 -17 8 -26
-9z"/>
<path d="M3896 6951 c-4 -5 3 -30 14 -55 14 -33 23 -44 35 -40 18 7 19 15 3
65 -11 38 -38 53 -52 30z"/>
<path d="M3680 6780 c0 -38 4 -50 15 -50 11 0 15 12 15 50 0 38 -4 50 -15 50
-11 0 -15 -12 -15 -50z"/>
<path d="M3905 6776 c-14 -21 -15 -33 -5 -79 7 -34 20 -63 35 -77 l24 -23 12
29 c17 42 14 88 -8 131 -24 46 -37 51 -58 19z"/>
<path d="M3477 6684 c-7 -7 24 -74 34 -74 16 0 18 18 6 49 -11 29 -26 39 -40
25z"/>
<path d="M3646 6653 c-9 -22 10 -41 25 -26 13 13 5 43 -10 43 -5 0 -12 -8 -15
-17z"/>
<path d="M3936 6518 c-26 -40 4 -79 48 -62 22 8 20 24 -8 58 l-24 29 -16 -25z"/>
<path d="M3795 6490 c-3 -5 -1 -10 4 -10 6 0 11 5 11 10 0 6 -2 10 -4 10 -3 0
-8 -4 -11 -10z"/>
<path d="M3951 6350 c-27 -44 -26 -62 2 -87 46 -42 49 -40 41 23 -3 33 -10 68
-14 79 -7 18 -9 17 -29 -15z"/>
<path d="M3660 6300 c0 -27 5 -43 15 -47 24 -8 28 1 20 46 -9 56 -35 56 -35 1z"/>
<path d="M3805 6321 c-7 -13 12 -51 25 -51 14 0 12 22 -4 43 -9 11 -17 14 -21
8z"/>
<path d="M3580 6225 c0 -8 5 -15 10 -15 6 0 10 7 10 15 0 8 -4 15 -10 15 -5 0
-10 -7 -10 -15z"/>
<path d="M3962 6128 c4 -59 28 -63 28 -4 0 35 -4 46 -16 46 -12 0 -14 -9 -12
-42z"/>
<path d="M3757 6124 c-10 -11 -8 -44 2 -44 6 0 13 4 16 10 8 12 -9 43 -18 34z"/>
<path d="M3850 6105 c0 -14 7 -28 15 -32 22 -8 28 2 21 32 -8 33 -36 33 -36 0z"/>
<path d="M2752 5259 c2 -6 8 -10 13 -10 5 0 11 4 13 10 2 6 -4 11 -13 11 -9 0
-15 -5 -13 -11z"/>
<path d="M2764 5019 c-9 -16 10 -31 30 -23 13 5 14 9 5 20 -14 17 -25 18 -35
3z"/>
<path d="M2780 4885 c0 -9 5 -15 11 -13 6 2 11 8 11 13 0 5 -5 11 -11 13 -6 2
-11 -4 -11 -13z"/>
<path d="M2750 4815 c-10 -12 -10 -18 0 -30 15 -18 21 -19 44 -2 17 13 17 14
-7 30 -22 14 -27 14 -37 2z"/>
<path d="M2527 7982 c-16 -17 -15 -20 8 -42 24 -22 27 -23 42 -8 15 16 15 19
-1 42 -20 31 -27 32 -49 8z"/>
<path d="M2668 7982 c-20 -4 -24 -46 -8 -72 15 -23 32 2 28 41 -2 27 -7 34
-20 31z"/>
<path d="M2753 7973 c-13 -5 -18 -74 -7 -86 16 -15 34 8 34 43 0 40 -6 50 -27
43z"/>
<path d="M2875 7921 c-10 -17 19 -72 33 -63 9 7 10 16 1 40 -11 32 -23 40 -34
23z"/>
<path d="M2981 7847 c-16 -16 7 -41 25 -26 8 6 14 15 14 19 0 14 -27 19 -39 7z"/>
<path d="M2797 7638 c-4 -12 -7 -29 -7 -35 0 -18 25 -16 40 3 11 13 10 18 -7
35 l-20 21 -6 -24z"/>
<path d="M2978 7604 c-11 -10 13 -64 29 -64 20 0 14 64 -7 68 -9 1 -19 0 -22
-4z"/>
<path d="M2885 7590 c-10 -17 12 -37 25 -24 8 8 6 15 -4 23 -10 9 -16 9 -21 1z"/>
<path d="M3132 7513 c4 -51 25 -54 30 -3 3 34 1 40 -15 40 -15 0 -18 -7 -15
-37z"/>
<path d="M1986 7384 c-15 -22 -16 -30 -5 -50 16 -30 20 -30 49 1 l24 26 -25
25 -26 25 -17 -27z"/>
<path d="M2180 7340 c-25 -25 -25 -32 -2 -53 17 -15 21 -15 56 9 l38 26 -28
19 c-36 24 -39 24 -64 -1z"/>
<path d="M2075 7340 c-13 -21 6 -70 26 -70 22 0 23 6 8 49 -11 32 -23 39 -34
21z"/>
<path d="M2297 7314 c-3 -3 -1 -18 4 -34 7 -20 15 -26 28 -23 16 4 17 9 8 34
-11 27 -26 36 -40 23z"/>
<path d="M2400 7265 c0 -31 3 -35 26 -35 22 0 25 3 20 23 -3 12 -6 28 -6 35 0
6 -9 12 -20 12 -16 0 -20 -7 -20 -35z"/>
<path d="M2518 7255 c-3 -28 0 -35 13 -35 15 0 29 26 29 58 0 6 -9 12 -19 12
-14 0 -20 -9 -23 -35z"/>
<path d="M2182 6914 c-12 -8 -22 -21 -22 -27 0 -12 117 -63 126 -54 3 2 9 18
14 35 8 31 8 32 -43 47 -28 8 -51 15 -52 15 0 0 -11 -7 -23 -16z"/>
<path d="M2386 6914 c-10 -26 -8 -30 31 -48 35 -17 38 -17 50 0 18 25 16 33
-9 43 -57 21 -66 22 -72 5z"/>
<path d="M1898 6870 c-15 -48 -15 -51 2 -60 31 -16 37 -12 50 36 12 43 12 48
-5 60 -28 20 -30 19 -47 -36z"/>
<path d="M2030 6908 c0 -7 3 -30 6 -50 6 -32 10 -38 32 -38 23 0 24 3 18 38
-3 20 -6 43 -6 50 0 6 -11 12 -25 12 -14 0 -25 -6 -25 -12z"/>
<path d="M2050 6423 c0 -34 12 -63 26 -63 14 0 19 36 8 64 -8 22 -34 20 -34
-1z"/>
<path d="M3300 6165 c0 -9 6 -12 15 -9 8 4 12 10 9 15 -8 14 -24 10 -24 -6z"/>
<path d="M3230 6093 c0 -14 19 -38 25 -32 8 8 -5 39 -16 39 -5 0 -9 -3 -9 -7z"/>
<path d="M3430 5980 c0 -20 5 -30 15 -30 10 0 15 10 15 30 0 20 -5 30 -15 30
-10 0 -15 -10 -15 -30z"/>
<path d="M3220 5704 c0 -45 24 -42 28 4 2 24 -1 32 -12 32 -12 0 -16 -10 -16
-36z"/>
<path d="M3772 5664 c4 -21 22 -23 26 -1 2 10 -3 17 -13 17 -10 0 -15 -6 -13
-16z"/>
<path d="M3250 5296 c0 -29 20 -66 35 -66 13 0 15 9 13 38 -2 30 -7 38 -25 40
-15 2 -23 -2 -23 -12z"/>
<path d="M4001 5266 c-33 -34 -42 -49 -36 -65 9 -29 18 -27 59 13 26 24 36 42
36 65 0 17 -4 31 -8 31 -4 0 -27 -20 -51 -44z"/>
<path d="M3826 5258 c-3 -13 -1 -27 3 -31 14 -14 31 2 31 29 0 30 -26 32 -34
2z"/>
<path d="M3660 5219 c0 -5 5 -7 10 -4 6 3 10 8 10 11 0 2 -4 4 -10 4 -5 0 -10
-5 -10 -11z"/>
<path d="M3998 5014 c-31 -16 -33 -25 -16 -57 11 -21 11 -21 19 -2 13 35 10
-53 -6 -150 -19 -115 -20 -185 -2 -185 35 0 45 35 60 190 12 138 12 159 -1
188 -18 36 -17 36 -54 16z"/>
<path d="M3786 4867 c-15 -11 -17 -17 -7 -35 6 -12 15 -22 20 -22 16 0 62 43
54 50 -17 16 -50 20 -67 7z"/>
<path d="M3905 4720 c-3 -5 -1 -19 6 -31 10 -20 12 -21 21 -5 16 29 -10 64
-27 36z"/>
<path d="M3996 4522 c-15 -18 -15 -20 2 -35 17 -15 20 -15 41 -1 21 15 21 17
5 35 -21 24 -27 24 -48 1z"/>
<path d="M3995 4396 c-16 -12 -17 -16 -6 -30 16 -19 22 -20 45 -3 16 12 16 14
-2 30 -16 15 -21 15 -37 3z"/>
<path d="M2240 6075 c-10 -12 -9 -16 3 -21 17 -6 37 2 37 16 0 15 -29 19 -40
5z"/>
<path d="M2265 5878 c8 -82 10 -88 31 -88 10 0 14 14 14 58 0 77 -8 102 -32
102 -19 0 -20 -4 -13 -72z"/>
<path d="M3517 4476 c-8 -19 1 -26 35 -26 35 0 36 13 3 28 -32 15 -32 15 -38
-2z"/>
<path d="M3620 4340 c0 -32 4 -40 19 -40 13 0 20 10 25 31 9 47 8 49 -19 49
-22 0 -25 -4 -25 -40z"/>
<path d="M3765 4231 c-17 -28 24 -42 45 -16 8 9 8 15 2 15 -6 0 -17 3 -25 6
-8 3 -18 1 -22 -5z"/>
<path d="M3905 4018 c-23 -71 -26 -100 -9 -119 40 -44 70 -4 57 76 -6 35 -14
51 -26 53 -9 2 -19 -2 -22 -10z"/>
<path d="M3280 3814 c-8 -19 -8 -30 0 -38 13 -13 30 8 30 36 0 29 -20 30 -30
2z"/>
<path d="M3841 3793 c-22 -85 -23 -109 -6 -126 28 -28 51 -6 58 55 12 96 10
108 -18 108 -20 0 -26 -7 -34 -37z"/>
<path d="M3710 3786 c-21 -24 -22 -56 -1 -56 15 0 53 58 46 70 -10 15 -19 12
-45 -14z"/>
<path d="M3664 3639 c-7 -12 14 -59 27 -59 16 0 19 19 8 44 -13 28 -24 33 -35
15z"/>
<path d="M3812 3608 c-7 -7 -12 -22 -12 -35 0 -17 6 -23 23 -23 20 0 23 4 19
30 -5 35 -14 44 -30 28z"/>
<path d="M3761 3491 c-12 -8 -12 -12 -2 -25 16 -20 53 -4 45 19 -7 17 -22 19
-43 6z"/>
<path d="M3645 3430 c-4 -6 -3 -16 3 -22 6 -6 12 -6 17 2 4 6 3 16 -3 22 -6 6
-12 6 -17 -2z"/>
<path d="M3695 3377 c-3 -6 -14 -38 -24 -69 -20 -57 -20 -57 0 -63 11 -4 22
-5 24 -3 10 11 52 128 47 131 -25 14 -43 15 -47 4z"/>
<path d="M3603 3178 c-18 -23 -45 -80 -39 -85 8 -8 26 7 26 23 0 8 7 26 16 40
17 26 14 44 -3 22z"/>
<path d="M2734 3797 c-9 -24 6 -44 18 -22 7 11 6 21 -1 28 -7 7 -12 6 -17 -6z"/>
<path d="M2755 3676 c-16 -12 -18 -19 -9 -32 14 -24 27 -27 49 -10 20 15 20
15 0 36 -19 18 -23 19 -40 6z"/>
<path d="M2770 3501 c0 -55 3 -70 17 -75 31 -12 44 15 37 82 -6 57 -9 62 -30
62 -23 0 -24 -3 -24 -69z"/>
<path d="M2915 3550 c-9 -15 4 -30 25 -30 27 0 34 17 11 29 -24 13 -28 14 -36
1z"/>
<path d="M2806 3353 c-13 -33 -6 -63 14 -63 11 0 20 6 20 13 0 6 3 22 6 33 4
16 0 23 -15 27 -12 3 -22 -1 -25 -10z"/>
<path d="M2949 3304 c-20 -24 11 -48 50 -39 40 9 39 17 -3 38 -31 14 -36 14
-47 1z"/>
<path d="M2826 3241 c-11 -17 22 -71 39 -65 12 5 12 11 2 37 -14 33 -31 45
-41 28z"/>
<path d="M3062 3120 c-37 -22 -41 -49 -12 -75 22 -20 21 -21 39 49 6 22 9 41
8 43 -2 1 -17 -7 -35 -17z"/>
<path d="M2858 3069 c-15 -9 -14 -15 19 -72 20 -34 54 -88 76 -121 38 -56 41
-58 74 -53 20 4 38 8 40 11 4 3 -184 247 -190 246 -1 0 -10 -5 -19 -11z"/>
<path d="M3200 3020 c0 -5 5 -10 10 -10 6 0 10 5 10 10 0 6 -4 10 -10 10 -5 0
-10 -4 -10 -10z"/>
<path d="M3313 2840 c-19 -11 -60 -21 -105 -25 -40 -4 -79 -8 -85 -10 -27 -9
1 -33 53 -45 63 -15 81 -9 102 33 10 22 20 27 48 27 35 0 40 5 26 27 -6 9 -15
8 -39 -7z"/>
<path d="M2570 3256 c0 -8 4 -17 9 -20 10 -7 23 19 14 28 -11 11 -23 6 -23 -8z"/>
<path d="M2487 3135 c-9 -20 -17 -38 -17 -40 0 -13 51 -2 100 21 l55 26 -30
14 c-16 7 -44 13 -61 14 -25 0 -33 -6 -47 -35z"/>
</g>
</svg>
