<svg width="0" height="0" class="hidden">
  <symbol version="1.0" xmlns="http://www.w3.org/2000/svg" preserveAspectRatio="xMidYMid meet" viewBox="0 0 425.000000 588.000000" id="12MANI">
    <g transform="translate(0.000000,588.000000) scale(0.100000,-0.100000)" fill="#000000" stroke="none">
      <path d="M2 5728 l2 -153 3 138 4 137 2119 0 c1878 0 2120 2 2120 15 0 13
-243 15 -2125 15 l-2125 0 2 -152z"></path>
      <path d="M3 4375 c0 -27 2 -38 4 -22 2 15 2 37 0 50 -2 12 -4 0 -4 -28z"></path>
      <path d="M4 3215 c0 -121 2 -169 3 -107 2 62 2 161 0 220 -1 59 -3 8 -3 -113z"></path>
      <path d="M3840 2302 c0 -5 9 -35 20 -68 38 -109 70 -252 80 -356 5 -57 12
-121 15 -143 8 -57 -7 -36 -50 70 -32 79 -169 363 -181 374 -15 15 -10 -15 11
-66 34 -86 112 -397 131 -528 22 -146 15 -289 -20 -415 -74 -268 -76 -281 -82
-440 -12 -304 32 -478 148 -587 77 -72 113 -81 206 -53 42 13 72 27 72 35 0 8
-18 71 -40 142 -42 139 -75 283 -84 376 -8 71 46 427 104 687 36 162 40 191
40 271 0 44 -7 114 -16 155 -16 78 -100 344 -128 404 -16 35 -16 34 -11 -50 3
-47 7 -123 10 -170 l5 -85 -20 25 c-11 14 -24 30 -30 37 -5 6 -12 24 -16 40
-4 15 -10 33 -15 38 -4 6 -22 46 -39 90 -17 44 -35 85 -39 90 -4 6 -18 38 -31
73 -22 54 -40 79 -40 54z m125 -307 c34 -76 68 -185 61 -192 -3 -4 -17 0 -30
7 -20 10 -26 23 -31 69 -4 31 -13 82 -20 114 -7 31 -10 57 -8 57 2 0 15 -25
28 -55z m155 -42 c12 -43 25 -107 28 -143 5 -60 4 -63 -11 -48 -9 9 -22 18
-28 20 -6 2 -12 35 -15 73 -2 39 -6 94 -9 123 -3 28 -1 52 3 52 5 0 19 -35 32
-77z m-274 -39 c24 -55 26 -72 5 -60 -9 6 -39 80 -56 136 l-7 25 17 -22 c9
-13 27 -48 41 -79z m155 -151 c-8 -15 -10 -15 -11 -2 0 17 10 32 18 25 2 -3
-1 -13 -7 -23z m104 -43 c3 -5 2 -10 -4 -10 -5 0 -13 5 -16 10 -3 6 -2 10 4
10 5 0 13 -4 16 -10z m25 -108 c-7 -13 -9 -8 -9 23 0 35 1 37 10 17 6 -15 5
-30 -1 -40z m-30 -63 c0 -11 -4 -17 -10 -14 -5 3 -10 13 -10 21 0 8 5 14 10
14 6 0 10 -9 10 -21z m-46 -123 c6 -7 28 -19 49 -26 l39 -12 -5 -62 c-6 -88
-26 -199 -37 -210 -7 -7 -10 -2 -10 12 0 18 -4 21 -22 17 -13 -3 -38 -7 -56
-9 -18 -2 -41 -11 -52 -21 -10 -9 -24 -14 -30 -10 -14 8 -42 -14 -34 -27 3 -5
-3 -4 -14 3 -16 10 -19 20 -15 53 3 23 9 55 13 71 5 17 12 62 15 100 3 39 8
87 11 108 l6 38 65 -6 c39 -3 70 -11 77 -19z m-84 -351 c5 3 3 -10 -6 -30 -8
-19 -13 -47 -12 -63 1 -21 -39 -216 -48 -230 -1 -2 -19 9 -39 23 -48 32 -56
25 -21 -16 15 -17 25 -37 23 -43 -4 -11 -66 -16 -72 -6 -6 10 15 223 27 275
15 64 26 78 55 70 16 -4 26 0 35 14 9 15 16 17 30 10 10 -6 23 -7 28 -4z m22
-57 c-7 -7 -12 -8 -12 -2 0 14 12 26 19 19 2 -3 -1 -11 -7 -17z m-172 -337 c0
-6 -4 -13 -10 -16 -5 -3 -10 1 -10 9 0 9 5 16 10 16 6 0 10 -4 10 -9z m-5 -41
c3 -5 1 -10 -4 -10 -6 0 -11 5 -11 10 0 6 2 10 4 10 3 0 8 -4 11 -10z m28 -26
c11 -4 14 -15 10 -40 -5 -30 -3 -34 15 -34 11 0 24 -5 27 -10 4 -6 16 -8 28
-4 20 6 21 5 7 -11 -14 -17 -13 -18 3 -12 12 5 17 3 15 -5 -2 -6 -17 -13 -33
-15 -16 -2 -34 -11 -40 -20 -7 -9 -17 -13 -23 -9 -7 4 -12 1 -12 -7 0 -8 -6
-17 -14 -20 -10 -4 -16 12 -25 69 -16 107 -5 137 42 118z m37 -44 c0 -5 -2
-10 -4 -10 -3 0 -8 5 -11 10 -3 6 -1 10 4 10 6 0 11 -4 11 -10z m-14 -231 c3
-5 1 -16 -4 -26 -8 -14 -12 -12 -26 14 -15 30 -15 31 4 26 11 -3 23 -9 26 -14z
m116 -67 c18 -10 33 -24 33 -30 0 -5 3 -14 8 -18 4 -4 7 -2 7 3 0 6 27 -5 60
-24 60 -36 71 -50 48 -57 -48 -15 -68 -16 -68 -2 0 7 -9 16 -19 19 -15 3 -18
1 -14 -11 5 -11 3 -13 -6 -7 -10 5 -11 2 -6 -14 4 -12 2 -21 -4 -21 -14 0 -56
58 -56 78 0 11 -7 16 -22 15 -14 -2 -30 9 -47 32 -31 40 -31 43 -9 67 15 17
18 17 39 3 13 -8 38 -23 56 -33z"></path>
      <path d="M3985 250 c3 -5 11 -10 16 -10 6 0 7 5 4 10 -3 6 -11 10 -16 10 -6 0
-7 -4 -4 -10z"></path>
      <path d="M3960 225 c0 -1 8 -12 19 -24 18 -21 19 -21 24 -1 3 11 1 18 -4 14
-5 -3 -9 -1 -9 4 0 5 -7 9 -15 9 -8 0 -15 -1 -15 -2z"></path>
      <path d="M5 985 c0 -545 1 -766 2 -492 2 274 2 720 0 990 -1 271 -2 47 -2
-498z"></path>
    </g>
  </symbol>
  <symbol version="1.0" xmlns="http://www.w3.org/2000/svg" preserveAspectRatio="xMidYMid meet" viewBox="0 0 425.000000 588.000000" id="1MANI">
    <g transform="translate(0.000000,588.000000) scale(0.100000,-0.100000)" fill="#000000" stroke="none">
      <path d="M2 5288 l3 -593 2 578 3 577 2120 0 c1878 0 2120 2 2120 15 0 13
-243 15 -2125 15 l-2125 0 2 -592z"></path>
      <path d="M1025 5580 c-172 -23 -231 -40 -323 -92 -130 -73 -260 -220 -351
-398 -50 -98 -97 -217 -89 -225 2 -3 60 55 128 128 68 72 127 133 132 135 4 2
-15 -60 -42 -137 -28 -81 -45 -143 -39 -147 5 -3 8 -1 7 5 -3 11 163 243 170
237 2 -2 -4 -30 -13 -63 -9 -32 -15 -83 -13 -113 l3 -55 24 48 c34 69 111 149
205 211 167 112 274 143 446 132 192 -12 292 -38 388 -103 73 -49 75 -49 187
-14 33 11 52 20 43 20 -21 1 -13 31 8 31 8 0 14 5 14 12 0 21 31 46 51 41 10
-3 19 -9 19 -14 0 -5 7 -9 15 -9 8 0 15 5 15 12 0 12 15 2 15 -10 1 -29 65
-46 80 -22 10 16 -120 185 -178 230 -188 150 -528 211 -902 160z m431 -30 c31
0 44 -4 44 -14 0 -8 -6 -17 -12 -19 -8 -4 -7 -6 4 -6 9 -1 19 5 21 12 4 8 12
4 26 -13 14 -18 17 -28 9 -38 -8 -9 -7 -11 6 -6 21 8 22 -22 1 -34 -16 -8 -11
-42 6 -42 4 0 6 6 3 14 -4 9 0 14 10 12 18 -3 34 -16 19 -16 -6 0 -13 -9 -16
-20 -8 -29 -27 -24 -40 10 -9 24 -17 30 -37 28 -20 -2 -24 1 -22 16 3 15 -1
17 -22 12 -23 -6 -27 -3 -32 23 -6 27 -7 28 -32 15 -28 -14 -38 -62 -15 -71 7
-3 13 -9 13 -15 0 -5 -13 -1 -30 9 -31 18 -42 40 -15 29 8 -3 15 -1 15 4 0 6
-9 10 -20 10 -11 0 -20 5 -20 10 0 6 -7 10 -16 10 -11 0 -15 6 -11 20 3 11 1
23 -4 26 -21 13 -7 26 21 20 23 -4 32 -2 37 10 4 12 14 14 36 10 16 -3 49 -6
73 -6z m-426 -92 c12 -40 25 -85 30 -100 10 -31 -3 -39 -16 -10 -11 25 -11 24
-19 59 -8 34 -32 49 -64 38 -18 -5 -37 -45 -22 -45 4 0 13 -12 20 -27 11 -23
10 -25 -3 -14 -21 17 -66 6 -66 -16 0 -25 -16 -6 -50 58 -21 41 -34 55 -54 57
-57 7 -21 26 114 61 19 5 52 10 72 10 l37 1 21 -72z m739 1 c106 -58 141 -82
184 -127 35 -37 45 -61 31 -75 -6 -6 -83 29 -94 42 -3 3 -24 19 -47 34 -24 15
-43 32 -43 37 0 6 -3 9 -7 8 -10 -3 -94 55 -113 79 -9 10 -29 28 -45 40 l-30
22 45 -10 c24 -6 78 -28 119 -50z m-522 17 c-3 -8 -1 -17 6 -19 7 -2 9 -8 4
-13 -4 -4 -14 2 -23 14 -8 12 -20 20 -25 17 -5 -4 -9 -1 -9 4 0 6 12 11 26 11
19 0 25 -4 21 -14z m-408 -137 c40 -56 75 -108 78 -115 3 -7 -9 -20 -29 -30
-53 -27 -128 -84 -195 -148 -68 -64 -76 -60 -43 23 17 44 17 51 4 62 -14 11
-25 4 -77 -52 -34 -35 -67 -73 -74 -84 -10 -17 -11 -15 -3 11 10 41 30 77 46
87 20 12 36 78 22 94 -7 9 -7 13 1 13 6 0 11 6 11 14 0 17 -18 31 -28 21 -3
-3 -1 -10 7 -14 9 -6 2 -16 -26 -38 -29 -22 -44 -28 -63 -23 -14 4 -24 12 -22
19 1 7 27 45 58 86 51 68 86 96 101 81 4 -3 -1 -6 -10 -6 -10 0 -17 -4 -17
-10 0 -13 3 -13 34 2 14 6 29 20 32 32 16 50 44 76 83 76 36 0 40 -4 110 -101z
m797 72 c10 9 17 9 28 0 7 -6 22 -9 32 -6 12 4 11 2 -3 -6 -27 -14 -31 -31 -5
-22 15 6 15 5 3 -11 -13 -15 -13 -19 0 -27 11 -7 10 -10 -8 -15 -25 -7 -30
-20 -10 -27 7 -3 5 -6 -5 -6 -12 -1 -18 6 -18 19 0 11 -7 20 -15 20 -9 0 -12
6 -8 17 4 9 2 14 -3 10 -6 -3 -16 3 -22 14 -12 19 -11 19 8 9 20 -11 30 3 10
15 -5 3 -10 12 -9 18 0 8 2 8 6 -1 4 -10 8 -10 19 -1z m-121 -11 c3 -5 -1 -10
-10 -10 -9 0 -13 5 -10 10 3 6 8 10 10 10 2 0 7 -4 10 -10z m-377 -14 c15 -8
48 -25 75 -37 26 -12 47 -26 47 -30 0 -5 12 -15 28 -23 26 -14 22 -15 -66 -18
l-92 -3 -16 50 c-8 28 -17 56 -19 63 -6 16 11 15 43 -2z m-103 -76 c24 -34 26
-43 14 -50 -14 -9 -37 23 -54 79 -10 32 5 21 40 -29z m-130 0 c3 -5 1 -10 -4
-10 -6 0 -11 5 -11 10 0 6 2 10 4 10 3 0 8 -4 11 -10z m985 -109 c0 -14 -18
-23 -31 -15 -8 4 -7 9 2 15 18 11 29 11 29 0z m-53 -38 c-3 -3 -11 -2 -17 2
-9 6 -9 10 1 16 14 8 27 -7 16 -18z m-1419 -94 c-54 -62 -74 -74 -62 -36 21
70 53 106 88 100 25 -5 25 -6 -26 -64z"></path>
      <path d="M1493 5464 c-8 -21 8 -36 27 -24 13 8 12 10 -2 10 -11 0 -15 5 -12
15 4 8 3 15 0 15 -4 0 -9 -7 -13 -16z"></path>
      <path d="M871 5424 c0 -11 3 -14 6 -6 3 7 2 16 -1 19 -3 4 -6 -2 -5 -13z"></path>
      <path d="M1648 5343 c7 -3 16 -2 19 1 4 3 -2 6 -13 5 -11 0 -14 -3 -6 -6z"></path>
    </g>
  </symbol>
  <symbol version="1.0" xmlns="http://www.w3.org/2000/svg" preserveAspectRatio="xMidYMid meet" viewBox="0 0 425.000000 588.000000" id="2MANI">
    <g transform="translate(0.000000,588.000000) scale(0.100000,-0.100000)" fill="#000000" stroke="none">
      <path d="M2 5453 l3 -428 2 413 3 412 2120 0 c1878 0 2120 2 2120 15 0 13
-243 15 -2125 15 l-2125 0 2 -427z"></path>
      <path d="M3085 5316 c-74 -14 -404 -99 -445 -114 -17 -7 34 -12 168 -17 107
-4 190 -10 185 -14 -4 -5 -35 -13 -68 -20 -313 -64 -587 -146 -425 -127 102
12 465 25 473 16 12 -11 2 -16 -73 -35 -65 -16 -246 -77 -328 -110 -69 -28
-41 -28 42 0 154 52 366 44 568 -22 108 -35 117 -40 209 -119 111 -96 152
-140 256 -280 l76 -102 86 -16 c47 -9 146 -29 219 -45 152 -32 140 -40 122 79
-26 167 -89 390 -136 482 -22 43 -109 150 -176 215 -91 88 -262 180 -408 219
-78 21 -260 26 -345 10z m345 -68 c47 -14 97 -29 112 -32 15 -3 33 -12 40 -20
8 -7 30 -17 49 -21 63 -14 173 -98 181 -139 1 -10 11 -23 20 -27 10 -5 26 -13
35 -17 10 -5 39 -38 65 -73 26 -35 56 -76 67 -91 12 -14 21 -33 21 -42 0 -9 4
-24 9 -34 8 -15 77 -257 87 -306 2 -12 8 -47 13 -78 7 -55 7 -58 -13 -58 -12
0 -37 5 -57 10 -34 10 -37 14 -45 58 -4 26 -8 49 -9 52 -1 3 -5 22 -9 43 -5
20 -13 40 -18 43 -6 4 -6 -9 -2 -33 5 -21 7 -59 7 -85 -1 -37 1 -46 13 -41 8
3 14 -1 14 -10 0 -10 -7 -13 -20 -10 -11 3 -20 9 -20 13 0 4 -11 5 -25 2 -20
-3 -24 -1 -19 12 3 9 1 16 -5 16 -6 0 -11 -5 -11 -11 0 -7 -17 -9 -52 -4 -99
12 -104 14 -128 58 -22 39 -78 126 -90 137 -3 3 -24 30 -46 60 -23 30 -60 73
-82 95 -53 53 -92 112 -92 140 0 13 -7 25 -15 29 -18 6 -19 2 -4 -25 5 -11 9
-27 7 -36 -3 -15 -5 -15 -18 -2 -8 8 -51 39 -94 67 -79 52 -141 74 -243 88
-58 7 -66 18 -28 36 59 27 12 87 -69 89 l-51 1 50 17 c28 9 60 22 72 29 12 6
31 12 43 12 23 0 23 19 -1 31 -44 22 -128 31 -193 20 -79 -14 -119 -2 -53 16
42 11 126 26 242 43 112 16 271 6 365 -22z"></path>
      <path d="M3311 5099 c-2 -39 63 -208 76 -196 2 3 -6 29 -18 58 -12 30 -29 77
-39 104 -10 28 -19 43 -19 34z"></path>
      <path d="M3851 4981 c-8 -5 -10 -14 -6 -21 6 -9 10 -8 17 4 12 21 7 28 -11 17z"></path>
      <path d="M3516 4942 c-2 -4 -1 -14 4 -22 7 -11 9 -9 7 8 -1 24 -3 26 -11 14z"></path>
      <path d="M3625 4931 c-25 -42 -62 -121 -58 -125 8 -7 46 43 65 86 10 21 13 40
8 43 -5 3 -11 1 -15 -4z"></path>
      <path d="M3830 4911 c0 -6 5 -13 10 -16 6 -3 10 1 10 9 0 9 -4 16 -10 16 -5 0
-10 -4 -10 -9z"></path>
      <path d="M3922 4647 c11 -49 23 -66 39 -50 7 7 5 15 -6 27 -9 9 -15 22 -12 29
3 8 -3 18 -13 25 -16 10 -17 8 -8 -31z"></path>
      <path d="M3970 4541 c0 -5 7 -12 16 -15 14 -5 15 -4 4 9 -14 17 -20 19 -20 6z"></path>
      <path d="M3920 4413 c-15 -6 -30 -23 -30 -34 0 -4 16 0 34 9 43 19 39 41 -4
25z"></path>
      <path d="M5 3515 c0 -484 1 -683 2 -443 2 240 2 636 0 880 -1 244 -2 47 -2
-437z"></path>
    </g>
  </symbol>
  <symbol version="1.0" xmlns="http://www.w3.org/2000/svg" preserveAspectRatio="xMidYMid meet" viewBox="0 0 425.000000 588.000000" id="5MANI">
    <g transform="translate(0.000000,588.000000) scale(0.100000,-0.100000)" fill="#000000" stroke="none">
      <path d="M2 5728 l2 -153 3 138 4 137 2119 0 c1878 0 2120 2 2120 15 0 13
-243 15 -2125 15 l-2125 0 2 -152z"></path>
      <path d="M5 3560 c0 -476 1 -670 2 -433 2 238 2 628 0 865 -1 238 -2 44 -2
-432z"></path>
      <path d="M260 3709 c0 -6 22 -48 49 -93 26 -44 66 -112 87 -151 76 -140 207
-232 450 -319 138 -49 161 -55 316 -70 225 -23 418 -11 623 41 197 49 258 78
278 135 6 18 -28 76 -53 89 -8 4 -49 28 -90 53 -159 95 -297 152 -535 221
-126 36 -242 71 -257 76 -15 6 -33 9 -40 7 -7 -3 83 -52 200 -109 118 -57 208
-105 200 -107 -12 -2 -301 59 -352 74 -11 4 -16 2 -12 -4 3 -5 16 -12 29 -16
35 -8 180 -76 175 -81 -3 -4 -171 36 -298 71 -17 4 -22 3 -15 -3 11 -11 187
-81 297 -118 65 -22 198 -106 198 -125 0 -16 -39 -46 -75 -57 -38 -12 -154 -2
-257 22 -134 31 -296 99 -398 168 -64 43 -181 166 -208 218 -13 24 -32 55 -43
69 l-19 25 18 -40 c34 -77 53 -105 117 -177 36 -40 65 -76 65 -80 0 -4 -7 -13
-15 -22 -8 -8 -15 -20 -15 -26 0 -13 -60 -80 -72 -80 -4 0 -43 32 -88 72 -88
78 -153 167 -174 239 -22 72 -44 109 -66 109 -11 0 -20 -5 -20 -11z m1105
-115 c67 -14 255 -74 315 -99 138 -58 316 -159 348 -197 16 -20 -3 -68 -29
-68 -9 0 -19 -6 -22 -14 -9 -22 -143 -72 -253 -95 -153 -31 -223 -34 -394 -17
-85 9 -185 16 -222 16 -37 0 -69 4 -72 9 -5 8 12 111 18 111 1 0 25 -6 52 -14
81 -24 211 -39 291 -34 67 5 78 8 106 36 27 27 29 34 19 56 -6 14 -34 42 -61
62 -28 21 -49 40 -47 42 2 2 28 -4 57 -12 101 -30 74 2 -56 69 -77 39 -84 44
-50 39 22 -4 51 -11 65 -16 39 -15 162 -39 168 -33 10 10 -11 23 -153 95 -141
72 -167 87 -130 77 11 -3 34 -9 50 -13z m-595 -248 c0 -2 -6 -6 -14 -9 -8 -3
-16 2 -19 14 -4 16 -2 17 14 8 10 -5 19 -11 19 -13z"></path>
    </g>
  </symbol>
  <symbol version="1.0" xmlns="http://www.w3.org/2000/svg" preserveAspectRatio="xMidYMid meet" viewBox="0 0 425.000000 588.000000" id="4MANI">
    <g transform="translate(0.000000,588.000000) scale(0.100000,-0.100000)" fill="#000000" stroke="none">
      <path d="M2 5728 l2 -153 3 138 4 137 2119 0 c1878 0 2120 2 2120 15 0 13
-243 15 -2125 15 l-2125 0 2 -152z"></path>
      <path d="M1520 4731 l-155 -27 195 -8 c263 -10 271 -19 50 -56 -178 -29 -186
-32 -125 -41 28 -4 74 -8 103 -8 28 -1 52 -5 52 -10 0 -9 -188 -59 -329 -87
-60 -13 -78 -20 -64 -25 36 -13 201 -29 356 -35 427 -15 809 -71 1077 -159 74
-25 180 -62 235 -83 55 -22 109 -43 120 -47 17 -6 16 -5 -3 10 -13 9 -51 28
-85 41 -34 14 -80 33 -102 43 -107 49 -323 113 -413 121 -51 5 -123 19 -160
30 -37 11 -80 20 -97 19 -16 0 -61 4 -100 10 -38 7 -104 16 -145 21 -41 5
-138 16 -215 26 -77 9 -150 17 -162 17 -40 -1 -25 16 28 32 29 8 101 23 160
32 73 12 109 22 109 31 0 20 -46 32 -133 33 l-82 1 60 13 c33 7 90 16 128 20
95 10 91 44 -8 63 -90 17 2 13 188 -8 160 -18 370 -63 486 -104 24 -9 52 -16
62 -16 17 0 133 -40 309 -107 170 -64 440 -180 485 -208 68 -43 131 -75 260
-133 179 -81 335 -166 335 -183 0 -31 -108 -199 -128 -199 -7 0 -15 7 -18 15
-7 17 -34 21 -34 5 0 -5 5 -10 10 -10 6 0 10 -6 10 -12 0 -7 15 -21 32 -31 37
-21 26 -32 111 105 31 51 64 103 73 115 15 21 14 23 -123 91 -76 38 -239 122
-363 185 -260 134 -678 314 -855 368 -69 22 -355 99 -415 113 -81 19 -465 66
-522 65 -24 -1 -113 -14 -198 -28z"></path>
      <path d="M4 4265 c0 -88 2 -123 3 -77 2 46 2 118 0 160 -1 42 -3 5 -3 -83z"></path>
      <path d="M3218 4169 c-21 -12 -24 -55 -5 -62 6 -2 9 -7 6 -11 -3 -3 -32 3 -64
14 -32 11 -60 20 -63 20 -3 0 91 -49 209 -108 118 -59 258 -136 311 -171 54
-34 105 -61 115 -59 19 4 13 7 -134 92 -37 21 -104 62 -148 91 -44 29 -102 60
-129 69 -27 9 -58 21 -69 27 -18 10 -19 12 -4 21 11 5 24 5 37 -2 19 -10 20
-10 9 9 -10 15 -10 23 0 35 28 33 -28 60 -71 35z"></path>
      <path d="M3343 4150 c-8 -12 -9 -21 -3 -25 6 -4 8 -11 5 -16 -4 -5 -1 -9 4 -9
6 0 11 16 11 35 0 41 -1 42 -17 15z"></path>
      <path d="M3386 4104 c-9 -23 17 -49 37 -38 12 8 11 13 -8 32 -20 22 -23 22
-29 6z"></path>
      <path d="M3461 4104 c0 -11 3 -14 6 -6 3 7 2 16 -1 19 -3 4 -6 -2 -5 -13z"></path>
      <path d="M4 150 c0 -85 2 -120 3 -78 2 43 2 113 0 156 -1 42 -3 7 -3 -78z"></path>
    </g>
  </symbol>
  <symbol version="1.0" xmlns="http://www.w3.org/2000/svg" preserveAspectRatio="xMidYMid meet" viewBox="0 0 425.000000 588.000000" id="3MANI">
    <g transform="translate(0.000000,588.000000) scale(0.100000,-0.100000)" fill="#000000" stroke="none">
      <path d="M2 4883 l3 -998 2 983 3 982 2120 0 c1878 0 2120 2 2120 15 0 13
-243 15 -2125 15 l-2125 0 2 -997z"></path>
      <path d="M746 4609 c14 -22 24 -43 22 -45 -3 -2 -22 14 -43 36 -46 47 -51 48
-231 24 -116 -16 -123 -18 -113 -36 16 -29 3 -51 -26 -46 -13 3 -22 1 -19 -3
13 -22 -51 13 -72 38 -16 18 -84 30 -84 14 0 -31 170 -254 228 -299 182 -143
439 -216 752 -213 343 3 630 -35 809 -106 85 -33 137 -71 294 -215 241 -221
395 -326 560 -383 238 -81 408 -88 702 -31 105 21 205 40 223 43 58 10 34 23
-45 23 -84 1 -305 15 -404 26 -75 8 -66 14 76 48 113 26 239 64 218 65 -6 1
-54 -10 -105 -24 -51 -15 -135 -29 -188 -32 -92 -5 -138 -22 -124 -44 3 -5 -5
-9 -18 -9 l-23 0 25 -14 c16 -8 30 -9 37 -4 7 6 19 6 30 0 35 -19 153 -30 292
-29 77 1 134 -1 128 -4 -12 -6 -151 -30 -297 -51 -41 -6 -103 -11 -137 -12
-53 0 -64 3 -82 24 -11 14 -20 30 -21 36 0 14 -24 64 -30 64 -10 0 -28 -50
-19 -55 4 -3 5 -13 2 -22 -5 -13 -2 -15 15 -11 13 4 27 -1 38 -13 19 -21 12
-38 -8 -22 -7 6 -37 13 -67 16 -29 4 -56 8 -58 10 -2 3 1 35 7 73 7 41 9 105
5 157 -7 95 -8 93 53 81 17 -4 29 -11 26 -18 -10 -27 -10 -186 1 -186 6 0 10
21 9 54 -1 40 3 57 13 61 9 3 13 12 9 20 -6 17 10 29 39 30 11 0 19 5 18 11
-1 8 29 12 93 13 52 1 134 11 181 21 48 10 89 18 90 16 7 -6 -176 -85 -244
-106 -75 -23 -79 -25 -64 -49 8 -13 28 -12 144 2 73 9 153 24 177 32 23 8 57
15 74 15 29 -1 30 -1 12 -15 -11 -8 -17 -15 -14 -15 6 0 142 50 145 54 5 5
-114 -6 -220 -20 -187 -24 -212 -16 -99 33 37 16 117 52 179 79 157 68 140 80
-59 41 -138 -27 -173 -30 -358 -31 -166 0 -217 3 -270 17 -70 19 -194 77 -275
129 -182 116 -228 147 -293 195 -330 243 -368 256 -817 288 -259 18 -289 22
-395 47 -128 31 -201 72 -310 177 -104 98 -136 116 -94 50z m-329 -25 c-3 -3
-12 -4 -19 -1 -8 3 -5 6 6 6 11 1 17 -2 13 -5z m-61 -106 c16 -13 40 -35 55
-50 14 -16 31 -28 37 -28 6 0 14 -9 17 -20 3 -11 12 -20 18 -20 7 0 43 -33 80
-72 87 -93 68 -101 -51 -21 -151 101 -263 233 -197 233 7 0 25 -10 41 -22z
m642 -72 c37 -18 88 -41 114 -51 46 -17 58 -33 58 -82 0 -25 -15 -31 -23 -9
-3 7 -24 22 -46 33 -22 11 -62 39 -88 61 -27 23 -59 50 -73 61 -36 29 -19 26
58 -13z m-363 -16 c19 -8 19 -9 1 -9 -19 -1 -19 -1 -1 -14 12 -10 15 -16 6
-21 -15 -10 -53 3 -45 15 3 6 0 16 -6 24 -10 12 -9 15 6 14 11 0 28 -4 39 -9z
m96 -57 c0 -16 1 -16 8 1 6 17 10 15 34 -14 16 -19 33 -30 42 -27 9 4 12 1 8
-9 -3 -7 -12 -14 -20 -14 -8 0 -12 -4 -8 -10 3 -5 12 -7 20 -3 11 3 17 -4 21
-25 6 -28 8 -30 34 -20 32 11 37 44 10 65 -8 6 -12 14 -9 17 7 8 64 -20 64
-31 2 -19 17 -53 25 -53 4 0 8 -16 7 -36 -1 -32 -3 -35 -24 -29 -14 3 -23 1
-23 -6 0 -11 -23 -10 -95 5 -67 14 -76 17 -70 26 3 6 -3 10 -14 10 -14 0 -22
8 -26 28 -4 15 -11 35 -16 45 -7 13 -5 19 6 23 8 4 15 16 14 28 0 20 -1 20 -9
1 -7 -18 -8 -19 -15 -2 -4 9 -5 24 -1 32 8 21 36 19 37 -2z m-91 -13 c0 -5 -9
-10 -19 -10 -11 0 -23 5 -26 10 -4 6 5 10 19 10 14 0 26 -4 26 -10z m597 -47
c1 -10 4 -28 6 -41 5 -32 20 -44 53 -40 21 2 30 9 32 26 2 12 -1 22 -7 22 -6
0 -11 10 -11 23 0 13 3 17 8 10 8 -13 62 -6 62 9 0 27 25 -5 45 -57 l22 -60
74 -17 c41 -9 94 -16 119 -17 25 0 91 -11 148 -23 88 -18 101 -24 89 -35 -12
-12 -23 -12 -72 1 -32 8 -62 13 -66 10 -4 -2 -29 0 -54 6 -54 12 -185 21 -335
23 l-105 2 -12 70 c-7 39 -15 83 -18 100 -4 23 -3 27 7 17 6 -6 13 -20 15 -29z
m408 8 c36 -6 38 -8 15 -14 -14 -4 -37 -26 -53 -52 -25 -39 -33 -45 -62 -45
-40 0 -57 16 -91 82 l-26 51 89 -8 c48 -3 106 -10 128 -14z m340 -51 c125 -42
175 -68 175 -90 0 -17 52 -45 63 -34 3 3 22 -6 42 -21 43 -28 42 -29 -40 -15
-33 6 -120 17 -193 25 -73 8 -140 19 -150 23 -9 5 -56 13 -104 17 -87 7 -127
22 -114 44 5 8 11 7 21 -3 15 -14 55 -11 55 5 0 4 -16 11 -35 15 -40 7 -41 10
-18 36 15 17 15 18 -8 19 -23 0 -23 1 -4 10 40 18 214 1 310 -31z m-1010 20
c3 -5 -1 -10 -9 -10 -9 0 -16 5 -16 10 0 6 4 10 9 10 6 0 13 -4 16 -10z m-278
-6 c-3 -3 -12 -4 -19 -1 -8 3 -5 6 6 6 11 1 17 -2 13 -5z m333 -26 c0 -6 8
-17 18 -24 15 -13 15 -13 -8 -10 -14 3 -28 5 -31 5 -4 1 -4 32 0 49 2 8 21
-10 21 -20z m941 -171 c-13 -12 -20 -15 -16 -7 14 26 28 41 33 35 3 -3 -5 -16
-17 -28z m79 -16 c-5 -11 -15 -23 -22 -27 -7 -5 -8 -2 -3 7 21 37 44 55 25 20z
m-46 -6 c-4 -8 -11 -15 -16 -15 -6 0 -5 6 2 15 7 8 14 15 16 15 2 0 1 -7 -2
-15z m97 -3 c-12 -23 -40 -47 -46 -40 -3 3 4 17 16 31 24 31 45 37 30 9z m59
3 c0 -15 -54 -84 -61 -79 -13 8 -11 15 11 52 11 17 27 32 35 32 8 0 15 -2 15
-5z m55 -15 c9 -15 -66 -103 -78 -91 -7 7 1 25 24 55 35 47 44 53 54 36z m85
-23 c0 -17 -104 -119 -113 -111 -13 14 -7 31 28 78 26 33 43 46 60 46 14 0 25
-6 25 -13z m70 -16 c0 -3 -28 -37 -61 -74 -42 -47 -65 -65 -72 -58 -11 11 -10
14 62 98 26 31 49 49 57 46 8 -3 14 -8 14 -12z m50 -14 c0 -7 -29 -42 -65 -77
-36 -35 -65 -59 -65 -53 0 6 3 13 8 15 4 2 30 31 57 65 50 63 65 74 65 50z
m40 -24 c0 -10 -32 -43 -42 -43 -5 0 -1 11 8 25 15 23 34 33 34 18z m47 -29
c-3 -3 -12 -4 -19 -1 -8 3 -5 6 6 6 11 1 17 -2 13 -5z m-48 -75 c-40 -48 -69
-63 -69 -34 0 24 75 96 94 89 13 -5 9 -14 -25 -55z m71 -4 c-10 -12 -15 -13
-21 -3 -11 17 11 42 24 29 7 -7 6 -15 -3 -26z m190 -47 c41 -25 104 -56 138
-68 35 -13 66 -28 68 -35 4 -11 -42 -261 -51 -275 -6 -10 -128 35 -197 73 -36
19 -58 38 -58 49 0 31 19 68 36 68 8 0 14 6 12 13 -3 6 -38 19 -79 28 -60 13
-73 19 -71 33 2 11 -4 20 -16 23 -17 4 -14 10 24 48 35 34 44 50 44 77 0 46 7
51 44 29 17 -10 65 -39 106 -63z m-373 10 c-3 -7 -5 -2 -5 12 0 14 2 19 5 13
2 -7 2 -19 0 -25z m208 -180 c4 -3 -7 -9 -23 -13 -22 -5 -39 0 -68 20 -21 14
-40 27 -41 29 -2 1 26 -5 61 -13 36 -9 67 -19 71 -23z m45 -23 c0 -8 -4 -15
-10 -15 -5 0 -10 7 -10 15 0 8 5 15 10 15 6 0 10 -7 10 -15z"></path>
      <path d="M736 4295 c-3 -8 -1 -15 4 -15 6 0 10 7 10 15 0 8 -2 15 -4 15 -2 0
-6 -7 -10 -15z"></path>
      <path d="M748 4263 c7 -3 16 -2 19 1 4 3 -2 6 -13 5 -11 0 -14 -3 -6 -6z"></path>
      <path d="M755 4240 c3 -5 8 -10 11 -10 2 0 4 5 4 10 0 6 -5 10 -11 10 -5 0 -7
-4 -4 -10z"></path>
      <path d="M1391 4204 c0 -11 3 -14 6 -6 3 7 2 16 -1 19 -3 4 -6 -2 -5 -13z"></path>
      <path d="M288 4573 c7 -3 16 -2 19 1 4 3 -2 6 -13 5 -11 0 -14 -3 -6 -6z"></path>
      <path d="M5 1870 c0 -327 1 -461 2 -297 2 163 2 431 0 595 -1 163 -2 29 -2
-298z"></path>
    </g>
  </symbol>
  <symbol version="1.0" xmlns="http://www.w3.org/2000/svg" preserveAspectRatio="xMidYMid meet" viewBox="0 0 425.000000 588.000000" id="7MANI">
    <g transform="translate(0.000000,588.000000) scale(0.100000,-0.100000)" fill="#000000" stroke="none">
      <path d="M2 5728 l2 -153 3 138 4 137 2119 0 c1878 0 2120 2 2120 15 0 13
-243 15 -2125 15 l-2125 0 2 -152z"></path>
      <path d="M3 4375 c0 -27 2 -38 4 -22 2 15 2 37 0 50 -2 12 -4 0 -4 -28z"></path>
      <path d="M5 1715 c0 -946 1 -1332 2 -857 2 475 2 1249 0 1720 -1 471 -2 83 -2
-863z"></path>
      <path d="M415 2849 c24 -45 133 -226 177 -293 40 -60 56 -94 88 -181 10 -27
34 -90 53 -140 19 -49 46 -137 60 -195 49 -202 46 -193 41 -108 -7 126 -78
372 -139 480 -15 27 -25 53 -23 59 8 24 198 -359 198 -400 0 -14 23 -14 36 -1
8 8 7 24 -1 53 -22 75 -58 257 -52 263 8 9 31 -45 57 -136 12 -41 30 -102 40
-135 10 -33 22 -75 25 -92 7 -36 15 -45 32 -35 8 5 8 41 -3 132 -16 148 -17
183 -5 175 20 -11 104 -341 126 -490 48 -328 50 -371 25 -580 -18 -142 -9
-177 10 -44 23 154 29 358 14 474 -15 115 -51 318 -84 470 -23 102 -193 621
-199 604 -4 -12 20 -138 49 -264 18 -74 46 -362 37 -371 -2 -2 -9 15 -16 38
-70 244 -258 708 -287 708 -16 0 -11 -15 81 -290 138 -407 138 -452 2 -185
-97 192 -165 298 -284 448 -57 70 -85 88 -58 36z m404 -357 c21 -52 31 -122
11 -77 -17 39 -48 147 -40 138 5 -4 18 -32 29 -61z"></path>
      <path d="M841 1834 c0 -11 3 -14 6 -6 3 7 2 16 -1 19 -3 4 -6 -2 -5 -13z"></path>
      <path d="M855 1775 c44 -335 5 -900 -79 -1115 -101 -260 -208 -551 -204 -555
5 -5 283 -47 323 -49 29 -1 30 1 46 74 10 41 32 136 49 210 84 356 110 471
129 593 18 112 12 137 -8 32 -50 -266 -92 -450 -134 -596 -19 -63 -42 -152
-52 -197 l-18 -81 -36 5 c-20 2 -45 6 -56 9 -11 2 -45 7 -75 10 -91 9 -130 16
-135 25 -6 9 10 51 34 89 8 13 16 31 17 40 5 36 23 92 32 104 5 7 26 60 46
120 20 59 49 131 65 161 21 38 34 83 45 157 9 57 18 115 21 129 3 14 8 70 11
125 2 55 9 125 14 155 11 63 22 216 21 275 -2 74 -24 209 -43 265 -17 51 -18
52 -13 15z"></path>
      <path d="M1131 1064 c0 -11 3 -14 6 -6 3 7 2 16 -1 19 -3 4 -6 -2 -5 -13z"></path>
      <path d="M851 684 c0 -11 3 -14 6 -6 3 7 2 16 -1 19 -3 4 -6 -2 -5 -13z"></path>
      <path d="M947 616 c-5 -15 -6 -31 -3 -34 8 -8 18 25 14 45 -3 13 -6 10 -11
-11z"></path>
      <path d="M868 515 c-13 -39 -21 -178 -10 -171 6 4 14 21 17 39 8 43 2 158 -7
132z"></path>
      <path d="M782 420 c0 -14 2 -19 5 -12 2 6 2 18 0 25 -3 6 -5 1 -5 -13z"></path>
    </g>
  </symbol>
  <symbol version="1.0" xmlns="http://www.w3.org/2000/svg" preserveAspectRatio="xMidYMid meet" viewBox="0 0 425.000000 588.000000" id="6MANI">
    <g transform="translate(0.000000,588.000000) scale(0.100000,-0.100000)" fill="#000000" stroke="none">
      <path d="M2 5728 l2 -153 3 138 4 137 2119 0 c1878 0 2120 2 2120 15 0 13
-243 15 -2125 15 l-2125 0 2 -152z"></path>
      <path d="M2 4390 c0 -19 2 -27 5 -17 2 9 2 25 0 35 -3 9 -5 1 -5 -18z"></path>
      <path d="M5 1530 c0 -844 1 -1190 2 -768 2 423 2 1113 0 1535 -1 423 -2 77 -2
-767z"></path>
      <path d="M364 2210 c3 -19 17 -91 31 -159 14 -68 25 -130 23 -139 -2 -9 -30
25 -66 79 -69 103 -69 103 -22 -71 34 -123 46 -190 34 -190 -5 0 -42 47 -82
103 -126 177 -130 179 -66 27 46 -107 129 -326 158 -415 41 -123 29 -248 -45
-466 -40 -119 -54 -194 -19 -105 10 26 25 56 34 65 8 9 16 27 18 41 2 19 9 25
26 24 26 -1 27 4 8 25 -11 14 -11 24 1 67 8 28 26 64 39 79 15 18 22 35 18 47
-8 25 14 23 37 -4 21 -23 25 -17 9 13 -7 12 -7 19 -1 19 5 0 25 -25 43 -55 36
-61 53 -71 43 -25 -7 30 -6 31 22 24 44 -10 48 -19 35 -75 -7 -28 -12 -63 -12
-77 0 -44 -43 -163 -62 -173 -14 -8 -20 -6 -24 8 -15 48 -22 58 -19 26 5 -48
15 -74 26 -68 14 9 11 -2 -12 -48 -24 -46 -128 -159 -142 -154 -5 1 -19 25
-31 52 -20 49 -53 105 -42 75 3 -8 19 -50 37 -93 l32 -78 34 33 c59 57 183
225 209 284 31 69 43 162 44 318 0 192 -40 417 -115 639 -31 91 -140 300 -186
357 l-21 25 6 -35z m66 -112 c22 -48 25 -68 10 -68 -12 0 -24 27 -35 78 -9 45
2 40 25 -10z m64 -207 c5 -8 3 -17 -5 -23 -11 -8 -11 -9 2 -5 18 6 47 -63 89
-213 12 -41 28 -92 36 -113 8 -20 14 -57 14 -81 0 -39 -2 -43 -19 -39 -11 3
-28 0 -38 -6 -15 -10 -14 -10 10 -5 30 7 57 -9 57 -34 0 -12 -10 -14 -57 -9
-38 4 -52 3 -43 -3 8 -5 32 -10 52 -10 20 0 40 -6 44 -12 4 -7 4 -10 -1 -6 -4
4 -43 -11 -86 -32 -89 -45 -119 -50 -119 -20 0 15 7 20 26 20 14 0 23 4 20 9
-3 5 -15 7 -25 4 -20 -5 -42 18 -23 25 9 3 9 9 1 24 -6 11 -28 70 -49 131 -45
133 -66 185 -114 290 -20 43 -32 76 -27 72 5 -3 35 -42 66 -86 71 -101 86
-119 102 -119 15 0 15 -1 3 73 -12 76 -4 99 21 58 25 -41 53 -32 45 13 -3 18
-8 59 -11 91 -3 33 -9 74 -14 92 -5 17 -6 34 -3 38 3 3 13 -20 22 -52 9 -32
20 -64 24 -72z"></path>
      <path d="M531 1543 c7 -12 15 -20 18 -17 3 2 -3 12 -13 22 -17 16 -18 16 -5
-5z"></path>
      <path d="M545 1468 c4 -20 -1 -31 -21 -47 -21 -17 -25 -26 -19 -51 4 -16 11
-32 16 -35 5 -4 5 5 -1 20 -12 31 1 62 28 67 17 3 18 6 5 38 -10 26 -12 28 -8
8z"></path>
      <path d="M590 1121 c0 -5 5 -13 10 -16 6 -3 10 -2 10 4 0 5 -4 13 -10 16 -5 3
-10 2 -10 -4z"></path>
      <path d="M406 1081 c-4 -7 -5 -15 -2 -18 9 -9 19 4 14 18 -4 11 -6 11 -12 0z"></path>
      <path d="M466 885 c-8 -22 3 -40 16 -27 7 7 7 16 1 27 -9 16 -10 16 -17 0z"></path>
      <path d="M422 850 c-16 -27 -15 -30 8 -30 21 0 23 4 12 32 -7 17 -8 16 -20 -2z"></path>
      <path d="M400 751 c0 -6 5 -13 10 -16 6 -3 10 1 10 9 0 9 -4 16 -10 16 -5 0
-10 -4 -10 -9z"></path>
    </g>
  </symbol>
  <symbol version="1.0" xmlns="http://www.w3.org/2000/svg" preserveAspectRatio="xMidYMid meet" viewBox="0 0 425.000000 588.000000" id="8MANI">
    <g transform="translate(0.000000,588.000000) scale(0.100000,-0.100000)" fill="#000000" stroke="none">
      <path d="M2 5728 l2 -153 3 138 4 137 2119 0 c1878 0 2120 2 2120 15 0 13
-243 15 -2125 15 l-2125 0 2 -152z"></path>
      <path d="M3 4375 c0 -27 2 -38 4 -22 2 15 2 37 0 50 -2 12 -4 0 -4 -28z"></path>
      <path d="M4 3215 c0 -121 2 -169 3 -107 2 62 2 161 0 220 -1 59 -3 8 -3 -113z"></path>
      <path d="M950 2895 c0 -14 51 -103 150 -265 96 -156 121 -200 151 -275 51
-125 96 -253 154 -435 24 -74 60 -178 81 -230 37 -94 37 -96 38 -245 0 -259
-45 -470 -157 -725 -61 -141 -101 -206 -235 -383 -57 -76 -100 -142 -96 -146
11 -9 122 -33 255 -55 53 -9 103 -18 112 -22 12 -4 24 10 48 58 71 138 172
356 189 408 20 62 42 161 37 166 -2 2 -23 -56 -47 -129 -23 -72 -72 -193 -108
-267 -36 -74 -73 -150 -81 -167 -14 -29 -20 -33 -56 -32 -22 0 -58 6 -80 13
-45 13 -44 8 -20 121 8 39 24 117 35 174 21 101 33 139 72 214 18 34 78 217
108 328 7 24 19 87 26 139 8 52 16 109 18 125 24 158 9 332 -42 465 -13 36
-29 80 -36 98 -6 17 -14 32 -18 32 -5 0 -8 13 -8 29 0 16 -4 31 -8 33 -4 2
-15 35 -24 73 -9 39 -21 87 -26 107 -11 42 -2 51 34 34 31 -15 58 -69 51 -103
-6 -27 -6 -27 8 4 8 17 19 34 25 38 5 3 10 21 10 38 1 34 22 122 31 132 4 3
21 -24 39 -61 29 -59 34 -64 48 -51 13 14 13 24 2 79 -7 35 -19 84 -27 110 -8
25 -13 57 -11 70 2 15 11 -5 26 -57 35 -121 103 -321 150 -436 5 -14 11 -43
13 -65 1 -21 7 -45 13 -53 15 -19 12 -231 -6 -408 -7 -79 -10 -139 -7 -135 6
6 23 158 43 381 8 94 -25 265 -81 411 -45 117 -61 163 -108 310 -26 80 -70
201 -99 270 -29 69 -62 148 -72 175 -30 79 -30 21 0 -67 34 -100 88 -314 84
-332 -2 -8 -32 26 -67 77 -110 157 -232 319 -237 314 -2 -2 15 -53 39 -113 68
-170 120 -314 114 -320 -2 -3 -18 19 -34 48 -17 29 -46 73 -65 98 -19 25 -59
82 -88 125 -57 84 -76 108 -174 218 -52 57 -86 82 -86 62z m256 -342 c-9 -9
-26 7 -42 40 l-15 32 31 -33 c17 -19 29 -36 26 -39z m26 -30 c10 -9 18 -20 18
-26 0 -5 17 -35 38 -66 37 -54 112 -204 112 -222 0 -5 -7 -9 -15 -9 -9 0 -12
-6 -9 -17 15 -48 -25 22 -51 89 -37 97 -104 236 -116 243 -10 7 -12 25 -2 25
3 0 15 -7 25 -17z m182 -42 c-6 -6 -24 19 -24 34 1 6 7 1 15 -9 8 -11 12 -22
9 -25z m71 -115 c20 -37 34 -71 31 -74 -3 -3 -16 -1 -28 5 -23 10 -58 97 -56
136 2 24 11 13 53 -67z m-55 -217 c0 -5 -4 -9 -10 -9 -5 0 -10 7 -10 16 0 8 5
12 10 9 6 -3 10 -10 10 -16z m-160 -1778 c-17 -73 -30 -143 -30 -157 0 -29
-21 -40 -48 -25 -19 10 -19 14 -6 88 8 43 21 92 28 109 14 31 78 123 83 119 2
-1 -11 -61 -27 -134z m-149 -135 c-6 -14 -17 -26 -26 -26 -21 0 -19 10 7 37
26 28 32 25 19 -11z"></path>
      <path d="M5 985 c0 -545 1 -766 2 -492 2 274 2 720 0 990 -1 271 -2 47 -2
-498z"></path>
      <path d="M1765 1178 c-12 -80 -56 -293 -71 -346 -9 -29 -14 -58 -11 -65 5 -15
72 262 88 366 6 43 9 80 6 83 -3 3 -8 -14 -12 -38z"></path>
    </g>
  </symbol>
  <symbol version="1.0" xmlns="http://www.w3.org/2000/svg" preserveAspectRatio="xMidYMid meet" viewBox="0 0 425.000000 588.000000" id="9MANI">
    <g transform="translate(0.000000,588.000000) scale(0.100000,-0.100000)" fill="#000000" stroke="none">
      <path d="M2 5728 l2 -153 3 138 4 137 2119 0 c1878 0 2120 2 2120 15 0 13
-243 15 -2125 15 l-2125 0 2 -152z"></path>
      <path d="M3 4375 c0 -27 2 -38 4 -22 2 15 2 37 0 50 -2 12 -4 0 -4 -28z"></path>
      <path d="M4 3215 c0 -121 2 -169 3 -107 2 62 2 161 0 220 -1 59 -3 8 -3 -113z"></path>
      <path d="M1730 2830 c0 -11 35 -73 78 -138 151 -225 158 -237 269 -492 64
-144 108 -262 129 -340 8 -30 26 -93 40 -139 31 -101 52 -223 60 -351 3 -52 9
-124 13 -160 5 -36 8 -123 7 -195 -1 -145 -18 -215 -84 -354 -65 -139 -120
-211 -273 -365 -82 -82 -149 -150 -149 -152 0 -4 249 -84 263 -84 7 0 19 11
28 23 218 302 255 358 328 504 77 155 152 366 150 422 -1 20 -3 16 -10 -14
-11 -48 -79 -246 -89 -260 -4 -5 -11 -21 -15 -35 -12 -38 -68 -130 -61 -100
31 146 57 346 54 422 -4 100 -13 117 -76 125 -37 5 -40 8 -46 42 -9 56 -8 58
34 75 80 32 170 13 208 -44 20 -30 22 -42 16 -85 -3 -27 -4 -47 0 -44 3 3 10
47 15 99 8 70 7 123 -4 214 -36 303 -73 431 -267 921 -74 187 -145 368 -158
403 -22 60 -40 87 -40 60 0 -8 31 -106 68 -218 67 -201 93 -295 75 -275 -11
11 -34 48 -194 302 -63 101 -117 183 -121 183 -12 0 47 -170 132 -384 17 -43
29 -80 27 -83 -2 -2 -46 61 -98 139 -126 194 -278 398 -295 398 -8 0 -14 -9
-14 -20z m395 -332 c8 -17 12 -35 8 -41 -3 -5 -2 -7 4 -4 5 3 26 -19 46 -50
37 -57 44 -73 29 -73 -26 0 -103 104 -95 127 3 7 -5 22 -16 35 -25 26 -30 68
-6 48 8 -7 21 -26 30 -42z m-89 -85 c-8 -8 -36 10 -36 25 0 13 3 12 20 -3 11
-10 18 -20 16 -22z m57 -98 c15 -25 27 -58 27 -72 0 -33 -18 -19 -22 17 -2 14
-13 33 -25 43 -22 17 -32 57 -15 57 4 0 19 -20 35 -45z m121 -6 c11 18 23 5
72 -80 52 -90 60 -97 81 -76 12 12 13 19 3 37 -7 12 -8 20 -2 17 11 -7 56
-127 49 -133 -6 -6 -239 67 -264 83 -26 17 -31 31 -23 62 6 24 6 24 27 -12 24
-41 34 -44 57 -22 12 13 12 19 1 42 -15 33 -29 105 -16 84 6 -9 11 -10 15 -2z
m131 -314 c39 -14 82 -31 96 -36 14 -6 32 -22 39 -37 26 -56 59 -155 54 -163
-2 -5 -53 9 -112 30 -219 79 -216 77 -206 165 6 53 6 55 -20 62 -16 4 -26 13
-26 25 0 20 6 18 175 -46z m63 -306 c142 -50 149 -54 157 -79 10 -30 -26 -80
-113 -160 -111 -102 -127 -97 -142 45 -11 106 -14 121 -23 145 -3 8 -10 32
-16 53 -12 48 -10 48 137 -4z m148 -211 c-9 -12 -16 -30 -16 -39 0 -16 -57
-36 -69 -24 -3 3 17 27 45 53 49 47 69 52 40 10z m47 -190 c5 -37 3 -43 -12
-33 -13 8 -15 65 -2 65 5 0 11 -15 14 -32z m-190 -260 c14 3 17 -4 17 -40 0
-24 -7 -52 -15 -62 -11 -14 -12 -23 -4 -33 13 -15 6 -87 -18 -198 -8 -38 -18
-99 -23 -135 -8 -73 -53 -156 -163 -305 -32 -44 -70 -99 -84 -122 -25 -44 -46
-52 -81 -33 -9 5 -45 19 -79 31 -35 12 -67 27 -73 34 -7 8 9 28 57 71 147 129
198 189 267 314 26 47 60 106 76 132 16 25 31 62 34 80 3 19 14 54 26 80 13
31 18 56 14 77 -4 20 -1 39 10 56 18 28 20 36 7 33 -5 -2 -9 0 -10 5 -3 22 0
27 12 20 6 -4 20 -6 30 -5z"></path>
      <path d="M5 985 c0 -545 1 -766 2 -492 2 274 2 720 0 990 -1 271 -2 47 -2
-498z"></path>
      <path d="M2591 1054 c0 -11 3 -14 6 -6 3 7 2 16 -1 19 -3 4 -6 -2 -5 -13z"></path>
    </g>
  </symbol>
  <symbol version="1.0" xmlns="http://www.w3.org/2000/svg" preserveAspectRatio="xMidYMid meet" viewBox="0 0 425.000000 588.000000" id="10MANI">
    <g transform="translate(0.000000,588.000000) scale(0.100000,-0.100000)" fill="#000000" stroke="none">
      <path d="M2 5728 l2 -153 3 138 4 137 2119 0 c1878 0 2120 2 2120 15 0 13
-243 15 -2125 15 l-2125 0 2 -152z"></path>
      <path d="M3 4375 c0 -27 2 -38 4 -22 2 15 2 37 0 50 -2 12 -4 0 -4 -28z"></path>
      <path d="M4 3215 c0 -121 2 -169 3 -107 2 62 2 161 0 220 -1 59 -3 8 -3 -113z"></path>
      <path d="M2607 3154 c-4 -4 2 -23 13 -43 60 -111 200 -475 200 -520 0 -18 -32
28 -77 109 -86 154 -174 305 -184 314 -15 14 -6 -19 26 -94 52 -122 145 -368
145 -380 0 -7 -19 13 -41 46 -76 108 -154 195 -157 175 -2 -10 10 -40 26 -67
89 -152 201 -439 230 -589 12 -58 50 -229 123 -550 45 -194 53 -245 53 -325
-1 -101 -5 -116 -78 -273 -44 -95 -200 -380 -233 -424 l-24 -33 16 -122 c20
-157 45 -311 51 -317 2 -2 6 -2 8 0 51 60 191 241 252 324 105 146 134 192
188 305 39 82 49 118 76 267 16 95 30 197 30 227 0 70 -35 377 -54 476 -28
144 -97 424 -117 476 -5 15 -30 106 -55 203 -52 200 -97 345 -127 411 -29 61
-118 198 -191 294 -89 115 -91 118 -99 110z m139 -206 c57 -81 87 -139 76
-150 -20 -20 -45 11 -83 101 -21 50 -35 91 -30 91 4 0 21 -19 37 -42z m21
-559 c26 -10 136 -22 194 -21 24 1 27 -6 62 -116 36 -115 97 -359 97 -387 0
-28 -25 -15 -53 28 -68 106 -225 302 -234 293 -3 -3 9 -39 27 -81 17 -43 29
-79 27 -82 -3 -2 -19 8 -37 24 -26 24 -36 46 -60 138 -16 61 -36 130 -44 154
-24 66 -24 67 21 50z m283 -544 c53 -108 59 -144 61 -346 1 -233 22 -387 64
-471 21 -42 23 -54 15 -100 -18 -112 -50 -223 -60 -211 -12 12 -78 256 -94
348 -8 44 -22 112 -30 150 -9 39 -16 84 -16 102 0 92 -65 420 -96 492 -26 59
-28 65 -16 57 15 -9 52 23 45 40 -3 8 2 23 12 34 11 12 15 27 10 42 -12 45 63
-54 105 -137z m97 -97 c-3 -7 -5 -2 -5 12 0 14 2 19 5 13 2 -7 2 -19 0 -25z
m40 -329 c-3 -10 -2 -17 2 -14 12 7 44 -301 36 -343 l-7 -37 -19 37 c-32 62
-49 159 -48 272 0 58 5 106 10 106 5 0 9 8 9 18 1 16 1 16 11 -1 6 -10 9 -27
6 -38z m-141 -484 c18 -77 43 -169 54 -205 l20 -65 -35 -52 c-29 -44 -40 -53
-64 -53 -16 0 -36 -7 -45 -15 -8 -8 -19 -15 -25 -15 -20 0 -22 -22 -6 -56 16
-35 16 -36 -10 -62 -22 -21 -28 -24 -36 -12 -5 8 -9 29 -9 47 0 17 -4 43 -9
56 -9 22 -14 24 -63 20 -35 -3 -48 -1 -39 5 17 12 -3 54 -22 46 -17 -6 -22 58
-7 87 16 29 31 19 46 -27 l12 -39 1 37 c1 20 -3 40 -9 43 -27 17 -1 84 35 89
16 3 19 10 17 32 -3 20 15 69 56 154 33 69 66 145 73 170 l12 45 9 -45 c5 -25
25 -108 44 -185z m-316 -397 c44 -116 57 -147 78 -177 16 -25 19 -37 12 -47
-8 -8 -8 -14 0 -19 24 -15 7 -54 -54 -120 l-64 -70 -5 35 c-3 19 -9 73 -12
120 -3 47 -8 110 -12 140 -5 48 -4 53 9 43 17 -15 28 -7 28 19 0 15 -5 18 -20
13 -31 -10 -34 17 -8 58 13 20 26 36 29 37 4 0 12 -15 19 -32z m155 -198 c-3
-5 -11 -10 -16 -10 -6 0 -7 5 -4 10 3 6 11 10 16 10 6 0 7 -4 4 -10z"></path>
      <path d="M2951 644 c0 -11 3 -14 6 -6 3 7 2 16 -1 19 -3 4 -6 -2 -5 -13z"></path>
      <path d="M2720 281 c-24 -7 -24 -8 8 -15 36 -8 48 -4 37 13 -7 12 -9 12 -45 2z"></path>
      <path d="M5 985 c0 -545 1 -766 2 -492 2 274 2 720 0 990 -1 271 -2 47 -2
-498z"></path>
    </g>
  </symbol>
</svg>