<?xml version="1.0" standalone="no"?>
<!DOCTYPE svg PUBLIC "-//W3C//DTD SVG 20010904//EN"
 "http://www.w3.org/TR/2001/REC-SVG-20010904/DTD/svg10.dtd">
<svg version="1.0" xmlns="http://www.w3.org/2000/svg"
 width="1163.000000pt" height="1280.000000pt" viewBox="0 0 1163.000000 1280.000000"
 preserveAspectRatio="xMidYMid meet">
<metadata>
Created by potrace 1.15, written by Peter Selinger 2001-2017
</metadata>
<g transform="translate(0.000000,1280.000000) scale(0.100000,-0.100000)"
fill="#000000" stroke="none">
<path d="M6755 12784 c-38 -7 -122 -23 -185 -35 -942 -175 -1923 -505 -2670
-896 -711 -373 -1255 -766 -1760 -1272 -514 -515 -861 -1018 -1241 -1796 -478
-981 -701 -1827 -833 -3175 -31 -310 -67 -788 -64 -843 l3 -56 115 126 c161
176 441 468 449 468 4 0 61 -60 127 -133 102 -112 123 -142 139 -190 105 -337
479 -724 904 -937 207 -103 402 -158 572 -159 l106 -1 29 -38 c47 -63 155
-160 246 -220 415 -277 1128 -396 1733 -291 145 26 287 64 334 90 l44 24 81
-19 c45 -11 92 -22 106 -24 l25 -3 -26 -11 c-39 -17 -69 -60 -69 -100 0 -46
45 -93 89 -93 36 0 152 52 328 148 123 66 133 70 243 86 425 63 913 204 1184
344 138 71 315 225 392 342 15 22 28 40 30 40 1 0 21 -57 45 -127 145 -441
297 -815 470 -1163 118 -236 223 -419 259 -452 40 -37 80 -37 122 1 50 45 44
77 -45 234 -91 160 -236 448 -307 612 -180 414 -424 1118 -446 1285 -3 30 -13
72 -20 94 -8 21 -13 40 -12 41 17 11 233 183 335 267 72 59 134 108 136 108 3
0 68 -123 145 -273 804 -1573 1722 -2767 2852 -3710 269 -224 739 -569 796
-583 60 -15 123 52 109 117 -8 34 -24 47 -259 214 -409 290 -769 597 -1166
995 -481 481 -872 959 -1312 1605 -309 453 -689 1118 -965 1686 -121 251 -143
259 -305 121 -154 -133 -430 -353 -435 -349 -6 7 -84 301 -229 872 -74 292
-139 542 -145 556 -12 30 -57 59 -92 59 -41 0 -72 -34 -152 -172 -99 -169
-278 -452 -445 -703 -71 -108 -130 -205 -130 -216 0 -71 77 -118 144 -87 25
11 273 377 466 686 45 73 84 132 85 130 3 -3 245 -944 245 -953 0 -2 -37 13
-82 35 -112 51 -192 70 -329 77 -597 30 -1344 -386 -1705 -949 -49 -75 -132
-238 -159 -310 -10 -27 -21 -48 -25 -48 -4 0 -56 28 -116 62 -522 296 -1066
448 -1608 448 l-138 0 6 22 c4 13 10 86 13 163 19 465 -184 836 -568 1035
l-86 45 163 479 164 480 0 227 0 227 138 118 c1242 1070 1531 1326 2012 1785
719 686 1216 1335 1669 2177 267 495 516 1136 625 1610 l14 62 -46 -1 c-26 -1
-78 -7 -117 -15z m-4431 -6436 c-47 -139 -119 -352 -160 -472 -41 -121 -76
-221 -78 -223 -2 -2 -20 4 -40 12 -27 11 -36 20 -32 33 2 9 37 169 76 355 l72
338 -24 179 -24 178 146 126 145 126 3 -199 2 -199 -86 -254z m-229 177 l17
-130 -71 -340 c-40 -187 -74 -345 -76 -351 -2 -8 -18 -8 -57 3 -151 40 -496
80 -726 85 -62 1 -111 5 -110 9 5 12 351 330 628 578 151 135 295 265 320 288
l45 42 7 -27 c3 -15 14 -85 23 -157z"/>
<path d="M2393 3740 c-16 -6 -46 -56 -98 -161 -317 -632 -881 -1247 -1535
-1671 -220 -143 -264 -165 -464 -227 -213 -67 -236 -81 -236 -147 0 -35 5 -47
31 -68 17 -14 42 -26 56 -26 14 0 114 27 221 60 223 69 260 87 542 276 650
433 1201 1030 1531 1659 89 169 103 209 89 251 -18 55 -77 78 -137 54z"/>
<path d="M2835 3480 c-32 -12 -39 -25 -105 -190 -202 -506 -454 -1025 -666
-1367 -437 -707 -908 -1176 -1593 -1588 -140 -84 -151 -94 -151 -144 0 -50 30
-88 75 -97 30 -5 48 1 128 46 208 118 427 268 647 444 151 120 481 447 612
606 362 439 685 989 980 1670 115 263 208 505 208 537 0 66 -71 110 -135 83z"/>
<path d="M4619 3341 c-46 -47 -40 -77 47 -221 222 -369 439 -902 500 -1230 36
-190 41 -208 70 -227 50 -32 124 -9 145 45 19 48 -31 305 -103 532 -111 349
-425 1004 -529 1103 -41 38 -90 37 -130 -2z"/>
<path d="M4210 3240 c-26 -6 -70 -62 -70 -89 0 -9 25 -91 55 -181 198 -589
409 -1396 520 -1990 59 -316 98 -670 93 -843 -3 -77 -3 -79 30 -108 45 -40 84
-39 128 5 l34 34 0 136 c0 405 -140 1158 -376 2020 -121 443 -281 949 -312
986 -21 25 -68 39 -102 30z"/>
</g>
</svg>
