<?xml version="1.0" standalone="no"?>
<!DOCTYPE svg PUBLIC "-//W3C//DTD SVG 20010904//EN"
 "http://www.w3.org/TR/2001/REC-SVG-20010904/DTD/svg10.dtd">
<svg version="1.0" xmlns="http://www.w3.org/2000/svg"
 width="981.000000pt" height="1280.000000pt" viewBox="0 0 981.000000 1280.000000"
 preserveAspectRatio="xMidYMid meet">
<metadata>
Created by potrace 1.15, written by Peter Selinger 2001-2017
</metadata>
<g transform="translate(0.000000,1280.000000) scale(0.100000,-0.100000)"
fill="#000000" stroke="none">
<path d="M7470 12784 c-42 -18 -77 -49 -96 -86 -20 -39 -18 -122 5 -166 11
-20 121 -192 244 -382 l224 -345 -29 -43 c-71 -104 -201 -256 -343 -402 -125
-128 -155 -165 -161 -194 -30 -163 143 -285 278 -196 92 61 343 338 512 565
143 193 166 249 132 328 -14 33 -536 848 -565 881 -23 27 -90 56 -131 55 -19
0 -51 -7 -70 -15z"/>
<path d="M6258 12775 c-63 -23 -121 -69 -228 -182 -166 -175 -361 -448 -419
-588 -22 -52 -25 -75 -26 -170 0 -166 35 -257 220 -570 49 -82 108 -181 132
-218 l44 -69 -70 -73 c-133 -141 -240 -329 -288 -512 -34 -129 -39 -359 -10
-463 24 -84 93 -230 147 -311 53 -78 162 -188 221 -222 105 -61 341 -116 539
-125 l135 -7 -3 -45 c-1 -25 -11 -78 -22 -118 -64 -235 -199 -346 -361 -299
-30 9 -108 49 -174 88 -269 162 -505 250 -708 266 l-77 6 -158 145 c-217 200
-634 620 -771 777 -304 348 -383 501 -368 715 6 92 30 156 97 263 233 366 680
854 1116 1216 67 56 124 111 128 124 23 85 -7 160 -80 197 -41 21 -61 25 -132
24 l-84 -1 -80 -79 c-115 -114 -585 -607 -723 -759 -349 -383 -570 -666 -652
-833 -25 -51 -28 -67 -27 -157 1 -84 6 -115 32 -196 52 -157 176 -378 311
-554 25 -33 158 -179 296 -325 427 -453 745 -806 810 -900 94 -136 94 -1004
-1 -1491 -41 -213 -79 -307 -165 -404 -139 -158 -370 -464 -613 -810 -96 -137
-157 -214 -174 -222 -15 -7 -67 -12 -116 -13 -134 0 -259 30 -906 218 -710
207 -977 261 -1228 249 -192 -9 -265 -41 -367 -160 -643 -753 -1043 -1402
-1383 -2247 -62 -155 -66 -170 -67 -245 0 -70 4 -86 27 -127 34 -57 92 -106
135 -114 45 -8 114 27 157 79 19 23 86 146 149 272 193 382 403 738 702 1185
108 161 603 883 651 948 1 2 168 -42 371 -98 202 -56 557 -153 788 -217 231
-63 445 -122 475 -131 l55 -17 -40 -3 c-335 -24 -868 -98 -1235 -173 -283 -57
-626 -151 -709 -194 -37 -18 -75 -68 -89 -115 -23 -77 -61 -353 -89 -650 -22
-234 -25 -996 -5 -1220 29 -330 74 -650 123 -876 25 -118 104 -286 208 -445
88 -134 138 -183 186 -182 55 2 161 56 185 95 28 44 23 86 -29 228 -97 266
-173 686 -216 1205 -25 307 -29 509 -12 588 13 60 13 120 -1 527 -12 363 -13
462 -3 473 37 46 245 109 476 146 225 35 384 51 1046 101 146 11 316 29 377
41 138 25 464 69 473 63 4 -2 10 -23 13 -46 9 -57 62 -179 111 -253 22 -33 78
-99 124 -148 l84 -87 -9 -58 -9 -57 -115 -23 c-407 -82 -774 -300 -1038 -617
-220 -263 -378 -587 -449 -922 -25 -118 -27 -146 -27 -358 0 -249 11 -399 50
-655 86 -561 257 -848 559 -935 88 -26 307 -16 433 19 216 60 532 208 839 392
189 114 281 181 392 288 192 186 306 393 361 660 56 272 50 526 -20 866 -29
138 -156 603 -181 659 -17 38 -19 68 -19 247 0 112 2 204 4 204 2 0 49 14 105
30 114 34 273 96 361 140 33 17 63 30 68 30 5 0 16 -17 26 -37 37 -77 184
-325 410 -691 292 -473 405 -663 490 -824 67 -127 126 -271 126 -309 0 -72
-156 -295 -395 -564 -603 -677 -820 -891 -1075 -1059 -209 -138 -239 -174
-227 -273 10 -89 63 -128 172 -127 209 3 400 112 689 394 155 151 589 628 709
778 189 237 333 500 427 777 37 108 37 113 29 200 -32 342 -184 710 -504 1225
-39 63 -75 121 -80 129 -9 16 -14 19 95 -49 41 -26 191 -115 334 -199 283
-167 443 -268 551 -345 108 -77 263 -207 335 -280 l65 -67 0 -122 c0 -115 -2
-128 -39 -237 -123 -363 -353 -870 -554 -1215 -104 -180 -170 -281 -271 -414
-140 -185 -133 -164 -104 -312 15 -78 15 -92 2 -116 -8 -15 -80 -96 -161 -180
-81 -83 -164 -177 -184 -208 -129 -194 51 -410 255 -305 46 23 81 68 81 102 0
52 42 185 88 282 27 56 107 189 179 296 363 546 718 1158 893 1539 162 354
253 658 267 889 l6 113 -38 75 c-44 87 -140 195 -229 259 -33 23 -148 91 -255
149 -106 59 -226 127 -265 153 -84 54 -1302 928 -1329 953 -27 25 -38 131 -20
190 23 77 61 299 73 435 9 95 10 276 5 665 -9 700 8 1000 66 1172 68 203 346
621 615 924 l63 71 148 27 c585 110 1333 335 2028 609 222 87 445 184 462 200
43 41 64 321 44 592 -22 304 -72 682 -117 882 -101 454 -292 969 -496 1335
-132 237 -203 308 -309 308 -65 0 -134 -47 -151 -101 -11 -37 -10 -38 129
-256 125 -194 156 -253 276 -514 142 -310 155 -345 211 -579 173 -714 151
-1231 -62 -1444 -162 -163 -831 -396 -1815 -632 -237 -57 -288 -66 -398 -71
-69 -3 -133 -2 -142 3 -14 8 -12 18 14 79 62 143 98 331 99 500 l0 90 78 27
c139 50 237 112 347 223 115 115 166 200 210 350 36 121 45 310 21 438 -46
240 -181 479 -345 610 -139 111 -339 189 -558 218 -85 11 -378 7 -433 -6 -23
-5 -28 0 -52 53 -15 33 -80 138 -144 233 -187 279 -228 383 -185 471 33 67
308 395 391 466 91 78 120 126 120 196 0 135 -110 216 -232 171z m547 -2069
c83 -23 180 -70 242 -116 82 -63 131 -181 152 -368 16 -147 -15 -295 -83 -398
-29 -43 -41 -52 -73 -58 -318 -54 -567 -69 -720 -42 -171 30 -205 58 -237 196
-18 74 -22 349 -7 440 31 186 144 308 328 355 78 19 315 14 398 -9z m-1493
-1969 c53 -41 107 -111 150 -195 29 -58 33 -76 37 -166 4 -101 -11 -504 -30
-776 -43 -638 -208 -1109 -428 -1219 -73 -37 -155 -63 -182 -59 -19 3 -16 10
34 83 194 284 298 672 349 1300 14 175 17 898 5 1003 -10 75 -1 79 65 29z m96
-2842 c192 -45 326 -172 400 -379 46 -127 59 -240 39 -340 -23 -114 -59 -179
-141 -261 -79 -78 -143 -117 -231 -140 -272 -71 -559 104 -695 424 -86 202
-55 372 99 534 89 93 164 146 233 162 73 18 220 18 296 0z m-1040 -2221 c354
-73 645 -324 747 -644 35 -109 40 -279 11 -375 -64 -214 -220 -370 -446 -446
-166 -56 -396 -53 -579 8 -258 86 -469 263 -581 488 -60 120 -82 210 -83 330
-1 309 198 549 526 635 94 25 296 27 405 4z"/>
</g>
</svg>
