<?xml version="1.0" standalone="no"?>
<!DOCTYPE svg PUBLIC "-//W3C//DTD SVG 20010904//EN"
 "http://www.w3.org/TR/2001/REC-SVG-20010904/DTD/svg10.dtd">
<svg version="1.0" xmlns="http://www.w3.org/2000/svg"
 width="1155.000000pt" height="1280.000000pt" viewBox="0 0 1155.000000 1280.000000"
 preserveAspectRatio="xMidYMid meet">
<metadata>
Created by potrace 1.15, written by Peter Selinger 2001-2017
</metadata>
<g transform="translate(0.000000,1280.000000) scale(0.100000,-0.100000)"
fill="#000000" stroke="none">
<path d="M5601 12748 c-37 -77 -43 -133 -36 -308 6 -170 -7 -485 -26 -600 -31
-189 -94 -374 -244 -725 -144 -334 -146 -340 -161 -430 -16 -92 -18 -199 -5
-191 12 8 64 152 95 267 17 60 55 151 104 249 172 341 271 685 313 1085 20
202 13 695 -11 695 -5 0 -17 -19 -29 -42z"/>
<path d="M5927 12648 c-71 -141 -94 -265 -107 -573 -23 -526 -36 -661 -80
-800 -70 -225 -148 -412 -292 -698 -58 -116 -91 -197 -80 -197 9 0 113 141
159 215 51 81 138 263 177 366 100 269 164 580 200 969 19 194 57 762 52 767
-1 2 -15 -21 -29 -49z"/>
<path d="M3635 12674 c-168 -25 -354 -81 -470 -143 -375 -200 -593 -490 -624
-828 -21 -229 44 -423 193 -582 29 -31 79 -92 112 -136 130 -175 388 -416 654
-610 199 -146 610 -416 610 -401 0 31 -21 68 -67 117 -67 72 -136 124 -398
304 -313 215 -330 229 -489 389 -522 530 -659 910 -454 1259 181 310 462 505
824 573 110 20 361 15 469 -11 39 -9 109 -22 156 -30 479 -80 814 -454 836
-935 13 -270 -51 -535 -285 -1180 -174 -480 -164 -444 -117 -400 53 51 120
155 155 244 17 43 56 174 86 292 30 118 67 247 83 287 16 40 47 115 69 167 78
189 107 358 99 580 -4 112 -11 169 -32 250 -44 172 -131 340 -237 455 -113
124 -393 257 -664 315 -76 17 -142 22 -289 25 -104 2 -203 1 -220 -1z"/>
<path d="M1481 11001 c-11 -7 -4 -12 30 -21 147 -38 196 -53 253 -79 66 -30
156 -103 156 -127 0 -14 108 -131 246 -266 334 -326 733 -565 1140 -683 63
-18 124 -27 211 -32 192 -10 168 8 -133 101 -324 101 -502 171 -604 238 -25
16 -82 50 -127 76 -116 66 -217 157 -400 359 -236 262 -360 362 -513 414 -71
24 -235 37 -259 20z"/>
<path d="M1379 10937 c-80 -97 -103 -228 -78 -431 12 -93 58 -206 108 -266
l20 -25 1 42 c0 23 -10 106 -22 185 -29 190 -32 446 -5 496 22 41 10 40 -24
-1z"/>
<path d="M6764 10951 c-82 -38 -65 -53 95 -81 169 -29 231 -51 231 -83 0 -20
196 -137 229 -137 50 0 -98 159 -213 229 -136 82 -264 109 -342 72z"/>
<path d="M6598 10900 c-40 -21 -105 -109 -393 -530 -251 -367 -406 -570 -534
-702 -88 -92 -45 -67 67 38 173 163 309 336 572 729 129 193 263 385 317 453
29 37 23 39 -29 12z"/>
<path d="M6853 10730 c-18 -11 -33 -24 -33 -29 0 -5 -30 -30 -68 -54 -81 -55
-193 -164 -265 -261 -30 -39 -114 -165 -186 -281 -73 -115 -164 -251 -202
-302 -73 -96 -201 -223 -252 -249 -16 -9 -26 -18 -23 -21 8 -8 107 53 176 109
91 74 209 223 378 478 85 129 180 269 210 310 58 79 194 225 225 242 21 11
155 -40 198 -77 15 -12 65 -34 112 -50 128 -41 154 -20 68 57 -55 50 -165 111
-238 133 -61 19 -62 19 -100 -5z"/>
<path d="M1531 10674 c-27 -34 -27 -72 0 -134 18 -43 20 -55 10 -100 -15 -70
-14 -145 2 -159 18 -15 49 18 78 84 70 159 -5 417 -90 309z"/>
<path d="M1650 10669 c0 -51 43 -112 132 -184 46 -37 142 -129 215 -205 404
-420 721 -624 1091 -701 53 -11 141 -36 195 -55 97 -33 157 -43 157 -25 0 20
-91 83 -181 125 -93 43 -160 63 -310 90 -147 27 -301 104 -451 227 -46 37
-198 183 -338 324 -233 235 -364 350 -472 414 l-38 23 0 -33z"/>
<path d="M8191 10664 c-36 -13 -66 -26 -68 -27 -1 -2 31 -2 73 -1 75 2 93 10
94 42 0 18 -27 14 -99 -14z"/>
<path d="M7536 10564 c12 -53 39 -88 78 -103 35 -13 46 -13 101 1 54 15 278
109 271 115 -1 1 -38 -9 -81 -23 -95 -31 -225 -42 -279 -24 -20 6 -50 23 -67
37 l-30 26 7 -29z"/>
<path d="M4289 10569 c-66 -9 -178 -50 -222 -80 -41 -28 -107 -91 -107 -101 0
-13 37 9 109 64 70 53 93 60 226 76 50 6 104 16 120 22 28 11 28 13 10 20 -24
10 -63 10 -136 -1z"/>
<path d="M8300 10553 c-8 -3 -94 -42 -190 -88 -249 -118 -319 -140 -450 -140
-120 0 -168 16 -234 78 -21 21 -40 37 -41 37 -2 0 1 -19 7 -42 33 -150 156
-179 407 -96 84 28 531 241 531 253 0 6 -10 5 -30 -2z"/>
<path d="M5036 10228 c-53 -39 -94 -74 -91 -76 6 -6 147 94 175 123 39 41 16
29 -84 -47z"/>
<path d="M5305 10188 c-23 -49 -25 -65 -25 -208 0 -122 -5 -171 -20 -230 -26
-99 -38 -226 -20 -215 22 14 78 148 105 251 46 177 50 334 10 417 -9 20 -19
37 -22 37 -2 0 -15 -24 -28 -52z"/>
<path d="M1642 10147 c-53 -56 -29 -142 65 -227 50 -46 115 -76 135 -64 15 9
9 54 -13 97 -24 47 -149 217 -159 217 -4 0 -16 -10 -28 -23z"/>
<path d="M4860 10113 c-19 -9 -66 -19 -105 -22 l-70 -6 -3 -34 c-4 -43 12 -54
56 -35 34 14 162 101 162 110 0 5 3 6 -40 -13z"/>
<path d="M1536 10017 c-3 -12 -6 -49 -6 -82 0 -106 59 -188 124 -171 38 9 52
46 37 95 -12 43 -85 138 -124 164 -24 15 -25 15 -31 -6z"/>
<path d="M4059 9664 c-79 -42 -188 -50 -250 -18 -24 12 -27 11 -39 -11 -21
-40 -7 -55 52 -55 97 0 198 32 258 79 28 23 18 26 -21 5z"/>
<path d="M5359 9557 c-19 -12 -33 -27 -32 -32 7 -25 183 -10 183 16 0 11 -30
24 -81 33 -28 5 -43 1 -70 -17z"/>
<path d="M3602 9461 c-40 -70 -25 -135 43 -193 33 -28 149 -81 314 -144 85
-32 177 -73 204 -91 50 -34 63 -38 91 -27 45 17 13 39 -259 174 -88 44 -190
102 -227 130 -70 53 -128 128 -128 167 0 34 -13 28 -38 -16z"/>
<path d="M5578 9243 c-117 -108 -327 -358 -312 -372 15 -16 82 42 137 118 33
48 81 109 106 136 85 92 144 165 138 171 -3 3 -34 -20 -69 -53z"/>
<path d="M5909 9291 c-78 -25 -89 -46 -139 -273 -16 -75 -37 -158 -46 -185
-59 -176 -146 -172 -320 16 -31 34 -45 42 -61 37 -29 -9 -36 -32 -22 -73 13
-42 142 -155 214 -189 136 -64 195 1 270 301 44 178 70 241 116 279 47 40 110
34 171 -16 46 -38 108 -78 121 -78 4 0 7 9 7 20 0 26 -89 113 -143 139 -50 24
-129 35 -168 22z"/>
<path d="M4700 9201 c-55 -17 -167 -88 -156 -98 2 -2 22 5 43 16 22 11 68 23
104 27 76 8 132 29 127 46 -5 15 -81 21 -118 9z"/>
<path d="M2780 9080 c-23 -7 -22 -8 11 -9 62 -2 158 -41 409 -168 309 -156
420 -207 528 -242 80 -26 162 -44 162 -37 0 8 -177 120 -293 186 -246 139
-484 235 -651 265 -96 16 -127 17 -166 5z"/>
<path d="M6211 8977 c-2 -155 58 -318 253 -680 158 -295 220 -438 243 -561 25
-132 32 -130 32 6 2 247 -50 392 -284 803 -116 203 -199 366 -226 440 l-18 50
0 -58z"/>
<path d="M4076 8794 c-43 -36 -75 -68 -72 -71 5 -5 150 109 161 127 16 26 -19
4 -89 -56z"/>
<path d="M6054 8745 c15 -244 124 -565 331 -981 70 -141 84 -163 84 -136 2 61
-38 227 -94 393 -53 159 -306 804 -321 817 -4 4 -4 -38 0 -93z"/>
<path d="M2450 8723 c-41 -43 -197 -197 -347 -343 -323 -315 -406 -417 -507
-618 -74 -148 -70 -154 16 -22 103 156 271 353 559 655 194 204 371 405 357
405 -2 0 -37 -35 -78 -77z"/>
<path d="M2810 8794 c0 -4 11 -26 25 -50 113 -193 533 -330 869 -283 42 5 93
16 113 23 37 13 36 13 -52 19 -125 9 -368 50 -506 86 -187 48 -315 104 -406
178 -24 19 -43 31 -43 27z"/>
<path d="M4871 8769 c-29 -5 -71 -20 -93 -33 -39 -23 -39 -24 -17 -32 35 -11
158 -8 206 5 22 6 52 20 65 31 20 17 21 21 8 30 -18 12 -94 11 -169 -1z"/>
<path d="M2598 8655 c-91 -71 -178 -182 -366 -465 -96 -146 -208 -308 -248
-361 -81 -105 -199 -226 -284 -291 -73 -55 -39 -42 57 23 93 63 255 223 338
334 33 44 119 170 192 280 183 278 240 360 298 430 95 114 95 114 13 50z"/>
<path d="M4608 8645 c-69 -47 -103 -158 -129 -418 -6 -62 -9 -134 -7 -162 l4
-50 16 36 c10 20 31 87 48 149 32 112 111 462 106 467 -1 1 -18 -9 -38 -22z"/>
<path d="M4112 8567 c-18 -18 -32 -37 -32 -41 0 -15 241 1 293 19 102 36 33
64 -116 47 -55 -6 -93 -6 -95 -1 -6 15 -17 10 -50 -24z"/>
<path d="M6020 8378 c-52 -17 -110 -61 -99 -73 6 -6 112 46 143 70 30 23 16
24 -44 3z"/>
<path d="M5888 8236 c-44 -33 -42 -75 13 -211 26 -66 28 -77 19 -131 -14 -79
-15 -213 -2 -226 14 -14 47 39 67 104 53 177 37 355 -41 447 -29 35 -32 36
-56 17z"/>
<path d="M3932 8030 c-60 -13 -125 -47 -163 -87 -18 -18 -30 -33 -26 -33 4 0
46 22 93 49 l86 49 79 -33 c194 -83 322 -99 262 -33 -56 62 -229 108 -331 88z"/>
<path d="M3723 7828 c-59 -60 -86 -129 -78 -193 12 -103 79 -376 152 -629 117
-405 171 -609 202 -763 28 -138 30 -144 80 -212 71 -95 118 -136 138 -120 17
15 12 52 -19 144 -23 65 -90 205 -118 245 -12 16 -22 61 -29 130 -16 145 -38
232 -121 470 -164 467 -183 545 -182 735 0 83 5 149 14 183 8 28 12 52 9 52
-4 0 -26 -19 -48 -42z"/>
<path d="M4560 7635 c-51 -54 -13 -181 82 -278 l53 -54 103 -17 c57 -10 107
-15 110 -11 4 4 -9 19 -28 34 -189 144 -258 223 -267 305 -6 52 -19 57 -53 21z"/>
<path d="M3978 7574 c-16 -8 -28 -18 -29 -22 0 -4 -2 -20 -4 -37 -1 -16 -8
-61 -15 -99 -16 -84 -4 -196 36 -324 16 -49 89 -208 166 -362 154 -305 191
-384 224 -480 l22 -65 12 30 c18 44 6 158 -25 245 -15 41 -89 203 -165 360
-77 157 -153 326 -169 376 -28 84 -69 280 -60 289 2 2 36 -7 74 -21 99 -33
137 -31 239 14 47 22 88 41 90 43 2 2 -48 4 -113 4 -111 0 -119 1 -182 33 -77
37 -66 35 -101 16z"/>
<path d="M1508 7528 c-68 -80 -140 -192 -196 -303 -63 -124 -215 -495 -208
-503 24 -24 109 126 296 523 73 154 139 292 146 308 21 39 12 34 -38 -25z"/>
<path d="M5870 7564 c-88 -16 -217 -49 -229 -60 -21 -19 -6 -62 24 -70 19 -5
33 1 59 24 60 53 222 67 360 32 121 -31 208 -82 306 -180 179 -177 277 -402
315 -715 23 -184 45 -265 74 -265 29 0 41 181 21 321 -5 38 -15 102 -20 142
-15 102 -45 194 -95 292 -118 231 -322 400 -554 460 -65 17 -214 28 -261 19z"/>
<path d="M6905 7353 c29 -82 87 -242 130 -358 42 -115 91 -259 110 -320 34
-114 49 -131 73 -85 27 53 -13 277 -84 468 -66 176 -143 313 -222 395 -25 26
-49 47 -53 47 -3 0 17 -66 46 -147z"/>
<path d="M5350 7380 c-81 -37 -234 -130 -226 -137 2 -3 314 163 325 173 14 13
-25 -1 -99 -36z"/>
<path d="M6694 7353 c3 -10 12 -49 21 -88 72 -319 266 -855 309 -855 96 0
-105 637 -285 901 -41 60 -54 73 -45 42z"/>
<path d="M1505 7288 c-97 -108 -253 -364 -328 -540 -37 -86 -70 -208 -65 -237
5 -27 71 87 191 329 61 124 138 270 171 325 61 103 90 164 83 171 -3 3 -26
-19 -52 -48z"/>
<path d="M4990 7158 c-146 -100 -255 -231 -298 -360 -16 -46 -17 -71 -11 -188
29 -496 228 -957 517 -1193 99 -82 216 -152 220 -132 9 39 -50 116 -228 299
-233 241 -288 321 -310 461 -5 28 -24 91 -44 142 -132 338 -58 719 189 966 31
31 53 57 49 56 -5 0 -43 -23 -84 -51z"/>
<path d="M9050 7148 c0 -31 48 -84 172 -191 218 -187 270 -251 307 -373 37
-122 169 -343 319 -531 154 -193 298 -338 716 -723 257 -236 242 -225 477
-389 301 -211 484 -319 506 -297 8 7 -17 58 -45 92 -9 11 -156 120 -327 242
-510 365 -728 544 -908 750 -56 64 -136 150 -178 192 -141 139 -219 248 -389
545 -139 242 -215 355 -305 452 -88 95 -173 162 -267 209 -76 38 -78 39 -78
22z"/>
<path d="M8645 7005 c-452 -192 -714 -338 -1090 -609 -248 -179 -225 -167 155
81 389 253 652 401 840 471 115 43 326 143 300 142 -3 0 -95 -38 -205 -85z"/>
<path d="M9200 6894 c-32 -95 20 -229 162 -426 122 -168 248 -357 248 -371 0
-17 125 -209 199 -305 191 -249 461 -500 831 -773 259 -192 559 -394 620 -420
88 -37 152 -46 170 -24 24 29 -64 99 -240 191 -768 402 -1397 1070 -1867 1980
-52 101 -98 184 -103 184 -5 0 -14 -16 -20 -36z"/>
<path d="M8849 6880 c-267 -56 -496 -150 -613 -251 -22 -20 -82 -56 -132 -82
-50 -25 -120 -63 -155 -85 -106 -65 -423 -273 -434 -285 -5 -6 1 -4 15 5 14 8
126 78 250 155 487 303 752 433 1034 508 73 19 144 39 157 44 23 9 23 10 -6
10 -16 0 -69 -9 -116 -19z"/>
<path d="M880 6418 c-308 -281 -659 -478 -831 -466 -30 2 -48 -1 -46 -7 2 -5
26 -11 53 -13 147 -9 591 226 792 420 57 55 107 116 101 122 -2 2 -33 -23 -69
-56z"/>
<path d="M963 6333 c-26 -20 -104 -88 -173 -152 -212 -195 -374 -301 -509
-331 -69 -16 -165 -8 -224 18 -53 24 -60 14 -19 -28 66 -66 167 -62 317 10
139 68 295 182 570 418 61 53 112 97 114 99 2 1 -3 3 -12 3 -8 0 -37 -17 -64
-37z"/>
<path d="M7089 6114 c-128 -57 -216 -76 -379 -80 -152 -5 -214 -20 -208 -53 4
-22 40 -29 160 -30 102 -1 112 1 195 35 83 35 281 131 313 153 27 19 -4 9 -81
-25z"/>
<path d="M7235 6024 c-60 -29 -150 -66 -200 -81 -81 -24 -108 -27 -261 -29
-170 -2 -197 -7 -224 -39 -24 -29 6 -37 115 -31 99 5 299 37 362 57 51 16 352
183 323 178 -3 0 -54 -25 -115 -55z"/>
<path d="M4415 6030 c-15 -24 -18 -168 -5 -247 33 -206 167 -530 336 -811 54
-91 72 -91 60 2 -10 74 -45 168 -172 469 -126 296 -177 434 -197 534 -9 45
-16 62 -22 53z"/>
<path d="M4276 5817 c-27 -45 -28 -54 -24 -130 7 -115 44 -217 159 -442 156
-305 183 -355 195 -355 22 0 34 48 24 99 -12 64 -38 124 -153 359 -107 215
-145 318 -162 437 l-11 80 -28 -48z"/>
<path d="M6937 5730 c-28 -33 -47 -87 -47 -135 0 -16 7 -82 16 -145 16 -112
16 -119 -4 -205 -30 -132 -36 -175 -23 -175 29 0 99 182 127 328 28 145 10
345 -32 359 -6 2 -23 -10 -37 -27z"/>
<path d="M6653 5490 c-42 -17 -52 -56 -54 -216 -1 -123 2 -158 17 -203 43
-123 64 -57 71 222 3 117 2 207 -3 206 -5 0 -19 -4 -31 -9z"/>
<path d="M5658 5301 c-13 -11 -33 -36 -43 -58 -11 -21 -29 -54 -41 -73 -11
-19 -27 -53 -34 -75 -24 -77 -129 -272 -275 -515 -244 -404 -316 -575 -316
-756 0 -66 5 -106 20 -148 11 -33 22 -60 24 -63 2 -2 7 38 10 89 15 232 115
490 384 988 185 345 230 431 272 528 23 51 41 95 41 97 0 10 -19 4 -42 -14z"/>
<path d="M5784 5280 c-43 -17 -72 -67 -94 -164 -13 -56 -31 -109 -45 -128 -51
-70 -179 -290 -249 -428 -186 -367 -273 -631 -236 -720 7 -16 15 -30 19 -30 3
0 20 57 37 128 41 165 93 294 215 532 207 405 300 598 339 705 21 60 38 110
37 111 -1 1 -11 -2 -23 -6z"/>
<path d="M5996 5149 c-56 -44 -21 -81 114 -124 47 -14 101 -35 120 -46 218
-123 292 -131 178 -19 -70 69 -176 138 -273 177 -95 39 -104 39 -139 12z"/>
<path d="M6489 5087 c-42 -14 -101 -56 -79 -57 17 0 140 56 140 65 0 8 -20 5
-61 -8z"/>
<path d="M5793 4948 c-82 -40 37 -115 283 -178 219 -57 232 -30 34 70 -67 34
-277 121 -288 119 -4 0 -17 -5 -29 -11z"/>
<path d="M4791 4725 c-5 -22 -13 -103 -17 -180 -8 -182 -25 -267 -67 -352 -52
-102 -106 -296 -87 -308 27 -17 134 187 189 358 75 235 78 411 8 502 -14 19
-15 18 -26 -20z"/>
<path d="M4895 4743 c-4 -10 -11 -112 -15 -228 -7 -201 -20 -282 -50 -320 -18
-22 -80 -241 -80 -279 l1 -41 20 25 c68 81 169 353 195 521 20 130 13 215 -22
286 -27 56 -37 64 -49 36z"/>
<path d="M5278 3670 c-87 -129 -61 -312 79 -554 25 -45 91 -152 146 -240 138
-222 175 -300 256 -549 155 -477 242 -846 305 -1290 45 -317 44 -306 61 -572
25 -382 37 -434 70 -292 49 208 18 629 -84 1135 -65 322 -229 1010 -262 1102
-38 105 -124 269 -236 454 -104 171 -213 378 -246 466 -33 91 -56 191 -65 285
-7 79 -8 80 -24 55z"/>
<path d="M5042 3577 c-24 -12 -45 -30 -48 -42 -6 -26 72 -212 256 -605 265
-567 357 -814 411 -1102 17 -90 42 -201 55 -248 45 -153 73 -320 109 -644 38
-342 62 -482 102 -610 32 -103 94 -230 138 -281 l34 -40 -15 50 c-30 101 -105
500 -164 865 -66 417 -107 639 -150 810 -15 63 -33 153 -40 200 -33 237 -107
438 -335 909 -160 332 -226 487 -270 636 -40 135 -33 126 -83 102z"/>
</g>
</svg>
