<?xml version="1.0" standalone="no"?>
<!DOCTYPE svg PUBLIC "-//W3C//DTD SVG 20010904//EN"
 "http://www.w3.org/TR/2001/REC-SVG-20010904/DTD/svg10.dtd">
<svg version="1.0" xmlns="http://www.w3.org/2000/svg"
 width="1053.000000pt" height="1280.000000pt" viewBox="0 0 1053.000000 1280.000000"
 preserveAspectRatio="xMidYMid meet">
<metadata>
Created by potrace 1.15, written by Peter Selinger 2001-2017
</metadata>
<g transform="translate(0.000000,1280.000000) scale(0.100000,-0.100000)"
fill="#000000" stroke="none">
<path d="M8755 12753 c-44 -26 -204 -104 -355 -173 -409 -188 -502 -238 -670
-359 -83 -60 -109 -71 -173 -72 l-52 0 -72 -82 c-100 -113 -268 -293 -608
-649 -316 -330 -448 -473 -569 -615 -43 -51 -82 -90 -87 -87 -5 3 -34 -7 -65
-21 -35 -16 -65 -24 -79 -21 -27 7 -38 -16 -80 -169 -31 -117 -73 -217 -89
-212 -6 1 -46 54 -88 117 -90 134 -131 174 -198 190 -85 20 -121 4 -225 -106
-122 -128 -175 -162 -175 -111 0 12 -23 68 -52 124 -51 99 -54 103 -86 103
-18 0 -50 -9 -72 -20 -22 -11 -55 -20 -74 -20 -34 0 -35 1 -30 29 4 19 -4 58
-21 110 -15 44 -25 87 -22 95 10 26 -193 279 -567 706 -104 118 -235 276 -291
350 -110 145 -196 232 -260 261 -54 25 -128 24 -181 -2 -69 -33 -69 -35 -19
-134 77 -151 162 -259 477 -607 86 -95 224 -256 308 -358 83 -102 206 -252
273 -333 306 -373 381 -531 375 -789 l-3 -113 -70 -18 c-89 -23 -194 -72 -300
-141 -119 -77 -220 -131 -287 -152 -32 -10 -59 -16 -61 -13 -2 2 -22 59 -45
125 -56 164 -111 291 -162 369 -56 86 -154 176 -232 213 -105 50 -103 51 -117
-13 -18 -81 -16 -209 4 -285 10 -36 64 -162 121 -280 94 -198 123 -271 138
-357 4 -25 1 -34 -17 -46 -12 -8 -76 -63 -142 -122 -144 -129 -220 -184 -309
-226 -61 -28 -69 -30 -98 -18 -63 26 -181 111 -320 231 -186 161 -238 199
-326 241 -282 135 -555 18 -721 -310 -89 -178 -144 -352 -265 -843 -71 -289
-112 -436 -152 -542 -16 -43 -22 -48 -73 -67 -31 -11 -139 -43 -241 -70 -272
-73 -399 -122 -469 -178 -23 -19 -25 -19 -76 -1 -122 41 -366 48 -498 13 -80
-21 -151 -59 -181 -97 l-26 -33 90 -7 c107 -7 157 -29 182 -79 23 -45 23 -122
-1 -209 -19 -66 -17 -82 5 -61 15 15 205 108 290 142 44 17 181 67 307 110
125 44 273 99 329 124 57 25 111 45 122 45 10 0 38 -18 62 -40 24 -22 52 -40
62 -40 9 0 47 29 82 66 63 64 209 169 321 232 l56 32 7 69 c9 107 62 376 110
565 91 354 238 839 299 985 l14 33 13 -32 c23 -55 90 -151 148 -213 75 -79
179 -158 398 -305 99 -67 186 -127 191 -134 17 -21 68 -175 91 -273 39 -168
60 -338 92 -750 21 -275 44 -499 62 -602 10 -60 9 -65 -18 -110 -15 -27 -84
-160 -152 -298 -68 -137 -144 -286 -169 -331 -43 -77 -47 -81 -91 -93 -82 -21
-209 -78 -279 -124 -196 -131 -339 -315 -499 -640 -87 -176 -84 -120 -28 -497
154 -1036 468 -2039 913 -2915 41 -82 77 -154 80 -159 2 -4 -51 -61 -117 -125
-128 -124 -151 -163 -139 -238 7 -43 -13 -56 -108 -72 -39 -7 -77 -16 -85 -21
-10 -6 -15 -31 -16 -83 -3 -120 -13 -133 -144 -200 -62 -32 -222 -119 -354
-194 -133 -75 -261 -147 -285 -161 l-44 -25 24 -14 c19 -10 52 -12 150 -7
l125 6 32 -27 32 -27 0 -106 c0 -59 5 -124 11 -145 14 -50 56 -96 96 -103 32
-6 34 -5 58 50 13 30 50 142 81 247 69 239 71 242 98 227 11 -6 29 -22 40 -36
35 -45 60 -62 87 -62 26 0 29 6 73 142 46 143 118 288 143 288 7 0 37 -25 67
-55 36 -38 61 -55 78 -55 24 0 25 2 31 88 8 132 65 263 116 270 13 2 41 -4 61
-13 59 -27 71 -19 97 63 32 102 43 180 43 308 0 236 -43 387 -250 879 -248
588 -500 1367 -639 1975 -60 264 -160 809 -148 815 1 1 27 9 58 18 68 21 146
71 259 167 76 65 165 119 176 107 2 -2 -4 -55 -15 -118 -67 -400 -8 -842 179
-1334 66 -173 138 -331 280 -615 76 -151 154 -314 173 -361 77 -193 194 -360
411 -587 80 -84 157 -168 171 -186 22 -29 33 -34 83 -40 60 -7 140 -46 179
-87 12 -13 43 -80 69 -149 69 -186 144 -356 328 -752 147 -317 296 -657 296
-677 0 -15 108 -111 168 -149 90 -58 151 -76 247 -75 94 1 165 23 252 79 128
82 221 180 433 456 128 168 138 185 165 268 26 80 81 209 185 435 152 329 192
440 244 667 5 22 21 35 69 59 283 143 530 413 711 776 154 308 256 625 422
1303 84 340 162 641 169 649 7 7 159 -88 213 -132 59 -49 129 -136 138 -173 3
-13 -11 -94 -31 -181 -84 -356 -182 -666 -427 -1348 -261 -727 -383 -1111
-466 -1475 l-38 -164 64 -22 c35 -13 66 -25 68 -27 3 -2 -7 -27 -21 -55 -46
-93 -59 -181 -49 -338 l9 -139 32 -3 c18 -2 49 6 72 17 90 46 102 25 110 -199
5 -109 12 -173 21 -190 l13 -25 21 30 c58 82 122 126 160 112 27 -11 38 -88
37 -260 l-1 -167 30 0 c21 0 39 10 61 35 18 19 37 35 43 35 11 0 104 -190 130
-267 8 -24 18 -70 22 -103 l7 -60 40 23 c22 12 66 54 99 94 70 86 99 108 164
125 27 7 51 13 52 14 2 1 -5 22 -16 46 -12 27 -54 77 -110 132 -126 123 -135
147 -97 271 5 16 -5 26 -56 55 -90 51 -154 103 -169 139 -12 29 -10 76 5 126
5 18 -2 24 -49 44 -67 28 -140 90 -169 145 -17 33 -21 58 -22 133 l0 92 -33 6
c-18 3 -83 32 -145 64 -61 32 -127 62 -144 66 -18 3 -33 8 -33 10 0 1 34 67
76 146 609 1147 873 1985 954 3021 l10 137 -36 47 c-46 61 -91 151 -169 339
-69 166 -119 257 -174 318 -20 22 -95 84 -168 139 -152 114 -180 144 -233 253
-85 179 -140 404 -182 750 -18 149 -18 878 0 1070 13 141 59 495 64 500 2 1
30 18 63 36 155 85 284 179 535 385 172 141 319 254 331 254 4 0 24 -71 44
-157 203 -869 296 -1168 451 -1462 115 -218 252 -386 413 -506 75 -57 187
-125 205 -125 3 0 6 14 6 31 0 17 5 39 11 51 14 26 46 18 109 -25 142 -98 174
-118 203 -125 28 -7 35 -5 59 20 46 50 80 40 268 -78 63 -40 102 -44 124 -12
14 20 14 24 -10 52 -42 51 -76 133 -81 197 -3 34 -11 62 -17 64 -6 1 -58 8
-116 14 -303 34 -582 105 -803 204 l-68 30 8 66 c14 111 8 298 -12 396 -29
145 -67 242 -230 575 -84 173 -190 399 -235 502 -89 203 -143 302 -183 332
-16 12 -52 21 -100 26 -41 4 -79 10 -86 14 -14 9 -14 46 -1 82 l11 27 -83 -8
c-171 -15 -329 -71 -473 -168 -33 -23 -123 -89 -200 -147 -139 -106 -245 -173
-319 -204 -22 -9 -40 -15 -41 -14 0 2 -10 23 -21 48 -33 78 -106 137 -273 224
-173 91 -253 151 -290 218 l-26 47 39 73 c22 40 100 179 174 308 287 499 281
487 308 640 27 161 58 266 165 567 114 323 152 462 166 611 l6 62 56 0 c75 0
117 24 163 91 l37 54 80 1 c96 2 197 30 263 74 149 99 247 281 265 494 5 69 4
76 -12 76 -41 0 -83 -41 -125 -121 -46 -88 -90 -145 -122 -154 -14 -5 -28 1
-49 21 -20 19 -40 28 -63 28 -33 0 -46 -7 -160 -89 -65 -47 -112 -48 -157 -3
-22 23 -34 29 -37 20 -2 -8 -26 -47 -54 -87 -62 -94 -154 -177 -238 -216 -36
-17 -72 -34 -80 -39 -8 -4 -21 -36 -29 -71 -7 -35 -40 -174 -72 -309 -77 -314
-105 -470 -120 -658 l-13 -152 -57 -45 c-104 -82 -192 -198 -334 -440 -120
-204 -195 -313 -264 -387 l-58 -62 -60 53 c-78 68 -200 156 -335 239 -100 62
-108 69 -108 98 0 66 43 193 119 353 76 161 111 253 126 336 6 37 17 48 138
140 714 544 1016 850 1251 1272 l56 100 162 48 c458 136 768 250 1015 375
l153 77 152 -54 c411 -146 617 -183 836 -149 57 9 108 18 113 22 16 9 -23 64
-69 96 -52 36 -123 61 -267 94 -60 14 -207 52 -325 84 -319 87 -627 162 -659
159 -3 0 -42 -21 -86 -46z m84 -86 c17 -19 41 -102 41 -148 0 -4 -28 -12 -62
-19 -35 -6 -130 -33 -213 -60 -132 -42 -282 -77 -290 -68 -2 2 31 31 73 65 42
35 113 92 157 128 149 121 244 154 294 102z m539 -99 c82 -28 77 -25 62 -43
-17 -21 -62 -19 -134 7 -74 26 -72 24 -56 43 17 21 50 19 128 -7z m293 -74
c33 -17 36 -26 13 -48 -14 -14 -19 -14 -52 0 -20 9 -55 22 -76 29 l-39 12 24
17 c27 20 81 16 130 -10z m-1441 -143 c0 -52 -71 -90 -168 -91 -35 0 -43 3
-40 16 5 27 48 52 123 73 90 24 85 24 85 2z m-4514 -343 c45 -48 102 -127 187
-263 41 -66 101 -147 131 -180 59 -63 61 -86 6 -66 -54 18 -128 80 -218 180
-152 171 -224 312 -196 385 5 14 9 14 33 -3 14 -11 40 -34 57 -53z m3774 -128
c-94 -240 -235 -400 -620 -708 -135 -108 -289 -239 -342 -290 -76 -74 -99 -91
-104 -78 -18 48 65 151 167 206 48 25 77 53 147 138 300 365 372 446 522 586
92 86 228 195 242 196 4 0 -1 -22 -12 -50z m630 -143 l0 -60 -32 6 c-18 3 -50
13 -70 21 -55 23 -51 51 10 77 26 11 51 28 56 36 16 29 36 -15 36 -80z m-521
-243 c21 -15 22 -20 16 -93 -12 -132 -43 -270 -107 -473 -34 -109 -65 -198
-69 -198 -9 0 -19 55 -19 111 0 60 19 151 65 304 38 129 65 264 65 326 0 43
12 49 49 23z m-3338 -194 c94 -48 154 -125 263 -335 l68 -130 -118 119 c-128
131 -191 211 -235 298 -40 79 -40 79 22 48z m1885 -822 c-14 -179 -51 -284
-124 -350 -43 -39 -81 -62 -88 -55 -9 9 18 104 58 207 35 89 42 119 46 198 l4
92 55 0 56 0 -7 -92z m-570 -14 c46 -26 84 -72 108 -129 19 -46 33 -155 20
-155 -15 0 -61 47 -104 105 -22 30 -49 59 -61 65 -34 19 -79 1 -129 -51 -28
-29 -56 -49 -69 -49 -22 0 -21 2 10 61 18 34 58 90 89 124 61 69 65 70 136 29z
m-543 -62 c11 -9 23 -24 28 -33 11 -21 41 -220 34 -227 -2 -3 -22 2 -42 9 -58
22 -84 78 -91 191 l-5 91 29 -7 c16 -4 37 -15 47 -24z m2217 -207 c10 -12 8
-26 -13 -73 -14 -31 -52 -125 -85 -207 -113 -284 -171 -391 -260 -487 -51 -55
-107 -91 -166 -107 l-38 -10 7 37 c3 20 30 96 58 167 60 150 159 320 301 515
54 74 106 145 115 157 19 26 63 30 81 8z m-1342 -255 c40 -64 14 -183 -47
-214 -51 -27 -80 -21 -97 19 -19 46 -18 139 2 181 16 33 18 34 73 34 46 0 59
-4 69 -20z m-792 -41 c12 -14 19 -40 22 -85 4 -59 3 -64 -16 -64 -34 0 -52 37
-52 107 0 69 12 80 46 42z m-1205 -106 c72 -77 125 -153 160 -228 27 -57 34
-85 37 -155 2 -47 0 -96 -5 -108 l-9 -24 -32 27 c-80 67 -160 227 -211 423
-16 59 -32 118 -36 131 l-7 24 29 -21 c16 -11 49 -42 74 -69z m2064 -175 c14
-6 25 -14 25 -17 0 -13 -89 -60 -140 -74 -92 -26 -186 -29 -399 -13 -113 9
-206 18 -208 19 -2 2 6 12 18 23 22 20 35 21 294 14 123 -3 135 -1 225 28 104
34 146 38 185 20z m-1017 -14 c26 -5 9 -16 -171 -106 -180 -89 -461 -242 -527
-288 -14 -9 -43 -27 -65 -39 l-40 -23 30 24 c16 12 93 77 170 143 172 147 195
165 276 209 123 68 242 97 327 80z m232 -3 l24 -7 -24 -17 c-31 -21 -73 -22
-91 -1 -23 28 27 43 91 25z m1034 -22 c19 -15 26 -30 26 -55 0 -29 -3 -34 -24
-34 -39 0 -76 36 -76 76 0 29 3 34 24 34 13 0 35 -9 50 -21z m-3467 -477 c245
-122 388 -244 483 -414 l32 -58 -40 0 c-66 0 -185 27 -269 60 -214 85 -382
240 -477 440 -55 115 -54 116 67 66 56 -24 148 -66 204 -94z m3163 18 c29 -6
68 -22 87 -36 32 -24 33 -26 18 -54 -20 -39 -51 -45 -118 -26 -78 23 -113 20
-192 -13 -110 -46 -204 -61 -382 -61 -87 0 -197 5 -243 10 -121 14 -283 41
-297 49 -20 11 40 76 87 95 73 29 135 29 325 1 203 -30 249 -29 455 10 69 13
139 26 155 28 17 2 35 5 41 6 6 0 35 -4 64 -9z m-1871 -81 c-33 -62 -116 -121
-331 -238 -95 -52 -176 -124 -206 -183 -34 -70 -30 -96 27 -152 49 -48 65 -83
50 -108 -6 -9 -30 9 -86 64 -55 53 -91 80 -120 88 l-42 13 31 46 c158 231 346
378 593 462 98 34 98 34 84 8z m4385 -1 c-28 -92 -157 -232 -321 -348 -164
-116 -256 -186 -313 -237 l-48 -43 -123 0 c-120 0 -178 9 -209 31 -12 8 -12
12 -2 16 42 17 204 135 308 224 66 57 140 120 165 140 153 123 316 202 477
229 74 12 74 12 66 -12z m-6417 -445 c-6 -142 -20 -207 -96 -448 -92 -297
-121 -430 -121 -556 0 -76 -8 -84 -53 -49 -54 43 -63 157 -27 342 31 160 71
287 175 548 52 129 97 247 100 263 4 15 12 27 18 27 6 0 8 -42 4 -127z m7129
-591 c93 -215 166 -464 190 -650 l7 -54 -29 15 c-110 57 -193 220 -288 562
-30 108 -148 594 -170 700 -9 40 222 -416 290 -573z m-5725 311 c150 -193 247
-344 458 -711 608 -1060 736 -1316 864 -1732 l36 -115 -87 91 c-156 163 -280
355 -669 1034 -99 173 -210 374 -246 445 -36 72 -83 152 -104 180 -45 58 -118
106 -164 108 -29 2 -36 -3 -57 -42 -33 -59 -32 -146 3 -261 14 -47 34 -114 45
-149 23 -76 66 -369 155 -1066 107 -830 228 -1651 366 -2479 38 -230 68 -420
66 -422 -8 -8 -150 453 -196 636 -152 602 -231 1124 -371 2455 -120 1141 -171
1534 -255 1968 -14 70 -25 134 -25 142 0 11 13 15 53 15 l52 0 76 -97z m559
82 c294 -35 798 -73 1290 -97 281 -13 1306 -14 1568 -1 89 4 162 6 162 3 0
-10 -106 -83 -160 -110 -136 -68 -309 -97 -535 -87 -128 6 -199 12 -570 49
-130 13 -500 16 -1040 8 -368 -5 -428 -1 -580 47 -100 31 -169 70 -240 135
-84 76 -85 75 105 53z m3390 -35 c0 -11 -10 -30 -21 -41 -20 -20 -29 -21 -112
-15 -50 3 -106 6 -125 6 -30 0 -33 2 -22 16 31 37 86 51 203 53 71 1 77 -1 77
-19z m159 -381 c20 -57 13 -163 -19 -297 -17 -70 -32 -159 -33 -198 l-2 -72
-75 -4 c-59 -4 -90 -12 -144 -39 -58 -28 -77 -45 -131 -114 -96 -123 -180
-256 -366 -581 -184 -321 -289 -488 -377 -599 -57 -71 -221 -245 -231 -245
-13 0 11 249 34 364 89 429 293 791 765 1356 285 340 264 321 366 354 98 31
168 67 178 91 9 24 23 18 35 -16z m-1459 -535 c171 -19 475 -86 498 -109 3 -2
-17 -15 -44 -27 -79 -37 -231 -32 -458 15 -314 65 -528 70 -1193 27 -317 -21
-693 -27 -693 -11 0 4 26 20 58 34 120 54 154 58 522 68 190 5 428 14 530 19
243 11 611 4 780 -16z m-4560 -74 c0 -39 -1 -40 -35 -40 -34 0 -35 1 -35 40 0
39 1 40 35 40 34 0 35 -1 35 -40z m-370 -89 c-13 -26 -50 -51 -72 -51 -20 0
-21 1 -12 25 7 17 56 44 82 45 10 0 10 -5 2 -19z m6285 -142 c35 -335 46 -825
25 -1144 -52 -809 -192 -1517 -460 -2315 -48 -146 -107 -332 -130 -415 -52
-190 -103 -296 -175 -364 -30 -28 -58 -51 -63 -51 -13 0 31 179 67 271 38 99
101 223 162 321 41 67 51 93 64 171 32 187 76 415 165 853 189 939 248 1291
294 1759 25 249 38 566 34 817 -1 130 -2 235 0 233 2 -1 9 -63 17 -136z
m-6849 8 c4 -3 -4 -26 -17 -51 -20 -41 -26 -46 -56 -46 l-33 0 0 53 0 52 50
-1 c28 -1 53 -4 56 -7z m9029 -162 c16 -15 25 -35 25 -56 0 -30 -1 -31 -32
-25 -18 4 -41 14 -50 24 -10 9 -20 32 -24 50 -6 31 -5 32 25 32 21 0 41 -9 56
-25z m369 -87 c21 -30 21 -68 0 -68 -20 0 -86 40 -82 49 2 3 10 18 17 33 11
22 17 25 32 18 10 -6 25 -20 33 -32z m-6625 -553 c34 -91 52 -206 58 -365 l6
-156 -109 -33 c-117 -35 -268 -84 -296 -96 -25 -10 -23 4 17 144 55 192 131
363 228 515 57 89 60 89 96 -9z m2571 -620 c-37 -425 -172 -878 -356 -1193
-69 -120 -66 -118 -169 -85 -95 31 -192 155 -255 326 -38 104 -100 315 -129
437 -24 101 -121 586 -121 605 0 3 30 -10 68 -28 140 -71 263 -98 437 -98 180
1 324 44 435 132 28 22 60 55 73 74 l22 34 3 -37 c2 -20 -1 -95 -8 -167z
m-3210 -62 c-158 -161 -224 -213 -317 -251 -50 -20 -53 -20 -53 -3 0 33 38
130 68 174 47 67 118 126 195 162 75 35 193 70 247 74 8 0 -55 -70 -140 -156z
m5302 -59 c40 -26 106 -79 147 -118 127 -123 191 -237 212 -380 17 -114 10
-117 -96 -41 -231 165 -359 352 -399 583 l-6 32 35 -14 c19 -8 67 -36 107 -62z
m-5757 -779 c38 -132 94 -512 73 -499 -14 9 -55 96 -72 153 -9 30 -23 93 -30
140 -14 79 -17 118 -31 311 l-5 65 21 -45 c11 -25 31 -81 44 -125z m4755 47
c0 -10 -7 -41 -15 -69 -28 -94 -131 -170 -287 -213 -157 -43 -259 -52 -615
-57 l-343 -5 0 44 c0 63 36 126 85 152 37 20 57 21 300 22 300 0 361 10 615
94 163 54 260 66 260 32z m-3496 -9 c31 -5 41 -12 52 -40 18 -43 37 -233 28
-289 l-6 -42 -160 -61 c-137 -53 -307 -103 -387 -113 -21 -3 -27 5 -52 68 -34
84 -56 241 -42 293 8 32 16 38 108 76 233 97 353 126 459 108z m4160 -166 l59
-27 -7 -128 c-7 -127 -17 -192 -51 -309 -17 -62 -18 -63 -54 -63 -59 0 -106
18 -185 71 -41 27 -89 54 -105 60 -37 13 -39 37 -16 151 32 152 64 213 133
256 51 32 143 27 226 -11z m-3577 -14 c77 -26 84 -27 423 -34 362 -8 425 -15
529 -59 44 -19 51 -26 51 -50 0 -38 -40 -84 -90 -104 -64 -26 -155 -29 -495
-17 -328 12 -414 21 -475 51 -62 32 -83 63 -88 132 -4 58 -3 63 24 85 16 13
32 23 36 23 4 0 43 -12 85 -27z m4309 -279 c-25 -541 -168 -1063 -483 -1764
-197 -438 -298 -648 -306 -637 -12 18 3 143 25 216 11 35 46 121 78 191 160
348 419 1138 606 1843 44 163 81 297 83 297 2 0 1 -66 -3 -146z m-3212 -30
c21 -20 21 -17 -20 -141 -67 -201 -182 -415 -384 -718 -119 -178 -185 -284
-241 -390 -27 -49 -49 -81 -49 -70 0 43 84 265 155 409 40 83 128 247 195 365
131 232 234 426 268 509 24 55 46 66 76 36z m506 -239 c40 -60 150 -222 245
-360 237 -342 452 -690 438 -705 -10 -10 -202 201 -271 296 -94 132 -221 344
-320 534 -75 144 -180 361 -169 350 3 -3 38 -54 77 -115z m-3268 -147 c74
-188 214 -609 353 -1068 69 -228 153 -494 186 -590 74 -216 78 -232 37 -150
-271 531 -521 1258 -604 1754 -13 83 -26 159 -29 169 -8 39 9 3 57 -115z
m1337 -268 c18 -72 34 -138 35 -147 1 -21 -149 -108 -233 -133 -35 -11 -85
-20 -113 -20 l-49 0 -26 58 c-75 163 -11 312 157 363 14 4 64 8 111 8 l85 1
33 -130z m3545 30 c23 -11 68 -35 101 -53 59 -34 60 -34 63 -83 10 -142 -67
-304 -142 -304 -45 0 -130 43 -155 78 -44 63 -61 118 -62 199 -1 79 13 156 34
182 15 18 106 7 161 -19z m-3461 -429 c3 -33 28 -128 57 -211 45 -132 79 -260
80 -297 0 -17 -96 -36 -151 -30 -98 12 -171 77 -242 214 -43 85 -114 270 -106
277 13 10 178 90 199 97 14 4 55 8 91 8 l66 1 6 -59z m301 -320 c12 -13 21
-47 27 -96 4 -41 11 -80 14 -85 11 -17 -31 -11 -48 8 -23 25 -34 59 -42 130
-6 57 -5 62 12 62 11 0 28 -9 37 -19z m2801 -225 c17 -12 17 -16 -15 -71 -58
-101 -136 -164 -224 -181 l-39 -7 7 44 c16 104 54 170 120 210 37 22 123 26
151 5z m-3772 -1225 c9 -16 17 -38 17 -48 0 -43 -53 -58 -84 -24 -19 21 -13
44 22 84 20 23 25 22 45 -12z m4437 -96 c14 -8 35 -14 48 -15 20 0 22 -5 22
-52 0 -86 -42 -146 -113 -162 l-29 -7 4 109 c2 73 7 114 17 125 16 20 19 20
51 2z m-4640 -215 c6 -11 8 -47 4 -90 l-7 -70 -49 0 c-62 0 -118 23 -118 48 0
21 25 45 88 85 23 15 42 32 42 37 0 18 29 11 40 -10z m4890 -100 c35 -19 53
-116 26 -139 -8 -7 -30 -15 -49 -18 -49 -8 -77 22 -77 80 0 72 44 107 100 77z
m-5210 -294 c-1 -28 -39 -92 -64 -106 -24 -12 -31 -12 -54 1 -15 8 -26 22 -26
32 3 39 5 44 17 61 22 31 127 40 127 12z m5441 -47 c114 -57 72 -210 -69 -253
-19 -6 -25 -2 -37 28 -20 48 -20 178 1 222 14 29 20 33 43 27 14 -3 42 -14 62
-24z m222 -409 c13 -26 17 -54 15 -105 -3 -64 -5 -70 -23 -67 -35 5 -53 39
-60 110 -4 37 -12 75 -17 85 -8 16 -5 18 29 15 32 -3 41 -8 56 -38z"/>
<path d="M1525 12611 c-42 -11 -107 -45 -126 -67 -29 -33 -60 -103 -62 -142
l-2 -37 65 -22 c80 -26 168 -39 370 -53 85 -5 189 -15 230 -21 84 -12 190 -38
190 -48 0 -3 -7 -15 -15 -25 -19 -26 -19 -81 1 -160 l16 -63 77 -6 c164 -13
306 -52 601 -167 96 -37 211 -79 255 -93 91 -28 244 -61 252 -54 11 11 -20
117 -46 158 -34 54 -70 90 -167 170 l-75 61 -29 -27 c-52 -50 -165 -47 -226 7
-45 40 -64 77 -64 128 0 36 3 40 25 40 40 0 124 -20 240 -57 126 -40 191 -41
264 -4 48 25 48 37 3 104 -34 50 -72 82 -143 118 -124 62 -267 91 -639 129
-274 28 -318 35 -495 75 -276 63 -410 78 -500 56z m215 -116 c140 -18 181 -25
380 -65 85 -18 216 -40 290 -49 128 -17 133 -19 105 -31 -58 -26 -217 -24
-380 5 -258 46 -327 55 -445 55 -114 0 -116 0 -148 29 -17 17 -32 39 -32 50 0
19 6 21 58 21 31 0 109 -7 172 -15z m1010 -145 c36 -36 26 -50 -35 -50 l-55 0
0 35 c0 33 2 35 35 35 22 0 43 -8 55 -20z m-215 -140 c32 -11 73 -20 92 -20
38 0 40 -5 14 -44 -52 -79 -160 -75 -240 8 l-33 34 21 21 c27 27 70 27 146 1z"/>
<path d="M1005 12456 c-433 -283 -534 -371 -655 -574 -33 -56 -107 -232 -97
-232 1 0 34 9 73 20 181 50 370 167 533 329 134 133 365 401 354 411 -9 8
-167 60 -180 59 -4 0 -17 -6 -28 -13z"/>
<path d="M3360 11570 c-19 -37 -20 -58 -20 -317 0 -662 52 -923 202 -1016 53
-33 76 -28 108 26 26 42 26 119 -1 267 -18 106 -20 139 -13 420 9 404 -9 518
-92 604 -42 43 -70 56 -124 56 -36 0 -41 -4 -60 -40z m142 -238 c21 -43 23
-60 23 -202 -1 -227 -9 -460 -16 -447 -12 23 -58 233 -69 321 -13 92 -10 352
3 373 13 20 35 3 59 -45z"/>
</g>
</svg>
