<?xml version="1.0" standalone="no"?>
<!DOCTYPE svg PUBLIC "-//W3C//DTD SVG 20010904//EN"
 "http://www.w3.org/TR/2001/REC-SVG-20010904/DTD/svg10.dtd">
<svg version="1.0" xmlns="http://www.w3.org/2000/svg"
 width="1280.000000pt" height="1270.000000pt" viewBox="0 0 1280.000000 1270.000000"
 preserveAspectRatio="xMidYMid meet">
<metadata>
Created by potrace 1.15, written by Peter Selinger 2001-2017
</metadata>
<g transform="translate(0.000000,1270.000000) scale(0.100000,-0.100000)"
fill="#000000" stroke="none">
<path d="M8373 12681 c-103 -35 -233 -142 -307 -253 -31 -45 -35 -58 -29 -91
5 -36 3 -42 -45 -90 -60 -62 -75 -91 -103 -194 -17 -62 -29 -86 -61 -119 -34
-36 -39 -47 -36 -80 3 -35 1 -38 -29 -46 -31 -8 -31 -8 -35 -86 -5 -87 -31
-158 -85 -229 -33 -44 -33 -44 -19 -87 13 -38 13 -50 1 -97 -23 -85 -20 -114
15 -139 37 -27 46 -57 26 -95 -26 -49 -20 -115 20 -222 67 -183 84 -235 84
-257 0 -21 -11 -24 -157 -53 -178 -36 -351 -87 -578 -171 -172 -63 -176 -81
-9 -33 103 30 197 40 208 23 3 -5 -27 -15 -67 -21 -302 -53 -536 -111 -542
-136 -1 -5 -15 -50 -29 -100 -29 -100 -32 -151 -12 -208 14 -38 14 -38 -8 -24
-47 31 -99 38 -275 40 l-180 3 6 -26 c3 -14 15 -41 25 -61 15 -29 16 -42 8
-64 -8 -22 -14 -25 -22 -17 -19 19 -33 14 -72 -23 -39 -36 -56 -38 -56 -5 0
12 22 35 55 60 57 42 71 74 35 83 -31 8 -24 35 25 89 25 28 45 54 45 58 0 4
-19 10 -42 13 -24 2 -51 8 -62 12 -16 7 -17 4 -12 -22 10 -45 -9 -114 -65
-235 -51 -109 -63 -170 -44 -229 l7 -21 15 21 c36 52 45 0 12 -73 -19 -44 -19
-49 -5 -72 26 -39 37 -29 30 25 -6 44 -4 50 16 61 30 16 53 6 45 -20 -5 -16
-2 -20 18 -20 44 0 60 30 52 103 -10 92 18 141 42 76 9 -24 17 -30 35 -27 31
4 35 35 7 64 l-22 24 25 0 c14 0 45 -7 68 -15 24 -8 45 -13 48 -10 11 11 -31
56 -77 80 -73 40 -77 65 -15 91 43 18 127 18 163 0 22 -12 51 -52 51 -71 0 -3
-13 -5 -29 -5 -25 0 -31 -6 -47 -52 -12 -34 -27 -57 -42 -63 -27 -12 -28 -26
-2 -50 26 -24 145 -28 145 -5 0 8 -15 18 -37 23 -28 7 -38 14 -38 28 0 18 1
19 25 3 23 -15 27 -14 79 12 31 16 61 24 71 20 15 -5 13 -11 -14 -41 -18 -21
-31 -47 -31 -63 0 -15 -3 -44 -6 -64 -6 -34 -10 -38 -36 -38 -33 0 -44 -19
-29 -49 10 -18 7 -22 -38 -41 -27 -12 -59 -33 -72 -46 -22 -23 -22 -25 -6 -59
23 -48 39 -52 91 -21 54 31 73 33 81 5 4 -11 5 -21 3 -23 -30 -19 -208 -96
-221 -96 -16 0 -16 2 -3 29 18 34 13 41 -27 41 -23 0 -42 13 -88 61 -53 56
-61 60 -96 57 -38 -3 -38 -3 -41 -50 -3 -50 -11 -58 -32 -33 -7 8 -37 22 -67
31 -59 17 -73 35 -52 68 7 11 16 44 19 71 5 48 4 51 -25 65 -22 11 -32 26 -39
55 -12 50 -9 48 -39 34 -33 -15 -97 -4 -97 18 0 8 42 56 94 107 111 107 123
126 93 141 -11 5 -25 28 -31 50 -7 25 -18 41 -30 43 -36 7 -36 -14 1 -66 40
-58 38 -67 -21 -87 l-34 -12 5 32 c3 18 -2 57 -10 86 -32 113 -35 107 78 143
151 48 249 115 274 186 14 40 -11 59 -95 71 -83 12 -96 22 -55 43 17 9 31 21
31 27 0 6 -18 33 -40 59 -22 26 -40 52 -40 58 0 5 20 12 45 14 33 4 55 15 85
42 42 38 60 45 60 23 0 -8 10 -22 21 -33 24 -21 24 -27 4 57 -7 25 -4 27 45
39 86 21 211 -2 262 -47 17 -15 38 -11 38 8 0 5 -10 23 -22 39 -16 22 -19 33
-11 41 9 9 28 -2 73 -42 59 -51 61 -54 38 -62 -12 -5 -35 -15 -49 -23 -15 -7
-44 -13 -65 -11 -34 2 -39 -1 -42 -21 -2 -13 3 -34 12 -47 13 -20 13 -25 1
-35 -10 -9 -21 -8 -45 5 -36 19 -50 13 -50 -20 0 -31 11 -37 79 -44 42 -5 57
-10 59 -23 3 -14 -4 -18 -31 -18 -46 0 -65 -24 -87 -112 -12 -46 -27 -79 -41
-90 l-21 -18 23 -1 c66 -3 101 5 176 39 67 30 82 41 83 60 0 20 -5 22 -44 22
-25 0 -48 5 -52 11 -3 6 16 33 42 60 l49 50 8 -30 c9 -37 34 -45 89 -31 51 14
138 57 138 69 0 4 -8 15 -19 25 -10 9 -49 78 -87 154 -82 163 -141 232 -220
255 -47 13 -49 16 -55 55 -3 23 -9 45 -13 49 -4 5 -58 8 -119 8 -104 0 -116
-2 -177 -31 -89 -42 -169 -119 -297 -287 -59 -78 -129 -163 -154 -190 l-46
-47 -34 14 c-59 25 -165 46 -380 76 -283 40 -443 78 -508 119 -14 9 -7 39 123
483 30 104 60 215 67 248 12 60 11 61 -16 90 -24 25 -29 41 -36 112 -12 127
-49 216 -178 422 -97 155 -152 258 -172 324 -9 32 -23 51 -53 72 -23 15 -93
83 -156 150 -84 91 -128 129 -165 146 -48 23 -129 32 -138 16 -7 -10 66 -229
97 -290 37 -74 79 -117 219 -225 158 -123 182 -149 182 -193 0 -33 3 -36 55
-57 l55 -22 6 -60 c7 -74 18 -110 80 -253 62 -143 73 -189 54 -219 -18 -27
-19 -47 -3 -73 10 -16 7 -35 -16 -107 -53 -162 -98 -385 -126 -623 -13 -109
-13 -109 74 -134 104 -30 186 -38 480 -46 252 -7 312 -12 369 -28 38 -11 74
-25 79 -30 16 -16 -10 -50 -89 -118 -198 -172 -239 -229 -249 -347 -5 -55 -2
-71 29 -142 19 -44 55 -163 81 -264 96 -373 152 -467 296 -495 33 -7 32 -6
-17 23 -54 32 -73 55 -73 90 0 36 19 32 45 -9 32 -51 61 -52 57 -2 -2 30 0 32
17 22 11 -5 29 -10 40 -10 28 0 26 -14 -5 -34 -18 -13 -24 -24 -22 -44 3 -25
7 -27 67 -34 35 -4 66 -9 68 -12 9 -9 -8 -26 -26 -26 -10 0 -24 -6 -30 -14 -9
-11 -5 -16 20 -25 35 -12 92 -15 102 -4 4 3 2 12 -4 20 -9 9 -8 21 1 43 7 16
10 36 6 45 -3 10 1 15 13 15 9 0 39 14 64 31 27 18 54 28 63 25 22 -9 7 -26
-42 -48 -46 -20 -78 -58 -50 -58 21 0 36 -32 36 -77 0 -36 -3 -40 -37 -52
-105 -36 -193 -124 -253 -252 -32 -69 -92 -263 -105 -336 -4 -24 -11 -43 -15
-43 -14 0 -176 73 -296 133 -70 35 -132 75 -173 112 -81 72 -138 98 -436 197
-285 94 -382 139 -465 216 l-62 57 -19 112 c-10 62 -44 224 -74 360 -31 136
-71 344 -90 463 -40 249 -63 339 -111 431 -38 73 -122 165 -109 119 4 -14 25
-60 47 -103 44 -89 57 -152 38 -197 -7 -16 -16 -30 -21 -30 -4 0 -48 39 -97
88 -91 89 -139 154 -207 277 -21 39 -91 151 -156 250 -136 210 -218 361 -249
460 -17 55 -23 110 -29 255 -9 191 -30 310 -57 310 -28 0 -72 -72 -83 -134
-19 -110 15 -311 81 -471 64 -154 271 -500 446 -743 302 -421 362 -557 487
-1116 36 -165 81 -344 98 -399 29 -93 34 -101 77 -130 25 -17 124 -90 220
-163 342 -258 464 -312 830 -369 178 -27 242 -44 305 -80 61 -35 89 -69 77
-92 -23 -42 -52 -185 -63 -309 -13 -144 -2 -329 26 -434 8 -30 15 -60 15 -67
0 -6 -23 -16 -51 -23 -59 -14 -77 -39 -60 -83 12 -32 18 -33 66 -10 47 23 50
17 59 -110 6 -108 22 -178 51 -239 18 -36 18 -38 0 -58 -10 -11 -23 -20 -29
-20 -32 0 -87 -23 -96 -40 -9 -17 -5 -22 29 -39 52 -27 98 -84 118 -147 l16
-51 -42 -39 c-61 -56 -88 -63 -174 -47 -169 32 -332 100 -672 283 -285 153
-403 209 -552 259 -188 64 -263 76 -459 76 l-171 0 -73 -38 c-41 -21 -147 -60
-237 -88 -90 -27 -190 -63 -223 -79 -57 -29 -145 -98 -137 -107 3 -2 42 15 88
37 79 38 118 48 132 33 10 -10 -53 -49 -160 -99 -53 -24 -112 -56 -129 -69
-42 -32 -50 -31 -69 4 -8 17 -19 33 -25 36 -13 8 -138 -61 -535 -295 -165 -97
-343 -199 -395 -227 l-95 -51 -200 38 c-445 84 -657 148 -961 288 -189 88
-251 106 -359 106 -50 0 -109 -6 -133 -13 l-42 -12 20 -40 c22 -42 91 -99 121
-99 12 0 24 13 33 35 16 36 33 44 54 23 7 -7 49 -24 94 -38 88 -27 116 -52 85
-74 -25 -19 -21 -26 16 -26 41 0 127 -27 242 -75 128 -54 177 -65 287 -65 96
0 97 0 121 -31 22 -28 35 -33 168 -61 134 -29 159 -31 354 -31 197 -1 216 1
309 26 149 40 296 109 576 269 450 256 744 408 1015 523 103 43 110 45 122 28
27 -39 35 -43 89 -43 72 0 95 -13 219 -124 101 -90 196 -152 353 -231 165 -82
274 -107 764 -170 329 -42 474 -73 601 -127 39 -17 51 -28 68 -67 69 -156 68
-352 -4 -529 -23 -55 -93 -169 -137 -221 -50 -58 -360 -65 -910 -18 -162 14
-365 29 -450 33 -257 11 -533 -19 -701 -77 -128 -44 -134 -48 -193 -167 -73
-147 -155 -333 -242 -550 -40 -100 -90 -211 -112 -245 -49 -78 -72 -145 -111
-327 -53 -245 -68 -292 -110 -343 -42 -51 -66 -128 -121 -402 -53 -259 -90
-353 -188 -476 -32 -41 -121 -157 -197 -259 -256 -341 -482 -621 -699 -870
-202 -232 -269 -290 -333 -290 -24 0 -37 -11 -75 -63 -54 -73 -128 -145 -215
-209 -63 -47 -226 -131 -275 -143 -32 -8 -38 -25 -9 -25 10 0 29 -9 42 -19 23
-19 23 -20 4 -26 -11 -4 -69 -27 -130 -52 -60 -24 -142 -49 -182 -56 -67 -11
-72 -13 -67 -33 7 -29 -9 -58 -67 -120 -46 -50 -67 -93 -55 -112 3 -5 36 -13
72 -17 37 -4 88 -13 113 -21 40 -12 48 -12 61 2 13 14 12 17 -10 35 -46 35
-50 40 -50 54 0 8 32 31 72 51 151 76 293 175 569 395 278 222 331 259 369
259 27 0 43 12 103 76 40 42 80 91 90 109 10 18 42 51 71 73 29 22 77 69 108
104 53 60 283 367 581 773 77 105 171 227 209 272 164 196 217 307 357 751 80
250 117 353 166 459 31 68 35 85 35 160 0 66 5 93 21 125 33 64 55 135 114
358 63 241 111 382 157 457 58 96 20 90 421 65 764 -48 1088 -50 1402 -8 251
34 281 44 354 117 52 51 63 59 80 50 26 -14 81 -13 108 2 12 7 61 47 109 91
48 43 106 87 128 97 51 23 113 24 166 3 35 -14 40 -20 40 -48 0 -42 -20 -109
-69 -238 -23 -59 -41 -116 -41 -127 0 -11 13 -30 30 -42 16 -12 31 -28 34 -36
3 -8 -10 -60 -30 -117 l-35 -103 -52 14 c-63 17 -92 13 -228 -29 l-107 -33
-50 -70 c-329 -457 -524 -1015 -581 -1665 -16 -183 -24 -476 -16 -582 7 -93 8
-98 30 -98 34 0 42 -17 55 -120 100 -787 434 -1350 1035 -1744 61 -40 141 -89
179 -110 l68 -37 117 88 c143 107 429 392 527 523 253 339 411 691 484 1081
12 65 31 130 45 154 34 60 75 291 82 461 7 169 -6 326 -52 609 -19 116 -39
250 -45 298 -10 70 -22 110 -60 190 -26 56 -85 194 -130 307 -146 364 -227
509 -362 642 -69 69 -84 79 -147 98 -50 15 -75 28 -90 48 -19 27 -21 27 -134
27 l-116 0 -5 26 c-2 14 -23 47 -45 74 -23 28 -41 56 -41 64 0 8 20 36 45 62
25 26 45 56 45 65 0 10 -13 38 -29 63 -31 50 -57 119 -67 179 -6 37 9 117 24
126 4 2 39 -4 79 -14 39 -10 114 -22 166 -26 l94 -7 21 -43 c21 -42 23 -44 67
-44 50 0 81 -13 167 -72 32 -21 77 -47 100 -57 38 -16 47 -16 76 -4 29 12 45
11 145 -12 262 -60 237 -58 642 -59 366 -1 449 3 660 35 109 16 273 49 350 70
38 10 75 19 82 19 20 0 91 -108 143 -215 62 -130 104 -249 184 -528 88 -304
227 -661 445 -1137 153 -334 373 -672 454 -699 47 -16 83 -57 180 -206 160
-245 191 -285 295 -382 94 -87 142 -150 142 -185 0 -7 21 -26 48 -42 26 -16
144 -127 262 -247 220 -222 291 -279 410 -328 30 -13 78 -44 105 -70 65 -63
159 -135 327 -255 116 -82 141 -95 157 -86 11 5 35 10 54 10 37 0 32 5 120
-132 21 -32 40 -58 43 -58 3 0 14 10 24 22 17 22 20 22 79 10 66 -14 75 -12
91 19 10 17 0 26 -87 83 -54 35 -170 103 -258 152 -299 163 -425 258 -510 384
-27 38 -53 70 -59 70 -5 0 -22 -12 -38 -27 l-27 -26 -388 389 c-214 214 -409
406 -435 426 -36 30 -52 53 -78 115 -40 96 -52 112 -269 343 -315 337 -359
418 -402 739 -36 272 -39 283 -158 511 -21 41 -94 205 -161 364 -189 451 -366
826 -488 1038 -50 87 -60 99 -101 116 -160 69 -326 95 -606 95 -221 0 -343
-10 -845 -68 -162 -19 -344 -37 -405 -41 -60 -3 -133 -13 -161 -20 -48 -14
-55 -13 -107 6 -70 26 -136 89 -175 166 -39 77 -50 120 -62 233 -17 163 19
429 62 463 13 10 86 38 163 63 77 25 157 58 179 73 l39 28 40 -20 c40 -19 40
-19 126 2 106 26 137 30 331 42 197 13 241 25 354 99 58 39 131 75 201 101
118 44 187 85 358 217 126 96 205 143 295 173 l63 21 157 -92 c449 -263 945
-506 1327 -649 194 -73 262 -90 367 -90 88 0 505 41 628 61 112 19 215 56 252
91 26 25 48 34 103 44 39 7 91 13 118 13 51 1 56 8 30 47 -16 25 -16 27 8 45
29 23 68 24 116 4 43 -18 75 -19 91 -3 17 17 15 28 -6 28 -18 0 -60 36 -51 44
2 2 56 19 119 37 200 57 302 46 390 -45 19 -20 38 -36 43 -36 16 0 6 50 -16
77 -39 47 -40 61 -4 68 66 14 85 61 47 115 -42 59 -158 76 -306 43 -69 -15
-78 -20 -101 -54 -19 -29 -37 -42 -77 -55 -48 -16 -169 -66 -436 -181 -213
-92 -354 -134 -532 -158 -62 -9 -171 -25 -242 -37 -108 -18 -139 -19 -188 -10
-88 16 -258 106 -562 296 -309 194 -381 230 -561 281 -96 28 -186 64 -348 142
-321 154 -396 163 -667 78 -63 -20 -146 -41 -185 -47 -85 -13 -117 -25 -365
-143 -158 -75 -206 -94 -252 -97 -46 -4 -82 -18 -195 -76 -435 -226 -524 -261
-635 -248 -48 5 -118 33 -150 59 -17 13 -17 17 3 73 15 44 19 73 15 115 l-5
56 51 6 c28 4 56 11 61 16 15 15 0 41 -23 41 -26 0 -61 18 -77 39 -9 11 -12
63 -10 178 l2 163 86 0 c72 0 89 3 103 19 26 28 9 51 -62 85 l-59 28 -6 172
c-4 110 -17 243 -37 375 -40 269 -40 272 8 305 57 39 143 70 324 114 360 89
538 181 986 507 94 68 151 117 151 128 1 9 -11 40 -25 67 l-26 49 46 138 c24
76 81 257 125 403 136 452 216 663 324 863 97 177 238 348 360 437 42 30 76
57 76 60 1 3 -13 13 -29 22 -17 9 -30 21 -30 26 0 5 31 41 68 80 63 63 67 71
54 88 -26 36 -10 102 51 209 70 122 77 180 17 143 -30 -19 -34 -3 -10 37 18
29 24 59 30 145 5 73 13 120 26 146 l19 39 -30 42 c-32 45 -69 63 -88 44 -6
-6 -19 -11 -29 -11 -17 0 -18 -12 -18 -152 0 -172 -10 -223 -61 -318 -22 -42
-29 -64 -21 -68 32 -20 32 -106 1 -175 -15 -32 -30 -34 -54 -7 -42 46 -48 4
-10 -70 31 -62 31 -66 -4 -78 -29 -10 -58 -59 -95 -163 -10 -27 -48 -84 -92
-135 -149 -177 -250 -305 -286 -366 -43 -69 -50 -121 -20 -137 18 -9 17 -15
-19 -85 -20 -41 -74 -185 -118 -319 -72 -220 -157 -434 -168 -423 -5 4 47 255
77 376 40 157 95 296 157 392 16 25 16 28 0 46 -21 23 -22 75 -3 173 8 41 17
90 20 109 l6 34 -31 -29 c-67 -65 -106 -186 -134 -420 -19 -151 -31 -206 -125
-565 -60 -229 -81 -324 -118 -535 -9 -53 -50 -80 -135 -89 -156 -16 -328 -99
-670 -324 -254 -168 -372 -236 -495 -286 -68 -27 -66 -28 -77 39 -12 70 -56
197 -97 280 -76 152 -189 279 -309 345 -41 22 -48 30 -31 30 14 0 45 21 80 54
62 58 113 84 93 48 -6 -11 -8 -41 -4 -71 7 -60 5 -60 123 -4 134 65 218 173
275 353 50 161 115 445 132 583 l17 137 -33 34 c-18 18 -63 50 -101 71 -38 21
-84 54 -103 74 -34 35 -62 97 -49 105 9 5 226 45 557 101 149 26 298 51 332
57 l62 11 7 44 c10 67 -3 179 -46 393 -53 263 -63 358 -49 473 18 155 42 227
179 542 45 105 59 126 111 175 53 50 59 59 59 96 0 39 4 45 74 103 122 101
207 231 242 372 8 35 18 72 20 82 7 23 -24 22 -93 -2z m-48 -112 l32 -12 -37
-37 c-25 -25 -49 -67 -74 -131 -44 -110 -76 -156 -122 -175 -61 -25 -68 -21
-61 40 7 73 26 105 117 202 43 45 81 92 85 103 7 24 16 25 60 10z m-4167 -126
c59 -35 137 -124 194 -224 26 -46 45 -85 43 -87 -2 -2 -32 11 -67 30 -112 59
-218 183 -253 296 -6 22 -5 23 17 17 12 -4 42 -19 66 -32z m2060 -1695 l-3
-62 -80 -41 c-80 -40 -199 -80 -193 -64 2 4 19 19 38 32 24 16 34 30 33 45 -2
17 8 25 57 43 72 26 86 40 70 69 -16 29 -5 40 41 40 l40 0 -3 -62z m1511 -247
c43 -12 -61 -58 -170 -76 -211 -33 -269 -41 -269 -37 0 2 28 16 63 31 157 71
302 103 376 82z m-2756 -71 c94 -21 186 -63 150 -68 -10 -2 -99 6 -197 18 -97
11 -195 20 -216 20 -43 0 -55 20 -22 39 29 17 190 12 285 -9z m-1143 -595 c46
-96 68 -180 114 -430 20 -105 42 -211 51 -235 l15 -45 -24 27 c-35 39 -64 125
-92 268 -33 171 -48 218 -104 329 -48 96 -80 186 -80 225 0 38 79 -53 120
-139z m1972 -363 c-2 -40 -1 -43 27 -48 l29 -6 -24 -35 c-14 -21 -24 -50 -24
-70 l0 -34 -57 3 c-47 2 -58 6 -61 22 -3 14 0 17 11 13 9 -3 32 -9 51 -13 32
-5 36 -4 36 14 0 24 -16 38 -52 47 -58 15 -61 68 -4 63 30 -3 31 -2 34 45 3
39 6 48 20 45 13 -3 16 -13 14 -46z m-315 -154 c7 -14 20 -63 29 -109 8 -46
20 -91 25 -101 12 -22 1 -23 -29 -2 -47 32 -82 145 -67 214 8 36 24 35 42 -2z
m863 -682 c30 -10 61 -20 69 -22 10 -3 11 -7 1 -19 -16 -20 -6 -43 25 -57 28
-12 34 -38 9 -38 -9 0 -14 -6 -11 -12 2 -7 18 -13 35 -13 28 0 31 -3 37 -43 6
-41 28 -75 54 -83 9 -3 9 -12 0 -37 -15 -45 -41 -57 -78 -37 l-30 15 -3 -53
c-3 -45 -6 -52 -25 -55 -13 -2 -23 -7 -23 -12 0 -13 47 -36 89 -44 46 -8 61
-23 61 -57 0 -24 -4 -29 -26 -29 -55 0 -81 -31 -103 -125 -7 -27 -19 -60 -27
-73 -20 -31 -10 -42 37 -42 30 0 38 -3 32 -12 -4 -7 -8 -38 -8 -68 0 -68 -17
-77 -29 -16 l-8 46 -67 0 -66 -1 47 -43 c67 -62 198 -103 184 -58 -10 34 -26
107 -26 125 0 14 5 16 25 11 22 -6 25 -3 25 23 0 26 3 30 33 30 17 0 45 4 60
8 26 7 28 6 25 -16 -2 -19 -15 -28 -63 -45 -77 -28 -86 -43 -52 -84 20 -23 27
-42 27 -74 0 -42 -1 -44 -37 -50 -21 -3 -58 -22 -83 -42 -40 -32 -50 -35 -86
-30 -36 5 -43 2 -62 -23 -11 -16 -18 -31 -15 -35 4 -3 27 -6 53 -6 49 0 72
-13 63 -36 -3 -9 -20 -14 -45 -14 -30 0 -46 7 -69 29 -16 16 -29 37 -29 46 0
12 -5 15 -22 9 -51 -15 -52 -19 -13 -62 45 -50 93 -66 173 -56 l57 6 -39 -41
c-36 -37 -41 -39 -57 -25 -15 13 -20 13 -55 -7 -22 -13 -41 -24 -43 -26 -6 -4
-3 -60 4 -83 8 -25 25 -26 25 -2 0 30 32 51 86 58 27 3 64 10 82 16 30 9 33
13 27 39 -5 24 -1 36 24 65 17 19 31 44 31 55 0 11 5 17 10 14 18 -11 10 -63
-21 -142 -17 -43 -32 -98 -33 -123 l-1 -45 -215 0 c-118 0 -220 4 -227 8 -9 6
-10 15 -1 35 15 38 14 162 -2 192 -7 14 -21 35 -32 47 -19 21 -20 24 -4 69 19
57 20 113 2 136 -15 21 -76 48 -106 48 -13 0 -19 4 -14 11 4 6 20 9 39 6 l32
-5 -21 39 c-12 22 -28 39 -38 39 -22 0 -23 19 -4 46 13 17 25 19 101 16 l87
-2 -30 52 c-32 57 -92 105 -92 73 0 -9 9 -19 20 -22 11 -3 20 -9 20 -13 0 -13
-103 -33 -145 -28 l-37 4 6 -37 c7 -42 -5 -57 -27 -34 -39 38 -32 5 50 -248
61 -190 93 -313 107 -404 6 -40 4 -43 -16 -44 -40 -2 -71 2 -126 16 -65 16
-81 12 -89 -26 -3 -16 -7 -29 -9 -29 -3 0 -34 13 -70 30 -53 24 -67 36 -79 64
-8 20 -15 38 -15 41 0 13 37 3 77 -21 50 -29 66 -24 61 19 -3 29 0 32 25 32
30 -1 36 19 15 48 -11 15 -21 16 -61 8 -29 -5 -65 -5 -92 1 l-46 10 22 35 c22
35 22 36 4 49 -10 8 -26 14 -34 14 -9 0 2 11 24 23 38 22 40 25 39 72 l0 48
30 -36 c32 -38 53 -45 87 -27 16 9 19 7 19 -14 0 -16 -11 -32 -30 -46 -36 -25
-52 -53 -44 -73 5 -14 10 -14 40 -1 41 17 47 15 64 -26 24 -58 33 -22 26 104
-6 114 -8 122 -32 144 -28 25 -49 25 -49 -1 0 -28 -14 -30 -20 -4 -5 18 -1 32
13 48 47 49 52 189 10 231 l-21 21 26 23 c33 28 82 38 128 26 39 -10 79 9 79
38 0 20 -19 30 -55 30 -13 0 -27 5 -30 11 -4 6 -20 -5 -39 -27 -27 -31 -36
-36 -59 -30 -37 9 -38 53 -2 62 29 7 29 10 10 44 -8 14 -14 35 -15 48 0 21 2
21 34 -12 41 -40 216 -114 216 -90 0 36 -78 83 -137 84 -38 0 -38 -1 -18 36 8
16 15 40 15 54 0 38 11 47 62 54 57 9 94 35 84 61 -5 15 -14 17 -56 11 -56 -7
-63 1 -28 36 33 33 13 54 -51 50 -41 -3 -51 0 -51 12 0 20 -2 20 -45 -5 -20
-12 -38 -19 -41 -16 -3 3 9 25 26 49 17 23 38 58 45 76 12 28 18 32 52 31 38
0 33 -6 -20 -23 -13 -4 -17 -14 -15 -33 3 -25 9 -30 57 -41 63 -16 78 -5 55
39 -20 39 -18 59 7 59 12 0 19 5 17 13 -3 7 -31 14 -74 17 -66 5 -68 6 -35 16
27 8 37 17 43 41 10 40 38 53 38 18 0 -48 59 -81 100 -55 22 14 0 44 -34 48
-24 3 -38 22 -16 22 6 0 10 12 10 26 0 24 1 24 22 10 54 -38 183 -3 194 53 l6
29 47 -48 c33 -34 61 -52 101 -64z m-1994 -19 c23 -14 74 -53 114 -86 40 -34
76 -61 81 -61 13 0 11 14 -3 28 -29 29 26 8 184 -70 l167 -83 1 -42 c0 -24 -2
-43 -4 -43 -3 0 -20 9 -39 20 -18 11 -98 47 -177 80 -79 33 -180 81 -223 107
-75 45 -237 184 -237 204 0 12 86 -22 136 -54z m3768 46 c5 -12 -2 -25 -25
-44 -25 -20 -31 -32 -27 -51 5 -24 3 -25 -32 -21 -49 7 -107 -23 -156 -81 -35
-41 -45 -46 -101 -55 -34 -5 -90 -21 -125 -36 -169 -70 -206 -84 -243 -90
l-40 -6 35 31 c52 47 145 96 341 181 173 75 280 130 329 169 31 24 36 25 44 3z
m-1132 -1284 l3 -76 -23 10 c-36 17 -47 -3 -33 -55 25 -88 27 -82 -28 -108
-28 -13 -53 -21 -55 -19 -3 3 6 27 19 54 13 28 33 100 44 160 10 61 25 124 31
140 l12 30 13 -30 c7 -16 14 -64 17 -106z m-342 -59 c6 -10 17 -56 26 -102 8
-46 21 -95 29 -110 13 -27 12 -28 -11 -28 -14 0 -46 11 -72 25 -26 14 -52 25
-59 25 -7 0 -11 6 -9 13 27 98 64 197 73 197 7 0 17 -9 23 -20z m-462 -270
c18 -11 38 -31 44 -45 10 -22 8 -30 -19 -63 -33 -42 -237 -192 -260 -192 -12
0 -13 3 -4 14 17 20 2 73 -30 107 -24 26 -35 30 -66 27 l-38 -3 -3 67 c-3 63
-1 68 20 73 174 41 304 47 356 15z m462 -4 c0 -7 -7 -30 -16 -51 -8 -20 -14
-49 -12 -64 3 -24 -1 -27 -47 -38 -77 -19 -79 -21 -64 -39 10 -13 10 -17 -2
-25 -23 -14 -31 -11 -102 35 -38 25 -72 46 -78 48 -7 2 -7 13 0 31 6 16 11 48
11 73 l0 44 155 0 c125 0 155 -3 155 -14z m-361 -171 c32 -8 94 -41 157 -82
114 -75 122 -90 79 -141 -14 -17 -31 -45 -39 -63 l-14 -33 -13 44 c-17 61 -40
84 -73 76 -31 -8 -35 -36 -6 -43 23 -6 27 -23 6 -23 -8 0 -28 -13 -45 -29 -28
-26 -30 -32 -21 -57 9 -24 7 -31 -17 -56 -37 -39 -75 -58 -116 -58 -26 0 -36
5 -40 19 -3 11 -17 22 -36 26 -26 6 -29 9 -21 25 17 31 12 47 -31 96 -52 60
-60 83 -48 129 8 28 22 44 67 72 68 43 112 82 112 100 0 17 32 16 99 -2z
m-507 -207 c-8 -19 -53 -5 -102 32 -29 22 -60 40 -67 40 -9 0 -13 17 -13 58
l0 58 93 -90 c50 -50 91 -94 89 -98z m3058 142 c-19 -16 -69 -44 -110 -61
-126 -53 -174 -80 -203 -115 -30 -36 -46 -41 -76 -22 -15 9 -30 4 -92 -33 -69
-42 -112 -61 -230 -104 -30 -11 -51 -26 -58 -41 -11 -26 -30 -31 -48 -13 -7 7
-35 -3 -97 -36 -70 -38 -100 -48 -151 -52 -148 -12 -157 41 -14 83 30 8 164
69 299 134 409 197 511 240 578 240 33 0 89 11 132 25 99 32 113 31 70 -5z
m-5009 -61 c80 -27 146 -43 196 -46 63 -5 83 -11 123 -38 27 -18 99 -52 161
-76 127 -49 189 -96 189 -143 l0 -27 -29 22 c-22 16 -52 24 -123 30 -115 10
-134 15 -170 41 -35 24 -58 18 -58 -17 0 -32 -13 -32 -31 1 -23 43 -129 133
-194 164 -79 37 -138 46 -193 27 l-42 -15 0 26 c0 21 37 92 48 92 2 0 57 -18
123 -41z m5945 -222 c34 -14 70 -29 80 -35 18 -10 18 -11 1 -18 -32 -12 -117
4 -188 37 -38 18 -69 36 -69 42 0 16 109 0 176 -26z m-7098 -184 c-2 -12 -16
-20 -40 -24 -23 -3 -102 -50 -225 -132 -180 -121 -313 -193 -397 -216 -21 -5
-37 -8 -35 -6 2 1 87 63 189 135 193 138 290 193 412 235 87 29 101 30 96 8z
m3770 -100 c-3 -47 -2 -48 27 -51 l30 -3 -6 -98 c-7 -100 -29 -166 -52 -158
-8 3 -11 24 -10 61 2 55 1 56 -25 56 -15 -1 -55 -7 -90 -14 -72 -16 -97 -12
-130 17 -29 27 -43 13 -49 -50 -7 -76 -12 -82 -32 -37 -21 45 -57 79 -135 123
-69 40 -81 54 -61 71 8 7 15 28 15 46 l0 34 48 -34 c77 -56 138 -71 284 -71
76 0 131 4 138 11 17 17 -11 44 -47 47 -18 1 -32 7 -30 12 4 12 107 85 120 85
5 0 7 -21 5 -47z m-568 -63 c0 -5 -2 -10 -4 -10 -3 0 -8 5 -11 10 -3 6 -1 10
4 10 6 0 11 -4 11 -10z m956 -316 c-10 -131 -68 -310 -144 -441 -38 -66 -46
-72 -78 -49 -15 11 -20 31 -25 93 -3 43 -1 84 4 91 12 15 49 16 64 1 7 -7 12
4 16 37 6 53 25 74 68 74 23 0 26 3 21 25 -2 14 3 46 13 70 17 46 14 65 -11
65 -24 0 -16 24 21 60 27 26 35 42 36 69 0 35 1 35 11 11 6 -15 7 -59 4 -106z
m-416 6 c17 -10 17 -10 -32 -33 -41 -18 -46 -32 -23 -63 20 -27 19 -37 -4 -24
-26 13 -23 15 -64 -25 -20 -19 -41 -35 -47 -35 -5 0 -10 18 -10 41 0 39 -1 40
-32 37 -27 -2 -35 -9 -43 -33 -7 -21 -16 -29 -27 -27 -22 4 -46 -43 -55 -104
-5 -42 -37 -93 -49 -81 -3 3 15 68 41 145 l46 140 57 4 c42 3 70 13 106 36 51
32 106 41 136 22z m-592 -511 c9 -92 -62 -193 -150 -214 -41 -10 -36 12 17 87
56 78 83 132 91 181 7 37 7 37 22 16 8 -12 17 -44 20 -70z m290 -38 c18 -18
31 -38 29 -45 -2 -6 -29 -12 -60 -14 l-57 -3 0 34 c0 36 -15 57 -40 57 -8 0
-26 7 -38 16 l-22 15 25 33 25 33 52 -46 c29 -25 67 -61 86 -80z m772 -81 c14
-14 20 -33 20 -64 0 -56 -8 -76 -30 -76 -30 0 -55 38 -55 84 1 76 24 97 65 56z
m1930 -83 l55 -13 -85 -27 c-220 -67 -454 -110 -696 -128 -147 -10 -216 -9
-410 7 -70 6 -71 6 -78 -20 -4 -17 -13 -26 -27 -26 -17 0 -18 3 -9 20 14 27 7
29 -105 32 -102 3 -116 17 -55 52 32 20 49 21 224 18 204 -3 260 3 516 49 91
17 210 36 265 44 116 16 322 12 405 -8z m-4350 -112 c205 -25 246 -27 469 -21
l243 5 29 -29 c16 -15 29 -34 29 -41 0 -9 -82 -11 -372 -6 -455 7 -1208 40
-1195 53 11 12 153 55 208 63 98 15 340 5 589 -24z m1826 -35 c6 -6 23 -12 38
-13 24 -2 32 -12 62 -80 40 -91 44 -123 15 -107 -28 15 -89 12 -150 -6 -29 -8
-59 -13 -67 -10 -28 11 -16 80 30 189 17 38 49 50 72 27z m124 -429 c15 -53
13 -58 -17 -58 -16 0 -57 -3 -93 -7 -59 -7 -68 -6 -99 16 -19 12 -36 28 -38
35 -7 19 51 43 128 52 39 5 73 12 76 15 11 11 33 -16 43 -53z m363 -171 c42
-18 77 -37 77 -41 0 -16 -55 -9 -88 11 -18 11 -37 18 -43 15 -5 -4 -9 -30 -9
-58 l-1 -52 -22 30 c-12 17 -44 54 -72 84 l-50 54 65 -5 c43 -3 91 -16 143
-38z m-3663 -107 c-7 -37 -25 -109 -40 -159 -31 -104 -222 -605 -228 -599 -8
7 38 203 74 317 42 132 194 521 201 514 3 -3 0 -36 -7 -73z m2931 41 c125 -26
279 -36 332 -21 25 7 27 5 27 -22 0 -16 -11 -42 -24 -58 -28 -34 -24 -48 17
-69 23 -12 56 -16 129 -15 82 1 97 -1 92 -14 -8 -21 -37 -27 -97 -20 -56 6
-91 -6 -111 -38 -18 -29 9 -37 122 -37 105 0 124 -8 75 -34 -16 -8 -41 -26
-57 -41 -28 -26 -29 -26 -70 -10 -22 9 -49 24 -59 32 -16 15 -19 15 -40 -5
-13 -12 -29 -22 -35 -22 -15 0 -15 -6 -2 -30 15 -27 39 -150 30 -150 -4 0 -10
7 -14 15 -11 31 -43 15 -80 -40 -40 -60 -51 -66 -62 -33 -5 18 1 29 33 58 23
19 46 45 52 57 10 20 7 25 -44 57 -35 23 -57 45 -61 61 -11 43 -33 30 -36 -22
-2 -33 -8 -49 -18 -51 -12 -2 -15 7 -15 40 0 24 -4 53 -8 66 -8 20 -6 22 32
22 40 0 40 0 30 29 -5 15 -9 34 -7 42 2 10 -10 15 -40 17 -56 4 -55 31 3 48
57 16 51 36 -16 49 -30 6 -61 15 -68 20 -11 6 -12 -6 -6 -61 3 -38 2 -97 -4
-131 -11 -69 -38 -136 -52 -127 -13 8 -11 42 8 116 22 85 12 101 -41 66 -40
-26 -45 -51 -20 -99 14 -28 14 -33 0 -48 -29 -32 -45 -88 -52 -182 -4 -64 -14
-112 -30 -149 -12 -30 -28 -95 -34 -144 -15 -117 -56 -243 -142 -435 -97 -215
-158 -363 -158 -383 0 -11 -8 -18 -18 -18 -10 0 -23 -5 -30 -12 -17 -17 -42 8
-42 41 0 15 9 52 20 84 11 31 20 77 20 103 0 70 -30 87 -193 109 -31 4 -47 11
-44 18 4 13 71 14 128 2 32 -6 37 -4 59 27 13 19 38 45 56 57 29 20 33 28 39
91 4 42 3 75 -4 87 -8 17 -6 22 15 34 48 25 66 92 45 166 -8 26 -6 35 11 50
42 37 76 135 98 279 11 77 20 151 20 166 0 21 10 34 41 55 49 32 61 55 83 155
17 79 29 100 40 73 10 -26 44 -16 75 22 37 45 37 47 10 74 l-21 21 -15 -22
c-14 -20 -69 -50 -92 -50 -6 0 1 16 14 36 13 19 27 44 30 55 8 25 27 24 176
-7z m1122 -320 c-2 -5 3 -27 12 -47 34 -83 6 -103 -54 -37 -39 43 -51 49 -51
25 0 -8 -4 -15 -9 -15 -15 0 -41 42 -41 65 0 18 6 20 74 20 47 0 72 -4 69 -11z
m2511 -109 c14 -15 33 -60 46 -108 12 -45 46 -129 75 -187 60 -120 99 -224
113 -299 5 -28 8 -51 6 -51 -13 0 -110 222 -210 485 -36 93 -68 173 -70 177
-12 19 19 5 40 -17z m-2751 -92 c5 -9 -10 -206 -18 -242 l-6 -24 -28 27 c-15
14 -35 26 -44 26 -9 0 -17 4 -17 9 0 11 39 61 69 87 32 27 23 47 -28 63 -34
10 -41 16 -41 36 0 24 3 25 54 25 30 0 57 -3 59 -7z m217 -8 c23 -8 55 -15 70
-15 24 0 30 -6 41 -37 21 -66 66 -148 123 -224 48 -63 54 -76 42 -88 -12 -12
-21 -11 -59 5 -41 17 -44 21 -36 42 25 66 -6 117 -70 116 -39 -1 -41 0 -41 30
0 34 -27 85 -68 129 -32 33 -42 34 -42 3 0 -31 -10 -56 -21 -56 -12 0 -11 67
1 91 13 23 8 22 60 4z m-1030 -154 c5 -11 7 -27 4 -36 -7 -16 -18 -16 -56 0
-14 6 -18 2 -18 -19 0 -29 25 -46 69 -46 26 0 31 -4 31 -25 0 -14 -13 -39 -30
-57 -25 -28 -31 -31 -40 -18 -5 8 -10 24 -10 35 0 11 -4 26 -9 34 -8 13 -12
13 -26 1 -10 -8 -21 -24 -26 -37 -5 -13 -13 -23 -19 -23 -6 0 -3 16 7 38 9 20
17 55 17 77 1 36 5 42 46 67 25 15 46 27 47 27 1 1 7 -8 13 -18z m112 -101
c18 -35 29 -46 51 -48 15 -2 27 -4 27 -5 0 -1 -9 -31 -20 -65 -11 -35 -20 -81
-20 -103 0 -37 -1 -38 -26 -29 -51 20 -73 -8 -114 -142 -13 -43 -27 -78 -31
-78 -18 0 -16 51 3 109 18 53 20 68 10 94 -6 16 -9 34 -6 39 3 5 32 22 64 38
67 34 101 66 93 86 -8 22 -32 17 -58 -12 -22 -23 -25 -24 -31 -10 -4 10 1 42
11 71 15 44 16 56 6 69 -13 16 -6 39 10 34 5 -2 19 -23 31 -48z m1196 -172 c7
-7 12 -33 12 -59 0 -46 17 -79 41 -79 6 0 7 -4 4 -10 -3 -5 -33 -10 -65 -10
-52 0 -59 2 -66 23 -3 12 -13 30 -22 40 -23 27 -5 33 22 8 17 -16 31 -21 45
-16 28 9 26 26 -4 55 -32 30 -33 60 -2 60 13 0 28 -5 35 -12z m-1448 -135 c25
-68 25 -70 -4 -70 -27 0 -85 -41 -85 -60 -1 -9 17 -13 56 -13 l57 0 -29 -30
c-28 -30 -29 -31 -12 -59 12 -21 13 -31 5 -39 -18 -18 -24 -15 -62 23 -20 19
-42 35 -51 35 -19 0 -20 -5 11 76 19 51 25 81 21 113 -4 38 -2 47 19 64 13 10
24 26 24 35 1 27 26 -12 50 -75z m-100 52 c0 -8 -2 -15 -4 -15 -2 0 -6 7 -10
15 -3 8 -1 15 4 15 6 0 10 -7 10 -15z m4116 -147 c20 -38 33 -188 17 -188 -21
0 -37 33 -53 108 -10 42 -21 85 -25 95 -6 14 -2 17 19 17 19 0 30 -9 42 -32z
m-4116 -248 c0 -5 -9 -10 -20 -10 -23 0 -23 0 -10 -35 11 -28 1 -90 -24 -150
-14 -32 -15 -32 -49 -22 l-35 11 24 38 c26 41 30 68 13 101 -10 18 -7 25 20
49 30 27 81 38 81 18z m621 -118 l26 -25 -19 -50 c-18 -48 -18 -50 1 -82 l19
-33 -67 -65 c-36 -35 -76 -70 -88 -76 -26 -13 -73 -14 -93 -1 -20 13 4 37 85
84 61 37 63 39 50 60 -13 20 -12 25 9 56 33 49 39 74 27 116 -17 61 -2 66 50
16z m499 -252 c0 -46 13 -70 37 -70 16 0 17 34 2 62 -9 16 -7 24 6 37 15 15
18 14 36 -8 19 -23 23 -64 10 -111 -5 -19 -14 -25 -36 -27 -17 0 -39 -4 -51
-8 -15 -5 -23 0 -32 20 -16 35 -32 23 -32 -26 0 -34 -3 -39 -24 -39 -29 0 -44
17 -52 57 -5 27 -2 33 22 44 17 8 37 31 48 54 34 72 47 89 57 74 5 -8 9 -34 9
-59z m-1660 5 c8 -9 10 -29 7 -49 l-5 -33 60 -6 c66 -6 98 -27 98 -64 0 -20 3
-22 19 -13 11 5 31 10 45 10 35 0 33 15 -4 30 -35 15 -37 21 -10 45 11 10 20
24 20 32 0 17 81 18 98 1 9 -9 14 -6 21 13 l9 24 12 -27 c27 -57 -18 -138 -86
-157 l-29 -8 35 -21 c36 -23 94 -29 105 -12 10 17 25 11 25 -9 0 -11 5 -21 12
-23 12 -4 -160 -51 -277 -75 -40 -8 -89 -11 -113 -8 -38 6 -42 8 -30 22 11 13
7 21 -27 49 -33 28 -37 36 -25 44 8 5 18 10 23 10 12 0 8 34 -9 81 -9 24 -16
65 -16 91 0 66 15 85 42 53z m-3047 -287 c-281 -415 -463 -659 -637 -850 -93
-102 -241 -242 -221 -209 9 15 506 657 642 829 99 125 304 372 308 372 2 0
-39 -64 -92 -142z m3347 -90 c0 -23 -16 -38 -55 -51 -21 -8 -44 -22 -49 -33
-6 -10 -12 -21 -13 -23 -2 -2 -11 3 -20 11 -37 33 -92 30 -115 -6 -12 -18 -18
-1 -12 32 6 28 9 30 49 30 26 0 61 10 91 26 52 27 124 35 124 14z m244 -69 c4
-19 13 -33 26 -36 26 -7 25 -11 -5 -35 -14 -11 -25 -30 -25 -44 0 -29 -6 -29
-59 -6 -40 19 -41 19 -21 37 19 18 19 18 -6 48 l-25 30 36 13 c20 7 39 15 42
18 15 15 31 4 37 -25z m1316 -133 c0 -8 -4 -18 -10 -21 -17 -10 -11 -39 10
-53 21 -13 28 -52 9 -52 -5 0 -31 5 -56 12 -43 10 -47 10 -64 -13 l-19 -24 0
33 c0 18 7 46 15 61 25 49 115 93 115 57z m-1660 -292 c26 -26 6 -46 -60 -64
-36 -9 -74 -21 -84 -25 -21 -9 -21 -10 5 65 12 35 13 35 70 35 32 0 63 -5 69
-11z m1830 -188 c0 -29 -7 -52 -21 -70 -27 -35 -37 -33 -35 7 l1 32 -57 3 -58
3 0 -30 c0 -33 22 -51 51 -44 23 7 24 -10 2 -32 -12 -12 -25 -15 -47 -10 -17
3 -46 9 -63 12 -38 6 -42 22 -12 49 13 12 18 26 15 39 -5 18 1 24 27 33 17 6
57 20 87 31 30 11 67 20 83 20 25 1 27 -2 27 -43z m-1750 -311 c0 -14 11 -48
25 -75 31 -61 31 -87 3 -117 -33 -35 -47 -30 -41 15 4 30 -2 52 -26 100 -42
83 -41 102 4 102 31 0 35 -3 35 -25z"/>
<path d="M6220 8591 c0 -35 -4 -36 -52 -16 -14 5 -18 2 -18 -13 0 -15 11 -24
42 -34 51 -17 62 -38 19 -38 -16 0 -32 -4 -35 -8 -3 -5 7 -31 21 -59 l27 -51
-26 -34 c-29 -38 -48 -157 -48 -296 0 -76 3 -89 40 -162 43 -85 49 -120 25
-140 -12 -10 -9 -19 25 -59 44 -52 51 -92 23 -123 -9 -10 -14 -20 -12 -22 10
-8 120 22 139 39 25 23 26 35 0 35 -11 0 -43 23 -72 51 l-53 51 1 132 c0 72 2
241 4 376 4 210 2 254 -13 308 -23 85 -36 108 -37 63z"/>
<path d="M6092 7547 c-20 -54 -16 -65 28 -78 48 -15 58 -8 43 31 -11 29 -10
30 20 38 18 5 33 16 35 25 3 14 -6 17 -55 17 -58 0 -59 -1 -71 -33z"/>
<path d="M6231 10511 c-11 -7 -11 -9 0 -13 19 -6 3 -37 -26 -48 -17 -6 -42 -6
-76 2 -48 11 -51 11 -77 -16 -26 -26 -27 -27 -8 -42 12 -8 42 -14 72 -14 29 0
64 -4 78 -10 19 -7 26 -6 26 2 0 6 7 19 16 29 15 17 28 119 15 119 -3 0 -12
-4 -20 -9z"/>
<path d="M6202 9548 c-18 -18 -15 -69 6 -84 9 -7 43 -14 75 -14 l57 0 0 35 c0
49 -29 75 -83 75 -24 0 -48 -5 -55 -12z"/>
</g>
</svg>
