<?xml version="1.0" standalone="no"?>
<!DOCTYPE svg PUBLIC "-//W3C//DTD SVG 20010904//EN"
 "http://www.w3.org/TR/2001/REC-SVG-20010904/DTD/svg10.dtd">
<svg version="1.0" xmlns="http://www.w3.org/2000/svg"
 width="1280.000000pt" height="960.000000pt" viewBox="0 0 1280.000000 960.000000"
 preserveAspectRatio="xMidYMid meet">
<metadata>
Created by potrace 1.15, written by Peter Selinger 2001-2017
</metadata>
<g transform="translate(0.000000,960.000000) scale(0.100000,-0.100000)"
fill="#000000" stroke="none">
<path d="M7066 8628 c-9 -14 -19 -73 -26 -143 -13 -145 -20 -190 -70 -464 -22
-117 -40 -225 -40 -240 0 -15 -6 -35 -14 -46 -7 -11 -23 -85 -35 -165 -11 -80
-37 -215 -56 -300 -20 -85 -50 -220 -67 -300 -37 -174 -51 -199 -118 -200 -25
0 -74 -6 -110 -14 -36 -8 -94 -17 -130 -20 -105 -11 -220 -36 -302 -66 -43
-16 -88 -30 -100 -31 -43 -5 -83 32 -143 130 -78 129 -317 487 -388 584 -31
42 -63 77 -71 77 -8 0 -30 23 -50 50 -172 240 -394 421 -699 571 -128 63 -147
68 -171 43 -35 -35 -16 -50 165 -128 165 -71 256 -122 367 -206 104 -78 337
-319 345 -357 4 -15 44 -75 89 -133 46 -58 152 -207 237 -330 85 -124 162
-236 173 -249 26 -34 24 -61 -5 -61 -86 0 -205 -68 -238 -137 -23 -47 -30
-151 -14 -203 8 -25 8 -25 -14 -6 -11 11 -21 14 -21 8 0 -6 11 -19 25 -28 14
-9 25 -25 25 -35 0 -19 -2 -19 -31 -4 -17 9 -33 14 -36 11 -3 -2 13 -14 36
-26 71 -36 44 -49 -47 -24 -9 2 1 -5 23 -16 22 -11 46 -20 53 -20 6 0 12 -7
12 -16 0 -14 -9 -16 -55 -12 -64 5 -61 -6 4 -19 70 -13 64 -33 -11 -34 l-63
-1 45 -10 c25 -5 54 -11 65 -13 17 -4 23 -17 33 -77 16 -99 12 -132 -21 -158
-58 -46 -77 -130 -53 -234 9 -37 25 -85 37 -107 32 -63 135 -159 216 -202 79
-41 237 -96 354 -121 70 -16 76 -19 87 -50 14 -38 16 -105 3 -124 -5 -9 -43
-17 -107 -22 -129 -10 -179 -30 -205 -83 -23 -45 -20 -84 11 -152 13 -30 19
-76 24 -183 6 -124 4 -153 -14 -224 -23 -88 -21 -108 10 -108 20 0 20 -4 15
-127 -10 -228 -15 -291 -30 -365 -9 -40 -13 -84 -10 -98 4 -17 -6 -51 -30
-103 -33 -71 -85 -211 -85 -229 0 -5 9 -17 19 -27 19 -19 19 -20 0 -91 -11
-40 -19 -80 -17 -90 2 -9 -14 -36 -34 -59 -40 -43 -49 -78 -23 -87 27 -11 60
6 87 44 16 20 52 68 82 106 31 37 57 73 59 80 7 19 17 1 27 -53 5 -28 14 -60
20 -71 14 -27 66 -27 80 -1 15 29 12 51 -14 117 -20 50 -23 67 -16 100 14 60
12 151 -7 236 -16 78 -16 78 5 101 28 29 28 67 0 137 -18 49 -21 78 -24 250
-1 107 -4 200 -5 205 -2 6 4 21 14 35 15 23 15 35 3 130 -8 58 -13 106 -11
108 1 2 13 -13 25 -33 12 -20 32 -43 45 -51 16 -11 26 -32 35 -76 6 -34 23
-84 36 -112 23 -49 38 -72 102 -161 44 -61 47 -109 15 -202 -38 -111 -38 -236
1 -347 34 -99 71 -163 108 -186 l29 -17 -45 -84 c-24 -46 -79 -167 -121 -269
-42 -102 -98 -225 -124 -275 -27 -49 -85 -158 -129 -242 -44 -84 -85 -169 -91
-189 -14 -50 0 -74 43 -74 l33 0 17 -112 c10 -62 38 -214 63 -338 54 -266 62
-406 29 -520 -10 -36 -24 -85 -31 -110 l-12 -45 -149 -36 c-128 -32 -160 -36
-227 -31 -67 4 -82 2 -105 -15 -15 -11 -44 -22 -65 -26 -100 -16 -171 -139
-133 -230 25 -62 55 -68 300 -70 207 -1 586 25 633 43 44 18 54 114 22 225
-11 39 -20 87 -19 108 0 21 -17 94 -40 162 -47 145 -64 239 -85 470 -17 177
-42 328 -76 453 l-19 73 29 25 c36 30 57 93 66 199 14 159 64 271 252 562 65
100 123 189 128 198 9 14 18 12 79 -19 60 -30 159 -59 236 -68 24 -3 24 -5 52
-228 32 -265 36 -353 24 -517 l-9 -121 26 -26 c14 -14 37 -26 50 -26 22 0 26
-7 41 -67 8 -38 45 -190 80 -339 36 -149 71 -304 77 -345 12 -79 7 -208 -14
-342 -12 -75 -13 -78 -52 -102 -22 -13 -53 -25 -70 -25 -59 0 -110 -22 -151
-64 -46 -46 -64 -93 -64 -173 0 -107 42 -122 330 -118 179 2 306 21 329 49 17
21 24 98 12 141 -6 22 -31 75 -55 119 -30 51 -45 89 -44 110 0 17 -20 92 -45
166 -51 149 -71 251 -87 445 -17 207 -40 296 -121 480 -39 91 -40 96 -25 120
24 36 20 84 -19 224 -59 211 -66 256 -72 452 l-6 186 55 6 c223 27 314 124
325 347 4 70 1 112 -12 160 -23 90 -83 214 -136 281 -98 124 -262 246 -391
290 -59 20 -165 27 -267 16 -21 -2 -27 4 -38 42 -7 24 -17 49 -23 56 -8 9 -8
15 0 20 14 9 13 47 -5 150 -14 77 -14 93 -2 124 8 20 18 61 22 91 11 90 36
190 46 190 16 0 50 -20 102 -61 26 -21 107 -75 180 -120 73 -45 176 -117 230
-160 85 -68 101 -78 118 -68 17 9 33 1 102 -50 45 -33 159 -114 252 -180 170
-119 248 -185 298 -251 23 -31 29 -34 46 -23 18 11 23 9 45 -20 29 -38 84
-156 111 -235 16 -51 16 -56 0 -92 -10 -22 -29 -49 -42 -62 -54 -50 -68 -112
-33 -143 30 -27 58 -8 113 78 64 98 132 167 165 167 24 0 294 -89 454 -151 86
-33 106 -35 133 -16 13 10 16 21 11 40 -6 27 -34 40 -151 72 -33 9 -99 33
-147 53 -90 38 -105 55 -72 83 20 17 94 2 258 -52 136 -44 180 -49 196 -19 15
28 -2 56 -42 69 -18 5 -71 19 -117 31 -112 28 -234 76 -256 100 -50 55 41 66
195 23 155 -43 200 -41 200 8 0 28 -37 46 -120 58 -73 11 -208 42 -420 97 -88
24 -126 28 -240 28 l-135 1 0 29 c0 26 -6 31 -75 61 -118 50 -171 79 -316 175
-74 49 -173 111 -219 137 -67 37 -82 49 -74 60 17 19 0 34 -73 68 -197 89
-257 123 -374 208 -111 80 -136 104 -179 168 -36 53 -61 80 -90 93 -54 27
-135 32 -188 13 -23 -8 -61 -18 -84 -21 -39 -6 -43 -4 -48 17 -4 13 -2 39 2
57 l9 34 114 16 c129 19 170 30 251 71 197 98 343 325 405 629 21 102 30 350
15 421 -15 71 -71 188 -124 259 -83 112 -167 198 -220 225 -36 19 -60 40 -74
66 l-21 38 54 208 c75 288 126 542 130 646 3 63 18 143 53 280 77 301 144 642
131 667 -15 27 -56 26 -74 -2z"/>
</g>
</svg>
