<?xml version="1.0" standalone="no"?>
<!DOCTYPE svg PUBLIC "-//W3C//DTD SVG 20010904//EN"
 "http://www.w3.org/TR/2001/REC-SVG-20010904/DTD/svg10.dtd">
<svg version="1.0" xmlns="http://www.w3.org/2000/svg"
 width="297.000000pt" height="354.000000pt" viewBox="0 0 297.000000 354.000000"
 preserveAspectRatio="xMidYMid meet">

<g transform="translate(0.000000,354.000000) scale(0.100000,-0.100000)"
fill="#000000" stroke="none">
<path d="M1262 2694 c-13 -6 -29 -17 -35 -23 -6 -6 -26 -11 -44 -11 -26 0 -33
-4 -33 -20 0 -11 -6 -20 -13 -20 -8 0 -19 -11 -25 -25 -7 -14 -19 -28 -27 -31
-8 -4 -12 -10 -9 -15 3 -5 -4 -9 -15 -9 -12 0 -21 -7 -21 -15 0 -8 -5 -15 -10
-15 -6 0 -10 -8 -8 -17 3 -18 -2 -19 -37 -8 -16 6 -17 5 -5 -4 13 -9 13 -12 1
-20 -8 -5 -21 -7 -29 -3 -10 4 -13 1 -8 -7 5 -8 0 -18 -13 -27 -12 -8 -21 -20
-21 -25 0 -16 -72 -89 -88 -89 -12 0 -12 -3 -2 -15 10 -12 9 -15 -6 -15 -12 0
-36 -27 -69 -77 -27 -42 -55 -81 -62 -88 -7 -7 -14 -19 -15 -26 -2 -7 -13 -25
-26 -39 -12 -14 -25 -33 -28 -42 -4 -15 -9 -16 -27 -7 -21 9 -21 9 -3 -5 10
-9 15 -20 10 -27 -5 -9 -2 -10 10 -6 10 4 15 3 11 -3 -3 -6 -13 -10 -21 -10
-8 0 -17 -13 -20 -30 -4 -16 -10 -30 -14 -30 -11 0 -6 -60 5 -60 6 0 2 -5 -7
-11 -16 -9 -18 -28 -16 -179 1 -111 5 -170 11 -170 7 0 6 -5 -1 -12 -7 -7 -12
-34 -12 -61 0 -42 2 -48 18 -43 16 6 16 5 0 -8 -10 -7 -18 -24 -17 -37 0 -13
3 -18 6 -11 2 7 14 17 26 24 22 11 22 11 4 -10 -24 -27 -14 -65 15 -60 24 3
46 33 34 45 -4 4 -12 0 -17 -10 -12 -21 -29 -22 -29 -2 0 8 7 15 16 15 9 0 14
6 11 13 -3 7 4 19 14 25 16 10 22 9 38 -7 20 -20 20 -20 0 -26 -20 -7 -26 -39
-8 -50 6 -4 14 -17 19 -29 l9 -21 0 22 c1 12 -3 25 -9 28 -15 9 -12 35 4 35
25 0 29 33 7 52 -24 19 -28 53 -6 62 17 6 20 -5 6 -19 -16 -17 14 -48 38 -40
21 6 30 45 11 45 -5 0 -10 -7 -10 -15 0 -8 -7 -15 -15 -15 -21 0 -19 17 3 29
10 5 24 21 32 35 7 14 17 26 22 26 5 0 7 -4 3 -9 -5 -10 12 -25 30 -26 6 -1
19 5 30 12 11 7 27 13 36 13 9 0 22 6 28 14 11 13 15 12 32 -5 21 -21 18 -39
-7 -39 -18 0 -18 -27 1 -46 12 -13 12 -17 -7 -36 -16 -16 -22 -18 -29 -7 -6 9
-3 15 6 17 30 7 14 21 -17 16 l-33 -5 28 16 c15 8 27 20 27 26 0 18 -30 41
-45 35 -20 -7 -31 -36 -17 -45 13 -8 5 -51 -9 -51 -5 0 -9 -8 -8 -17 0 -15 3
-14 16 5 l16 22 24 -26 24 -26 19 21 c11 14 21 18 25 11 3 -5 3 -10 -1 -10 -4
0 1 -6 12 -14 19 -14 19 -15 -3 -36 -13 -11 -23 -24 -23 -28 0 -10 41 -34 47
-28 3 3 -2 8 -11 12 -22 9 -20 31 4 39 25 8 25 20 1 44 -11 11 -18 30 -17 45
2 15 -3 27 -12 31 -13 5 -13 7 2 18 9 7 22 23 29 36 7 14 19 26 27 28 10 3 9
0 -3 -11 -15 -11 -17 -22 -12 -46 4 -19 2 -36 -6 -46 -6 -8 -9 -18 -5 -21 4
-4 11 -1 17 7 8 13 11 13 23 -2 19 -26 40 -24 26 2 -7 14 -7 20 0 20 5 0 10 5
10 10 0 6 -12 8 -27 4 l-28 -6 25 14 c22 12 27 12 37 -1 6 -9 7 -17 2 -19 -12
-5 -12 -32 0 -32 5 0 12 6 14 13 3 6 6 2 6 -10 1 -23 11 -29 24 -16 4 3 1 13
-6 21 -7 10 -8 13 -1 9 7 -4 17 0 24 8 14 17 30 20 30 5 0 -5 -7 -10 -15 -10
-18 0 -20 -16 -3 -26 6 -4 14 -2 16 4 2 7 10 12 19 12 12 0 12 -2 -1 -16 -9
-8 -24 -14 -33 -12 -19 4 -63 -36 -63 -57 0 -8 6 -18 14 -22 7 -4 16 -15 19
-23 3 -10 6 -7 6 8 1 12 -6 25 -14 28 -20 8 -19 24 0 24 9 0 18 7 21 15 8 20
24 19 24 0 0 -9 7 -18 15 -21 19 -8 19 -24 0 -24 -18 0 -39 -36 -26 -45 5 -3
13 5 16 17 l7 21 19 -24 c15 -20 19 -21 19 -6 0 9 -4 17 -9 17 -12 0 -1 47 14
60 9 8 17 4 29 -15 15 -23 15 -26 -4 -45 -11 -11 -20 -26 -20 -34 0 -8 -9 -18
-20 -21 -23 -7 -27 -43 -5 -51 18 -7 20 -24 4 -24 -7 0 -17 -8 -24 -17 -11
-14 -10 -20 4 -30 9 -7 21 -12 26 -12 6 0 1 6 -10 14 -19 15 -19 15 3 31 25
17 29 42 7 50 -21 8 -19 21 5 27 11 3 20 14 20 24 0 11 11 26 25 33 29 16 32
35 8 64 -10 12 -14 18 -9 13 5 -4 17 0 27 9 11 10 19 12 24 5 3 -6 -1 -11 -9
-11 -9 0 -16 -5 -16 -11 0 -7 10 -9 28 -4 l27 7 -24 -25 -23 -26 21 -22 c11
-12 24 -19 28 -15 5 4 0 14 -11 21 -19 15 -14 35 10 35 8 0 14 9 14 19 0 10 7
22 16 25 13 5 14 4 5 -7 -6 -8 -8 -27 -5 -46 4 -19 2 -37 -6 -46 -7 -9 -10
-19 -6 -23 4 -4 14 2 22 13 15 20 15 19 20 -2 3 -12 17 -24 30 -27 13 -4 24
-11 24 -16 0 -6 5 -10 10 -10 6 0 10 7 10 15 0 8 -5 15 -11 15 -5 0 -8 4 -5 9
7 10 56 -9 56 -22 0 -4 -12 -12 -26 -18 -32 -12 -25 -24 9 -15 27 6 31 33 9
59 -8 9 -10 17 -5 17 6 0 14 -7 17 -15 4 -12 10 -14 25 -5 26 14 31 13 25 -4
-8 -21 15 -61 28 -48 7 7 17 3 30 -10 20 -20 20 -20 -1 -39 -25 -24 -41 -17
-41 17 0 14 -7 27 -15 30 -8 4 -15 12 -15 20 0 8 -4 14 -9 14 -15 0 -6 -32 14
-46 10 -8 16 -15 12 -15 -4 -1 -11 -2 -16 -3 -6 0 -15 -6 -21 -12 -9 -9 -17
-7 -32 8 -11 11 -22 17 -26 14 -3 -4 0 -12 6 -18 16 -16 15 -28 -3 -28 -8 0
-15 -4 -15 -10 0 -13 61 -1 81 16 20 18 29 18 29 -1 0 -8 -9 -15 -21 -15 -12
0 -17 -4 -14 -11 4 -5 21 -8 38 -5 29 5 30 5 10 -5 -12 -6 -24 -18 -28 -27 -5
-14 20 -41 40 -41 6 0 2 6 -7 13 -22 16 -23 36 -3 36 9 0 18 8 22 18 3 9 16
26 29 37 22 19 22 22 9 48 -7 15 -10 27 -4 27 5 0 9 -5 9 -11 0 -8 11 -9 33
-5 31 6 32 6 10 -9 -13 -9 -23 -24 -23 -33 1 -15 3 -14 16 3 14 19 16 19 25 3
14 -25 33 -24 20 1 -12 21 -5 32 15 24 8 -3 14 0 14 6 0 6 5 11 10 11 6 0 10
-7 10 -15 0 -8 -6 -15 -13 -15 -7 0 -18 -13 -24 -30 -6 -16 -18 -30 -27 -30
-23 0 -20 -37 5 -50 26 -14 35 -7 14 10 -21 17 -19 25 9 38 21 10 26 8 31 -8
4 -11 14 -20 23 -20 12 0 10 -4 -7 -13 -26 -13 -40 -37 -22 -37 6 0 11 7 11
15 0 19 28 8 33 -13 2 -10 4 0 3 21 0 22 7 44 17 54 16 16 17 16 17 1 0 -10 7
-21 16 -26 19 -10 11 -32 -12 -32 -8 0 -14 -9 -13 -22 1 -17 3 -18 6 -6 2 9
13 20 23 23 27 9 32 33 10 47 -24 15 -26 28 -5 28 9 0 18 7 21 15 9 22 24 18
24 -6 0 -11 -4 -18 -9 -14 -5 3 -13 0 -16 -6 -11 -16 3 -23 20 -9 8 7 21 10
30 7 8 -4 21 3 29 14 l14 21 12 -22 c14 -26 21 -22 13 8 -6 26 -29 28 -54 6
-16 -14 -18 -14 -24 5 -6 20 -45 30 -45 12 0 -5 -7 -11 -15 -15 -9 -3 -15 0
-15 9 0 8 14 17 35 21 19 3 35 10 35 15 0 10 -50 6 -69 -5 -7 -4 -15 -5 -18
-2 -9 9 2 17 29 20 13 1 30 6 38 11 9 5 15 4 18 -3 6 -18 20 -14 25 6 4 14 5
14 6 -3 0 -11 10 -26 21 -33 17 -10 23 -10 36 3 9 8 26 15 38 15 13 0 29 6 35
14 11 13 15 12 33 -6 16 -16 18 -22 7 -29 -8 -5 -17 -9 -21 -9 -5 0 -8 -8 -8
-18 0 -10 -5 -23 -12 -30 -6 -6 -8 -15 -4 -19 4 -5 13 0 20 9 10 13 15 15 24
6 9 -9 12 -8 12 4 0 9 -6 18 -12 21 -9 3 -6 11 10 26 12 12 20 26 17 31 -10
16 30 16 42 0 9 -11 14 -12 24 -3 6 6 18 9 27 6 10 -4 13 -2 10 8 -3 8 -11 13
-17 11 -6 -1 -11 2 -11 7 0 19 15 19 38 1 l23 -19 -20 -13 c-12 -7 -21 -20
-21 -29 0 -8 -11 -21 -24 -28 -13 -7 -23 -19 -22 -26 3 -21 27 -45 38 -39 6 4
4 10 -6 16 -9 5 -16 16 -16 24 0 8 5 12 11 9 5 -4 15 7 22 24 6 17 17 31 24
31 7 0 17 9 23 20 9 17 7 24 -12 40 -20 17 -21 19 -5 20 10 0 20 7 24 16 5 14
9 13 24 -7 15 -19 19 -20 19 -7 0 9 -7 24 -16 33 -16 15 -18 15 -37 -4 l-20
-20 -13 25 c-12 22 -11 27 6 44 11 11 20 25 20 30 0 6 8 10 18 9 10 0 12 -3 4
-6 -17 -7 -15 -50 4 -57 19 -7 44 16 44 41 -1 17 -1 17 -15 -1 -7 -10 -19 -15
-25 -11 -14 9 29 34 47 27 13 -4 9 -38 -8 -58 -7 -8 -9 -18 -5 -22 4 -4 13 1
21 11 10 14 14 15 24 3 9 -11 7 -15 -11 -19 -12 -4 -19 -9 -16 -13 4 -3 16 -3
27 1 26 8 27 40 4 54 -17 9 -16 11 5 26 12 9 22 25 22 37 0 13 5 18 13 15 7
-3 19 4 25 14 10 16 9 23 -7 40 -18 20 -21 20 -35 6 -18 -17 -21 -37 -7 -37 5
0 12 7 15 16 3 8 10 12 16 9 15 -9 12 -25 -5 -25 -8 0 -22 -16 -31 -36 -15
-31 -19 -34 -24 -19 -4 10 -15 22 -26 26 -17 6 -16 8 9 19 29 14 37 47 12 56
-21 8 -19 21 5 29 11 4 20 15 20 26 0 20 -1 20 -29 -3 -33 -25 -39 -52 -17
-65 12 -7 10 -12 -10 -30 -17 -15 -24 -18 -24 -7 0 8 5 14 10 14 6 0 10 7 10
15 0 8 -4 15 -10 15 -5 0 -10 -4 -10 -10 0 -5 -7 -10 -17 -10 -13 0 -11 4 7
20 13 11 20 23 16 27 -3 4 -12 1 -18 -5 -14 -14 -32 -16 -23 -3 3 5 -2 16 -10
25 -8 8 -11 17 -6 20 5 3 11 -1 15 -9 8 -23 28 -18 21 5 -5 15 -3 18 9 14 9
-3 16 -10 16 -15 0 -15 22 -10 35 8 9 12 10 22 2 34 -8 13 -6 24 7 44 20 30
12 50 -9 22 -9 -12 -15 -15 -20 -7 -4 6 1 17 11 24 15 11 12 13 -21 11 -23 -2
-41 -9 -47 -19 -12 -22 -21 -20 -35 9 -9 21 -8 27 5 34 23 13 23 42 0 61 -14
11 -17 17 -7 17 8 0 23 4 34 8 18 6 18 5 2 -5 -23 -15 -11 -32 16 -25 20 6 21
5 5 -8 -37 -29 -8 -80 31 -55 24 14 27 34 9 41 -8 3 -5 6 5 6 13 1 18 -5 15
-21 -3 -21 32 -68 51 -68 5 0 14 -7 21 -15 13 -15 30 -12 30 7 0 5 -7 7 -16 4
-11 -4 -14 -1 -12 11 4 21 28 29 28 9 0 -8 8 -19 17 -24 15 -9 14 -11 -5 -23
-12 -8 -21 -23 -21 -34 1 -16 2 -17 6 -3 2 9 13 20 24 23 18 6 23 16 20 43 -1
6 3 12 9 12 5 0 10 5 10 12 0 6 -8 4 -20 -7 -18 -17 -19 -16 -26 11 -6 22 -2
32 20 51 15 13 32 21 37 17 13 -8 7 29 -6 38 -7 5 -6 8 1 8 5 0 11 16 11 37 1
26 -5 41 -20 54 -29 24 -41 24 -34 0 3 -13 -1 -21 -14 -24 -11 -3 -19 -1 -19
4 0 5 5 9 10 9 6 0 10 7 10 15 0 18 -17 20 -23 3 -2 -7 -8 -10 -12 -5 -5 4 0
14 11 22 18 14 18 14 -6 15 -24 1 -24 1 -6 15 11 8 16 15 10 15 -5 0 -15 14
-22 30 -14 31 -32 40 -32 16 0 -7 -7 -19 -15 -26 -9 -8 -15 -9 -15 -2 0 6 5
14 10 17 16 10 12 35 -5 29 -8 -4 -12 -10 -9 -15 3 -5 -2 -6 -11 -3 -12 5 -13
10 -6 17 18 18 12 24 -19 19 -20 -3 -30 0 -30 8 0 9 -10 11 -32 7 -29 -5 -30
-5 -10 5 12 6 22 19 22 29 0 21 -36 45 -42 29 -2 -6 -19 -12 -38 -14 -19 -2
-27 -1 -17 1 21 5 22 19 1 27 -8 3 -12 10 -9 16 10 16 33 12 38 -7 4 -16 5
-16 6 -1 1 22 -14 31 -40 23 -14 -5 -19 -13 -16 -26 3 -12 0 -19 -9 -19 -7 0
-11 6 -8 13 2 7 -7 28 -21 47 -22 30 -25 31 -25 12 0 -13 7 -25 15 -28 8 -4
12 -10 9 -15 -8 -14 -24 -10 -24 6 0 10 -7 14 -22 12 -13 -2 -18 -2 -11 0 14
5 26 33 17 42 -3 3 -12 -2 -19 -12 -13 -18 -14 -18 -25 2 -6 12 -15 19 -21 16
-5 -4 -9 0 -9 9 0 8 6 17 13 19 9 4 9 6 -1 6 -8 1 -16 -8 -19 -18 -5 -20 -33
-38 -33 -22 0 5 5 11 11 13 8 3 8 10 -2 26 -16 26 -32 28 -53 6 -9 -8 -16 -11
-16 -5 0 5 -7 17 -16 26 -15 15 -15 17 5 31 11 8 21 20 21 26 0 6 -8 4 -18 -5
-23 -21 -32 -21 -32 -3 0 8 -8 17 -17 21 -16 6 -15 9 7 19 14 6 27 20 28 31 2
11 9 23 15 27 6 4 8 10 3 15 -4 4 -12 0 -17 -10 -6 -9 -15 -15 -21 -11 -6 4
-8 -1 -3 -15 5 -15 2 -21 -10 -21 -25 0 -29 -27 -7 -50 22 -24 19 -55 -6 -65
-14 -5 -15 -4 -4 6 6 7 12 20 12 28 0 11 -4 10 -20 -4 -17 -16 -20 -16 -20 -2
0 8 6 17 13 20 6 2 9 7 5 11 -3 4 -15 3 -26 -3 -15 -8 -24 -6 -41 8 -11 10
-21 25 -21 32 0 8 -7 24 -15 36 -14 20 -13 21 6 16 12 -3 25 0 29 7 7 11 12
10 25 -3 13 -13 19 -14 30 -4 7 6 11 14 10 18 -2 3 8 4 23 3 15 -1 33 5 40 12
10 12 10 14 -2 14 -8 0 -31 16 -51 35 -46 43 -70 51 -91 30 -20 -20 -10 -33
12 -15 13 11 17 11 24 1 4 -8 12 -11 17 -8 5 3 15 -4 22 -15 11 -18 11 -20 -4
-14 -9 3 -25 1 -36 -4 -13 -7 -19 -7 -19 0 0 5 8 10 17 10 12 0 14 3 7 10 -13
13 -44 3 -44 -14 0 -6 -4 -4 -10 4 -5 8 -13 11 -17 6 -4 -4 0 -13 9 -20 16
-12 16 -14 -6 -26 -16 -8 -23 -19 -21 -31 2 -11 0 -19 -6 -19 -5 0 -9 10 -9
23 0 12 -5 29 -10 37 -8 12 -13 13 -30 3 -26 -17 -35 -16 -21 1 8 10 9 16 1
21 -5 3 -13 0 -16 -8 -3 -9 -14 -13 -27 -10 -21 4 -22 4 -3 -11 22 -18 21 -22
-14 -31 -19 -4 -31 -1 -44 14 -16 17 -16 21 -4 21 9 0 21 7 28 15 7 9 19 14
26 11 17 -6 50 19 36 28 -6 3 -13 2 -17 -4 -8 -13 -45 -13 -45 0 0 6 5 10 10
10 17 0 11 18 -7 22 -15 3 -14 5 5 10 15 4 22 2 22 -8 0 -8 5 -14 11 -14 5 0
9 10 7 23 -2 15 2 21 11 19 8 -2 18 3 22 10 4 7 11 10 14 6 4 -3 -3 -16 -14
-27 -12 -12 -21 -24 -21 -28 1 -16 27 -42 35 -35 5 4 5 1 1 -5 -5 -9 1 -13 19
-13 14 0 28 7 31 15 4 8 14 15 23 16 12 0 12 2 -4 8 -14 6 -24 2 -36 -13 l-16
-20 -7 22 c-4 12 -14 22 -22 22 -8 0 -12 5 -9 11 4 6 9 8 12 5 4 -3 14 4 24
15 17 20 17 20 24 0 6 -19 33 -36 43 -27 2 3 -3 13 -13 22 -17 17 -17 18 1 25
14 6 11 8 -14 8 -21 1 -31 5 -27 12 4 6 0 9 -11 7 -11 -2 -20 4 -22 16 -2 11
0 16 7 12 6 -4 11 -3 11 3 0 5 -6 12 -12 14 -10 4 -10 6 0 6 8 1 12 21 12 66
l0 65 -115 0 c-63 0 -123 4 -133 9 -49 27 -88 31 -120 15z m-32 -164 c0 -5 -5
-10 -11 -10 -5 0 -7 5 -4 10 3 6 8 10 11 10 2 0 4 -4 4 -10z m-45 -60 c-3 -5
-11 -10 -16 -10 -6 0 -7 5 -4 10 3 6 11 10 16 10 6 0 7 -4 4 -10z m-205 -50
c0 -5 -5 -10 -11 -10 -5 0 -7 5 -4 10 3 6 8 10 11 10 2 0 4 -4 4 -10z m90 -34
c0 -3 -4 -8 -10 -11 -5 -3 -10 -1 -10 4 0 6 5 11 10 11 6 0 10 -2 10 -4z m434
-21 c-6 -16 -24 -21 -24 -7 0 11 11 22 21 22 5 0 6 -7 3 -15z m-534 -18 c0 -2
-12 -14 -27 -28 l-28 -24 24 28 c23 25 31 32 31 24z m820 -23 c0 -21 -17 -17
-23 5 -3 14 -1 18 9 14 8 -3 14 -11 14 -19z m40 16 c0 -5 -2 -10 -4 -10 -3 0
-8 5 -11 10 -3 6 -1 10 4 10 6 0 11 -4 11 -10z m-790 -10 c0 -5 -5 -10 -11
-10 -5 0 -7 5 -4 10 3 6 8 10 11 10 2 0 4 -4 4 -10z m600 -21 c0 -5 -4 -9 -10
-9 -5 0 -10 7 -10 16 0 8 5 12 10 9 6 -3 10 -10 10 -16z m-58 -26 c-14 -8 -30
-11 -36 -9 -6 3 -1 8 12 11 12 4 22 14 22 22 0 11 3 11 13 1 12 -10 10 -15
-11 -25z m-92 13 c0 -3 -4 -8 -10 -11 -5 -3 -10 -1 -10 4 0 6 5 11 10 11 6 0
10 -2 10 -4z m-30 -26 c0 -5 -2 -10 -4 -10 -3 0 -8 5 -11 10 -3 6 -1 10 4 10
6 0 11 -4 11 -10z m207 -30 c-5 -9 -15 -17 -21 -17 -6 0 -25 -3 -41 -7 -29 -7
-29 -7 -10 8 11 8 26 16 33 16 6 0 12 4 12 9 0 6 8 9 19 8 15 -1 16 -5 8 -17z
m-857 0 c0 -5 -2 -10 -4 -10 -3 0 -8 5 -11 10 -3 6 -1 10 4 10 6 0 11 -4 11
-10z m907 -25 c6 -14 7 -25 2 -25 -5 0 -9 5 -9 10 0 6 -7 10 -15 10 -16 0 -20
12 -8 23 11 12 18 8 30 -18z m-757 6 c0 -6 -4 -13 -10 -16 -5 -3 -10 1 -10 9
0 9 5 16 10 16 6 0 10 -4 10 -9z m30 -19 c0 -4 -10 -13 -22 -21 -23 -14 -23
-14 -4 8 20 22 26 25 26 13z m644 -1 c3 -5 0 -11 -7 -14 -8 -3 -14 1 -14 9 0
16 13 19 21 5z m132 -33 c4 -6 3 -8 -4 -4 -6 3 -13 2 -17 -4 -3 -5 -11 -10
-18 -10 -6 0 -2 7 9 15 23 18 21 17 30 3z m-866 -18 c0 -5 -10 -10 -22 -10
-12 0 -30 -7 -40 -17 -17 -15 -18 -15 -18 0 0 10 11 19 28 23 15 3 32 7 37 9
6 2 11 4 13 4 1 1 2 -3 2 -9z m720 0 c0 -5 -2 -10 -4 -10 -3 0 -8 5 -11 10 -3
6 -1 10 4 10 6 0 11 -4 11 -10z m-36 -24 c-5 -14 -9 -15 -15 -5 -5 8 -3 17 4
21 15 9 19 4 11 -16z m281 14 c3 -5 -1 -10 -10 -10 -9 0 -13 5 -10 10 3 6 8
10 10 10 2 0 7 -4 10 -10z m85 -11 c0 -5 -7 -9 -15 -9 -15 0 -20 12 -9 23 8 8
24 -1 24 -14z m-550 -5 c0 -8 -5 -12 -10 -9 -6 4 -8 11 -5 16 9 14 15 11 15
-7z m-10 -26 c8 -3 20 2 27 11 10 14 13 14 33 -4 20 -18 21 -20 3 -33 -22 -16
-23 -33 -4 -48 12 -9 11 -14 -8 -33 -22 -22 -41 -21 -41 5 0 19 -28 18 -48 -2
-12 -12 -17 -13 -20 -4 -3 7 2 16 9 21 7 4 10 12 5 16 -5 4 -11 2 -13 -4 -3
-7 -11 -13 -20 -13 -8 0 -13 -5 -11 -12 4 -10 -25 -48 -36 -48 -2 0 -6 9 -9
21 -3 12 -10 18 -16 14 -6 -3 -11 -2 -11 2 0 5 9 14 21 21 14 9 19 20 16 33
-3 12 -1 18 7 17 6 -2 12 2 13 7 1 6 -5 9 -13 9 -12 -2 -12 1 -2 13 10 13 13
13 24 -1 6 -9 17 -16 25 -16 8 0 2 -8 -13 -18 -16 -9 -28 -22 -28 -30 0 -7 -7
-15 -15 -18 -8 -4 -12 -10 -9 -15 11 -18 30 -8 41 21 6 17 18 30 27 30 20 0
21 27 0 47 -14 14 -13 17 8 28 18 9 25 9 33 0 6 -6 17 -14 25 -17z m94 17 c4
-12 10 -14 25 -5 11 5 27 10 37 10 16 0 16 -1 0 -19 -17 -18 -16 -20 5 -26 13
-4 31 -17 40 -29 16 -19 16 -21 -2 -34 -10 -7 -19 -22 -19 -33 0 -11 -4 -17
-10 -14 -5 3 -10 -2 -10 -11 0 -16 1 -16 20 1 11 10 20 13 20 7 0 -7 5 -12 10
-12 6 0 10 7 10 16 0 8 4 13 9 9 5 -3 12 -1 15 4 4 5 2 12 -3 15 -5 4 -12 2
-16 -4 -3 -5 -13 -10 -22 -10 -13 0 -13 3 -3 15 7 8 19 15 26 15 8 0 14 10 15
23 1 17 3 15 10 -10 9 -31 18 -37 47 -34 6 1 12 -6 12 -15 0 -14 2 -14 16 -3
14 11 18 11 29 -4 7 -9 19 -17 28 -17 8 0 18 -8 21 -17 5 -12 9 -14 18 -5 7 7
16 12 20 12 4 0 -1 -9 -12 -20 -22 -22 -26 -40 -10 -40 6 0 10 5 10 10 0 6 7
10 15 10 8 0 15 -4 15 -10 0 -5 7 -10 15 -10 17 0 20 -16 4 -25 -6 -4 -17 1
-25 11 -15 18 -15 18 -11 -3 5 -21 4 -21 -27 -5 -28 14 -31 19 -19 31 13 12
12 17 -6 34 -11 12 -24 17 -28 13 -4 -4 0 -12 10 -17 23 -14 21 -25 -5 -33
-22 -7 -21 -8 12 -24 47 -22 45 -21 31 -35 -11 -9 -14 -9 -18 1 -3 7 -13 17
-24 22 -15 8 -24 5 -48 -20 -20 -21 -31 -27 -34 -18 -4 10 -7 11 -18 1 -18
-17 -29 -16 -29 2 0 8 -7 15 -15 15 -8 0 -15 5 -15 10 0 5 3 9 8 7 4 -1 8 2
10 8 6 18 -18 17 -25 -2 -8 -24 -34 -53 -46 -53 -5 0 -4 6 2 14 13 16 -2 32
-19 21 -5 -3 -10 -2 -10 4 0 19 23 24 32 7 9 -17 28 -22 28 -8 0 5 -9 18 -21
30 l-20 23 -18 -23 -18 -22 -7 22 c-4 12 -12 22 -17 22 -17 0 -9 19 11 25 11
3 20 11 20 16 0 17 -37 51 -44 40 -4 -5 2 -15 11 -20 16 -10 16 -12 3 -23 -8
-7 -24 -26 -34 -42 -15 -23 -16 -30 -5 -37 11 -7 11 -11 1 -21 -10 -10 -14 -8
-18 10 -7 25 -41 30 -50 7 -4 -8 -19 -15 -34 -15 -16 0 -32 -5 -35 -11 -11
-17 3 -23 20 -9 21 18 19 3 -5 -27 -19 -25 -20 -25 -20 -4 0 11 -4 21 -9 21
-5 0 -13 9 -16 20 -3 11 -15 20 -25 20 -11 0 -25 10 -31 22 -12 22 -12 22 15
5 24 -16 28 -16 42 -2 19 19 10 51 -16 58 -23 6 -27 -11 -5 -19 20 -8 19 -34
-1 -34 -11 0 -14 5 -10 16 4 12 1 14 -14 9 -14 -4 -20 -2 -20 9 0 8 -7 19 -17
24 -14 9 -14 10 5 16 12 4 22 12 22 17 0 17 19 9 25 -11 8 -27 42 -26 51 2 6
20 7 21 17 2 6 -10 15 -22 20 -25 5 -4 0 -16 -13 -29 -21 -21 -21 -23 -4 -41
9 -10 22 -19 27 -19 6 0 2 9 -9 21 -16 17 -16 22 -4 29 8 6 18 10 23 10 12 0
8 28 -8 44 -17 16 -20 30 -6 21 6 -3 15 4 22 16 11 22 11 22 34 -7 l22 -28 29
23 c33 26 39 47 16 60 -15 9 -14 12 7 35 22 23 22 26 7 41 -18 19 -20 25 -7
25 5 0 12 -7 15 -15z m346 5 c0 -5 -2 -10 -4 -10 -3 0 -8 5 -11 10 -3 6 -1 10
4 10 6 0 11 -4 11 -10z m75 -10 c3 -5 1 -10 -4 -10 -6 0 -11 5 -11 10 0 6 2
10 4 10 3 0 8 -4 11 -10z m-1095 -30 c0 -5 -7 -10 -16 -10 -8 0 -12 5 -9 10 3
6 10 10 16 10 5 0 9 -4 9 -10z m1175 -16 c-31 -16 -35 -17 -35 -6 0 10 43 29
53 24 5 -2 -4 -10 -18 -18z m-770 -4 c-3 -5 -12 -10 -18 -10 -7 0 -6 4 3 10
19 12 23 12 15 0z m795 -15 c0 -8 -7 -15 -15 -15 -13 0 -14 3 -3 15 16 18 18
18 18 0z m-1270 1 c0 -2 -7 -6 -15 -10 -8 -3 -15 -1 -15 4 0 6 7 10 15 10 8 0
15 -2 15 -4z m404 -21 c-7 -16 -24 -21 -24 -6 0 8 7 13 27 20 1 1 0 -6 -3 -14z
m106 5 c0 -5 -4 -10 -10 -10 -5 0 -10 5 -10 10 0 6 5 10 10 10 6 0 10 -4 10
-10z m-490 -10 c0 -5 -4 -10 -10 -10 -5 0 -10 5 -10 10 0 6 5 10 10 10 6 0 10
-4 10 -10z m920 0 c0 -5 -5 -10 -11 -10 -5 0 -7 5 -4 10 3 6 8 10 11 10 2 0 4
-4 4 -10z m-1033 -22 c-3 -8 -6 -5 -6 6 -1 11 2 17 5 13 3 -3 4 -12 1 -19z
m533 9 c0 -8 -7 -14 -15 -14 -11 0 -12 4 -4 14 6 7 13 13 15 13 2 0 4 -6 4
-13z m930 3 c0 -5 -5 -10 -11 -10 -5 0 -7 5 -4 10 3 6 8 10 11 10 2 0 4 -4 4
-10z m134 -26 c4 -12 2 -15 -9 -11 -8 4 -17 2 -20 -3 -8 -13 -25 -13 -25 0 0
6 7 10 15 10 8 0 15 5 15 10 0 16 17 12 24 -6z m-1124 1 c0 -2 -10 -10 -22
-16 -21 -11 -22 -11 -9 4 13 16 31 23 31 12z m660 -5 c0 -5 -4 -10 -10 -10 -5
0 -10 5 -10 10 0 6 5 10 10 10 6 0 10 -4 10 -10z m-575 -10 c-3 -5 -10 -10
-16 -10 -5 0 -9 5 -9 10 0 6 7 10 16 10 8 0 12 -4 9 -10z m-490 -10 c-3 -5
-11 -10 -16 -10 -6 0 -7 5 -4 10 3 6 11 10 16 10 6 0 7 -4 4 -10z m455 -5 c0
-9 -7 -27 -16 -41 -20 -29 -9 -48 12 -20 7 11 17 16 21 13 3 -4 -4 -17 -17
-29 -16 -15 -25 -18 -28 -10 -2 7 -10 19 -19 27 -9 9 -10 15 -3 15 19 0 42 29
36 45 -3 8 -1 15 4 15 6 0 10 -7 10 -15z m-40 -5 c0 -5 -4 -10 -10 -10 -5 0
-10 5 -10 10 0 6 5 10 10 10 6 0 10 -4 10 -10z m860 6 c0 -3 -4 -8 -10 -11 -5
-3 -10 -1 -10 4 0 6 5 11 10 11 6 0 10 -2 10 -4z m180 -6 c0 -5 -4 -10 -10
-10 -5 0 -10 5 -10 10 0 6 5 10 10 10 6 0 10 -4 10 -10z m-1570 -25 c0 -8 -4
-15 -10 -15 -5 0 -7 7 -4 15 4 8 8 15 10 15 2 0 4 -7 4 -15z m50 11 c0 -3 -4
-8 -10 -11 -5 -3 -10 -1 -10 4 0 6 5 11 10 11 6 0 10 -2 10 -4z m1375 -6 c3
-5 -1 -10 -10 -10 -9 0 -13 5 -10 10 3 6 8 10 10 10 2 0 7 -4 10 -10z m-1025
-4 c0 -3 -4 -8 -10 -11 -5 -3 -10 -1 -10 4 0 6 5 11 10 11 6 0 10 -2 10 -4z
m64 -11 c-4 -8 -10 -12 -15 -9 -11 6 -2 24 11 24 5 0 7 -7 4 -15z m856 11 c0
-3 -4 -8 -10 -11 -5 -3 -10 -1 -10 4 0 6 5 11 10 11 6 0 10 -2 10 -4z m175 -6
c-3 -5 -11 -10 -16 -10 -6 0 -7 5 -4 10 3 6 11 10 16 10 6 0 7 -4 4 -10z m85
1 c0 -5 -7 -12 -16 -15 -14 -5 -15 -4 -4 9 14 17 20 19 20 6z m90 -5 c0 -3 -4
-8 -10 -11 -5 -3 -10 -1 -10 4 0 6 5 11 10 11 6 0 10 -2 10 -4z m-40 -16 c0
-5 -2 -10 -4 -10 -3 0 -8 5 -11 10 -3 6 -1 10 4 10 6 0 11 -4 11 -10z m-1300
-10 c0 -5 -2 -10 -4 -10 -3 0 -8 5 -11 10 -3 6 -1 10 4 10 6 0 11 -4 11 -10z
m164 3 c-5 -5 -12 -12 -16 -18 -4 -6 -8 -2 -8 8 0 9 7 17 17 17 9 0 12 -3 7
-7z m1026 3 c0 -3 -4 -8 -10 -11 -5 -3 -10 -1 -10 4 0 6 5 11 10 11 6 0 10 -2
10 -4z m160 -16 c0 -5 -8 -10 -17 -10 -15 0 -16 2 -3 10 19 12 20 12 20 0z
m-1680 -10 c0 -5 -4 -10 -10 -10 -5 0 -10 5 -10 10 0 6 5 10 10 10 6 0 10 -4
10 -10z m525 -10 c4 -11 11 -18 16 -15 5 4 9 2 9 -4 0 -5 -9 -13 -20 -16 -21
-7 -27 -39 -10 -50 11 -7 -19 -54 -34 -55 -5 0 -6 3 -3 7 4 3 0 15 -10 25 -9
10 -11 18 -6 18 6 0 16 14 23 30 7 17 16 30 21 30 5 0 9 7 9 15 0 12 -4 13
-19 5 -29 -15 -33 -12 -13 9 22 25 29 25 37 1z m355 -6 c0 -8 5 -14 11 -14 6
0 17 -7 25 -15 9 -8 12 -15 7 -15 -5 0 -14 5 -20 11 -9 9 -16 8 -27 -4 -18
-18 -21 -37 -6 -37 6 0 10 5 10 10 0 6 7 10 15 10 22 0 18 -17 -6 -23 -14 -4
-18 -10 -13 -19 6 -10 4 -10 -9 1 -22 18 -22 57 1 66 16 6 16 7 -2 20 -10 8
-15 19 -11 24 8 14 25 4 25 -15z m490 16 c0 -5 -5 -10 -11 -10 -5 0 -7 5 -4
10 3 6 8 10 11 10 2 0 4 -4 4 -10z m-1020 -4 c0 -3 -4 -8 -10 -11 -5 -3 -10
-1 -10 4 0 6 5 11 10 11 6 0 10 -2 10 -4z m250 -11 c0 -8 -8 -15 -17 -15 -14
0 -15 -2 -4 -12 11 -10 14 -10 18 0 3 6 11 12 19 12 8 0 11 -6 8 -15 -4 -8
-12 -15 -20 -15 -8 0 -14 -6 -14 -14 0 -16 -26 -46 -40 -46 -5 0 -7 7 -4 15 4
8 1 15 -5 15 -6 0 -11 7 -11 15 0 8 6 15 13 15 7 0 18 14 24 30 12 31 33 41
33 15z m740 -6 c0 -6 -4 -7 -10 -4 -5 3 -10 11 -10 16 0 6 5 7 10 4 6 -3 10
-11 10 -16z m470 11 c0 -5 -7 -10 -16 -10 -8 0 -12 5 -9 10 3 6 10 10 16 10 5
0 9 -4 9 -10z m-485 -52 c-13 -9 1 -22 14 -13 6 3 11 12 11 20 0 7 7 16 16 19
14 5 15 4 4 -9 -10 -12 -10 -19 -2 -27 9 -9 12 -9 12 0 0 7 8 12 18 12 15 -1
15 -2 -2 -15 -11 -8 -21 -22 -22 -30 -1 -8 -9 -22 -18 -31 -15 -14 -16 -14
-16 5 0 12 5 21 10 21 6 0 10 7 10 15 0 8 -4 15 -10 15 -5 0 -10 -7 -10 -15 0
-8 -7 -15 -16 -15 -10 0 -14 6 -11 15 4 8 2 17 -2 20 -5 3 -12 -3 -16 -12 -4
-12 1 -24 15 -35 18 -15 19 -18 6 -18 -9 0 -19 -7 -22 -15 -4 -8 -10 -15 -15
-15 -15 0 -10 22 9 36 15 12 15 13 0 14 -9 0 -18 -6 -21 -12 -3 -10 -7 -10
-17 -1 -9 8 -8 12 8 17 29 9 33 40 9 56 -15 9 -22 10 -25 1 -2 -6 -10 -11 -19
-11 -27 0 -7 25 23 28 16 2 33 10 37 19 7 12 12 10 31 -9 13 -14 17 -26 11
-30z m-515 21 c0 -5 -6 -9 -14 -9 -8 0 -16 -7 -18 -17 -3 -14 -5 -14 -18 2 -8
11 -10 16 -3 12 7 -5 17 1 23 13 11 20 30 19 30 -1z m-520 7 c0 -11 -19 -15
-25 -6 -3 5 1 10 9 10 9 0 16 -2 16 -4z m870 -5 c0 -5 7 -17 16 -25 14 -15 14
-16 -1 -16 -8 0 -18 -6 -21 -14 -4 -12 -10 -10 -30 7 -24 21 -24 21 -4 29 11
4 20 12 20 18 0 5 5 10 10 10 6 0 10 -4 10 -9z m-503 -13 c-2 -7 3 -18 12 -25
14 -10 13 -13 -9 -31 -24 -20 -25 -20 -32 -1 -4 10 -12 19 -18 19 -5 0 -10 5
-10 11 0 5 4 8 8 5 5 -3 15 4 22 15 16 21 34 26 27 7z m-337 -8 c0 -5 -7 -10
-16 -10 -8 0 -12 5 -9 10 3 6 10 10 16 10 5 0 9 -4 9 -10z m97 4 c-3 -3 -12
-4 -19 -1 -8 3 -5 6 6 6 11 1 17 -2 13 -5z m40 -7 c11 4 14 2 9 -5 -11 -18
-36 -14 -35 6 0 9 3 12 5 5 3 -7 12 -9 21 -6z m553 5 c0 -13 -39 -46 -46 -39
-3 3 3 14 13 25 19 22 33 27 33 14z m790 4 c0 -3 -4 -8 -10 -11 -5 -3 -10 -1
-10 4 0 6 5 11 10 11 6 0 10 -2 10 -4z m-1561 -37 c-30 -26 -34 -24 -12 5 10
13 22 22 26 19 4 -3 -2 -13 -14 -24z m571 7 c-14 -13 -27 -22 -29 -20 -7 6 31
44 43 44 6 0 -1 -11 -14 -24z m780 20 c0 -2 -7 -7 -16 -10 -8 -3 -12 -2 -9 4
6 10 25 14 25 6z m-1215 -30 c0 -13 -3 -22 -7 -20 -4 2 -9 0 -13 -6 -3 -5 -12
-10 -18 -10 -7 1 -6 5 4 13 8 7 18 20 22 30 9 23 12 21 12 -7z m885 9 c0 -8
-6 -15 -14 -15 -8 0 -17 -6 -19 -12 -4 -10 -8 -9 -16 2 -16 22 -13 34 4 20 12
-10 16 -9 21 4 8 20 24 21 24 1z m-1242 -7 c-3 -7 5 -21 16 -31 12 -10 14 -15
6 -11 -8 4 -23 14 -33 22 -13 12 -15 17 -5 24 18 11 20 10 16 -4z m402 2 c0
-5 -4 -10 -10 -10 -5 0 -10 5 -10 10 0 6 5 10 10 10 6 0 10 -4 10 -10z m506
-22 c-9 -12 -16 -17 -16 -10 0 14 23 42 29 37 1 -2 -4 -14 -13 -27z m84 -4
c-18 -21 -24 -10 -8 15 7 12 14 17 16 11 2 -6 -2 -17 -8 -26z m93 22 c16 -13
16 -14 -5 -28 -21 -12 -25 -12 -48 10 -16 15 -18 21 -7 16 10 -3 17 -1 17 5 0
15 21 13 43 -3z m349 -3 c13 -16 12 -20 -8 -39 l-22 -22 -6 24 c-4 13 -12 24
-18 24 -11 0 21 29 33 30 3 0 13 -8 21 -17z m-692 -3 c0 -5 -4 -10 -10 -10 -5
0 -10 5 -10 10 0 6 5 10 10 10 6 0 10 -4 10 -10z m930 0 c0 -5 -5 -10 -11 -10
-5 0 -7 5 -4 10 3 6 8 10 11 10 2 0 4 -4 4 -10z m-1425 -10 c3 -5 1 -10 -4
-10 -6 0 -11 5 -11 10 0 6 2 10 4 10 3 0 8 -4 11 -10z m570 0 c-3 -5 -11 -10
-16 -10 -6 0 -7 5 -4 10 3 6 11 10 16 10 6 0 7 -4 4 -10z m355 -5 c0 -8 -7
-15 -15 -15 -18 0 -20 -17 -2 -23 6 -2 9 -7 6 -11 -4 -4 -14 0 -22 9 -9 8 -20
15 -26 15 -16 0 -13 -20 4 -26 16 -6 11 -24 -6 -24 -6 0 -7 5 -4 10 3 6 -4 14
-16 19 l-23 8 24 14 c14 7 30 12 36 11 6 -1 17 5 24 13 16 19 20 19 20 0z
m580 5 c0 -5 -4 -10 -10 -10 -5 0 -10 5 -10 10 0 6 5 10 10 10 6 0 10 -4 10
-10z m-1314 -38 c-8 -2 -17 -9 -19 -15 -2 -7 -3 -3 -1 9 3 18 0 21 -24 17
l-27 -4 25 13 c21 12 28 11 43 -2 15 -12 15 -16 3 -18z m154 33 c0 -10 -39
-43 -44 -37 -11 10 -6 22 9 22 8 0 15 5 15 10 0 6 5 10 10 10 6 0 10 -2 10 -5z
m350 -3 c0 -5 -9 -17 -20 -27 -11 -10 -20 -13 -20 -8 0 6 7 14 16 17 8 3 12
10 9 16 -3 5 -1 10 4 10 6 0 11 -4 11 -8z m-270 -10 c0 -13 -39 -32 -55 -26
-8 3 -15 1 -15 -5 0 -6 -7 -11 -16 -11 -14 0 -14 1 0 16 9 9 24 13 35 9 12 -3
21 0 25 10 5 15 26 21 26 7z m346 -19 c-10 -10 -19 5 -10 18 6 11 8 11 12 0 2
-7 1 -15 -2 -18z m478 16 c9 14 26 14 26 0 0 -5 -5 -7 -10 -4 -6 4 -15 -7 -21
-23 -6 -17 -16 -33 -24 -36 -7 -2 -21 -20 -30 -39 -12 -27 -21 -34 -36 -30
-19 5 -19 6 3 17 12 6 25 20 27 31 3 19 3 19 -16 3 -24 -22 -34 -23 -27 -3 4
8 13 15 21 15 10 0 13 6 9 17 -6 15 -5 15 13 -1 11 -10 21 -13 25 -7 4 5 -1
14 -10 19 -9 5 -14 14 -10 21 10 16 26 14 26 -4 0 -8 5 -15 11 -15 7 0 9 10 5
28 -4 17 -3 22 2 13 7 -9 12 -10 16 -2z m386 4 c0 -5 -11 -13 -25 -20 -29 -13
-33 -6 -7 13 19 15 32 18 32 7z m-1700 -19 c0 -8 -5 -12 -10 -9 -6 4 -8 11 -5
16 9 14 15 11 15 -7z m95 6 c-3 -5 -12 -10 -18 -10 -7 0 -6 4 3 10 19 12 23
12 15 0z m575 6 c0 -2 -7 -6 -15 -10 -8 -3 -15 -1 -15 4 0 6 7 10 15 10 8 0
15 -2 15 -4z m340 -16 c-12 -7 -12 -12 -3 -21 10 -10 14 -9 19 4 8 21 20 22
28 1 5 -12 2 -15 -9 -10 -9 3 -18 -1 -21 -9 -9 -22 -21 -18 -27 7 -6 22 10 54
22 43 3 -3 -1 -10 -9 -15z m190 3 c0 -9 -3 -13 -7 -10 -3 4 -15 0 -25 -10 -23
-20 -24 -6 -1 19 20 22 33 23 33 1z m390 13 c0 -3 -4 -8 -10 -11 -5 -3 -10 -1
-10 4 0 6 5 11 10 11 6 0 10 -2 10 -4z m-1706 -27 c-3 -5 2 -12 10 -15 21 -8
10 -24 -17 -24 -16 0 -18 3 -8 9 9 6 10 11 2 15 -17 11 -13 36 4 30 8 -4 12
-10 9 -15z m286 1 c-8 -5 -17 -7 -19 -4 -3 3 1 9 9 14 8 5 17 7 19 4 3 -3 -1
-9 -9 -14z m180 0 c10 -10 15 -22 10 -25 -5 -3 -13 2 -18 11 -6 10 -14 14 -22
9 -10 -6 -10 -11 3 -20 11 -7 13 -16 6 -26 -7 -11 -9 -11 -9 4 0 10 -6 20 -14
23 -12 5 -12 9 2 24 22 23 19 23 42 0z m165 0 c-3 -5 -11 -10 -16 -10 -6 0 -7
5 -4 10 3 6 11 10 16 10 6 0 7 -4 4 -10z m833 -4 c-25 -19 -22 -41 7 -60 15
-10 25 -12 25 -6 0 7 7 18 15 26 13 13 15 13 15 1 0 -8 6 -20 14 -26 12 -10
10 -16 -8 -36 -20 -23 -21 -23 -28 -4 -12 31 -39 35 -60 10 -17 -22 -18 -22
-18 -3 0 11 -8 23 -17 26 -14 6 -14 9 5 22 12 8 20 19 17 24 -6 10 22 40 38
40 7 0 4 -7 -5 -14z m97 4 c-3 -5 -12 -10 -18 -10 -7 0 -6 4 3 10 19 12 23 12
15 0z m89 -5 c-22 -17 -34 -19 -34 -6 0 5 8 12 18 14 32 9 36 7 16 -8z m96 5
c0 -5 -4 -10 -10 -10 -5 0 -10 5 -10 10 0 6 5 10 10 10 6 0 10 -4 10 -10z
m-1680 -4 c0 -2 -7 -7 -16 -10 -8 -3 -12 -2 -9 4 6 10 25 14 25 6z m180 -7 c0
-5 -4 -8 -9 -4 -5 3 -12 1 -16 -5 -3 -5 -11 -10 -18 -10 -6 0 -2 7 9 15 23 17
34 19 34 4z m62 -11 c-16 -16 -15 -28 3 -28 8 0 15 4 15 10 0 5 6 7 14 4 8 -3
21 5 30 18 13 18 16 19 16 5 0 -9 -5 -17 -11 -17 -7 0 -9 -12 -6 -32 5 -29 5
-30 -5 -10 -13 26 -30 28 -48 7 -11 -14 -14 -13 -27 4 -12 18 -11 23 4 39 10
10 20 17 22 15 3 -2 -1 -9 -7 -15z m353 13 c3 -5 1 -12 -5 -16 -5 -3 -10 1
-10 9 0 18 6 21 15 7z m45 5 c0 -3 -4 -8 -10 -11 -5 -3 -10 -1 -10 4 0 6 5 11
10 11 6 0 10 -2 10 -4z m540 -6 c0 -11 -33 -30 -52 -29 -7 0 -3 4 10 9 12 5
22 14 22 20 0 5 5 10 10 10 6 0 10 -4 10 -10z m262 -11 c-12 -5 -22 -13 -22
-19 0 -5 -4 -10 -10 -10 -16 0 -6 24 15 36 11 6 24 9 29 6 5 -3 0 -9 -12 -13z
m308 11 c0 -5 -5 -10 -11 -10 -5 0 -7 5 -4 10 3 6 8 10 11 10 2 0 4 -4 4 -10z
m-1670 -4 c0 -3 -4 -8 -10 -11 -5 -3 -10 -1 -10 4 0 6 5 11 10 11 6 0 10 -2
10 -4z m1168 -13 c-9 -10 -18 -25 -21 -33 -4 -12 -6 -12 -6 2 -1 9 6 24 15 32
21 22 31 20 12 -1z m-803 -2 c3 -5 2 -12 -3 -15 -5 -3 -9 1 -9 9 0 17 3 19 12
6z m50 -1 c-3 -5 -10 -10 -16 -10 -5 0 -9 5 -9 10 0 6 7 10 16 10 8 0 12 -4 9
-10z m535 -11 c0 -5 -4 -9 -10 -9 -5 0 -10 7 -10 16 0 8 5 12 10 9 6 -3 10
-10 10 -16z m670 6 c-7 -8 -22 -15 -34 -15 -17 1 -16 3 9 15 39 18 40 18 25 0z
m-1585 -5 c3 -5 0 -7 -8 -4 -8 3 -18 1 -22 -5 -3 -6 -12 -11 -18 -11 -7 0 -3
7 7 15 23 18 33 19 41 5z m1093 -5 c-2 -1 -13 -8 -26 -14 -21 -11 -22 -11 -11
7 7 11 19 18 26 15 8 -3 13 -7 11 -8z m-1203 -5 c-3 -5 -10 -10 -16 -10 -5 0
-9 5 -9 10 0 6 7 10 16 10 8 0 12 -4 9 -10z m205 -22 c0 -5 -5 -8 -10 -8 -6 0
-14 -10 -19 -22 l-8 -22 -12 22 c-11 20 -10 23 5 20 9 -2 19 3 22 11 3 10 -1
12 -17 8 -18 -4 -20 -3 -11 8 9 11 16 12 31 2 10 -6 19 -15 19 -19z m132 17
c0 -5 -5 -11 -11 -13 -6 -2 -11 4 -11 13 0 9 5 15 11 13 6 -2 11 -8 11 -13z
m1406 6 c11 -7 11 -9 -1 -14 -16 -6 -27 0 -27 15 0 10 11 10 28 -1z m-1708
-15 c0 -8 -7 -16 -15 -20 -12 -4 -13 -2 -2 14 14 24 17 25 17 6z m380 4 c0 -5
-4 -10 -10 -10 -5 0 -10 5 -10 10 0 6 5 10 10 10 6 0 10 -4 10 -10z m1290 -15
c0 -9 -6 -12 -15 -9 -8 4 -12 10 -9 15 8 14 24 10 24 -6z m-1775 -5 c-3 -5
-11 -10 -16 -10 -6 0 -7 5 -4 10 3 6 11 10 16 10 6 0 7 -4 4 -10z m355 -11 c0
-5 -4 -9 -10 -9 -5 0 -10 7 -10 16 0 8 5 12 10 9 6 -3 10 -10 10 -16z m74 6
c-10 -8 -23 -14 -29 -14 -5 0 -1 6 9 14 11 8 24 15 30 15 5 0 1 -7 -10 -15z
m842 -12 c-10 -10 -19 5 -10 18 6 11 8 11 12 0 2 -7 1 -15 -2 -18z m-581 7 c3
-5 1 -10 -4 -10 -6 0 -11 5 -11 10 0 6 2 10 4 10 3 0 8 -4 11 -10z m935 -5 c0
-8 -7 -15 -15 -15 -9 0 -12 6 -9 15 4 8 10 15 15 15 5 0 9 -7 9 -15z m125 -5
c17 -18 17 -20 1 -20 -9 0 -19 -7 -22 -15 -8 -20 -24 -19 -24 0 0 9 -7 18 -16
22 -15 6 -15 8 2 20 25 18 38 16 59 -7z m-1640 -10 c-10 -11 -22 -17 -27 -14
-5 4 1 12 14 19 32 18 34 18 13 -5z m102 -6 c-13 -9 -57 -12 -57 -4 0 6 4 9 9
6 5 -3 14 1 21 10 10 12 15 12 21 2 4 -7 7 -13 6 -14z m89 6 c-25 -4 -27 -7
-13 -18 10 -9 17 -10 22 -2 3 5 11 10 18 10 6 0 2 -7 -10 -15 -20 -14 -24 -14
-42 4 -19 19 -19 19 3 29 11 5 28 7 36 3 10 -3 5 -7 -14 -11z m644 5 c-7 -9
-15 -13 -19 -10 -3 3 1 10 9 15 21 14 24 12 10 -5z m438 -15 c-13 -10 -24 -17
-26 -15 -6 6 33 42 41 38 4 -3 -3 -13 -15 -23z m-1358 16 c0 -3 -4 -8 -10 -11
-5 -3 -10 -1 -10 4 0 6 5 11 10 11 6 0 10 -2 10 -4z m440 -3 c-8 -3 -22 -11
-30 -17 -13 -10 -13 -9 -1 7 7 9 21 17 30 16 13 0 14 -1 1 -6z m80 -3 c0 -5
-5 -10 -11 -10 -5 0 -7 5 -4 10 3 6 8 10 11 10 2 0 4 -4 4 -10z m580 0 c0 -5
-5 -10 -11 -10 -5 0 -7 5 -4 10 3 6 8 10 11 10 2 0 4 -4 4 -10z m180 0 c0 -5
-8 -10 -17 -10 -15 0 -16 2 -3 10 19 12 20 12 20 0z m178 -8 c2 -7 -2 -11 -8
-10 -7 2 -15 -3 -17 -9 -3 -9 7 -11 35 -8 42 4 52 -5 52 -45 0 -11 8 -23 17
-29 16 -8 15 -11 -7 -29 -24 -20 -25 -20 -32 -1 -8 20 -42 26 -53 9 -3 -5 -12
-10 -18 -10 -17 1 24 30 41 30 14 0 42 23 42 35 0 17 -32 36 -51 30 -16 -5
-20 -13 -16 -31 2 -13 0 -21 -4 -18 -5 3 -9 16 -9 29 0 13 -4 27 -10 30 -6 4
-5 13 3 25 13 21 28 22 35 2z m-398 -2 c0 -5 -5 -10 -11 -10 -5 0 -7 5 -4 10
3 6 8 10 11 10 2 0 4 -4 4 -10z m-1025 -10 c3 -5 -1 -10 -10 -10 -9 0 -13 5
-10 10 3 6 8 10 10 10 2 0 7 -4 10 -10z m345 -11 c0 -6 -4 -7 -10 -4 -5 3 -10
11 -10 16 0 6 5 7 10 4 6 -3 10 -11 10 -16z m390 11 c0 -5 -4 -10 -10 -10 -5
0 -10 5 -10 10 0 6 5 10 10 10 6 0 10 -4 10 -10z m535 -11 c-10 -15 -25 -10
-19 6 4 8 10 12 15 9 5 -3 7 -10 4 -15z m-1375 7 c0 -3 -4 -8 -10 -11 -5 -3
-10 -1 -10 4 0 6 5 11 10 11 6 0 10 -2 10 -4z m180 0 c0 -2 -7 -7 -16 -10 -8
-3 -12 -2 -9 4 6 10 25 14 25 6z m100 0 c0 -2 -7 -6 -15 -10 -8 -3 -15 -1 -15
4 0 6 7 10 15 10 8 0 15 -2 15 -4z m640 0 c0 -3 -4 -8 -10 -11 -5 -3 -10 -1
-10 4 0 6 5 11 10 11 6 0 10 -2 10 -4z m-678 -41 c4 -20 1 -25 -14 -25 -11 0
-16 -4 -12 -11 3 -6 18 -8 33 -5 25 5 25 5 4 -6 -13 -6 -23 -15 -23 -19 0 -5
-10 2 -22 14 -23 22 -23 22 -3 33 11 5 20 20 19 32 -1 28 12 19 18 -13z m178
31 c0 -3 -4 -8 -10 -11 -5 -3 -10 -1 -10 4 0 6 5 11 10 11 6 0 10 -2 10 -4z
m455 -6 c3 -5 -1 -10 -10 -10 -9 0 -13 5 -10 10 3 6 8 10 10 10 2 0 7 -4 10
-10z m592 -6 c14 -14 14 -16 -3 -29 -11 -7 -21 -11 -24 -9 -2 3 2 9 9 13 7 5
10 14 6 20 -5 9 -10 9 -21 0 -12 -10 -13 -9 -8 5 8 20 21 20 41 0z m-1437 -3
c0 -5 -7 -12 -16 -15 -14 -5 -15 -4 -4 9 14 17 20 19 20 6z m110 5 c0 -2 -9
-6 -20 -9 -11 -3 -18 -1 -14 4 5 9 34 13 34 5z m68 -8 c-2 -6 -10 -14 -16 -16
-7 -2 -10 2 -6 12 7 18 28 22 22 4z m110 -9 c3 -11 2 -11 -7 1 -10 13 -13 13
-25 -3 -8 -11 -17 -14 -20 -8 -7 11 23 32 38 28 6 -2 11 -10 14 -18z m72 13
c0 -5 -11 -14 -25 -20 -39 -18 -44 -14 -10 7 36 23 35 23 35 13z m840 -2 c0
-5 -2 -10 -4 -10 -3 0 -8 5 -11 10 -3 6 -1 10 4 10 6 0 11 -4 11 -10z m448
-27 c13 -11 12 -15 -9 -32 -24 -19 -24 -19 -33 0 -5 10 -13 19 -17 19 -5 0 1
12 13 26 15 17 24 21 26 12 3 -7 11 -18 20 -25z m-1228 18 c0 -5 -7 -12 -16
-15 -14 -5 -15 -4 -4 9 14 17 20 19 20 6z m-280 -36 c0 -12 7 -25 15 -29 30
-11 16 -25 -35 -36 -2 -1 -6 3 -8 10 -2 6 2 9 8 8 7 -2 15 3 18 11 3 10 0 12
-12 8 -18 -7 -22 8 -5 19 6 3 9 15 6 25 -3 11 -1 17 4 13 5 -3 9 -16 9 -29z
m1390 20 c0 -8 -4 -15 -9 -15 -5 0 -11 7 -15 15 -3 9 0 15 9 15 8 0 15 -7 15
-15z m-1495 -5 c-3 -5 -10 -10 -16 -10 -5 0 -9 5 -9 10 0 6 7 10 16 10 8 0 12
-4 9 -10z m69 -11 c-3 -5 -10 -7 -15 -3 -5 3 -7 10 -3 15 3 5 10 7 15 3 5 -3
7 -10 3 -15z m-108 -24 c0 -14 -5 -25 -12 -25 -7 0 -15 -6 -17 -12 -4 -8 -6
-7 -6 3 -1 9 6 20 14 23 13 4 14 10 5 26 -8 15 -8 18 3 14 7 -2 13 -16 13 -29z
m68 20 c3 -8 1 -15 -4 -15 -6 0 -10 7 -10 15 0 8 2 15 4 15 2 0 6 -7 10 -15z
m213 -2 c-9 -9 -20 -13 -24 -9 -4 4 -1 11 7 16 25 16 35 11 17 -7z m1178 -3
c-3 -5 -12 -10 -18 -10 -7 0 -6 4 3 10 19 12 23 12 15 0z m-1495 -10 c0 -5 -4
-10 -10 -10 -5 0 -10 5 -10 10 0 6 5 10 10 10 6 0 10 -4 10 -10z m355 1 c3 -5
-4 -12 -15 -16 -11 -3 -20 -11 -20 -16 0 -6 -4 -7 -10 -4 -5 3 -10 11 -10 16
0 6 5 7 10 4 6 -3 13 1 16 9 7 18 20 21 29 7z m35 -7 c0 -8 -4 -12 -10 -9 -5
3 -10 10 -10 16 0 5 5 9 10 9 6 0 10 -7 10 -16z m-313 0 c-3 -3 -12 -4 -19 -1
-8 3 -5 6 6 6 11 1 17 -2 13 -5z m1633 -26 c0 -5 -7 -8 -15 -8 -15 0 -20 21
-8 33 7 7 23 -11 23 -25z m-1601 3 c-13 -11 -26 -17 -28 -15 -5 5 30 33 43 34
4 0 -2 -9 -15 -19z m326 -10 c3 -5 1 -12 -5 -16 -5 -3 -10 1 -10 9 0 18 6 21
15 7z m1114 -12 c-16 -10 -23 -4 -14 10 3 6 11 8 17 5 6 -4 5 -9 -3 -15z
m-1489 1 c0 -5 -2 -10 -4 -10 -3 0 -8 5 -11 10 -3 6 -1 10 4 10 6 0 11 -4 11
-10z m-110 -10 c0 -5 -4 -10 -10 -10 -5 0 -10 5 -10 10 0 6 5 10 10 10 6 0 10
-4 10 -10z m460 -1 c0 -5 -4 -8 -9 -4 -5 3 -12 1 -16 -5 -8 -13 -25 -13 -25
-1 0 8 16 16 43 20 4 0 7 -4 7 -10z m-380 -9 c0 -5 -4 -10 -10 -10 -5 0 -10 5
-10 10 0 6 5 10 10 10 6 0 10 -4 10 -10z m1200 6 c0 -11 -19 -15 -25 -6 -3 5
1 10 9 10 9 0 16 -2 16 -4z m348 -8 c-2 -6 -10 -14 -16 -16 -7 -2 -10 2 -6 12
7 18 28 22 22 4z m-1588 -8 c0 -5 -8 -10 -17 -10 -15 0 -16 2 -3 10 19 12 20
12 20 0z m455 0 c-3 -5 -11 -10 -16 -10 -6 0 -7 5 -4 10 3 6 11 10 16 10 6 0
7 -4 4 -10z m745 -20 c0 -16 -2 -30 -4 -30 -2 0 -6 14 -8 30 -3 17 -1 30 4 30
4 0 8 -13 8 -30z m421 -43 c-19 -19 -21 -20 -21 -4 0 10 -7 20 -15 23 -13 5
-12 10 7 28 l23 21 13 -24 c12 -21 12 -26 -7 -44z m-1371 48 c0 -8 -7 -15 -15
-15 -8 0 -15 7 -15 15 0 8 7 15 15 15 8 0 15 -7 15 -15z m1012 -3 c-12 -2 -20
-8 -17 -13 4 -5 18 -6 33 -3 l27 7 -25 -21 c-14 -11 -21 -24 -17 -28 4 -5 11
-3 15 3 4 6 20 15 35 18 24 6 27 4 27 -18 0 -14 -4 -29 -10 -32 -5 -3 -10 -11
-10 -17 0 -7 5 -6 15 2 19 16 35 5 35 -25 0 -12 7 -25 15 -29 25 -9 17 -23
-25 -40 -48 -19 -74 -21 -64 -4 5 7 3 8 -5 4 -7 -5 -10 -15 -7 -25 6 -15 5
-15 -6 1 -7 9 -18 25 -25 35 -11 17 -11 16 -6 -3 3 -16 -1 -23 -19 -27 -14 -4
-27 -2 -33 7 -5 7 -16 11 -22 9 -7 -3 -13 0 -13 6 0 6 7 11 16 11 14 0 14 3 4
15 -10 13 -10 19 4 33 9 10 16 25 16 33 0 8 6 21 13 28 10 11 8 12 -10 6 -14
-4 -23 -2 -23 4 0 6 4 11 10 11 5 0 12 11 16 24 6 25 50 49 69 37 6 -3 0 -7
-13 -9z m-762 5 c0 -1 -9 -10 -20 -20 -16 -13 -20 -14 -20 -3 0 8 8 17 18 19
9 3 18 5 20 6 1 0 2 0 2 -2z m328 -13 c18 -8 35 -20 38 -26 8 -13 -14 -28 -43
-28 -13 0 -23 -4 -23 -10 0 -5 -8 -10 -17 -10 -13 0 -14 3 -5 12 19 19 14 26
-13 20 -15 -2 -25 0 -25 7 0 6 7 11 16 11 11 0 14 5 10 16 -4 12 -2 15 9 10 8
-3 15 -1 15 4 0 13 1 13 38 -6z m245 9 c-7 -2 -13 -9 -13 -14 0 -6 6 -9 13 -8
25 3 33 -1 34 -20 1 -14 -3 -18 -13 -14 -8 3 -14 0 -14 -6 0 -10 -7 -8 -49 16
-2 2 2 9 9 18 7 8 9 15 4 15 -5 0 -2 5 6 10 8 5 20 9 25 9 6 0 4 -3 -2 -6z
m447 -3 c0 -5 -4 -10 -10 -10 -5 0 -10 5 -10 10 0 6 5 10 10 10 6 0 10 -4 10
-10z m34 -15 c3 -8 1 -15 -4 -15 -6 0 -10 7 -10 15 0 8 2 15 4 15 2 0 6 -7 10
-15z m-1564 -15 c0 -5 -2 -10 -4 -10 -3 0 -8 5 -11 10 -3 6 -1 10 4 10 6 0 11
-4 11 -10z m605 -10 c-3 -5 -11 -10 -16 -10 -6 0 -7 5 -4 10 3 6 11 10 16 10
6 0 7 -4 4 -10z m988 -7 c4 -3 -5 -12 -20 -20 -32 -16 -44 -8 -17 12 22 16 28
18 37 8z m64 -18 c-10 -7 -17 -18 -17 -25 0 -10 -3 -10 -16 1 -14 12 -14 14 5
21 12 4 21 12 21 18 0 6 5 8 12 4 8 -5 6 -11 -5 -19z m-267 5 c0 -5 -5 -10
-11 -10 -5 0 -7 5 -4 10 3 6 8 10 11 10 2 0 4 -4 4 -10z m100 6 c0 -3 -4 -8
-10 -11 -5 -3 -10 -1 -10 4 0 6 5 11 10 11 6 0 10 -2 10 -4z m-865 -16 c-3 -5
-11 -10 -16 -10 -6 0 -7 5 -4 10 3 6 11 10 16 10 6 0 7 -4 4 -10z m-35 -10 c0
-5 -4 -10 -10 -10 -5 0 -10 5 -10 10 0 6 5 10 10 10 6 0 10 -4 10 -10z m925 0
c3 -5 1 -10 -4 -10 -6 0 -11 5 -11 10 0 6 2 10 4 10 3 0 8 -4 11 -10z m103
-33 c13 -3 9 -7 -13 -16 -16 -7 -38 -17 -47 -22 -23 -12 -28 -11 -28 1 0 6 7
10 15 10 8 0 15 5 15 11 0 6 9 8 21 4 16 -5 20 -3 16 6 -2 8 -10 13 -16 12
-15 -4 -14 10 2 26 10 10 13 8 15 -8 2 -11 11 -22 20 -24z m-208 17 c0 -8 -4
-12 -10 -9 -5 3 -10 10 -10 16 0 5 5 9 10 9 6 0 10 -7 10 -16z m287 10 c-3 -3
-12 -4 -19 -1 -8 3 -5 6 6 6 11 1 17 -2 13 -5z m-1137 -20 c0 -17 -22 -14 -28
4 -2 7 3 12 12 12 9 0 16 -7 16 -16z m275 6 c-3 -5 -11 -10 -16 -10 -6 0 -7 5
-4 10 3 6 11 10 16 10 6 0 7 -4 4 -10z m41 -28 c1 -7 0 -8 -3 -2 -2 5 -9 8
-14 4 -5 -3 -9 0 -9 6 0 15 23 7 26 -8z m559 5 c-12 -10 -14 -16 -7 -21 7 -4
12 -14 12 -23 0 -12 -7 -9 -25 11 -28 31 -31 38 -11 30 8 -3 17 -1 21 5 3 6
11 11 18 11 6 0 3 -6 -8 -13z m90 3 c-3 -5 -12 -10 -18 -10 -7 0 -6 4 3 10 19
12 23 12 15 0z m-765 -10 c0 -5 -2 -10 -4 -10 -3 0 -8 5 -11 10 -3 6 -1 10 4
10 6 0 11 -4 11 -10z m40 -18 c0 -5 -11 -14 -25 -20 -14 -6 -25 -8 -25 -4 0 6
9 12 48 31 1 0 2 -3 2 -7z m125 -2 c3 -5 16 -10 28 -10 18 0 19 -2 7 -10 -22
-14 -40 -12 -40 4 0 8 -6 17 -12 19 -10 4 -10 6 -1 6 6 1 15 -3 18 -9z m563
-40 c16 -26 8 -40 -23 -40 -13 0 -27 -4 -30 -10 -3 -5 -12 -10 -18 -10 -7 0
-4 7 6 14 26 20 20 28 -15 21 -33 -7 -33 -7 -10 10 13 9 29 14 37 12 7 -3 16
1 19 9 8 20 19 18 34 -6z m114 4 c17 -16 17 -17 -8 -30 -31 -17 -34 -17 -34
-4 0 6 7 10 15 10 8 0 15 7 15 16 0 10 -5 14 -16 10 -8 -3 -12 -2 -9 4 9 14
16 13 37 -6z m-702 -4 c0 -5 -5 -10 -11 -10 -5 0 -7 5 -4 10 3 6 8 10 11 10 2
0 4 -4 4 -10z m119 6 c-2 -2 -17 -6 -34 -10 -22 -5 -26 -4 -15 4 14 9 59 15
49 6z m-219 -15 c0 -6 -4 -13 -10 -16 -5 -3 -10 1 -10 9 0 9 5 16 10 16 6 0
10 -4 10 -9z m303 -3 c4 -13 -20 -37 -38 -37 -5 0 -2 4 8 10 24 14 22 32 -3
24 -11 -4 -20 -2 -20 4 0 15 47 14 53 -1z m47 -3 c-7 -9 -15 -13 -19 -10 -3 3
1 10 9 15 21 14 24 12 10 -5z m40 -9 c0 -3 -4 -8 -10 -11 -5 -3 -10 -1 -10 4
0 6 5 11 10 11 6 0 10 -2 10 -4z m-190 -10 c0 -3 -4 -8 -10 -11 -5 -3 -10 -1
-10 4 0 6 5 11 10 11 6 0 10 -2 10 -4z m360 -6 c0 -5 -5 -10 -11 -10 -5 0 -7
5 -4 10 3 6 8 10 11 10 2 0 4 -4 4 -10z m-395 -10 c3 -5 -1 -10 -10 -10 -9 0
-13 5 -10 10 3 6 8 10 10 10 2 0 7 -4 10 -10z m574 7 c-2 -1 -11 -8 -21 -15
-12 -10 -18 -10 -24 -1 -4 7 -3 9 4 5 6 -3 13 -2 17 4 3 5 11 10 17 10 6 0 9
-1 7 -3z m-419 -16 c0 -5 -7 -12 -16 -15 -14 -5 -15 -4 -4 9 14 17 20 19 20 6z
m280 -12 c0 -6 -4 -7 -10 -4 -5 3 -10 11 -10 16 0 6 5 7 10 4 6 -3 10 -11 10
-16z m-35 -9 c-3 -5 -11 -10 -16 -10 -6 0 -7 5 -4 10 3 6 11 10 16 10 6 0 7
-4 4 -10z m-175 -50 c17 -15 19 -20 8 -20 -9 0 -18 -7 -22 -15 -7 -20 -26 -19
-26 0 0 9 -7 18 -16 22 -14 5 -12 8 7 19 13 7 24 13 25 14 1 0 11 -9 24 -20z"/>
<path d="M1335 2100 c-3 -5 1 -10 9 -10 9 0 16 5 16 10 0 6 -4 10 -9 10 -6 0
-13 -4 -16 -10z"/>
<path d="M1422 2091 c2 -7 7 -12 11 -12 12 1 9 15 -3 20 -7 2 -11 -2 -8 -8z"/>
<path d="M1374 2081 c4 -6 0 -11 -8 -11 -9 0 -16 -7 -16 -15 0 -8 4 -15 9 -15
5 0 11 7 15 15 3 8 12 15 20 15 22 0 9 -27 -17 -35 -20 -7 -20 -8 -3 -12 27
-7 54 23 40 45 -6 9 -19 19 -29 20 -11 3 -15 0 -11 -7z"/>
<path d="M1410 2010 c0 -5 5 -10 10 -10 6 0 10 5 10 10 0 6 -4 10 -10 10 -5 0
-10 -4 -10 -10z"/>
<path d="M1515 2099 c-4 -6 -5 -12 -2 -15 2 -3 7 2 10 11 7 17 1 20 -8 4z"/>
<path d="M1480 2040 c0 -5 5 -10 10 -10 6 0 10 5 10 10 0 6 -4 10 -10 10 -5 0
-10 -4 -10 -10z"/>
<path d="M1502 2018 c-7 -7 -12 -19 -12 -27 0 -12 6 -9 19 8 10 14 21 19 24
13 4 -5 0 -15 -8 -22 -17 -14 -20 -30 -5 -30 6 0 10 7 10 15 0 9 6 12 15 9 19
-8 20 13 1 32 -18 17 -28 18 -44 2z"/>
<path d="M1645 1967 c-4 -10 -17 -23 -29 -27 l-21 -9 21 0 c25 -1 48 22 41 41
-3 9 -7 7 -12 -5z"/>
<path d="M1366 1961 c-4 -5 -2 -12 3 -15 5 -4 12 -2 15 3 4 5 2 12 -3 15 -5 4
-12 2 -15 -3z"/>
<path d="M1666 1954 c-3 -8 3 -20 14 -26 11 -7 20 -16 20 -21 0 -4 -4 -5 -10
-2 -5 3 -15 -3 -22 -15 -7 -11 -16 -20 -21 -20 -4 0 -6 4 -3 9 7 11 -32 46
-42 36 -4 -4 -1 -10 6 -12 6 -3 12 -11 12 -19 0 -8 12 -19 27 -25 15 -6 31
-15 35 -22 4 -6 11 -8 15 -3 4 4 0 13 -9 20 -16 12 -16 13 2 26 30 22 31 38 5
64 -18 18 -25 21 -29 10z"/>
<path d="M1440 1945 c0 -8 5 -15 10 -15 6 0 10 7 10 15 0 8 -4 15 -10 15 -5 0
-10 -7 -10 -15z"/>
<path d="M1715 1951 c-6 -11 9 -23 19 -14 9 9 7 23 -3 23 -6 0 -12 -4 -16 -9z"/>
<path d="M1215 1939 c-4 -6 -5 -13 -2 -16 7 -7 27 6 27 18 0 12 -17 12 -25 -2z"/>
<path d="M1517 1920 c-20 -39 -20 -40 -7 -40 6 0 10 7 10 15 0 18 12 19 28 3
9 -9 15 -8 27 8 17 23 19 34 5 34 -5 0 -10 -7 -10 -15 0 -23 -20 -18 -29 7 -7
20 -9 20 -24 -12z"/>
<path d="M1296 1933 c-11 -11 -6 -23 9 -23 8 0 15 4 15 9 0 13 -16 22 -24 14z"/>
<path d="M1384 1926 c-19 -15 -19 -15 3 -37 20 -20 23 -21 37 -6 18 18 21 37
6 37 -5 0 -10 -7 -10 -16 0 -9 -5 -14 -12 -12 -18 6 -22 28 -4 28 8 0 18 5 21
10 9 15 -18 12 -41 -4z"/>
<path d="M1645 1921 c-6 -11 9 -23 19 -14 9 9 7 23 -3 23 -6 0 -12 -4 -16 -9z"/>
<path d="M1726 1911 c-4 -7 -5 -15 -2 -18 9 -9 19 4 14 18 -4 11 -6 11 -12 0z"/>
<path d="M1352 1881 c2 -7 7 -12 11 -12 12 1 9 15 -3 20 -7 2 -11 -2 -8 -8z"/>
<path d="M1580 1880 c0 -5 5 -10 10 -10 6 0 10 5 10 10 0 6 -4 10 -10 10 -5 0
-10 -4 -10 -10z"/>
<path d="M1700 1871 c0 -6 5 -13 10 -16 6 -3 10 1 10 9 0 9 -4 16 -10 16 -5 0
-10 -4 -10 -9z"/>
<path d="M1280 1840 c0 -5 4 -10 9 -10 6 0 13 5 16 10 3 6 -1 10 -9 10 -9 0
-16 -4 -16 -10z"/>
<path d="M1635 1841 c-6 -11 9 -23 19 -14 9 9 7 23 -3 23 -6 0 -12 -4 -16 -9z"/>
<path d="M1085 1760 c4 -6 11 -8 16 -5 14 9 11 15 -7 15 -8 0 -12 -5 -9 -10z"/>
<path d="M1155 1799 c-4 -6 -5 -13 -2 -16 7 -7 27 6 27 18 0 12 -17 12 -25 -2z"/>
<path d="M1875 1820 c-3 -5 3 -10 15 -10 12 0 18 5 15 10 -3 6 -10 10 -15 10
-5 0 -12 -4 -15 -10z"/>
<path d="M1735 1801 c-6 -11 9 -23 19 -14 9 9 7 23 -3 23 -6 0 -12 -4 -16 -9z"/>
<path d="M1235 1789 c-10 -15 3 -25 16 -12 7 7 7 13 1 17 -6 3 -14 1 -17 -5z"/>
<path d="M1665 1771 c-6 -11 9 -23 19 -14 9 9 7 23 -3 23 -6 0 -12 -4 -16 -9z"/>
<path d="M2020 1760 c0 -5 7 -10 16 -10 8 0 12 5 9 10 -3 6 -10 10 -16 10 -5
0 -9 -4 -9 -10z"/>
<path d="M2111 1651 c-10 -6 -10 -10 -1 -16 13 -8 24 -1 19 14 -3 6 -10 7 -18
2z"/>
<path d="M2196 1641 c-4 -7 -5 -15 -2 -18 9 -9 19 4 14 18 -4 11 -6 11 -12 0z"/>
<path d="M2395 1609 c-10 -15 3 -25 16 -12 7 7 7 13 1 17 -6 3 -14 1 -17 -5z"/>
<path d="M2216 1491 c-4 -7 -5 -15 -2 -18 9 -9 19 4 14 18 -4 11 -6 11 -12 0z"/>
<path d="M2280 1515 c0 -8 5 -15 10 -15 6 0 10 7 10 15 0 8 -4 15 -10 15 -5 0
-10 -7 -10 -15z"/>
<path d="M2220 1375 c0 -9 5 -15 11 -13 6 2 11 8 11 13 0 5 -5 11 -11 13 -6 2
-11 -4 -11 -13z"/>
<path d="M1845 1360 c3 -5 8 -10 11 -10 2 0 4 5 4 10 0 6 -5 10 -11 10 -5 0
-7 -4 -4 -10z"/>
<path d="M1930 1336 c0 -9 5 -16 10 -16 6 0 10 4 10 9 0 6 -4 13 -10 16 -5 3
-10 -1 -10 -9z"/>
<path d="M1860 1300 c0 -5 5 -10 10 -10 6 0 10 5 10 10 0 6 -4 10 -10 10 -5 0
-10 -4 -10 -10z"/>
<path d="M1835 1280 c3 -5 8 -10 11 -10 2 0 4 5 4 10 0 6 -5 10 -11 10 -5 0
-7 -4 -4 -10z"/>
<path d="M1880 1270 c-8 -15 -8 -18 3 -14 8 3 14 11 14 19 0 20 -4 19 -17 -5z"/>
<path d="M1915 1281 c-3 -5 -1 -12 5 -16 5 -3 10 1 10 9 0 18 -6 21 -15 7z"/>
<path d="M1962 1273 c-6 -3 -10 -9 -6 -14 3 -5 -5 -9 -18 -10 -21 0 -22 -1 -3
-8 12 -5 25 -3 33 6 16 16 12 32 -6 26z"/>
<path d="M1810 1245 c0 -8 5 -15 10 -15 6 0 10 7 10 15 0 8 -4 15 -10 15 -5 0
-10 -7 -10 -15z"/>
<path d="M1890 1230 c0 -5 5 -10 10 -10 6 0 10 5 10 10 0 6 -4 10 -10 10 -5 0
-10 -4 -10 -10z"/>
<path d="M1970 1220 c0 -5 5 -10 10 -10 6 0 10 5 10 10 0 6 -4 10 -10 10 -5 0
-10 -4 -10 -10z"/>
<path d="M1940 1210 c0 -5 5 -10 10 -10 6 0 10 5 10 10 0 6 -4 10 -10 10 -5 0
-10 -4 -10 -10z"/>
<path d="M1825 1199 c-4 -6 -5 -12 -2 -15 2 -3 7 2 10 11 7 17 1 20 -8 4z"/>
<path d="M2070 1180 c0 -5 5 -10 10 -10 6 0 10 5 10 10 0 6 -4 10 -10 10 -5 0
-10 -4 -10 -10z"/>
<path d="M1760 1060 c0 -5 7 -10 15 -10 8 0 15 5 15 10 0 6 -7 10 -15 10 -8 0
-15 -4 -15 -10z"/>
<path d="M1635 2421 c-3 -5 -1 -12 5 -16 5 -3 10 1 10 9 0 18 -6 21 -15 7z"/>
<path d="M1660 2345 c0 -9 5 -15 11 -13 6 2 11 8 11 13 0 5 -5 11 -11 13 -6 2
-11 -4 -11 -13z"/>
<path d="M830 2339 c0 -5 5 -7 10 -4 6 3 10 8 10 11 0 2 -4 4 -10 4 -5 0 -10
-5 -10 -11z"/>
<path d="M1517 2333 c-12 -11 -8 -23 8 -23 8 0 15 7 15 15 0 16 -12 20 -23 8z"/>
<path d="M1902 2323 c1 -5 -4 -19 -11 -31 -7 -13 -10 -26 -7 -29 3 -3 8 2 12
11 3 9 12 16 20 16 8 0 14 9 14 20 0 11 -7 20 -15 20 -8 0 -14 -3 -13 -7z"/>
<path d="M1810 2295 c-10 -12 -10 -15 2 -15 8 0 15 7 15 15 0 8 -1 15 -2 15
-2 0 -8 -7 -15 -15z"/>
<path d="M1953 2276 c6 -13 17 -21 24 -19 9 4 11 0 7 -11 -3 -9 -2 -16 3 -16
5 0 10 11 11 24 1 16 -6 26 -24 35 -33 15 -34 15 -21 -13z"/>
<path d="M1745 2266 c-17 -12 -18 -15 -3 -30 19 -18 38 -21 38 -6 0 6 -7 10
-15 10 -17 0 -20 16 -4 25 6 4 17 -1 24 -11 13 -17 14 -17 15 -3 0 9 -7 20
-16 23 -20 8 -17 8 -39 -8z"/>
<path d="M1930 2271 c0 -6 -7 -11 -15 -11 -8 0 -15 -4 -15 -10 0 -14 11 -12
33 4 12 9 14 16 8 21 -6 3 -11 1 -11 -4z"/>
<path d="M1860 2240 c0 -5 5 -10 10 -10 6 0 10 5 10 10 0 6 -4 10 -10 10 -5 0
-10 -4 -10 -10z"/>
<path d="M1940 2229 c0 -5 5 -7 10 -4 6 3 10 8 10 11 0 2 -4 4 -10 4 -5 0 -10
-5 -10 -11z"/>
<path d="M2013 2225 c0 -8 8 -15 17 -15 26 0 46 -28 32 -42 -7 -7 -12 -19 -12
-27 0 -10 7 -5 19 12 11 18 21 25 25 18 4 -6 5 -15 1 -20 -3 -5 -1 -12 5 -16
6 -4 10 9 10 33 0 41 -11 52 -51 52 -10 0 -19 5 -19 10 0 6 -6 10 -13 10 -8 0
-14 -7 -14 -15z"/>
<path d="M1916 2203 c4 -12 13 -24 21 -27 18 -7 45 23 35 39 -4 5 -8 2 -10 -7
-2 -10 -8 -18 -14 -18 -6 0 -17 8 -24 18 -12 16 -13 15 -8 -5z"/>
<path d="M1990 2191 c0 -6 6 -14 14 -18 7 -4 15 -15 18 -22 4 -13 5 -13 10 0
3 8 -5 22 -18 32 -13 10 -24 13 -24 8z"/>
<path d="M2040 2190 c0 -5 5 -10 11 -10 5 0 7 5 4 10 -3 6 -8 10 -11 10 -2 0
-4 -4 -4 -10z"/>
<path d="M1890 2170 c0 -5 5 -10 10 -10 6 0 10 5 10 10 0 6 -4 10 -10 10 -5 0
-10 -4 -10 -10z"/>
<path d="M1970 2160 c0 -5 5 -10 10 -10 6 0 10 5 10 10 0 6 -4 10 -10 10 -5 0
-10 -4 -10 -10z"/>
<path d="M2070 2120 c0 -5 5 -10 10 -10 6 0 10 5 10 10 0 6 -4 10 -10 10 -5 0
-10 -4 -10 -10z"/>
<path d="M2112 2110 c-7 -11 -8 -20 -3 -20 6 0 15 8 21 18 8 12 13 13 16 5 6
-15 34 -18 34 -4 0 9 -24 21 -43 21 -7 0 -18 -9 -25 -20z"/>
<path d="M2030 2110 c0 -5 5 -10 10 -10 6 0 10 5 10 10 0 6 -4 10 -10 10 -5 0
-10 -4 -10 -10z"/>
<path d="M2180 2084 c0 -8 5 -12 10 -9 6 3 10 10 10 16 0 5 -4 9 -10 9 -5 0
-10 -7 -10 -16z"/>
<path d="M2126 2081 c-4 -5 -2 -12 3 -15 5 -4 12 -2 15 3 4 5 2 12 -3 15 -5 4
-12 2 -15 -3z"/>
<path d="M620 2059 c0 -5 5 -7 10 -4 6 3 10 8 10 11 0 2 -4 4 -10 4 -5 0 -10
-5 -10 -11z"/>
<path d="M590 2030 c0 -5 5 -10 10 -10 6 0 10 5 10 10 0 6 -4 10 -10 10 -5 0
-10 -4 -10 -10z"/>
<path d="M2260 2020 c0 -5 5 -10 10 -10 6 0 10 5 10 10 0 6 -4 10 -10 10 -5 0
-10 -4 -10 -10z"/>
<path d="M2277 1983 c-4 -3 -7 -11 -7 -17 0 -6 5 -5 12 2 6 6 9 14 7 17 -3 3
-9 2 -12 -2z"/>
<path d="M2290 1950 c0 -5 7 -10 16 -10 8 0 12 5 9 10 -3 6 -10 10 -16 10 -5
0 -9 -4 -9 -10z"/>
<path d="M2508 1618 c5 -7 12 -24 15 -38 3 -18 5 -15 6 13 1 28 -3 37 -15 37
-12 0 -14 -3 -6 -12z"/>
<path d="M2475 1599 c-10 -15 3 -25 16 -12 7 7 7 13 1 17 -6 3 -14 1 -17 -5z"/>
<path d="M2246 1592 c-3 -6 -1 -14 5 -17 15 -10 25 3 12 16 -7 7 -13 7 -17 1z"/>
<path d="M2380 1530 c0 -6 7 -13 15 -16 22 -9 18 -21 -7 -29 -15 -4 -18 -8
-10 -12 34 -14 57 28 30 55 -15 15 -28 16 -28 2z"/>
<path d="M2510 1524 c0 -8 5 -12 10 -9 6 4 8 11 5 16 -9 14 -15 11 -15 -7z"/>
<path d="M2360 1504 c0 -8 5 -12 10 -9 6 3 10 10 10 16 0 5 -4 9 -10 9 -5 0
-10 -7 -10 -16z"/>
<path d="M2480 1491 c0 -6 5 -13 10 -16 6 -3 10 1 10 9 0 9 -4 16 -10 16 -5 0
-10 -4 -10 -9z"/>
<path d="M2460 1471 c0 -5 5 -13 10 -16 6 -3 10 -2 10 4 0 5 -4 13 -10 16 -5
3 -10 2 -10 -4z"/>
<path d="M2514 1472 c7 -12 -39 -36 -53 -28 -6 4 -16 -2 -23 -14 -7 -11 -16
-20 -21 -20 -4 0 -6 4 -3 9 3 5 -1 14 -9 21 -21 18 -21 -13 1 -34 21 -21 31
-20 39 4 8 26 21 26 28 -1 3 -12 10 -18 16 -14 6 3 11 -1 11 -9 0 -8 -9 -18
-20 -21 -11 -3 -20 -15 -20 -26 0 -10 -4 -19 -10 -19 -5 0 -10 -8 -10 -17 1
-17 2 -17 15 1 15 19 35 14 35 -10 0 -8 9 -14 20 -14 13 0 20 6 19 18 0 10 -3
12 -6 5 -7 -20 -23 -15 -23 6 0 11 -6 22 -12 25 -10 3 -8 9 5 19 19 16 22 38
6 54 -8 8 -5 17 10 32 23 23 27 41 10 41 -5 0 -8 -4 -5 -8z"/>
<path d="M2415 1460 c-3 -5 1 -10 10 -10 9 0 13 5 10 10 -3 6 -8 10 -10 10 -2
0 -7 -4 -10 -10z"/>
<path d="M885 1430 c3 -5 10 -10 16 -10 5 0 9 5 9 10 0 6 -7 10 -16 10 -8 0
-12 -4 -9 -10z"/>
<path d="M2515 1421 c-3 -5 -1 -12 5 -16 5 -3 10 1 10 9 0 18 -6 21 -15 7z"/>
<path d="M742 1411 c2 -7 7 -12 11 -12 12 1 9 15 -3 20 -7 2 -11 -2 -8 -8z"/>
<path d="M2365 1401 c-6 -11 9 -23 19 -14 9 9 7 23 -3 23 -6 0 -12 -4 -16 -9z"/>
<path d="M756 1367 c-28 -36 -33 -51 -15 -45 6 2 10 7 9 12 -2 9 39 46 51 46
5 0 6 -7 3 -15 -4 -8 -1 -15 5 -15 12 0 14 11 5 34 -10 25 -31 19 -58 -17z"/>
<path d="M946 1392 c-3 -6 -1 -14 5 -17 15 -10 25 3 12 16 -7 7 -13 7 -17 1z"/>
<path d="M2450 1384 c0 -8 5 -12 10 -9 6 4 8 11 5 16 -9 14 -15 11 -15 -7z"/>
<path d="M770 1340 c0 -5 7 -10 16 -10 8 0 12 5 9 10 -3 6 -10 10 -16 10 -5 0
-9 -4 -9 -10z"/>
<path d="M2505 1340 c3 -5 11 -10 16 -10 6 0 7 5 4 10 -3 6 -11 10 -16 10 -6
0 -7 -4 -4 -10z"/>
<path d="M626 1333 c-11 -11 -6 -23 9 -23 8 0 15 4 15 9 0 13 -16 22 -24 14z"/>
<path d="M711 1315 c0 -11 4 -27 9 -35 5 -8 10 -11 10 -6 0 4 11 1 25 -8 14
-9 25 -12 25 -7 0 5 -5 11 -11 13 -5 2 -7 11 -3 21 6 16 9 15 29 -7 13 -14 25
-31 28 -38 4 -8 6 -7 6 5 1 10 -6 20 -14 23 -8 4 -15 14 -15 23 0 21 -36 25
-44 5 -8 -21 -21 -17 -34 9 -10 20 -11 21 -11 2z"/>
<path d="M2360 1321 c0 -5 5 -13 10 -16 6 -3 10 -2 10 4 0 5 -4 13 -10 16 -5
3 -10 2 -10 -4z"/>
<path d="M980 1310 c0 -5 5 -10 10 -10 6 0 10 5 10 10 0 6 -4 10 -10 10 -5 0
-10 -4 -10 -10z"/>
<path d="M1050 1306 c0 -9 5 -16 10 -16 6 0 10 4 10 9 0 6 -4 13 -10 16 -5 3
-10 -1 -10 -9z"/>
<path d="M1026 1301 c-4 -7 -5 -15 -2 -18 9 -9 19 4 14 18 -4 11 -6 11 -12 0z"/>
<path d="M835 1290 c3 -5 8 -10 11 -10 2 0 4 5 4 10 0 6 -5 10 -11 10 -5 0 -7
-4 -4 -10z"/>
<path d="M2410 1288 c1 -53 69 -50 69 2 1 10 -6 7 -19 -10 l-20 -25 -6 23 c-7
23 -24 31 -24 10z"/>
<path d="M910 1280 c0 -5 5 -10 10 -10 6 0 10 5 10 10 0 6 -4 10 -10 10 -5 0
-10 -4 -10 -10z"/>
<path d="M990 1275 c0 -8 5 -15 10 -15 6 0 10 7 10 15 0 8 -4 15 -10 15 -5 0
-10 -7 -10 -15z"/>
<path d="M690 1269 c0 -5 5 -7 10 -4 6 3 10 8 10 11 0 2 -4 4 -10 4 -5 0 -10
-5 -10 -11z"/>
<path d="M883 1255 c12 -13 23 -20 25 -15 4 12 -22 40 -37 40 -5 0 0 -11 12
-25z"/>
<path d="M1105 1261 c-3 -5 -1 -12 5 -16 5 -3 10 1 10 9 0 18 -6 21 -15 7z"/>
<path d="M2505 1254 c19 -14 19 -16 3 -28 -10 -7 -18 -16 -18 -20 0 -10 28 -7
35 5 12 18 -4 59 -23 59 -15 -1 -15 -2 3 -16z"/>
<path d="M720 1250 c0 -5 7 -10 16 -10 8 0 13 -4 10 -8 -2 -4 -1 -14 5 -22 7
-13 9 -12 9 2 0 27 -11 48 -26 48 -8 0 -14 -4 -14 -10z"/>
<path d="M847 1254 c-4 -4 0 -16 10 -26 18 -20 33 -24 33 -8 0 6 -6 10 -14 10
-8 0 -16 7 -18 16 -2 9 -6 12 -11 8z"/>
<path d="M1186 1251 c-4 -7 -5 -15 -2 -18 9 -9 19 4 14 18 -4 11 -6 11 -12 0z"/>
<path d="M2387 1254 c-8 -8 1 -24 14 -24 5 0 9 7 9 15 0 15 -12 20 -23 9z"/>
<path d="M620 1240 c0 -5 5 -10 10 -10 6 0 10 5 10 10 0 6 -4 10 -10 10 -5 0
-10 -4 -10 -10z"/>
<path d="M785 1230 c-10 -11 -15 -23 -12 -27 7 -6 36 25 37 40 0 11 -6 8 -25
-13z"/>
<path d="M976 1241 c-4 -7 -5 -15 -2 -18 9 -9 19 4 14 18 -4 11 -6 11 -12 0z"/>
<path d="M1026 1231 c10 -10 23 -16 27 -14 5 3 0 11 -10 19 -27 20 -39 17 -17
-5z"/>
<path d="M2470 1234 c0 -8 5 -12 10 -9 6 3 10 10 10 16 0 5 -4 9 -10 9 -5 0
-10 -7 -10 -16z"/>
<path d="M695 1231 c-3 -5 -1 -12 5 -16 5 -3 10 1 10 9 0 18 -6 21 -15 7z"/>
<path d="M1315 1231 c-3 -5 -1 -12 5 -16 5 -3 10 1 10 9 0 18 -6 21 -15 7z"/>
<path d="M2240 1225 c0 -9 5 -15 11 -13 6 2 11 8 11 13 0 5 -5 11 -11 13 -6 2
-11 -4 -11 -13z"/>
<path d="M2415 1220 c-10 -11 -15 -23 -11 -27 4 -5 12 0 17 10 6 9 15 17 20
17 6 0 8 -4 5 -8 -7 -11 11 -38 20 -29 9 8 -12 57 -24 57 -5 0 -17 -9 -27 -20z"/>
<path d="M651 1214 c0 -11 3 -14 6 -6 3 7 2 16 -1 19 -3 4 -6 -2 -5 -13z"/>
<path d="M826 1221 c-4 -7 -5 -15 -2 -18 9 -9 19 4 14 18 -4 11 -6 11 -12 0z"/>
<path d="M993 1205 c-7 -8 -13 -19 -13 -26 0 -6 9 -1 19 12 l19 24 11 -27 c10
-27 31 -39 31 -18 0 6 -4 10 -9 10 -5 0 -13 9 -16 20 -7 23 -25 25 -42 5z"/>
<path d="M720 1200 c0 -5 5 -10 10 -10 6 0 10 5 10 10 0 6 -4 10 -10 10 -5 0
-10 -4 -10 -10z"/>
<path d="M900 1200 c0 -5 5 -10 10 -10 6 0 10 5 10 10 0 6 -4 10 -10 10 -5 0
-10 -4 -10 -10z"/>
<path d="M1060 1200 c-13 -8 -12 -10 3 -10 9 0 17 5 17 10 0 12 -1 12 -20 0z"/>
<path d="M1242 1201 c2 -7 7 -12 11 -12 12 1 9 15 -3 20 -7 2 -11 -2 -8 -8z"/>
<path d="M800 1190 c0 -5 5 -10 11 -10 5 0 7 5 4 10 -3 6 -8 10 -11 10 -2 0
-4 -4 -4 -10z"/>
<path d="M842 1180 c-18 -29 -15 -36 8 -15 20 18 21 18 35 -1 11 -13 14 -14
13 -4 -3 14 -27 39 -38 40 -3 0 -11 -9 -18 -20z"/>
<path d="M1140 1186 c0 -9 5 -16 10 -16 6 0 10 4 10 9 0 6 -4 13 -10 16 -5 3
-10 -1 -10 -9z"/>
<path d="M2525 1189 c-4 -6 -14 -8 -22 -5 -16 7 -43 -16 -43 -36 1 -8 6 -7 15
6 15 20 35 14 35 -10 0 -24 44 -13 48 11 2 18 2 18 -8 3 -15 -24 -30 -23 -30
2 0 11 7 20 15 20 8 0 15 5 15 10 0 13 -17 13 -25 -1z"/>
<path d="M755 1180 c-3 -5 -1 -10 4 -10 6 0 11 5 11 10 0 6 -2 10 -4 10 -3 0
-8 -4 -11 -10z"/>
<path d="M1090 1180 c0 -6 7 -10 15 -10 8 0 15 2 15 4 0 2 -7 6 -15 10 -8 3
-15 1 -15 -4z"/>
<path d="M1221 1180 c0 -8 3 -21 8 -29 11 -18 51 -5 51 17 -1 16 -2 16 -14 0
-17 -24 -25 -23 -36 5 -5 12 -9 15 -9 7z"/>
<path d="M2426 1181 c-3 -5 1 -11 9 -15 8 -3 15 -1 15 4 0 13 -18 22 -24 11z"/>
<path d="M914 1155 c-3 -14 -10 -25 -15 -25 -5 0 -9 -5 -9 -11 0 -17 18 -1 34
31 8 17 10 30 5 30 -5 0 -11 -11 -15 -25z"/>
<path d="M1290 1170 c0 -13 42 -51 49 -44 3 3 -2 11 -12 18 -9 7 -17 18 -17
25 0 6 -4 11 -10 11 -5 0 -10 -4 -10 -10z"/>
<path d="M2375 1170 c3 -5 10 -10 16 -10 5 0 9 5 9 10 0 6 -7 10 -16 10 -8 0
-12 -4 -9 -10z"/>
<path d="M780 1154 c0 -8 5 -12 10 -9 6 4 8 11 5 16 -9 14 -15 11 -15 -7z"/>
<path d="M811 1153 c-1 -14 7 -26 22 -33 19 -10 20 -9 6 2 -9 8 -19 22 -22 33
-4 18 -5 18 -6 -2z"/>
<path d="M1000 1160 c0 -5 5 -10 10 -10 6 0 10 5 10 10 0 6 -4 10 -10 10 -5 0
-10 -4 -10 -10z"/>
<path d="M1340 1161 c0 -6 7 -11 15 -11 17 0 20 -16 5 -25 -5 -3 -10 -12 -10
-18 0 -7 7 -4 15 7 7 10 18 15 24 11 16 -9 13 -25 -4 -25 -8 0 -15 -4 -15 -10
0 -14 23 -13 38 2 14 14 16 42 2 33 -5 -3 -10 0 -10 8 0 8 -8 17 -17 21 -10 3
-24 9 -30 12 -7 3 -13 1 -13 -5z"/>
<path d="M2275 1160 c-3 -5 1 -10 9 -10 9 0 16 5 16 10 0 6 -4 10 -9 10 -6 0
-13 -4 -16 -10z"/>
<path d="M2330 1159 c0 -5 5 -7 10 -4 6 3 10 8 10 11 0 2 -4 4 -10 4 -5 0 -10
-5 -10 -11z"/>
<path d="M960 1150 c0 -5 5 -10 10 -10 6 0 10 5 10 10 0 6 -4 10 -10 10 -5 0
-10 -4 -10 -10z"/>
<path d="M1070 1150 c0 -5 5 -10 10 -10 6 0 10 5 10 10 0 6 -4 10 -10 10 -5 0
-10 -4 -10 -10z"/>
<path d="M1116 1145 c-3 -8 -13 -15 -23 -15 -12 0 -9 -5 11 -15 15 -8 33 -15
40 -14 6 0 1 4 -12 10 -21 8 -22 10 -8 25 18 18 20 24 7 24 -5 0 -11 -7 -15
-15z"/>
<path d="M2356 1151 c-4 -5 -2 -12 3 -16 6 -3 8 -12 5 -19 -3 -8 3 -22 14 -32
11 -11 22 -26 25 -34 4 -11 6 -11 6 3 1 11 -9 27 -21 36 l-21 18 26 7 c15 3
27 11 27 16 0 6 5 10 11 10 5 0 8 -4 4 -9 -3 -5 4 -16 16 -24 12 -9 16 -18 10
-21 -5 -4 -14 2 -20 11 -8 14 -12 16 -22 6 -11 -11 -10 -13 4 -13 20 0 22 -11
5 -28 -9 -9 -6 -16 10 -30 12 -11 22 -27 22 -37 0 -10 7 -27 17 -37 14 -16 15
-18 0 -18 -9 0 -19 5 -22 10 -3 6 -14 10 -23 10 -13 -1 -12 -3 5 -13 16 -9 20
-16 13 -27 -14 -23 1 -33 17 -11 13 20 40 20 28 1 -3 -5 0 -12 5 -15 8 -5 9 5
4 30 -5 27 -3 40 7 46 7 4 10 12 5 16 -5 4 -11 2 -13 -4 -5 -13 -33 -19 -33
-7 0 3 10 15 23 26 l22 20 -22 -5 c-15 -4 -23 0 -23 9 0 8 -7 14 -15 14 -17 0
-20 16 -4 25 6 4 17 -1 24 -11 13 -17 14 -16 9 16 -4 19 -13 40 -20 46 -8 6
-14 16 -14 21 0 20 -37 21 -49 1 -6 -10 -16 -16 -21 -13 -6 4 -8 10 -5 15 3 5
1 11 -4 14 -5 4 -12 2 -15 -3z"/>
<path d="M860 1139 c0 -5 5 -7 10 -4 6 3 10 8 10 11 0 2 -4 4 -10 4 -5 0 -10
-5 -10 -11z"/>
<path d="M1023 1133 c-3 -10 -8 -21 -9 -24 -2 -4 3 -9 11 -12 9 -4 12 -1 8 9
-3 8 0 21 7 29 9 11 9 15 1 15 -6 0 -14 -8 -18 -17z"/>
<path d="M1195 1140 c-3 -5 -1 -10 4 -10 6 0 11 5 11 10 0 6 -2 10 -4 10 -3 0
-8 -4 -11 -10z"/>
<path d="M990 1131 c0 -6 -10 -16 -22 -21 -16 -6 -18 -9 -7 -9 19 -1 45 26 35
36 -3 3 -6 1 -6 -6z"/>
<path d="M1276 1131 c-4 -5 -2 -12 3 -15 5 -4 12 -2 15 3 4 5 2 12 -3 15 -5 4
-12 2 -15 -3z"/>
<path d="M2301 1131 c-7 -5 -12 -13 -10 -19 2 -6 14 -2 28 9 23 19 9 27 -18
10z"/>
<path d="M2480 1130 c0 -5 5 -10 10 -10 6 0 10 5 10 10 0 6 -4 10 -10 10 -5 0
-10 -4 -10 -10z"/>
<path d="M1050 1120 c0 -5 5 -10 10 -10 6 0 10 5 10 10 0 6 -4 10 -10 10 -5 0
-10 -4 -10 -10z"/>
<path d="M1223 1114 c-7 -7 -13 -19 -13 -26 1 -8 7 -5 16 7 13 17 16 18 24 5
5 -8 10 -17 10 -20 0 -10 40 -9 40 1 0 5 10 14 23 19 21 8 21 9 2 9 -12 1 -27
-5 -33 -11 -8 -8 -15 -9 -20 -3 -18 26 -37 33 -49 19z"/>
<path d="M2560 1120 c0 -5 5 -10 10 -10 6 0 10 5 10 10 0 6 -4 10 -10 10 -5 0
-10 -4 -10 -10z"/>
<path d="M2330 1111 c0 -6 5 -13 10 -16 6 -3 10 1 10 9 0 9 -4 16 -10 16 -5 0
-10 -4 -10 -9z"/>
<path d="M2523 1106 c21 -16 22 -36 2 -36 -8 0 -15 -4 -15 -10 0 -15 19 -12
36 4 19 20 18 33 -5 46 -28 14 -39 12 -18 -4z"/>
<path d="M910 1101 c0 -6 5 -13 10 -16 6 -3 10 1 10 9 0 9 -4 16 -10 16 -5 0
-10 -4 -10 -9z"/>
<path d="M1080 1105 c0 -3 9 -15 20 -27 14 -16 20 -18 20 -7 0 8 -9 20 -20 27
-11 7 -20 10 -20 7z"/>
<path d="M1480 1100 c0 -5 5 -10 10 -10 6 0 10 5 10 10 0 6 -4 10 -10 10 -5 0
-10 -4 -10 -10z"/>
<path d="M2060 1100 c0 -5 5 -10 10 -10 6 0 10 5 10 10 0 6 -4 10 -10 10 -5 0
-10 -4 -10 -10z"/>
<path d="M2140 1095 c0 -8 5 -15 11 -15 5 0 7 -4 4 -10 -9 -14 29 -12 43 2 15
15 16 28 2 28 -5 0 -10 -7 -10 -15 0 -22 -21 -18 -27 5 -6 23 -23 27 -23 5z"/>
<path d="M2582 1094 c-8 -8 -11 -22 -8 -30 3 -8 -1 -14 -9 -14 -8 0 -15 -4
-15 -10 0 -14 13 -13 28 2 16 16 23 6 32 -43 6 -31 4 -46 -6 -56 -16 -17 -18
-33 -4 -33 6 0 11 8 11 18 1 9 9 -21 18 -67 9 -47 22 -86 27 -88 11 -4 11 20
1 47 -3 8 -8 58 -10 110 -3 56 -9 96 -16 98 -6 2 -11 10 -11 18 0 8 -10 14
-21 14 -18 0 -19 3 -9 15 16 19 9 37 -8 19z"/>
<path d="M1560 1090 c0 -5 5 -10 10 -10 6 0 10 5 10 10 0 6 -4 10 -10 10 -5 0
-10 -4 -10 -10z"/>
<path d="M2000 1085 c-7 -9 -9 -19 -5 -23 4 -4 10 -1 12 6 6 17 33 15 33 -3 0
-8 -3 -14 -7 -14 -21 3 -34 -2 -28 -11 4 -6 -7 -23 -24 -39 -31 -29 -31 -29
-12 -52 11 -13 23 -20 28 -16 4 5 0 13 -10 18 -23 13 -22 26 3 34 11 3 20 15
20 26 0 11 11 24 24 30 14 7 23 18 21 28 -2 9 -4 19 -4 24 -2 13 -38 7 -51 -8z"/>
<path d="M2310 1090 c0 -5 5 -10 11 -10 5 0 7 5 4 10 -3 6 -8 10 -11 10 -2 0
-4 -4 -4 -10z"/>
<path d="M2490 1084 c0 -8 5 -12 10 -9 6 3 10 10 10 16 0 5 -4 9 -10 9 -5 0
-10 -7 -10 -16z"/>
<path d="M945 1080 c-3 -5 -1 -10 4 -10 6 0 11 5 11 10 0 6 -2 10 -4 10 -3 0
-8 -4 -11 -10z"/>
<path d="M1330 1080 c0 -5 5 -10 10 -10 6 0 10 5 10 10 0 6 -4 10 -10 10 -5 0
-10 -4 -10 -10z"/>
<path d="M1910 1080 c0 -5 4 -10 9 -10 6 0 13 5 16 10 3 6 -1 10 -9 10 -9 0
-16 -4 -16 -10z"/>
<path d="M2265 1080 c-3 -5 1 -10 10 -10 9 0 13 5 10 10 -3 6 -8 10 -10 10 -2
0 -7 -4 -10 -10z"/>
<path d="M1060 1069 c0 -5 5 -7 10 -4 6 3 10 8 10 11 0 2 -4 4 -10 4 -5 0 -10
-5 -10 -11z"/>
<path d="M1230 1070 c0 -5 5 -10 10 -10 6 0 10 5 10 10 0 6 -4 10 -10 10 -5 0
-10 -4 -10 -10z"/>
<path d="M1410 1070 c0 -5 7 -10 16 -10 8 0 12 5 9 10 -3 6 -10 10 -16 10 -5
0 -9 -4 -9 -10z"/>
<path d="M2345 1070 c-3 -5 -1 -10 4 -10 6 0 11 5 11 10 0 6 -2 10 -4 10 -3 0
-8 -4 -11 -10z"/>
<path d="M1011 1048 c-14 -23 -14 -23 8 -4 22 20 25 26 13 26 -4 0 -13 -10
-21 -22z"/>
<path d="M1185 1060 c3 -5 8 -10 11 -10 2 0 4 5 4 10 0 6 -5 10 -11 10 -5 0
-7 -4 -4 -10z"/>
<path d="M1352 1049 c-7 -12 -11 -23 -9 -26 3 -3 11 5 17 18 l12 22 19 -24
c16 -20 18 -20 12 -4 -6 19 -21 34 -33 35 -3 0 -11 -9 -18 -21z"/>
<path d="M2120 1056 c0 -9 5 -16 10 -16 6 0 10 4 10 9 0 6 -4 13 -10 16 -5 3
-10 -1 -10 -9z"/>
<path d="M2243 1056 c4 -10 7 -22 7 -27 0 -15 40 -10 46 6 4 8 13 15 22 15 8
0 12 -3 9 -7 -4 -3 0 -14 9 -24 15 -16 14 -19 -5 -31 -12 -7 -21 -18 -21 -24
0 -15 29 -39 37 -30 4 3 -2 13 -13 21 -19 14 -19 15 3 21 21 6 40 44 22 44 -5
0 -14 11 -20 24 -13 27 -36 28 -54 3 -15 -21 -25 -22 -25 -3 0 8 -5 18 -12 22
-8 5 -9 2 -5 -10z"/>
<path d="M1080 1050 c0 -5 5 -10 10 -10 6 0 10 5 10 10 0 6 -4 10 -10 10 -5 0
-10 -4 -10 -10z"/>
<path d="M1265 1050 c-3 -5 -1 -10 4 -10 6 0 11 5 11 10 0 6 -2 10 -4 10 -3 0
-8 -4 -11 -10z"/>
<path d="M1660 1050 c0 -5 7 -10 16 -10 8 0 12 5 9 10 -3 6 -10 10 -16 10 -5
0 -9 -4 -9 -10z"/>
<path d="M1198 1025 c-16 -13 -28 -32 -27 -42 0 -13 2 -14 6 -4 3 8 18 24 32
37 14 12 24 25 21 27 -3 3 -17 -5 -32 -18z"/>
<path d="M1618 1038 c9 -9 15 -9 24 0 9 9 7 12 -12 12 -19 0 -21 -3 -12 -12z"/>
<path d="M2365 1040 c-3 -5 -2 -10 4 -10 5 0 13 5 16 10 3 6 2 10 -4 10 -5 0
-13 -4 -16 -10z"/>
<path d="M1115 1030 c-3 -5 1 -10 10 -10 9 0 13 5 10 10 -3 6 -8 10 -10 10 -2
0 -7 -4 -10 -10z"/>
<path d="M1240 1025 c0 -8 4 -15 10 -15 5 0 7 7 4 15 -4 8 -8 15 -10 15 -2 0
-4 -7 -4 -15z"/>
<path d="M2145 1029 c-4 -6 -17 -14 -29 -19 l-21 -9 22 0 c13 -1 27 8 33 19
11 21 6 28 -5 9z"/>
<path d="M2520 1020 c11 -11 20 -25 20 -31 0 -5 5 -7 10 -4 20 13 9 -7 -17
-30 -16 -13 -22 -25 -15 -25 6 0 12 5 12 10 0 16 22 12 37 -7 12 -16 13 -14 7
20 -5 30 -3 41 11 51 13 9 15 15 6 20 -6 4 -14 0 -17 -8 -3 -9 -13 -16 -22
-16 -8 0 -12 3 -9 7 9 9 -12 33 -29 33 -10 0 -8 -6 6 -20z"/>
<path d="M1065 1020 c3 -5 8 -10 11 -10 2 0 4 5 4 10 0 6 -5 10 -11 10 -5 0
-7 -4 -4 -10z"/>
<path d="M1277 1010 c-9 -11 -13 -20 -8 -20 11 0 35 29 29 35 -2 2 -12 -4 -21
-15z"/>
<path d="M1470 1020 c0 -5 5 -10 10 -10 6 0 10 -7 10 -15 0 -8 -7 -15 -15 -15
-8 0 -15 -4 -15 -10 0 -13 20 -9 37 7 17 15 16 21 -1 39 -17 16 -26 18 -26 4z"/>
<path d="M1594 1014 c3 -9 6 -18 6 -20 0 -9 37 -3 48 8 19 19 14 33 -6 15 -23
-21 -32 -21 -32 -2 0 8 -5 15 -11 15 -6 0 -8 -7 -5 -16z"/>
<path d="M1942 1018 c2 -6 10 -14 16 -16 7 -2 10 2 6 12 -7 18 -28 22 -22 4z"/>
<path d="M2220 1020 c0 -5 5 -10 10 -10 6 0 10 5 10 10 0 6 -4 10 -10 10 -5 0
-10 -4 -10 -10z"/>
<path d="M2400 1020 c0 -5 7 -10 15 -10 17 0 20 -16 4 -25 -6 -4 -17 1 -24 11
-11 15 -14 16 -15 4 0 -30 16 -43 39 -31 24 13 27 31 9 49 -15 15 -28 16 -28
2z"/>
<path d="M1090 1004 c0 -8 5 -12 10 -9 6 4 8 11 5 16 -9 14 -15 11 -15 -7z"/>
<path d="M2020 1010 c0 -5 9 -19 21 -31 20 -20 21 -20 34 -2 17 22 19 33 5 33
-5 0 -10 -7 -10 -15 0 -22 -21 -18 -27 5 -5 20 -23 28 -23 10z"/>
<path d="M2300 1005 c0 -18 -12 -19 -27 -4 -13 13 -43 -10 -43 -33 1 -9 5 -7
14 5 7 9 18 17 25 17 6 0 11 -8 11 -17 0 -15 4 -13 20 7 22 28 25 40 10 40 -5
0 -10 -7 -10 -15z"/>
<path d="M1320 1005 c0 -3 9 -14 20 -25 13 -13 20 -15 20 -7 0 7 -5 18 -12 25
-12 12 -28 16 -28 7z"/>
<path d="M1440 1000 c0 -5 5 -10 10 -10 6 0 10 5 10 10 0 6 -4 10 -10 10 -5 0
-10 -4 -10 -10z"/>
<path d="M1715 1000 c3 -5 10 -10 16 -10 5 0 9 5 9 10 0 6 -7 10 -16 10 -8 0
-12 -4 -9 -10z"/>
<path d="M1800 994 c0 -8 5 -12 10 -9 6 4 8 11 5 16 -9 14 -15 11 -15 -7z"/>
<path d="M1884 993 c-15 -16 -15 -17 2 -24 11 -4 15 -8 9 -8 -5 -1 -4 -5 4
-10 16 -10 41 9 41 31 -1 9 -5 7 -14 -5 -12 -15 -15 -15 -26 -2 -10 12 -10 15
3 15 9 0 19 5 22 10 10 17 -22 11 -41 -7z"/>
<path d="M1400 990 c0 -5 4 -10 9 -10 6 0 13 5 16 10 3 6 -1 10 -9 10 -9 0
-16 -4 -16 -10z"/>
<path d="M2150 990 c0 -5 5 -10 10 -10 6 0 10 5 10 10 0 6 -4 10 -10 10 -5 0
-10 -4 -10 -10z"/>
<path d="M1120 980 c0 -5 5 -10 11 -10 5 0 7 5 4 10 -3 6 -8 10 -11 10 -2 0
-4 -4 -4 -10z"/>
<path d="M1300 980 c0 -5 5 -10 11 -10 5 0 7 5 4 10 -3 6 -8 10 -11 10 -2 0
-4 -4 -4 -10z"/>
<path d="M1570 980 c0 -5 5 -10 10 -10 6 0 10 5 10 10 0 6 -4 10 -10 10 -5 0
-10 -4 -10 -10z"/>
<path d="M2113 976 c9 -7 17 -19 17 -27 0 -10 3 -10 12 -1 9 9 8 15 -8 27 -10
8 -23 14 -29 14 -5 0 -2 -6 8 -13z"/>
<path d="M1250 970 c0 -5 7 -10 16 -10 8 0 13 -4 9 -9 -3 -5 -1 -12 5 -16 14
-9 13 18 -2 33 -15 15 -28 16 -28 2z"/>
<path d="M1378 969 c-4 -9 1 -20 13 -28 16 -9 23 -9 36 4 8 9 12 19 8 23 -4 4
-10 1 -12 -5 -7 -19 -31 -16 -35 5 -3 15 -4 15 -10 1z"/>
<path d="M1650 970 c0 -5 5 -10 10 -10 6 0 10 5 10 10 0 6 -4 10 -10 10 -5 0
-10 -4 -10 -10z"/>
<path d="M2005 970 c-3 -5 -1 -10 4 -10 6 0 11 5 11 10 0 6 -2 10 -4 10 -3 0
-8 -4 -11 -10z"/>
<path d="M2580 970 c0 -5 5 -10 10 -10 6 0 10 5 10 10 0 6 -4 10 -10 10 -5 0
-10 -4 -10 -10z"/>
<path d="M1150 960 c0 -5 5 -10 11 -10 5 0 7 5 4 10 -3 6 -8 10 -11 10 -2 0
-4 -4 -4 -10z"/>
<path d="M1611 958 c8 -7 19 -19 26 -27 10 -12 11 -12 10 0 -4 24 -17 39 -35
39 -14 0 -14 -2 -1 -12z"/>
<path d="M2085 960 c-3 -5 -1 -10 4 -10 6 0 11 5 11 10 0 6 -2 10 -4 10 -3 0
-8 -4 -11 -10z"/>
<path d="M2172 958 c-7 -7 -12 -17 -12 -22 0 -6 6 -4 13 5 7 9 19 18 27 22 13
5 13 6 0 6 -9 1 -21 -4 -28 -11z"/>
<path d="M1315 950 c-3 -5 -2 -10 4 -10 5 0 13 5 16 10 3 6 2 10 -4 10 -5 0
-13 -4 -16 -10z"/>
<path d="M1500 950 c0 -5 5 -10 10 -10 6 0 10 5 10 10 0 6 -4 10 -10 10 -5 0
-10 -4 -10 -10z"/>
<path d="M1670 941 c-13 -26 -13 -41 1 -18 6 10 20 22 32 27 l22 9 -22 0 c-12
1 -27 -8 -33 -18z"/>
<path d="M1855 950 c-3 -5 -1 -10 4 -10 6 0 11 5 11 10 0 6 -2 10 -4 10 -3 0
-8 -4 -11 -10z"/>
<path d="M2250 950 c0 -5 5 -10 10 -10 6 0 10 5 10 10 0 6 -4 10 -10 10 -5 0
-10 -4 -10 -10z"/>
<path d="M1215 929 c-4 -11 -4 -23 -1 -26 3 -4 6 1 6 10 0 10 5 17 10 17 6 0
10 5 10 10 0 18 -19 10 -25 -11z"/>
<path d="M1461 938 c8 -7 19 -19 26 -27 10 -11 11 -11 9 3 -2 18 -23 36 -40
36 -6 0 -3 -6 5 -12z"/>
<path d="M1580 940 c0 -5 5 -10 10 -10 6 0 10 5 10 10 0 6 -4 10 -10 10 -5 0
-10 -4 -10 -10z"/>
<path d="M2022 938 c-7 -7 -12 -17 -12 -22 0 -6 6 -4 13 5 7 9 21 19 32 22 19
5 19 5 0 6 -12 0 -26 -4 -33 -11z"/>
<path d="M2210 940 c0 -5 5 -10 10 -10 6 0 10 5 10 10 0 6 -4 10 -10 10 -5 0
-10 -4 -10 -10z"/>
<path d="M2381 934 c-7 -8 -11 -17 -8 -20 2 -2 10 3 17 11 12 15 15 14 26 -7
9 -15 13 -18 14 -7 0 15 -18 39 -29 39 -4 -1 -12 -8 -20 -16z"/>
<path d="M1170 929 c0 -5 5 -7 10 -4 6 3 10 8 10 11 0 2 -4 4 -10 4 -5 0 -10
-5 -10 -11z"/>
<path d="M1341 924 c-18 -21 -6 -30 14 -11 8 9 15 18 15 21 0 11 -15 5 -29
-10z"/>
<path d="M1520 920 c-6 -12 -9 -24 -7 -27 3 -2 11 5 17 17 6 12 9 24 7 27 -3
2 -11 -5 -17 -17z"/>
<path d="M1710 926 c0 -9 5 -16 10 -16 6 0 10 4 10 9 0 6 -4 13 -10 16 -5 3
-10 -1 -10 -9z"/>
<path d="M1745 930 c3 -5 10 -10 16 -10 5 0 9 5 9 10 0 6 -7 10 -16 10 -8 0
-12 -4 -9 -10z"/>
<path d="M1830 926 c0 -9 5 -16 10 -16 6 0 10 4 10 9 0 6 -4 13 -10 16 -5 3
-10 -1 -10 -9z"/>
<path d="M2105 930 c-3 -5 -1 -10 4 -10 6 0 11 5 11 10 0 6 -2 10 -4 10 -3 0
-8 -4 -11 -10z"/>
<path d="M2290 930 c0 -5 5 -10 10 -10 6 0 10 5 10 10 0 6 -4 10 -10 10 -5 0
-10 -4 -10 -10z"/>
<path d="M1250 920 c0 -5 5 -10 10 -10 6 0 10 5 10 10 0 6 -4 10 -10 10 -5 0
-10 -4 -10 -10z"/>
<path d="M1435 920 c-3 -5 -1 -10 4 -10 6 0 11 5 11 10 0 6 -2 10 -4 10 -3 0
-8 -4 -11 -10z"/>
<path d="M1873 916 c-4 -7 -15 -16 -23 -19 -10 -4 -8 -6 7 -6 12 -1 26 7 32
17 9 16 11 16 26 -3 15 -18 16 -18 11 -2 -3 10 -6 21 -6 23 0 10 -40 2 -47
-10z"/>
<path d="M2065 920 c3 -5 8 -10 11 -10 2 0 4 5 4 10 0 6 -5 10 -11 10 -5 0 -7
-4 -4 -10z"/>
<path d="M2180 920 c0 -6 7 -10 15 -10 8 0 15 2 15 4 0 2 -7 6 -15 10 -8 3
-15 1 -15 -4z"/>
<path d="M2232 910 c-7 -11 -8 -20 -3 -20 9 0 24 30 18 36 -1 2 -8 -6 -15 -16z"/>
<path d="M1368 899 c-10 -10 -15 -19 -10 -19 10 1 42 26 42 34 0 11 -15 5 -32
-15z"/>
<path d="M1412 900 c0 -14 2 -19 5 -12 2 6 2 18 0 25 -3 6 -5 1 -5 -13z"/>
<path d="M1560 910 c0 -5 5 -10 11 -10 5 0 7 5 4 10 -3 6 -8 10 -11 10 -2 0
-4 -4 -4 -10z"/>
<path d="M1771 911 c-9 -6 -11 -15 -6 -27 8 -17 9 -17 12 4 3 12 8 20 13 17 5
-3 11 -1 15 5 8 12 -15 13 -34 1z"/>
<path d="M1955 910 c-3 -5 -2 -10 4 -10 5 0 13 5 16 10 3 6 2 10 -4 10 -5 0
-13 -4 -16 -10z"/>
<path d="M2136 904 c-3 -8 -10 -12 -16 -9 -16 10 -12 0 10 -25 20 -23 21 -23
35 -4 8 10 14 24 14 29 0 6 -4 2 -10 -7 -12 -22 -29 -23 -29 -3 0 8 5 15 10
15 6 0 10 5 10 10 0 16 -17 12 -24 -6z"/>
<path d="M2267 900 c3 -11 9 -20 13 -20 5 0 6 9 3 20 -3 11 -9 20 -13 20 -5 0
-6 -9 -3 -20z"/>
<path d="M2312 908 c-7 -7 -12 -19 -12 -27 0 -11 5 -8 16 7 18 25 15 39 -4 20z"/>
<path d="M2340 903 c0 -12 8 -26 18 -32 16 -9 15 -11 -5 -31 -13 -11 -23 -25
-23 -31 0 -5 14 4 31 22 25 26 28 33 16 42 -8 7 -19 21 -25 32 -11 20 -11 19
-12 -2z"/>
<path d="M2530 910 c0 -5 4 -10 9 -10 6 0 13 5 16 10 3 6 -1 10 -9 10 -9 0
-16 -4 -16 -10z"/>
<path d="M1280 900 c0 -5 5 -10 10 -10 6 0 10 5 10 10 0 6 -4 10 -10 10 -5 0
-10 -4 -10 -10z"/>
<path d="M1685 900 c3 -5 8 -10 11 -10 2 0 4 5 4 10 0 6 -5 10 -11 10 -5 0 -7
-4 -4 -10z"/>
<path d="M1721 890 c-17 -15 -19 -20 -7 -20 8 0 20 9 26 20 13 25 11 25 -19 0z"/>
<path d="M2035 900 c-3 -5 -1 -10 4 -10 6 0 11 5 11 10 0 6 -2 10 -4 10 -3 0
-8 -4 -11 -10z"/>
<path d="M1640 889 c0 -5 5 -7 10 -4 6 3 10 8 10 11 0 2 -4 4 -10 4 -5 0 -10
-5 -10 -11z"/>
<path d="M1990 890 c0 -5 5 -10 11 -10 5 0 7 5 4 10 -3 6 -8 10 -11 10 -2 0
-4 -4 -4 -10z"/>
<path d="M2390 889 c0 -5 5 -7 10 -4 6 3 10 8 10 11 0 2 -4 4 -10 4 -5 0 -10
-5 -10 -11z"/>
<path d="M2570 890 c0 -5 5 -10 10 -10 6 0 10 5 10 10 0 6 -4 10 -10 10 -5 0
-10 -4 -10 -10z"/>
<path d="M1305 880 c-3 -5 -1 -10 4 -10 6 0 11 5 11 10 0 6 -2 10 -4 10 -3 0
-8 -4 -11 -10z"/>
<path d="M2201 878 c-1 -10 9 -22 22 -28 19 -9 20 -9 6 2 -9 7 -18 20 -22 28
-4 12 -6 12 -6 -2z"/>
<path d="M2470 880 c0 -5 5 -10 10 -10 6 0 10 5 10 10 0 6 -4 10 -10 10 -5 0
-10 -4 -10 -10z"/>
<path d="M2516 875 c-3 -8 -12 -15 -21 -15 -8 0 -15 -9 -15 -20 0 -11 5 -20
10 -20 6 0 15 -10 20 -22 9 -23 9 -23 9 -2 1 12 -6 24 -14 28 -21 8 -19 23 5
29 11 3 20 12 20 21 0 20 -6 21 -14 1z"/>
<path d="M2551 874 c0 -11 3 -14 6 -6 3 7 2 16 -1 19 -3 4 -6 -2 -5 -13z"/>
<path d="M1648 859 c-10 -10 -13 -19 -7 -19 11 0 39 24 39 34 0 11 -15 4 -32
-15z"/>
<path d="M1840 870 c0 -5 6 -10 14 -10 8 0 17 -8 19 -17 4 -17 5 -17 6 -1 0
10 -8 22 -19 28 -14 7 -20 7 -20 0z"/>
<path d="M1971 864 c0 -11 3 -14 6 -6 3 7 2 16 -1 19 -3 4 -6 -2 -5 -13z"/>
<path d="M2021 864 c0 -11 3 -14 6 -6 3 7 2 16 -1 19 -3 4 -6 -2 -5 -13z"/>
<path d="M2240 870 c0 -5 5 -10 10 -10 6 0 10 5 10 10 0 6 -4 10 -10 10 -5 0
-10 -4 -10 -10z"/>
<path d="M2420 870 c0 -5 7 -10 15 -10 8 0 15 -8 15 -17 0 -15 2 -15 9 -4 6 9
4 19 -4 28 -16 15 -35 17 -35 3z"/>
<path d="M1560 860 c-8 -5 -10 -10 -5 -10 6 0 17 5 25 10 8 5 11 10 5 10 -5 0
-17 -5 -25 -10z"/>
<path d="M1745 860 c-3 -5 -1 -10 4 -10 6 0 11 5 11 10 0 6 -2 10 -4 10 -3 0
-8 -4 -11 -10z"/>
<path d="M2047 856 c-3 -8 0 -17 7 -19 10 -4 12 1 9 14 -6 23 -9 24 -16 5z"/>
<path d="M2320 860 c0 -5 5 -10 10 -10 6 0 10 5 10 10 0 6 -4 10 -10 10 -5 0
-10 -4 -10 -10z"/>
<path d="M2400 849 c0 -11 4 -18 10 -14 5 3 7 12 3 20 -7 21 -13 19 -13 -6z"/>
<path d="M1350 856 c0 -2 7 -9 15 -16 9 -7 15 -8 15 -2 0 5 -7 12 -15 16 -8 3
-15 4 -15 2z"/>
<path d="M1695 850 c3 -5 8 -10 11 -10 2 0 4 5 4 10 0 6 -5 10 -11 10 -5 0 -7
-4 -4 -10z"/>
<path d="M2100 849 c0 -5 5 -7 10 -4 6 3 10 8 10 11 0 2 -4 4 -10 4 -5 0 -10
-5 -10 -11z"/>
<path d="M2283 846 c21 -16 22 -36 2 -36 -8 0 -15 -4 -15 -10 0 -5 5 -10 11
-10 11 0 39 25 39 35 0 12 -28 35 -42 35 -9 -1 -7 -5 5 -14z"/>
<path d="M1415 840 c-3 -5 1 -10 9 -10 9 0 16 5 16 10 0 6 -4 10 -9 10 -6 0
-13 -4 -16 -10z"/>
<path d="M1595 840 c-3 -5 -1 -10 4 -10 6 0 11 5 11 10 0 6 -2 10 -4 10 -3 0
-8 -4 -11 -10z"/>
<path d="M1820 839 c0 -5 5 -7 10 -4 6 3 10 8 10 11 0 2 -4 4 -10 4 -5 0 -10
-5 -10 -11z"/>
<path d="M1995 840 c-3 -5 -1 -10 4 -10 6 0 11 5 11 10 0 6 -2 10 -4 10 -3 0
-8 -4 -11 -10z"/>
<path d="M2175 840 c-3 -5 -1 -10 4 -10 6 0 11 5 11 10 0 6 -2 10 -4 10 -3 0
-8 -4 -11 -10z"/>
<path d="M2525 841 c-3 -5 -1 -12 5 -16 5 -3 10 1 10 9 0 18 -6 21 -15 7z"/>
<path d="M2560 846 c0 -2 7 -6 15 -10 8 -3 15 -1 15 4 0 6 -7 10 -15 10 -8 0
-15 -2 -15 -4z"/>
<path d="M1675 830 c-3 -5 -1 -10 4 -10 6 0 11 5 11 10 0 6 -2 10 -4 10 -3 0
-8 -4 -11 -10z"/>
<path d="M1720 829 c0 -5 5 -7 10 -4 6 3 10 8 10 11 0 2 -4 4 -10 4 -5 0 -10
-5 -10 -11z"/>
<path d="M2130 835 c0 -3 9 -15 20 -27 14 -16 20 -18 20 -7 0 8 -9 20 -20 27
-11 7 -20 10 -20 7z"/>
<path d="M2257 833 c-4 -3 -7 -11 -7 -17 0 -6 5 -5 12 2 6 6 9 14 7 17 -3 3
-9 2 -12 -2z"/>
<path d="M1445 820 c-3 -5 -1 -10 4 -10 6 0 11 5 11 10 0 6 -2 10 -4 10 -3 0
-8 -4 -11 -10z"/>
<path d="M1625 820 c-3 -5 -1 -10 4 -10 6 0 11 5 11 10 0 6 -2 10 -4 10 -3 0
-8 -4 -11 -10z"/>
<path d="M1845 820 c-3 -5 -1 -10 4 -10 6 0 11 5 11 10 0 6 -2 10 -4 10 -3 0
-8 -4 -11 -10z"/>
<path d="M2025 820 c-3 -5 -1 -10 4 -10 6 0 11 5 11 10 0 6 -2 10 -4 10 -3 0
-8 -4 -11 -10z"/>
<path d="M2197 812 c-19 -21 -22 -32 -7 -32 6 0 10 6 10 13 0 8 10 19 23 25
15 7 17 11 6 11 -9 1 -23 -7 -32 -17z"/>
<path d="M2381 814 c0 -11 3 -14 6 -6 3 7 2 16 -1 19 -3 4 -6 -2 -5 -13z"/>
<path d="M2425 820 c3 -5 8 -10 11 -10 2 0 4 5 4 10 0 6 -5 10 -11 10 -5 0 -7
-4 -4 -10z"/>
<path d="M1570 810 c0 -5 5 -10 10 -10 6 0 10 5 10 10 0 6 -4 10 -10 10 -5 0
-10 -4 -10 -10z"/>
<path d="M1750 809 c0 -5 5 -7 10 -4 6 3 10 8 10 11 0 2 -4 4 -10 4 -5 0 -10
-5 -10 -11z"/>
<path d="M1920 810 c0 -5 5 -10 11 -10 5 0 7 5 4 10 -3 6 -8 10 -11 10 -2 0
-4 -4 -4 -10z"/>
<path d="M2105 810 c-3 -5 -1 -10 4 -10 6 0 11 5 11 10 0 6 -2 10 -4 10 -3 0
-8 -4 -11 -10z"/>
<path d="M1525 800 c3 -5 8 -10 11 -10 2 0 4 5 4 10 0 6 -5 10 -11 10 -5 0 -7
-4 -4 -10z"/>
<path d="M1695 800 c-8 -13 5 -13 25 0 13 8 13 10 -2 10 -9 0 -20 -4 -23 -10z"/>
<path d="M2460 799 c0 -5 5 -7 10 -4 6 3 10 8 10 11 0 2 -4 4 -10 4 -5 0 -10
-5 -10 -11z"/>
<path d="M1655 790 c3 -5 8 -10 11 -10 2 0 4 5 4 10 0 6 -5 10 -11 10 -5 0 -7
-4 -4 -10z"/>
<path d="M2230 790 c0 -5 5 -10 10 -10 6 0 10 5 10 10 0 6 -4 10 -10 10 -5 0
-10 -4 -10 -10z"/>
<path d="M2355 790 c3 -5 11 -10 16 -10 6 0 7 5 4 10 -3 6 -11 10 -16 10 -6 0
-7 -4 -4 -10z"/>
<path d="M2402 780 c-18 -29 -15 -38 4 -12 9 13 14 25 12 27 -2 2 -9 -5 -16
-15z"/>
<path d="M2535 790 c-3 -5 -1 -10 4 -10 6 0 11 5 11 10 0 6 -2 10 -4 10 -3 0
-8 -4 -11 -10z"/>
<path d="M2591 784 c0 -11 3 -14 6 -6 3 7 2 16 -1 19 -3 4 -6 -2 -5 -13z"/>
<path d="M1730 780 c0 -5 5 -10 11 -10 5 0 7 5 4 10 -3 6 -8 10 -11 10 -2 0
-4 -4 -4 -10z"/>
<path d="M1905 780 c-3 -5 -1 -10 4 -10 6 0 11 5 11 10 0 6 -2 10 -4 10 -3 0
-8 -4 -11 -10z"/>
<path d="M2130 779 c0 -5 5 -7 10 -4 6 3 10 8 10 11 0 2 -4 4 -10 4 -5 0 -10
-5 -10 -11z"/>
<path d="M2310 780 c0 -5 5 -10 10 -10 6 0 10 5 10 10 0 6 -4 10 -10 10 -5 0
-10 -4 -10 -10z"/>
<path d="M2436 777 c3 -10 9 -15 12 -12 3 3 0 11 -7 18 -10 9 -11 8 -5 -6z"/>
<path d="M2480 776 c0 -8 -6 -16 -12 -19 -7 -2 -10 -8 -5 -12 4 -5 14 0 22 11
17 23 19 34 5 34 -5 0 -10 -6 -10 -14z"/>
<path d="M2085 770 c3 -5 8 -10 11 -10 2 0 4 5 4 10 0 6 -5 10 -11 10 -5 0 -7
-4 -4 -10z"/>
<path d="M2205 770 c-3 -5 1 -10 10 -10 9 0 13 5 10 10 -3 6 -8 10 -10 10 -2
0 -7 -4 -10 -10z"/>
<path d="M2251 759 c-7 -12 -10 -23 -8 -26 3 -3 11 5 17 17 15 28 8 35 -9 9z"/>
<path d="M2615 770 c-3 -5 -1 -10 4 -10 6 0 11 5 11 10 0 6 -2 10 -4 10 -3 0
-8 -4 -11 -10z"/>
<path d="M1800 760 c0 -5 4 -10 9 -10 6 0 13 5 16 10 3 6 -1 10 -9 10 -9 0
-16 -4 -16 -10z"/>
<path d="M1975 760 c-3 -5 -2 -10 4 -10 5 0 13 5 16 10 3 6 2 10 -4 10 -5 0
-13 -4 -16 -10z"/>
<path d="M2160 760 c0 -5 5 -10 10 -10 6 0 10 5 10 10 0 6 -4 10 -10 10 -5 0
-10 -4 -10 -10z"/>
<path d="M2290 750 c6 -11 12 -20 14 -20 2 0 2 9 -1 20 -3 11 -9 20 -15 20 -5
0 -4 -9 2 -20z"/>
<path d="M2331 752 c-17 -31 -13 -40 5 -14 9 13 14 26 11 29 -3 2 -10 -4 -16
-15z"/>
<path d="M2515 760 c-3 -5 -1 -10 4 -10 6 0 11 5 11 10 0 6 -2 10 -4 10 -3 0
-8 -4 -11 -10z"/>
<path d="M2560 760 c0 -5 5 -10 10 -10 6 0 10 5 10 10 0 6 -4 10 -10 10 -5 0
-10 -4 -10 -10z"/>
<path d="M1705 750 c3 -5 8 -10 11 -10 2 0 4 5 4 10 0 6 -5 10 -11 10 -5 0 -7
-4 -4 -10z"/>
<path d="M1880 749 c0 -5 5 -7 10 -4 6 3 10 8 10 11 0 2 -4 4 -10 4 -5 0 -10
-5 -10 -11z"/>
<path d="M1935 750 c3 -5 8 -10 11 -10 2 0 4 5 4 10 0 6 -5 10 -11 10 -5 0 -7
-4 -4 -10z"/>
<path d="M2060 750 c0 -5 5 -10 11 -10 5 0 7 5 4 10 -3 6 -8 10 -11 10 -2 0
-4 -4 -4 -10z"/>
<path d="M2010 740 c0 -5 5 -10 11 -10 5 0 7 5 4 10 -3 6 -8 10 -11 10 -2 0
-4 -4 -4 -10z"/>
<path d="M2141 734 c0 -11 3 -14 6 -6 3 7 2 16 -1 19 -3 4 -6 -2 -5 -13z"/>
<path d="M2178 731 c-9 -11 -14 -22 -11 -25 8 -7 35 22 31 34 -2 6 -11 2 -20
-9z"/>
<path d="M2410 740 c0 -5 5 -10 10 -10 6 0 10 5 10 10 0 6 -4 10 -10 10 -5 0
-10 -4 -10 -10z"/>
<path d="M2590 739 c0 -5 5 -7 10 -4 6 3 10 8 10 11 0 2 -4 4 -10 4 -5 0 -10
-5 -10 -11z"/>
<path d="M1735 730 c-3 -5 -1 -10 4 -10 6 0 11 5 11 10 0 6 -2 10 -4 10 -3 0
-8 -4 -11 -10z"/>
<path d="M1910 730 c0 -5 5 -10 11 -10 5 0 7 5 4 10 -3 6 -8 10 -11 10 -2 0
-4 -4 -4 -10z"/>
<path d="M2378 729 c14 -15 17 -43 3 -34 -5 3 -12 1 -16 -5 -3 -5 1 -10 9 -10
8 0 20 8 25 18 7 14 5 21 -12 31 -18 11 -20 11 -9 0z"/>
<path d="M2490 730 c0 -5 5 -10 10 -10 6 0 10 5 10 10 0 6 -4 10 -10 10 -5 0
-10 -4 -10 -10z"/>
<path d="M2540 729 c0 -5 5 -7 10 -4 6 3 10 8 10 11 0 2 -4 4 -10 4 -5 0 -10
-5 -10 -11z"/>
<path d="M1860 720 c0 -5 5 -10 10 -10 6 0 10 5 10 10 0 6 -4 10 -10 10 -5 0
-10 -4 -10 -10z"/>
<path d="M2041 714 c0 -11 3 -14 6 -6 3 7 2 16 -1 19 -3 4 -6 -2 -5 -13z"/>
<path d="M2090 719 c0 -5 5 -7 10 -4 6 3 10 8 10 11 0 2 -4 4 -10 4 -5 0 -10
-5 -10 -11z"/>
<path d="M2260 720 c0 -5 5 -10 10 -10 6 0 10 5 10 10 0 6 -4 10 -10 10 -5 0
-10 -4 -10 -10z"/>
<path d="M2437 712 c-10 -10 -17 -22 -17 -27 0 -5 9 1 21 14 12 12 19 24 17
27 -3 2 -12 -4 -21 -14z"/>
<path d="M2226 705 c10 -8 24 -14 29 -14 6 0 1 6 -9 14 -11 8 -24 15 -30 15
-5 0 -1 -7 10 -15z"/>
<path d="M2345 710 c-3 -5 -1 -10 4 -10 6 0 11 5 11 10 0 6 -2 10 -4 10 -3 0
-8 -4 -11 -10z"/>
<path d="M2295 700 c4 -6 11 -8 16 -5 14 9 11 15 -7 15 -8 0 -12 -5 -9 -10z"/>
<path d="M2470 700 c0 -5 5 -10 11 -10 5 0 7 5 4 10 -3 6 -8 10 -11 10 -2 0
-4 -4 -4 -10z"/>
<path d="M2015 690 c-3 -5 -1 -10 4 -10 6 0 11 5 11 10 0 6 -2 10 -4 10 -3 0
-8 -4 -11 -10z"/>
<path d="M2195 690 c-3 -5 -1 -10 4 -10 6 0 11 5 11 10 0 6 -2 10 -4 10 -3 0
-8 -4 -11 -10z"/>
<path d="M2595 690 c3 -5 8 -10 11 -10 2 0 4 5 4 10 0 6 -5 10 -11 10 -5 0 -7
-4 -4 -10z"/>
<path d="M2660 690 c0 -5 5 -10 11 -10 5 0 7 5 4 10 -3 6 -8 10 -11 10 -2 0
-4 -4 -4 -10z"/>
<path d="M2090 680 c0 -5 5 -10 10 -10 6 0 10 5 10 10 0 6 -4 10 -10 10 -5 0
-10 -4 -10 -10z"/>
<path d="M2142 678 c-7 -7 -12 -19 -12 -27 0 -11 5 -8 16 7 18 25 15 39 -4 20z"/>
<path d="M2277 683 c-4 -3 -7 -11 -7 -17 0 -6 5 -5 12 2 6 6 9 14 7 17 -3 3
-9 2 -12 -2z"/>
<path d="M2320 681 c0 -6 5 -13 10 -16 6 -3 10 1 10 9 0 9 -4 16 -10 16 -5 0
-10 -4 -10 -9z"/>
<path d="M2217 662 c-10 -10 -17 -22 -17 -27 0 -5 9 1 21 14 12 12 19 24 17
27 -3 2 -12 -4 -21 -14z"/>
<path d="M2445 670 c4 -6 11 -8 16 -5 14 9 11 15 -7 15 -8 0 -12 -5 -9 -10z"/>
<path d="M1945 660 c-3 -5 -1 -10 4 -10 6 0 11 5 11 10 0 6 -2 10 -4 10 -3 0
-8 -4 -11 -10z"/>
<path d="M2176 655 c4 -8 8 -15 10 -15 2 0 4 7 4 15 0 8 -4 15 -10 15 -5 0 -7
-7 -4 -15z"/>
<path d="M2400 659 c0 -5 5 -7 10 -4 6 3 10 8 10 11 0 2 -4 4 -10 4 -5 0 -10
-5 -10 -11z"/>
<path d="M2575 660 c-3 -5 -1 -10 4 -10 6 0 11 5 11 10 0 6 -2 10 -4 10 -3 0
-8 -4 -11 -10z"/>
<path d="M2075 650 c-3 -5 -1 -10 4 -10 6 0 11 5 11 10 0 6 -2 10 -4 10 -3 0
-8 -4 -11 -10z"/>
<path d="M2295 650 c4 -6 11 -8 16 -5 14 9 11 15 -7 15 -8 0 -12 -5 -9 -10z"/>
<path d="M2480 649 c0 -5 5 -7 10 -4 6 3 10 8 10 11 0 2 -4 4 -10 4 -5 0 -10
-5 -10 -11z"/>
<path d="M2025 640 c3 -5 8 -10 11 -10 2 0 4 5 4 10 0 6 -5 10 -11 10 -5 0 -7
-4 -4 -10z"/>
<path d="M2250 639 c0 -5 5 -7 10 -4 6 3 10 8 10 11 0 2 -4 4 -10 4 -5 0 -10
-5 -10 -11z"/>
<path d="M2381 637 c-1 -25 25 -32 45 -12 9 9 14 18 12 21 -3 2 -11 -2 -18
-11 -16 -20 -27 -19 -33 3 -4 16 -5 16 -6 -1z"/>
<path d="M2605 640 c3 -5 8 -10 11 -10 2 0 4 5 4 10 0 6 -5 10 -11 10 -5 0 -7
-4 -4 -10z"/>
<path d="M2670 640 c0 -5 5 -10 11 -10 5 0 7 5 4 10 -3 6 -8 10 -11 10 -2 0
-4 -4 -4 -10z"/>
<path d="M2330 629 c0 -5 5 -7 10 -4 6 3 10 8 10 11 0 2 -4 4 -10 4 -5 0 -10
-5 -10 -11z"/>
<path d="M2460 629 c0 -14 29 -43 36 -36 3 3 -4 15 -15 26 -12 12 -21 16 -21
10z"/>
<path d="M2505 630 c-3 -5 -1 -10 4 -10 6 0 11 5 11 10 0 6 -2 10 -4 10 -3 0
-8 -4 -11 -10z"/>
<path d="M2230 620 c0 -5 5 -10 11 -10 5 0 7 5 4 10 -3 6 -8 10 -11 10 -2 0
-4 -4 -4 -10z"/>
<path d="M2271 614 c-7 -8 -11 -17 -9 -20 3 -2 13 5 23 16 10 11 14 20 9 20
-5 -1 -15 -8 -23 -16z"/>
<path d="M2310 611 c0 -11 4 -22 9 -25 4 -3 6 6 3 19 -5 30 -12 33 -12 6z"/>
<path d="M2630 620 c0 -5 5 -10 10 -10 6 0 10 5 10 10 0 6 -4 10 -10 10 -5 0
-10 -4 -10 -10z"/>
<path d="M2180 609 c0 -5 5 -7 10 -4 6 3 10 8 10 11 0 2 -4 4 -10 4 -5 0 -10
-5 -10 -11z"/>
<path d="M2355 610 c-3 -5 -1 -10 4 -10 6 0 11 5 11 10 0 6 -2 10 -4 10 -3 0
-8 -4 -11 -10z"/>
<path d="M2665 610 c-3 -5 -1 -10 4 -10 6 0 11 5 11 10 0 6 -2 10 -4 10 -3 0
-8 -4 -11 -10z"/>
<path d="M2435 600 c-3 -5 -1 -10 4 -10 6 0 11 5 11 10 0 6 -2 10 -4 10 -3 0
-8 -4 -11 -10z"/>
<path d="M2390 590 c0 -5 5 -10 11 -10 5 0 7 5 4 10 -3 6 -8 10 -11 10 -2 0
-4 -4 -4 -10z"/>
<path d="M2565 590 c-3 -5 -1 -10 4 -10 6 0 11 5 11 10 0 6 -2 10 -4 10 -3 0
-8 -4 -11 -10z"/>
<path d="M2285 580 c-3 -5 -1 -10 4 -10 6 0 11 5 11 10 0 6 -2 10 -4 10 -3 0
-8 -4 -11 -10z"/>
<path d="M2515 580 c3 -5 8 -10 11 -10 2 0 4 5 4 10 0 6 -5 10 -11 10 -5 0 -7
-4 -4 -10z"/>
<path d="M2415 571 c-3 -5 -1 -12 5 -16 5 -3 10 1 10 9 0 18 -6 21 -15 7z"/>
<path d="M2455 570 c-3 -6 1 -7 9 -4 18 7 21 14 7 14 -6 0 -13 -4 -16 -10z"/>
<path d="M2640 569 c0 -5 5 -7 10 -4 6 3 10 8 10 11 0 2 -4 4 -10 4 -5 0 -10
-5 -10 -11z"/>
<path d="M2540 560 c0 -5 5 -10 10 -10 6 0 10 5 10 10 0 6 -4 10 -10 10 -5 0
-10 -4 -10 -10z"/>
<path d="M2490 550 c0 -5 5 -10 10 -10 6 0 10 5 10 10 0 6 -4 10 -10 10 -5 0
-10 -4 -10 -10z"/>
<path d="M2661 543 c-18 -19 -10 -25 12 -8 10 7 15 15 10 18 -4 3 -14 -2 -22
-10z"/>
<path d="M2363 533 c9 -2 23 -2 30 0 6 3 -1 5 -18 5 -16 0 -22 -2 -12 -5z"/>
<path d="M2625 490 c3 -5 8 -10 11 -10 2 0 4 5 4 10 0 6 -5 10 -11 10 -5 0 -7
-4 -4 -10z"/>
</g>
</svg>
